<svg xmlns="http://www.w3.org/2000/svg" viewBox="0 0 24 24" class="FreeEntryModal_copyFreeEntryIcon__3NSFP"><path d="M12 10a3 3 0 100 6 3 3 0 000-6zm0 4a1 1 0 110-2 1 1 0 010 2zm-.71-6.29c.1.1.2.16.33.21a.94.94 0 00.76 0 1 1 0 00.33-.21L15 5.46A1.03 1.03 0 1013.54 4l-.54.59V1a1 1 0 00-2 0v3.59L10.46 4A1.03 1.03 0 109 5.46l2.29 2.25zM19 13a1 1 0 10-2 0 1 1 0 002 0zm1-7h-3a1 1 0 100 2h3a1 1 0 011 1v8a1 1 0 01-1 1H4a1 1 0 01-1-1V9a1 1 0 011-1h3a1 1 0 000-2H4a3 3 0 00-3 3v8a3 3 0 003 3h16a3 3 0 003-3V9a3 3 0 00-3-3zM5 13a1 1 0 102 0 1 1 0 00-2 0z" fill="#c61d23"></path></svg>