<svg fill="none" xmlns="http://www.w3.org/2000/svg" viewBox="0 0 203 99" class="Footer_logo__3_wf2">
    <path fill-rule="evenodd" clip-rule="evenodd"
        d="M36.16 99c-.16 0-.4-.03-.66-.15-.48-.18-7.17-2.84-14.86-8.93C13.43 84.2 4.01 74.27.08 59.42a3.05 3.05 0 01-.08-.76V6.46c-.01-.65.4-1.5 1.35-1.77A138.6 138.6 0 0136.15 0h.05c18.78 0 34.7 4.64 34.86 4.69a1.85 1.85 0 011.34 1.79v52.18c0 .43-.06.7-.08.77C68.4 74.27 58.98 84.2 51.76 89.92c-7.68 6.09-14.38 8.75-14.85 8.93-.27.12-.5.15-.66.15H36.16z"
        fill="#FAFBF3"></path>
    <path fill-rule="evenodd" clip-rule="evenodd"
        d="M70.8 5.58S55.08.94 36.23.93h-.03c-18.86 0-34.6 4.65-34.6 4.65-.7.2-.68.88-.68.88v52.2c0 .33.05.52.05.52 7.47 28.26 34.87 38.8 34.87 38.8.16.08.3.09.36.1h.03c.06-.01.2-.02.35-.1 0 0 27.4-10.54 34.88-38.8 0 0 .05-.19.05-.52V6.46s0-.67-.7-.88z"
        fill="#0D0802"></path>
    <path fill-rule="evenodd" clip-rule="evenodd"
        d="M36.22 2.9c7.81 0 15.11.82 20.94 1.77V81a61.92 61.92 0 01-7.03 6.55 62.87 62.87 0 01-13.93 8.47 62.96 62.96 0 01-13.93-8.47A61.93 61.93 0 0115.24 81V4.67C21.07 3.72 28.37 2.9 36.2 2.9h.02z"
        fill="#fff"></path>
    <path fill-rule="evenodd" clip-rule="evenodd"
        d="M53.44 24.6L41.12 11.99a2.05 2.05 0 00-2.98 0l-18.6 19.06a1.1 1.1 0 00-.26.7c0 .4.14.62.4.89l2.4 2.49c.25.25.48.4.87.4.33 0 .55-.15.72-.3l.4-.4c.93-.97 5.27-5.4 7.85-8.05l3.66 3.75-16.64 17.04a1.1 1.1 0 00-.26.71c0 .4.14.62.4.88l2.4 2.49c.25.26.47.4.87.4.32 0 .55-.15.71-.29l.4-.41 7.86-8.05c2.48 2.56 3.74 3.84 4.38 4.49-3.1.62-6.16 2.34-8.67 4.91a17.05 17.05 0 00-5 10.55 13.78 13.78 0 004.1 10.83c2.54 2.6 5.6 3.98 8.84 3.98a12.6 12.6 0 008.51-3.53l.32-.28-4.02-4.11-.27.23c-1.72 1.45-3.58 2.22-5.37 2.22-1.7 0-3.23-.69-4.56-2.05a7.55 7.55 0 01-2.2-6.92c.4-2.26 1.74-4.65 3.76-6.71 2.47-2.54 5.38-3.99 7.99-3.99 1.98 0 3.77.8 5.31 2.39 2.52 2.58 2.84 5.54.96 8.8l-.16.27 4.07 4.17.28-.34c3.9-4.86 3.24-11.32-1.7-16.44a14.42 14.42 0 00-4.51-3.18l-8.61-8.82 4.74-4.86 10.43 10.7.28-.3 2.38-2.43.13-.12c.25-.25.39-.48.39-.88 0-.34-.15-.57-.29-.74l-17.46-17.9 4.74-4.86 10.43 10.7.29-.3 2.38-2.42.12-.12c.25-.26.4-.48.4-.89 0-.33-.15-.56-.3-.73z"
        fill="#0D0802"></path>
    <path fill-rule="evenodd" clip-rule="evenodd"
        d="M52.85 25.15l-12.3-12.6a1.28 1.28 0 00-1.85 0L20.13 31.59a.25.25 0 00-.06.17c0 .1 0 .13.17.3l2.4 2.5c.17.16.2.16.3.16.07 0 .11-.02.2-.09l.18-.19 4.16-4.26 4.44-4.55 4.78 4.9L19.53 48.1a.24.24 0 00-.06.16c0 .11 0 .14.17.3l2.4 2.5c.16.16.2.16.3.16.06 0 .1-.01.2-.08l.18-.2 4.15-4.26 4.45-4.54.28.28 5.2 5.33.27.28.27.27-.77.14a15.9 15.9 0 00-8.98 4.81 16.23 16.23 0 00-4.78 10.04 12.98 12.98 0 003.88 10.2c2.38 2.44 5.25 3.74 8.28 3.74 2.71 0 5.36-1.05 7.67-3.04l-2.91-2.98a9.03 9.03 0 01-5.59 2.17c-1.89 0-3.66-.79-5.12-2.28a8.45 8.45 0 01-2.41-7.64c.43-2.43 1.84-4.97 3.97-7.15 2.61-2.68 5.73-4.22 8.55-4.22 2.2 0 4.17.89 5.87 2.63 2.7 2.76 3.12 6.05 1.24 9.51l3.01 3.1c3.32-4.49 2.6-10.33-1.92-15A13.6 13.6 0 0043 49.3l-.13-.09-9.22-9.45 5.86-6.01 10.43 10.7 2.23-2.27c.16-.17.16-.2.16-.31 0-.06-.01-.1-.08-.2l-18-18.44 5.86-6 10.44 10.69 2.22-2.27c.16-.16.16-.19.16-.3 0-.07-.01-.11-.08-.2z"
        fill="#E4221B"></path>
    <path fill-rule="evenodd" clip-rule="evenodd"
        d="M88.34 20.99v4.55h6.63v3.76h-6.63v9.88h-4.17V17.23h12.96v3.76h-8.8zM101.97 37.25c-1.76-1.63-2.73-3.95-2.73-7.3V17.29h4.1v12.99c0 2 .52 3.22 1.4 4.07.92.9 2.2 1.4 3.63 1.4 1.43 0 2.7-.5 3.62-1.4.88-.85 1.4-2.07 1.4-4.07V17.28h4.1v12.68c0 3.34-.97 5.66-2.73 7.29a9.48 9.48 0 01-6.4 2.25c-2.4 0-4.74-.75-6.39-2.25zM121.79 17.28h4.1v18.15h8.99v3.76h-13.1v-21.9zM152.4 29.33h-10.65v9.86h-4.1v-21.9h4.1v8.28h10.66v-8.29h4.1v21.9h-4.1v-9.85zM166.38 30.58h5.42l-2.71-6.48-2.71 6.48zm-7.85 8.6l9.13-21.9h2.89l9.13 21.9h-4.3l-2-4.84h-8.55l-2.01 4.85h-4.3zM192.34 30.4l7.76-13.12h2.9v21.9h-4.11v-12.2l-5.12 8.6h-2.86l-5.11-8.6v12.2h-4.11v-21.9h2.89l7.76 13.11z"
        fill="#fff"></path>
    <path fill-rule="evenodd" clip-rule="evenodd"
        d="M159.83 68.96a3.3 3.3 0 01-.08-.39 1.07 1.07 0 00-.43-.39l-.44-.18-1.8 1.27c-.55.38-1.23.57-2.05.57-.1 0-.32-.04-.64-.12a2.62 2.62 0 01-.99-.56 4 4 0 01-.95-1.28 5.58 5.58 0 01-.48-2.37v-.22c0-.1.01-.21.04-.35.34.1.65.19.92.24.26.06.56.07.9.04.8-.02 1.5-.18 2.13-.46a4.82 4.82 0 002.88-4.52c0-.49-.09-.95-.26-1.4a3.55 3.55 0 00-2.06-2.06 4.62 4.62 0 00-1.8-.33c-.99 0-1.85.25-2.59.75a6.41 6.41 0 00-1.87 1.98c-.5.82-.88 1.74-1.13 2.76a12.65 12.65 0 00-.24 4.9c.07.58.2 1.15.4 1.7a6.24 6.24 0 002.32 3.01c.43.22.95.42 1.57.61.62.2 1.15.3 1.57.3.95 0 1.73-.1 2.32-.27.6-.18 1.24-.57 1.93-1.17.21-.19.4-.41.57-.67a1.8 1.8 0 00.26-1.39zm-7.38-7.63c.1-.37.22-.68.34-.92.11-.25.24-.44.37-.57l.36-.41a.86.86 0 01.57-.4c.26-.06.51-.1.78-.1.37 0 .66.17.87.5.22.32.32.68.32 1.06 0 .65-.24 1.21-.73 1.67-.5.47-1.19.7-2.09.7a8.92 8.92 0 01-1.03-.08c.05-.6.13-1.09.24-1.45zM141.01 50c0 .4 0 .82.02 1.24l.02 1.25c0 .62 0 1.1.02 1.45l.02 1.24c0 .25-.03.54-.1.88-.06.34-.3.51-.73.51-.35.2-.66.33-.96.4-.29.1-.57.16-.85.21l-.85.17c-.3.05-.61.15-.96.28-.13.47-.2.85-.2 1.15.2.21.47.5.84.85.37.36.82.53 1.35.53.42 0 .8-.08 1.11-.24.32-.16.72-.29 1.2-.37.05.11.08.21.1.3l.01.31.08 3.98c.03 1.32.08 2.65.16 3.98.03.55.09 1.15.18 1.8.1.65.2 1.17.34 1.55.2.38.47.7.77.96.3.26.64.39 1.01.39l.48-.08c.29-.08.56-.23.8-.45.23-.22.35-.56.35-1.02 0-.33-.05-.68-.16-1.07-.1-.38-.2-.76-.28-1.14-.2-1.22-.4-2.5-.57-3.81a29.36 29.36 0 01-.24-4.37 6.46 6.46 0 000-1 6.72 6.72 0 01-.02-.53c0-.33.1-.6.32-.82.2-.22.46-.4.75-.53.3-.14.6-.25.94-.35a14.37 14.37 0 011.67-.53c.27-.07.53-.15.77-.26.23-.11.43-.27.6-.47.15-.2.23-.49.23-.84 0-.3-.07-.6-.2-.9-.13-.3-.38-.45-.75-.45-.69 0-1.3.12-1.8.35-.52.23-1.13.35-1.82.35-.2 0-.33-.07-.35-.2a2.32 2.32 0 01-.04-.46c0-.35 0-.69.02-1.02l.02-.94c0-.43 0-.86.02-1.28a45.2 45.2 0 00-.02-2.53c-.03-.42-.04-.92-.04-1.5 0-.3-.03-.6-.08-.91-.06-.31-.16-.6-.3-.84a1.74 1.74 0 00-.63-.61 2.14 2.14 0 00-1.1-.24c-.2 0-.38.03-.51.1l-.52.26c-.08.38-.12.74-.12 1.06V50z"
        fill="#E2211C"></path>
    <path fill-rule="evenodd" clip-rule="evenodd"
        d="M129.22 50c0 .4 0 .82.02 1.24l.02 1.25c0 .62 0 1.1.02 1.45l.02 1.24c0 .25-.03.54-.1.88-.07.34-.31.51-.73.51-.35.2-.67.33-.96.4-.29.1-.57.16-.85.21l-.85.17c-.3.05-.61.15-.96.28-.13.47-.2.85-.2 1.15.19.21.47.5.84.85.37.36.82.53 1.35.53.42 0 .8-.08 1.11-.24.32-.16.71-.29 1.19-.37.05.11.09.21.1.3l.02.31.08 3.98c.03 1.32.08 2.65.16 3.98.02.55.08 1.15.18 1.8.09.65.2 1.17.33 1.55.22.38.47.7.78.96.3.26.64.39 1.01.39l.48-.08c.29-.08.55-.23.8-.45.23-.22.35-.56.35-1.02 0-.33-.06-.68-.16-1.07-.1-.38-.2-.76-.28-1.14a92.4 92.4 0 01-.57-3.81 29.53 29.53 0 01-.24-4.37 6.45 6.45 0 000-1 6.26 6.26 0 01-.02-.53c0-.33.1-.6.32-.82.2-.22.46-.4.75-.53.3-.14.6-.25.93-.35a14.37 14.37 0 011.67-.53c.28-.07.54-.15.77-.26.24-.11.44-.27.6-.47.16-.2.24-.49.24-.84 0-.3-.07-.6-.2-.9-.13-.3-.38-.45-.75-.45-.7 0-1.3.12-1.81.35a4.4 4.4 0 01-1.8.35c-.22 0-.34-.07-.36-.2a2.32 2.32 0 01-.04-.46c0-.35 0-.69.02-1.02l.02-.94.01-1.28a41.71 41.71 0 00-.01-2.53c-.03-.42-.04-.92-.04-1.5 0-.3-.03-.6-.08-.91a2.4 2.4 0 00-.3-.84 1.73 1.73 0 00-.64-.61 2.14 2.14 0 00-1.09-.24c-.21 0-.38.03-.52.1l-.51.26c-.08.38-.12.74-.12 1.06V50zM110.2 61.76v1.14c0 .38-.03.76-.08 1.14 0 1.63.05 3 .14 4.12.1 1.12.27 2.03.52 2.74.25.7.6 1.22 1.07 1.53.46.31 1.08.47 1.85.47.71 0 1.38-.27 2-.8a8.89 8.89 0 001.65-1.87c.48-.72.9-1.47 1.25-2.23l.85-1.84.16-.32c.08.65.17 1.28.28 1.9.1.6.27 1.17.5 1.67.22.5.51.93.87 1.29.36.35.83.6 1.4.73.2-.05.38-.1.56-.12.19-.03.36-.08.52-.14.16-.07.3-.18.42-.33.12-.15.2-.36.26-.64-.11-.24-.23-.45-.36-.63l-.44-.55a5.78 5.78 0 01-.85-2.26c-.17-.94-.26-2.07-.26-3.37 0-.65.05-1.44.14-2.35.1-.91.14-2.17.14-3.77a2.46 2.46 0 00-.64-.66c-.29-.22-.54-.32-.75-.32l-.08-.02a.17.17 0 00-.08-.03c-.66 0-1.13.1-1.41.29-.28.2-.46.43-.54.71-.08.29-.1.61-.1.96.02.36-.03.71-.13 1.07a47.6 47.6 0 01-1.04 2.9 33.02 33.02 0 01-1.39 3.1 18 18 0 01-1.52 2.5c-.52.7-1 1.08-1.41 1.13-.06-.57-.12-1.4-.2-2.51-.08-1.1-.12-2.3-.12-3.61 0-.38.03-.8.1-1.23.06-.43.1-1.05.1-1.84 0-.46.04-.86.12-1.2.08-.34.11-.73.11-1.16 0-.52-.2-.91-.63-1.19a3.08 3.08 0 00-1.27-.49 4.11 4.11 0 00-1.01.35c-.12.07-.2.13-.22.18a8.6 8.6 0 00-.4 2c-.05.68-.08 1.4-.08 2.13v1.43zM106.13 67.88c-.22-1.3-.33-2.5-.33-3.55l-.02-1.2c-.02-.43-.03-.87-.03-1.33 0-.66 0-1.3-.03-1.94a48 48 0 01-.04-2.02c0-.82 0-1.64.02-2.47l.02-2.8c0-.7.06-1.42.2-2.14.13-.72.2-1.44.2-2.15 0-.35-.1-.62-.29-.81a1.99 1.99 0 00-.67-.45c-.27-.11-.55-.18-.85-.2-.3-.03-.57-.05-.78-.05-.26.22-.47.44-.63.66-.16.22-.24.5-.24.85 0 1.56-.08 3.04-.22 4.47-.15 1.43-.22 2.9-.22 4.4 0 1.14 0 2.23.02 3.28l.02 3.57c0 .49.03 1.23.1 2.2.07.98.2 1.97.42 2.96.2 1 .51 1.87.91 2.62s.93 1.12 1.59 1.12c.37 0 .73-.1 1.1-.3.35-.21.53-.53.53-.97 0-.05-.02-.1-.04-.16a52.32 52.32 0 01-.73-3.6zM95.27 63.35c1.17-.57 1.83-1.39 1.99-2.45 0-.41-.27-.64-.8-.7-.05 0-.1 0-.17-.02a5.64 5.64 0 00-1.33.12c-.45.1-.94.23-1.47.4-1.4.4-2.36.6-2.86.6-.1 0-.21 0-.32-.02-.1 0-.23-.03-.36-.06a82.56 82.56 0 01-.12-7.91c.03-.88.07-1.75.12-2.62.35-.1.86-.3 1.53-.57l2.68-1.1a26.4 26.4 0 012.32-.86c.7-.22 1.36-.35 1.97-.4.21 0 .47.06.77.2.3.13.58.2.82.2h.16c.53-.1.96-.39 1.29-.84.33-.44.5-.94.5-1.48 0-.44-.18-.79-.54-1.05a2.08 2.08 0 00-1.25-.38c-1.88.05-4.34.58-7.39 1.59-1.75.6-3.21 1.06-4.4 1.39-1.2.32-2.12.54-2.79.65-.95.14-1.42.54-1.42 1.22 0 .52.24 1.02.73 1.5.49.47.99.79 1.49.95 0 .17 0 .32.02.47l.02.43a494.78 494.78 0 00.28 5.43c0 .87-.04 1.68-.1 2.43-.07.75-.17 1.43-.3 2.06a.82.82 0 00-.32-.04c-.21 0-.41.12-.61.37a.91.91 0 01-.74.37 3.73 3.73 0 00-.24 1.3c0 .2.02.3.04.33.16.16.55.38 1.15.65.48.2.75.48.8.86.1.46.16 1.13.16 2a23.86 23.86 0 01-.08 1.96 91.25 91.25 0 00-.28 3.96c0 1.17.13 2.15.4 2.94.1.35.33.68.67.98.35.3.68.45 1 .45.31 0 .55-.15.71-.45.71-1.34 1.07-3.19 1.07-5.56 0-.62-.04-1.62-.12-2.98a142.36 142.36 0 01-.08-2.98 21.74 21.74 0 01.08-1.83 47.9 47.9 0 012.07-.41l3.25-1.1zM171.13 55.69c-1.1-1.14-3.15-1.13-4.04.84-.5 1.08-1.07 2.1-1.67 3.25-.05-.27-.1-.44-.1-.62a6.52 6.52 0 00-.84-2.68c-.35-.6-.9-.78-1.44-.5-.6.3-.92.9-.83 1.58.06.4.13.82.16 1.23.2 2.57.41 5.13.58 7.7.09 1.44.09 2.88.12 4.32.03.98.64 1.7 1.47 1.7.86 0 1.5-.52 1.7-1.51.12-.59.11-1.22.12-1.83 0-1-.27-2.02.04-3.01.45-1.43.91-2.86 1.4-4.27.27-.73.54-1.48.94-2.1.9-1.38 1.7-1.4 2.37.05.26.57.68.78 1.14.9.67.19 1.11-.34 1.05-1.14a4.4 4.4 0 00-1.28-3.08c-.3-.27-.61-.53-.9-.83z"
        fill="#E2211C"></path>
</svg>