<svg xml:space="preserve" width="1020.4" height="561" viewBox="0 0 371.055 204" xmlns="http://www.w3.org/2000/svg"><path d="M118.112 37.828v1.68a3.635 3.635 0 0 0 3.608 3.607h2.809c2.14 0 3.65-1.343 3.65-3.19 0-5.787-13.843-7.046-13.843-15.016 0-4.112 3.229-6.964 7.802-6.964h1.971c4.323 0 7.845 3.48 7.845 7.802v1.258h-4.194v-1.258c0-2.013-1.636-3.608-3.651-3.608h-1.97c-2.267 0-3.609 1.048-3.609 2.77 0 4.446 13.844 6.166 13.844 15.018 0 4.193-3.398 7.383-7.845 7.383h-2.81a7.788 7.788 0 0 1-7.803-7.803v-1.679h4.196m26.764-1.509h8.558l-4.237-11.746h-.085zm13.509 1.341v9.65h-4.196v-6.796h-10.07v6.796h-4.193v-9.65l7.131-19.715h4.195l7.133 19.715m19.759-15.52v20.974h7.132v4.196h-18.46v-4.196h7.132V22.14h-7.131v-4.196h18.459v4.194h-7.132m36.329-4.194V47.31h-6.083l-8.18-22.317V47.31h-4.196V17.945h6.084l8.18 22.317V17.945h4.195m27.69 4.194h-7.134v25.17h-4.196V22.14h-7.13v-4.194h18.46v4.194m10.906 15.69v1.678a3.635 3.635 0 0 0 3.606 3.608h2.812c2.139 0 3.65-1.343 3.65-3.19 0-5.787-13.844-7.046-13.844-15.016 0-4.112 3.23-6.964 7.802-6.964h1.972c4.322 0 7.846 3.48 7.846 7.802v1.258h-4.195v-1.258c0-2.013-1.637-3.608-3.65-3.608h-1.973c-2.264 0-3.606 1.048-3.606 2.77 0 4.446 13.844 6.166 13.844 15.018 0 4.193-3.399 7.383-7.846 7.383h-2.812a7.787 7.787 0 0 1-7.801-7.803v-1.679h4.195m-134.957 23.95v8.936h12.585v4.196H118.11v12.04h-4.194V57.583h18.458v4.195h-14.262m35.112 17.578V65.134a3.313 3.313 0 0 0-3.356-3.358h-3.356a3.339 3.339 0 0 0-3.355 3.358v14.222a3.365 3.365 0 0 0 3.355 3.355h3.356a3.365 3.365 0 0 0 3.356-3.355zm-6.712 7.592c-4.154 0-7.551-3.44-7.551-7.592V65.134a7.547 7.547 0 0 1 7.55-7.552h3.357a7.521 7.521 0 0 1 7.552 7.552v14.222c0 4.152-3.358 7.592-7.552 7.592h-3.356m38.805-7.592c0 4.152-3.397 7.592-7.55 7.592h-3.358c-4.193 0-7.55-3.44-7.55-7.592V57.583h4.195v21.773a3.365 3.365 0 0 0 3.355 3.355h3.357a3.365 3.365 0 0 0 3.355-3.355V57.583h4.196v21.773m29.156-21.773v29.364h-6.083l-8.18-22.317v22.318h-4.196V57.583h6.084l8.18 22.32v-22.32h4.195m25.254 7.55a3.339 3.339 0 0 0-3.356-3.355h-6.71V82.71h6.71a3.365 3.365 0 0 0 3.356-3.355zm4.196 0v14.225c0 4.152-3.398 7.592-7.552 7.592h-10.906V57.584h10.906a7.547 7.547 0 0 1 7.552 7.552m13.551 10.822h8.557l-4.237-11.747h-.083zm13.508 1.342v9.647h-4.196v-6.796h-10.067v6.797h-4.196V77.3l7.132-19.716h4.195l7.132 19.716m24.961-15.521h-7.132v25.17h-4.196v-25.17h-7.13v-4.195h18.458v4.195m18.667 0v20.976h7.133v4.193h-18.46v-4.195h7.132V61.776h-7.132v-4.194h18.46v4.194h-7.133m30.416 17.58V65.134a3.315 3.315 0 0 0-3.358-3.358h-3.354a3.339 3.339 0 0 0-3.356 3.358v14.222a3.365 3.365 0 0 0 3.356 3.355h3.354a3.367 3.367 0 0 0 3.358-3.355zm-6.712 7.592c-4.154 0-7.55-3.44-7.55-7.592V65.134a7.547 7.547 0 0 1 7.55-7.552h3.354a7.521 7.521 0 0 1 7.554 7.552v14.222c0 4.152-3.358 7.592-7.554 7.592h-3.354m39.644-29.365v29.364h-6.083l-8.18-22.317v22.318H359.5V57.583h6.083l8.181 22.32v-22.32h4.195M57.152 46.155c-.073-.867-1.421-1.648-1.887-1.853l-.3-.132-.004-.327c-.018-2.23-1.39-2.563-2.205-2.563l-.303.02-.16-.14c-.72-.629-1.488-.948-2.285-.948-1.56 0-2.753 1.192-2.765 1.204l-.328.334-.358-.298c-1.101-.916-2.218-1.38-3.32-1.38-2.186 0-3.696 1.85-3.71 1.867l-.296.37-.39-.267c-.03-.022-.786-.523-1.598-.523-.76 0-1.34.473-1.727 1.407l-.133.32-.347-.008c-.172 0-1.7.026-2.35.962-.429.616-.42 1.544.027 2.758l.115.302-.23.231c-.013.013-1.357 1.387-1.087 2.632.153.7.813 1.276 1.962 1.71l.176.066.09.165c.012.02.988 1.78 2.4 1.78.79 0 1.62-.55 2.466-1.634l.164-.212.266.017c.077 0 .522-.019.836-.367.32-.36.436-.968.342-1.81l-.096-.85.792.326c.104.04 1.054.402 2.276.402.847 0 1.627-.173 2.32-.512l.47-.228.216.476c.004.008.364.774 1.02.774.217 0 .458-.078.716-.23l1.016-.594-.267 1.146s-.03.187.09.36c.134.187.434.322.846.38l.164.022.243.24c.74.848 1.46 1.273 2.14 1.273 1.196 0 2.03-1.297 2.066-1.353l.107-.176.204-.05c.959-.234 1.521-.592 1.68-1.068.23-.697-.444-1.54-.473-1.577l-.36-.435.472-.313c.905-.592 1.34-1.163 1.297-1.696zm-9.195 5.07a1.327 1.327 0 0 1-.098-.25 2.005 2.005 0 0 1-.647.113 1.78 1.78 0 0 1-1.17-.448l.087 1.771zm-6.104-.767a8.014 8.014 0 0 1-.746-.172c.008.542-.076 1.006-.247 1.39l.903.774zm14.779-2.094c.276.435.673 1.26.404 2.08-.247.75-.972 1.288-2.16 1.603-.283.407-1.261 1.64-2.715 1.64h-.002c-.891 0-1.774-.472-2.626-1.392l-3 1.737v.732s4.076 2.29-.893 2.2v.031c-1.74 1.448-3.39.013-3.39.013-4.969.086-.895-2.193-.895-2.193v-.737l-1.683-1.307a2.224 2.224 0 0 1-.49.1c-.987 1.217-2.01 1.835-3.043 1.835-1.694 0-2.81-1.647-3.09-2.112-1.37-.543-2.17-1.312-2.38-2.29-.306-1.416.75-2.785 1.162-3.254-.475-1.398-.427-2.52.146-3.344.77-1.107 2.24-1.295 2.836-1.326.67-1.418 1.68-1.725 2.43-1.725.76 0 1.449.31 1.814.51.534-.57 2.05-1.955 4.179-1.955 1.227 0 2.447.464 3.63 1.384.486-.41 1.66-1.246 3.142-1.246.97 0 1.893.36 2.744 1.068h.004c.496 0 2.922.158 3.064 3.195.565.287 2.081 1.175 2.19 2.47.068.795-.396 1.562-1.378 2.283zm-6.559 25.294c-.076.046.07.286.087.554a1.061 1.061 0 0 1-.307.783c-.377.376-.441.667-.441.667s-.12.272-.035.797a1.067 1.067 0 0 1-.213.813c-.17.208-.427.316-.393.398.036.093.464.053.748-.163a1.31 1.31 0 0 0 .518-.933c.036-.404.122-.663.122-.663s.088-.273.294-.621c.286-.478.174-.914.13-1.059-.102-.343-.426-.625-.51-.573zm-3.41-5.54c.24.473.497.624.497.624s.223.197.747.28c.334.052.59.266.708.453.146.227.169.505.257.499.099-.008.195-.427.076-.764a1.305 1.305 0 0 0-.727-.782c-.373-.158-.593-.32-.593-.32s-.232-.168-.5-.473a1.296 1.296 0 0 0-.965-.45c-.358-.009-.727.213-.704.309.02.084.293.021.554.09a1.061 1.061 0 0 1 .648.532zm-8.78 9.16a1.063 1.063 0 0 1-.211-.814c.085-.524-.036-.797-.036-.797s-.063-.29-.439-.667a1.063 1.063 0 0 1-.306-.782c.014-.268.16-.507.085-.554-.085-.053-.41.231-.51.574a1.293 1.293 0 0 0 .129 1.057c.208.348.29.61.29.61s.09.271.127.675a1.293 1.293 0 0 0 .517.932c.284.218.712.255.75.163.033-.08-.224-.19-.395-.397zm12.83-4.028c-.75-.76-2.226-.814-4.392-.162-.93.283-1.094.523-1.088.57.014.097.287.266.502.34.405.108.698.226.884.353l.008-.004.089.076c.123.113.17.264.125.404a.393.393 0 0 1-.338.261c-.212.023-.558-.05-1.054-.228-.208-.062-.508-.09-.6-.025a.035.035 0 0 0-.013.019l-.003.016c-.008.064.003.336.558 1.066 1.196 1.567 2.937 3.206 4.442 2.112.747-.544 1.152-1.53 1.258-1.82.004-.013.6-1.985-.378-2.978zm-5.693 2.956c-.557-.798-.837-.879-.88-.858-.088.044-.164.356-.168.583.023.419.001.733-.063.95l.007.006-.045.108c-.07.152-.2.243-.344.244a.396.396 0 0 1-.355-.24c-.087-.196-.121-.547-.11-1.072-.002-.217-.069-.513-.16-.579-.005-.004-.009-.006-.02-.006l-.017.001c-.065.01-.32.107-.842.86-1.12 1.62-2.142 3.783-.636 4.876.748.544 1.812.624 2.12.633.013 0 2.073-.042 2.714-1.278.492-.947.087-2.37-1.202-4.227zm-3.37-.275c.587-.773.58-1.067.545-1.099-.07-.072-.387-.048-.606.02-.392.15-.698.227-.922.234l-.003.008-.117-.01c-.167-.02-.294-.113-.34-.253a.396.396 0 0 1 .12-.41c.158-.143.48-.285.986-.435.206-.07.466-.227.5-.33 0-.008.004-.014 0-.025l-.007-.015c-.03-.057-.2-.27-1.077-.534-1.888-.566-4.261-.867-4.836.901-.285.88-.032 1.916.054 2.213.004.011.68 1.959 2.056 2.187 1.052.173 2.28-.65 3.647-2.452zm-4.238-6c.16 1.053 1.323 1.967 3.459 2.712.92.32 1.192.221 1.214.179.046-.088-.076-.384-.205-.57-.265-.325-.432-.592-.508-.806h-.01l-.026-.116c-.033-.163.017-.31.136-.399a.393.393 0 0 1 .427-.013c.185.106.42.37.72.804.129.173.357.373.469.373.004 0 .01 0 .021-.008a.035.035 0 0 0 .01-.01c.048-.049.198-.274.177-1.191-.045-1.97-.49-4.32-2.35-4.32-.926 0-1.834.562-2.089.733-.01.01-1.653 1.253-1.445 2.632zm6.345.955c-.02.973.16 1.202.206 1.21.097.016.342-.19.478-.372.228-.352.43-.594.61-.73l-.002-.01.102-.06a.38.38 0 0 1 .42.004.392.392 0 0 1 .145.403c-.044.208-.221.513-.541.93-.126.18-.244.457-.211.563.001.004.004.011.015.02a.053.053 0 0 0 .013.007c.059.028.32.101 1.187-.2 1.86-.653 3.956-1.803 3.38-3.573-.284-.88-1.1-1.568-1.342-1.759-.01-.005-1.702-1.183-2.95-.56-.952.477-1.46 1.865-1.51 4.127zm8.13 5.581-.007.023-.008.024c-.163.442-.637 1.544-1.55 2.206a2.573 2.573 0 0 1-2.147.44c.488.88.702 1.544.5 1.69-.196.144-.755-.259-1.435-.983a2.625 2.625 0 0 1-.28.948c-.843 1.627-3.173 1.723-3.435 1.73h-.05c-.47-.018-1.666-.13-2.578-.793a2.573 2.573 0 0 1-1.08-1.906c-.686.736-1.252 1.146-1.453 1-.197-.146.013-.8.493-1.67a2.643 2.643 0 0 1-.99.027c-1.807-.3-2.62-2.485-2.707-2.733l-.007-.023-.006-.023c-.13-.453-.392-1.624-.043-2.698a2.57 2.57 0 0 1 1.477-1.616c-.91-.427-1.474-.838-1.398-1.072.076-.234.762-.236 1.738-.05a2.68 2.68 0 0 1-.33-.933c-.272-1.81 1.554-3.257 1.762-3.417l.02-.015.02-.013c.39-.263 1.423-.875 2.552-.875a2.573 2.573 0 0 1 1.995.907c.122-.999.338-1.662.586-1.662.246 0 .462.654.586 1.64a2.62 2.62 0 0 1 .784-.605c1.637-.817 3.578.47 3.794.623l.02.013.02.015c.371.29 1.272 1.082 1.62 2.156a2.575 2.575 0 0 1-.245 2.177c.987-.19 1.684-.19 1.761.044.076.233-.48.64-1.378 1.063a2.653 2.653 0 0 1 .817.56c1.284 1.305.657 3.55.583 3.8zm-7.591 3.688c-.472-.243-.77-.213-.77-.213s-.297-.03-.769.213a1.063 1.063 0 0 1-.84.05c-.25-.1-.432-.31-.5-.254-.076.064.094.46.387.663a1.299 1.299 0 0 0 1.047.205c.396-.09.669-.09.669-.09s.287 0 .683.09a1.293 1.293 0 0 0 1.045-.205c.293-.203.464-.6.387-.663-.067-.056-.248.155-.5.253a1.059 1.059 0 0 1-.84-.049zm-5.87-10.679a1.067 1.067 0 0 1 .709-.45c.525-.083.746-.282.746-.282s.259-.15.499-.624a1.061 1.061 0 0 1 .65-.533c.26-.068.533-.004.553-.09.024-.094-.346-.317-.702-.309a1.304 1.304 0 0 0-.968.45c-.266.306-.49.466-.49.466s-.228.168-.602.328a1.299 1.299 0 0 0-.726.78c-.12.338-.023.758.074.764.09.006.112-.272.258-.5zM57.2 87.098c-.636.205-.636 1.249-.008 3.178.634 1.928 1.24 2.78 1.882 2.563.646-.204.646-1.256.016-3.176-.63-1.935-1.233-2.783-1.89-2.565zm-21.52 5.276 1.134.174-.22-2.332zm12.184-3.203c-.36.036-.415.11-.376.627l.225 2.241a.784.784 0 0 0 .273 0c.762-.067 1.036-.404.926-1.52-.1-1.085-.39-1.41-1.048-1.348zm-31.836-5.844c-1.158 1.661-1.48 2.657-.918 3.05.56.382 1.394-.254 2.552-1.91 1.16-1.67 1.467-2.663.907-3.063-.555-.378-1.38.254-2.541 1.923zm25.14-25.593c.002 0 .002.002.004.004l.002-.004zm-2.8-40.919 1.909 5.89h6.044l1.91-5.89-4.94-3.573zm33.8 61.793c.469-.4 1.32-.094 2.509.922l.197-.22-1.836-2.014-.18.158.083.566c-.47-.08-.828.012-1.139.28-.499.427-.67 1.023-.484 1.84.164.731.563 1.491 1.183 2.207.793.93 1.656 1.516 2.494 1.68.547.104 1.015.003 1.384-.31.728-.62.647-1.687-.253-3.038l-.341.07c.7 1.15.801 1.953.328 2.362-.63.539-1.45.04-2.794-1.537-1.337-1.558-1.716-2.475-1.152-2.966zm.002 8.123-.28-.41-.333.229c-.2.136-.29.069-.507-.244l-1.266-1.86a.5.5 0 0 0 .062-.047c.41-.273.783-.104 1.382.627l.233-.16-1.752-2.563-.227.159c.452.821.494 1.242.079 1.525a.33.33 0 0 1-.072.043l-1.127-1.646c-.264-.394-.214-.47.056-.657.707-.484 1.307-.299 2.296.773l.226-.162-1.411-1.983-3.028 2.07.275.4.24-.16c.196-.138.302-.066.512.246l2.702 3.96c.207.307.243.43.038.557l-.235.164.275.411zm-5.864 3.64-2.18-4.683c-.364-.79-.397-1.097.02-1.333l-.208-.443-1.49.692.205.452c.51-.232.728-.022 1.11.8l1.066 2.291-3.716-2.916-1.288.6.212.436.063-.028c.204-.103.333-.013.51.119l.176.126 1.712 3.688c.347.744.402 1.06-.03 1.342l.208.445 1.466-.684-.214-.44c-.487.2-.738-.03-1.1-.813l-1.44-3.126 4.596 3.626zm-6.148-1.057c-.316-.951-.76-1.72-1.306-2.214-.611-.554-1.187-.706-1.811-.498-.617.192-.99.674-1.155 1.442-.15.73-.066 1.623.248 2.586.312.962.698 1.63 1.294 2.16.63.57 1.2.74 1.804.542.6-.193.99-.709 1.16-1.529.154-.77.084-1.537-.234-2.49zm-6.913-1.035c.444-.1.943.581 1.324 1.87l.268-.05-.61-2.479-3.617.755.427 2.503.272-.05c-.167-1.342.03-2.158.467-2.249.197-.043.265.064.34.416l.985 4.756c.07.367.053.496-.184.539l-.277.062.104.48 2.082-.426-.093-.49-.275.052c-.236.048-.3-.046-.378-.413l-.98-4.767c-.075-.356-.052-.47.145-.509zm-3.257 2.128c-.12-1.25-.702-1.861-1.728-1.76l-2.455.24.052.484.3-.032c.24-.017.293.097.324.47l.461 4.765c.032.377.008.486-.234.513l-.304.03.046.497 2.216-.224-.05-.487-.356.032c-.223.017-.276-.067-.315-.453l-.19-1.916c.214-.011.393-.019.563-.04 1.248-.123 1.802-.787 1.67-2.12zm-4.871-1.465-1.788-.044-.919 4.022-.785-4.061-1.81-.045-.022.486.295.008c.242.014.28.158.269.514l-.1 4.062c-.024.844-.125 1.162-.63 1.182v.498l1.614.05.012-.498c-.524-.029-.636-.349-.608-1.218l.1-4.31 1.15 6.04.277.003 1.376-6.013-.128 5.06c-.012.37-.066.482-.303.477l-.243-.003-.018.494 2.096.046.013-.493-.29-.007c-.235 0-.277-.12-.266-.494l.115-4.794c.008-.373.057-.49.292-.485l.28.016zm-6.748 5.993c-.207-.039-.28-.155-.312-.444l-.659-6.135-.416-.066-2.053 4.876c-.301.713-.536 1.094-.893 1.137l-.072.477 1.58.235.068-.477c-.408-.094-.563-.25-.496-.67a1.98 1.98 0 0 1 .128-.46l.204-.472 1.42.207.1 1.077a2.25 2.25 0 0 1 0 .267c-.023.136-.07.2-.19.192l-.281-.02-.067.488 1.867.276zm-4.312-6.544.281.077.123-.468-2.063-.564-.122.47.269.074c.236.063.243.196.14.555l-.51 1.92-1.44-.384.509-1.92c.109-.365.176-.476.409-.408l.27.076.129-.47-2.059-.56-.133.47.274.068c.238.068.244.2.139.564l-1.245 4.623c-.096.362-.164.46-.396.39l-.275-.066-.13.477 2.062.553.135-.47-.279-.083c-.23-.063-.24-.18-.14-.54l.568-2.127 1.435.387-.574 2.13c-.098.363-.165.465-.392.395l-.272-.077-.14.484 2.076.552.122-.467-.267-.085c-.236-.059-.245-.176-.145-.541l1.244-4.624c.1-.363.168-.471.397-.411zm-5.913.428.253.093.861-2.396-3.441-1.364-1.024 2.338.272.093c.592-1.212 1.207-1.784 1.615-1.61.185.075.185.193.056.531l-1.798 4.514c-.145.35-.217.442-.444.35l-.261-.106-.18.466 1.983.787.182-.46-.266-.107c-.224-.093-.224-.217-.08-.562l1.786-4.518c.136-.333.232-.413.424-.344.411.16.463 1.002.062 2.295zm-4.223-2.845c.333-.619.556-.84.984-.686l.23-.424-1.366-.733-.224.435c.003 0 .027.012.03.017.423.22.354.58.023 1.212l-1.164 2.172c-.397.744-.673 1.213-1.086 1.443a.893.893 0 0 1-.834 0c-.622-.324-.597-.967-.017-2.048l1.607-3.007c.176-.33.265-.417.482-.303l.248.132.23-.43-1.891-1.007-.221.433.245.134c.21.112.197.236.023.573l-1.738 3.24c-.693 1.324-.568 2.267.41 2.777.636.355 1.221.288 1.813-.214.403-.344.675-.831 1.02-1.48zm-5.341-.86c.573-.827.913-1.656.976-2.382.076-.829-.15-1.37-.687-1.749-.533-.361-1.13-.376-1.85-.036-.669.312-1.333.907-1.913 1.743-.58.824-.88 1.537-.946 2.341-.072.847.142 1.408.664 1.77.506.354 1.156.35 1.916 0 .709-.335 1.266-.865 1.84-1.687zm-5.112-6.516c.409-.472.872-.584 1.228-.263.466.392.33 1.16-.287 2.437l.187.184 1.578-1.913-.178-.16-.511.16c-.027-.464-.175-.823-.46-1.075-.657-.566-1.69-.264-2.48.64-.79.912-.81 1.639-.367 2.544.232.478.44.787.44 1.067 0 .196-.125.444-.316.664-.448.507-.938.64-1.312.315-.512-.443-.409-1.388.33-2.724l-.214-.183-1.753 2.08.18.16.625-.208c-.022.559.138.919.48 1.227.696.602 1.675.312 2.536-.668.414-.487.674-.984.752-1.414.082-.482-.082-.796-.284-1.204-.392-.73-.69-1.074-.174-1.666zm8.249-43.396-3.924-8.181c-1.313 1.094-2.51 1.886-3.64 1.886-.27 0-.53-.045-.78-.138l3.964 8.43.087.183c1.226.376 2.713-.82 4.293-2.18zm-7.039-10.248a32.395 32.395 0 0 0 1.608-1.207l-2.146-4.3c-.987.542-2.016 1.374-2.987 2.455-.3.33-.57.673-.841 1.013l1.998 4.259c.254-.7 1.196-1.38 2.368-2.22ZM12.93 40.187 6.147 26.643a8.19 8.19 0 0 1-1.756.495l.949 1.96-2.723.745.935 1.87 2.733-.747.939 1.87-2.735.743.931 1.86 2.74-.739.952 1.872-2.757.734.933 1.865 2.76-.732 1.213 2.336c.578-.16 1.132-.365 1.667-.59zm3.574-15.885 1.077 2.157c.45-.38.91-.786 1.375-1.202.469-.418.949-.844 1.44-1.264l-1.572-2.811-.007-.013-.001.012c-.191 1.197-1.174 2.213-2.312 3.12zm5.942-1.203 3.024 9.272c1.042-.578 2.156-.976 3.374-.976.042 0 .089.01.132.013l-1.352-10.247c-.074-.003-.143-.018-.216-.018-1.752 0-3.407.838-4.96 1.956zM21.11 37.423V57.85c.44.568 1.34.974 2.424.974 1.134 0 2.107-.444 2.507-1.089.403.645 1.376 1.09 2.528 1.09 1.135 0 2.116-.458 2.51-1.091h.01c.4.633 1.377 1.09 2.516 1.09 1.143 0 2.124-.444 2.524-1.089.399.645 1.379 1.09 2.528 1.09 1.137 0 2.107-.457 2.516-1.087.4.63 1.37 1.086 2.516 1.086 1.136 0 2.123-.444 2.527-1.089.394.645 1.366 1.09 2.512 1.09 1.144 0 2.12-.458 2.513-1.091h.013c.403.633 1.373 1.09 2.523 1.09 1.142 0 2.114-.444 2.516-1.089.402.645 1.373 1.09 2.522 1.09 1.147 0 2.123-.458 2.527-1.091.387.633 1.373 1.09 2.523 1.09 1.073 0 1.988-.402 2.422-.989l-.005-20.395a.2.2 0 0 1-.024-.017H47.191c-1.48.792-2.838 1.344-3.964 1.344s-2.483-.552-3.96-1.344zm11.758-25.51c2.12-3.388 5.82-5.704 10.057-5.856v-.01l.453.003c4.404.053 8.263 2.448 10.42 5.976.846-.605 1.323-1.263 1.323-1.899 0-2.05-4.807-4.333-11.707-4.333-6.898 0-11.706 2.284-11.706 4.333 0 .598.413 1.214 1.16 1.787zm.114 13.257v7.63c1.1.587 2.244 1.288 3.376 1.987l.835.512v-6.128a12.547 12.547 0 0 1-4.21-4.004zm10.694 5.672v.008l-.451-.003a12.1 12.1 0 0 1-1.6-.136v6.919c.587.212 1.132.342 1.601.342.47 0 1.01-.13 1.598-.338v-6.892a12.421 12.421 0 0 1-1.147.1zm5.585-1.579v6.04l.84-.516c1.13-.697 2.275-1.396 3.373-1.984v-7.416a12.559 12.559 0 0 1-4.213 3.876zm5.493-10.813c0-.51-.04-1.013-.104-1.507l-.79.347-3.742-2.348-.133-4.687.723-.56a11.539 11.539 0 0 0-3.743-2.146v.893l-3.673 2.403v.008l-3.662-2.41V7.55a11.521 11.521 0 0 0-3.737 2.145l.72.56-.13 4.687-3.749 2.35-.784-.346a11.453 11.453 0 0 0 1.648 7.59l.928-1.173 4.454.727 2.429 4.127-.916 1.394a11.441 11.441 0 0 0 2.808.367 11.35 11.35 0 0 0 2.807-.367l-.91-1.394 2.43-4.127 4.44-.727L53 24.54a11.444 11.444 0 0 0 1.752-6.09zm-22.965-4.36c.155-.407.325-.803.52-1.187-1.1-.81-1.74-1.753-1.74-2.776 0-3.07 5.643-5.473 12.845-5.473 7.204 0 12.847 2.404 12.847 5.473 0 1.075-.703 2.064-1.912 2.902.185.376.35.762.497 1.158 2.259-1.344 3.63-3.086 3.63-4.996 0-4.253-6.751-7.69-15.074-7.69-8.338 0-15.074 3.437-15.074 7.69 0 1.863 1.302 3.568 3.46 4.899zm25.684 17.32c.044-.003.095-.015.14-.015 1.217 0 2.333.397 3.373.977l3.024-9.271c-1.554-1.12-3.212-1.958-4.966-1.958-.074 0-.144.014-.215.016zm-33.94 30.266c1.134 0 2.107-.452 2.507-1.092.403.64 1.376 1.094 2.528 1.094 1.135 0 2.116-.463 2.51-1.099h.01c.4.637 1.377 1.097 2.516 1.097 1.143 0 2.124-.452 2.524-1.092.399.64 1.379 1.094 2.528 1.094 1.137 0 2.107-.46 2.516-1.094.4.634 1.37 1.094 2.516 1.094 1.136 0 2.123-.454 2.527-1.094.394.64 1.366 1.094 2.512 1.094 1.144 0 2.12-.463 2.513-1.099h.013c.403.637 1.373 1.097 2.523 1.097 1.142 0 2.114-.452 2.516-1.092.402.64 1.373 1.094 2.522 1.094 1.147 0 2.123-.463 2.527-1.099.387.637 1.373 1.097 2.523 1.097 1.073 0 1.99-.41 2.422-.992v-1.273c-.434.577-1.349.981-2.422.981-1.15 0-2.135-.448-2.523-1.08-.404.632-1.381 1.08-2.527 1.08-1.15 0-2.12-.445-2.522-1.08-.402.635-1.374 1.08-2.516 1.08-1.15 0-2.12-.448-2.523-1.08h-.013c-.395.632-1.37 1.08-2.513 1.08-1.147 0-2.118-.445-2.512-1.08-.404.635-1.391 1.08-2.527 1.08-1.147 0-2.117-.446-2.516-1.074-.408.628-1.379 1.074-2.516 1.074-1.148 0-2.13-.445-2.528-1.08-.4.635-1.381 1.08-2.523 1.08-1.14 0-2.117-.448-2.517-1.08h-.01c-.394.632-1.375 1.08-2.51 1.08-1.152 0-2.125-.445-2.527-1.08v.016c-.4.64-1.374 1.064-2.508 1.064-1.082 0-1.984-.397-2.424-.964v1.267c.44.573 1.342.981 2.424.981zm-2.424.598v13.63l.003.22c0 1.291.812 2.387 1.952 2.815l20.643 8.012 20.624-8.012a3.01 3.01 0 0 0 1.96-2.815v-13.25c0 .002-.003.002-.003.002v-.62c-.435.578-1.35.991-2.424.991-1.15 0-2.135-.457-2.524-1.09-.403.633-1.38 1.09-2.525 1.09-1.151 0-2.12-.453-2.523-1.09-.401.635-1.373 1.09-2.516 1.09-1.15 0-2.12-.457-2.523-1.09h-.013c-.395.633-1.37 1.09-2.513 1.09-1.147 0-2.118-.453-2.512-1.09-.404.635-1.391 1.09-2.527 1.09-1.147 0-2.117-.453-2.516-1.084-.408.63-1.379 1.084-2.516 1.084-1.148 0-2.13-.453-2.528-1.09-.4.635-1.381 1.09-2.523 1.09-1.14 0-2.117-.457-2.517-1.09h-.01c-.394.633-1.375 1.09-2.51 1.09-1.152 0-2.125-.453-2.527-1.09v.023c-.4.64-1.374 1.067-2.508 1.067-1.082 0-1.984-.407-2.424-.973zm43.627-27.07c1.581 1.362 3.07 2.552 4.285 2.18l4.053-8.611a2.217 2.217 0 0 1-.772.136c-1.133 0-2.329-.794-3.644-1.89zm1.324-11.21c.493.419.973.848 1.442 1.264.463.413.92.82 1.367 1.196l1.076-2.153c-1.137-.91-2.12-1.924-2.31-3.12v-.006l-.007.01zm4.104-.247a31.347 31.347 0 0 0 1.61 1.208c1.171.84 2.112 1.52 2.366 2.22l2.004-4.264c-.27-.338-.538-.68-.835-1.008-.976-1.082-2.007-1.913-2.995-2.456Zm3.36 16.437a14.13 14.13 0 0 0 1.67.586l1.21-2.33 2.757.731.933-1.864-2.749-.733.947-1.872 2.74.738.932-1.86-2.739-.742.936-1.87 2.739.746.936-1.867-2.724-.746.95-1.96a8.11 8.11 0 0 1-1.754-.496zm.812 30.216 8.781 10.587c-9.813 10.647-23.877 17.32-39.504 17.32-15.533 0-29.529-6.6-39.342-17.136l8.733-10.507a40.461 40.461 0 0 0 6.993 6.448 3.248 3.248 0 0 1-.014-.296V37.554c-.69.426-1.366.7-2.055.7-.173 0-.344-.019-.513-.054-1.311 1.584-5.303 3.783-8.898 3.783a9.773 9.773 0 0 1-.426-.01l-.298-.017L0 26.394l.908.076c.493.043.968.064 1.41.064 4.09 0 5.471-1.741 7.07-3.756.379-.473.756-.95 1.173-1.41 1.928-2.142 4.124-3.422 5.88-3.422.838 0 1.516.299 1.914.839.125.169.237.346.333.529l2.217 3.96c1.724-1.4 3.986-2.927 6.502-2.927 1.4 0 2.738.396 3.91.92a12.29 12.29 0 0 1-.338-2.82c0-.973.125-1.92.342-2.833-3.016-1.656-4.898-3.917-4.898-6.424 0-5.072 7.598-9.187 16.962-9.187 9.363 0 16.954 4.115 16.954 9.187 0 2.547-1.94 4.843-5.04 6.505a12.315 12.315 0 0 1 .322 2.752c0 .947-.118 1.864-.322 2.752 1.136-.488 2.41-.852 3.744-.852 2.52 0 4.784 1.528 6.506 2.927l2.173-3.89a4.4 4.4 0 0 1 .37-.6c.4-.54 1.082-.838 1.92-.838 1.756 0 3.956 1.28 5.888 3.423.418.464.796.94 1.162 1.402 1.6 2.019 2.98 3.762 7.074 3.762.444 0 .92-.02 1.412-.063l.908-.076-7.803 15.56-.297.017a9.816 9.816 0 0 1-.427.01c-3.585 0-7.581-2.2-8.899-3.782a2.537 2.537 0 0 1-.513.053c-.367 0-.73-.076-1.095-.212v38.775l-.002.073a40.46 40.46 0 0 0 6.916-6.489zm-33.163-9.822-.002.005c-.003-.001-.003-.005-.006-.005h.008" style="fill:#fff;fill-opacity:1;fill-rule:nonzero;stroke:none;stroke-width:.133333" transform="matrix(.97733 0 0 .93027 .833 56.273)"/></svg>