<svg fill="none" xmlns="http://www.w3.org/2000/svg" viewBox="0 0 151 57" class="MatchCard_logo__3X0ho"><path fill-rule="evenodd" clip-rule="evenodd" d="M21.23 56.71c-.1 0-.23-.02-.39-.08-.28-.1-4.2-1.63-8.72-5.12C7.88 48.24 2.35 42.55.05 34.04.04 34 0 33.84 0 33.6V3.7c0-.37.24-.86.8-1.01C.87 2.66 10.21 0 21.22 0h.03a83.33 83.33 0 0120.46 2.69c.55.15.8.64.8 1.02v29.9c0 .24-.05.4-.06.43-2.3 8.5-7.83 14.2-12.07 17.47a37.21 37.21 0 01-8.72 5.12c-.16.06-.3.08-.39.08h-.05z" fill="#F8FAEB"></path><path fill-rule="evenodd" clip-rule="evenodd" d="M41.57 3.2S32.33.54 21.27.53h-.02A81.96 81.96 0 00.94 3.2c-.41.11-.4.5-.4.5v29.9c0 .2.02.3.02.3 4.39 16.2 20.48 22.23 20.48 22.23.1.04.17.05.2.05h.02c.04 0 .12 0 .21-.05 0 0 16.1-6.04 20.48-22.23 0 0 .03-.1.03-.3V3.7s0-.39-.4-.5z" fill="#000"></path><path fill-rule="evenodd" clip-rule="evenodd" d="M21.26 1.66c4.6 0 8.88.47 12.3 1.01V46.4a37.14 37.14 0 01-12.3 8.6 37.14 37.14 0 01-12.31-8.6V2.67a79.78 79.78 0 0112.3-1.01h.01z" fill="#FFFFFE"></path><path fill-rule="evenodd" clip-rule="evenodd" d="M31.38 14.1l-7.24-7.24a1.22 1.22 0 00-1.75 0L11.47 17.79a.62.62 0 00-.15.4c0 .23.08.36.24.51l1.4 1.43c.15.14.28.23.51.23.2 0 .33-.09.43-.17l.23-.24 4.61-4.6 2.15 2.14-9.77 9.77a.63.63 0 00-.15.4c0 .23.08.35.23.5l1.41 1.43c.15.15.28.23.51.23.2 0 .32-.08.42-.16l.24-.24 4.6-4.6 2.58 2.56a10.03 10.03 0 00-5.09 2.81 9.67 9.67 0 00-2.94 6.05 7.8 7.8 0 002.41 6.2 7.28 7.28 0 005.19 2.28 7.5 7.5 0 005-2.02l.18-.16-2.35-2.36-.16.14a5.02 5.02 0 01-3.15 1.27c-1 0-1.9-.4-2.68-1.18a4.26 4.26 0 01-1.3-3.96 7.6 7.6 0 012.21-3.85c1.45-1.45 3.16-2.28 4.7-2.28 1.16 0 2.2.46 3.11 1.37 1.48 1.48 1.67 3.18.57 5.04l-.1.16 2.4 2.39.16-.2c2.29-2.79 1.9-6.48-1-9.42a8.47 8.47 0 00-2.65-1.82l-5.06-5.06L23.2 20l6.12 6.13.17-.17 1.4-1.4.07-.06c.14-.15.23-.28.23-.5 0-.2-.09-.33-.17-.43L20.77 13.31l2.78-2.79 6.13 6.13.16-.16 1.4-1.4.07-.07a.64.64 0 00.06-.93z" fill="#000"></path><path fill-rule="evenodd" clip-rule="evenodd" d="M31.03 14.4L23.81 7.2c-.3-.3-.8-.3-1.09 0l-10.9 10.9a.14.14 0 00-.03.1c0 .06 0 .07.1.17l1.4 1.43c.1.1.12.1.18.1.04 0 .06-.02.12-.06l.1-.1 2.44-2.45 2.61-2.6 2.8 2.8-10.07 10.08a.14.14 0 00-.04.1c0 .05 0 .07.1.17l1.41 1.42c.1.1.11.1.18.1.03 0 .06 0 .11-.05l.1-.1 2.45-2.45 2.6-2.6.17.16 3.05 3.05.16.16.16.15-.45.09a9.4 9.4 0 00-5.27 2.75 9.2 9.2 0 00-2.8 5.75 7.34 7.34 0 002.27 5.84 6.82 6.82 0 004.86 2.15c1.6 0 3.15-.6 4.5-1.75l-1.7-1.7a5.39 5.39 0 01-3.28 1.24 4.21 4.21 0 01-3.01-1.3 4.77 4.77 0 01-1.42-4.38 8.06 8.06 0 012.33-4.1c1.54-1.53 3.37-2.41 5.02-2.41 1.3 0 2.45.5 3.45 1.5 1.59 1.58 1.83 3.47.73 5.45l1.77 1.77c1.95-2.56 1.52-5.9-1.13-8.6a7.99 7.99 0 00-2.54-1.73l-.08-.05-5.41-5.42 3.44-3.44 6.12 6.13 1.3-1.3c.1-.1.1-.1.1-.18 0-.03 0-.06-.04-.1L20.1 13.3l3.44-3.44 6.13 6.12 1.3-1.3c.1-.09.1-.1.1-.17 0-.04 0-.06-.05-.12z" fill="#D93330"></path><path fill-rule="evenodd" clip-rule="evenodd" d="M55.65 13.37v2.76h3.93v2.28h-3.93v5.98H53.2V11.1h7.67v2.28h-5.2zM64.08 23.04c-1.09-.97-1.69-2.36-1.69-4.36V11.1h2.53v7.77c0 1.2.32 1.93.87 2.43.56.54 1.35.84 2.23.84.88 0 1.67-.3 2.23-.84.54-.5.86-1.23.86-2.43V11.1h2.53v7.58c0 2-.6 3.39-1.68 4.36a5.95 5.95 0 01-3.94 1.35 5.94 5.94 0 01-3.94-1.35zM75.18 11.1h2.57V22.1h5.61v2.28h-8.18V11.1zM93.58 18.4h-6.64v6h-2.56V11.1h2.56v5.03h6.64V11.1h2.57v13.3h-2.57v-6zM102.1 19.17h3.4l-1.7-3.93-1.7 3.93zm-4.93 5.22l5.74-13.3h1.81l5.75 13.3h-2.7l-1.27-2.94h-5.37l-1.26 2.94h-2.7zM117.63 19.05l4.84-7.95h1.8v13.3h-2.56v-7.42l-3.2 5.23h-1.78l-3.19-5.23v7.41h-2.56V11.1h1.8l4.84 7.96zM132.88 13.37v2.76h3.92v2.28h-3.93v5.98h-2.46V11.1h7.67v2.28h-5.2zM141.08 17.74a4.35 4.35 0 004.41 4.44c1.69 0 2.9-.82 3.66-1.8l1.72 1.54a6.79 6.79 0 01-5.43 2.47c-4.02 0-6.85-2.93-6.85-6.65 0-3.7 2.79-6.64 6.81-6.64 1.92 0 3.56.72 4.73 1.84l-1.6 1.7a4.31 4.31 0 00-7.44 3.1z" fill="#000"></path><path fill-rule="evenodd" clip-rule="evenodd" d="M55.93 37.21a7.5 7.5 0 00-1.13.22 8.94 8.94 0 00-.05.99 23.91 23.91 0 00.05 1.6c.04.73.06 1.27.06 1.6a6.3 6.3 0 01-.58 2.99.42.42 0 01-.4.24c-.17 0-.35-.08-.54-.24a1.13 1.13 0 01-.36-.53 4.95 4.95 0 01-.22-1.58l.03-.68a47.68 47.68 0 01.15-2l.01-.5c0-.47-.03-.83-.08-1.08-.03-.2-.18-.36-.44-.46a2.33 2.33 0 01-.63-.35c-.01-.01-.02-.07-.02-.17a2.4 2.4 0 01.13-.7.5.5 0 00.4-.2c.11-.14.22-.2.34-.2.09 0 .14 0 .17.02.08-.34.13-.7.17-1.1a14.66 14.66 0 000-2.26 235.78 235.78 0 01-.12-2.45 2.13 2.13 0 01-.82-.52c-.26-.26-.4-.52-.4-.8 0-.37.26-.59.78-.66.36-.06.87-.17 1.52-.35.65-.18 1.45-.42 2.4-.75 1.67-.54 3.02-.82 4.04-.85.26 0 .5.07.69.2.2.15.29.33.29.57 0 .29-.1.55-.27.8-.18.24-.42.39-.7.45h-.1c-.12 0-.27-.04-.44-.11a1.1 1.1 0 00-.42-.11c-.33.03-.7.1-1.07.22-.39.11-.81.27-1.27.46a145.7 145.7 0 01-2.3.9 44.9 44.9 0 000 5.66 2.81 2.81 0 00.37.04c.27 0 .8-.1 1.56-.33.29-.08.55-.15.8-.2a3.2 3.2 0 01.73-.07l.1.01c.28.03.43.15.43.37-.09.57-.45 1.01-1.09 1.32l-1.77.6zM64.97 36.09c0-.42-.16-.72-.48-.91a2.03 2.03 0 00-1.04-.28c-.3 0-.56.11-.77.33-.22.23-.4.5-.55.82a5.36 5.36 0 00-.43 2 3.35 3.35 0 00.16.89c.06.18.15.35.26.5.11.14.26.2.44.2.17 0 .32-.02.46-.07.13-.05.28-.1.45-.18.24-.14.46-.34.64-.58.18-.25.33-.51.44-.8a8.5 8.5 0 00.42-1.81v-.11zm-2.23 5.16c-.25 0-.48-.07-.69-.2-.2-.15-.42-.28-.65-.4-.5-.28-.88-.64-1.16-1.09-.27-.44-.4-.99-.4-1.64 0-.31.05-.7.17-1.13l.3-1.22a4.7 4.7 0 011.8-2.18c.32-.2.64-.3.98-.3.13 0 .27.04.4.13.22.13.44.23.66.32l.7.26c.23.08.46.18.69.28.23.1.44.23.64.39.16.13.3.29.38.47.1.19.18.37.28.54.07.15.12.3.13.44.02.16.02.31.02.47v.4c-.01.46-.1.87-.28 1.25a7.8 7.8 0 01-1.76 2.45c-.24.22-.5.4-.76.55a1.61 1.61 0 01-1.05.22 2.9 2.9 0 00-.26-.01h-.14zM68.57 35.06c0-.4.02-.77.05-1.13.03-.37.1-.72.23-1.07.01-.03.05-.06.12-.1l.24-.1.15-.04.2-.05c.23.03.48.12.72.27a.7.7 0 01.36.63c0 .23-.02.44-.07.62-.04.18-.06.4-.06.64 0 .43-.02.75-.06.99-.04.23-.06.45-.06.65a25.09 25.09 0 00.18 3.27c.25-.03.52-.23.81-.6.3-.37.59-.82.88-1.34a24.07 24.07 0 001.39-3.2c.05-.2.08-.38.07-.57 0-.2.01-.36.06-.52a.68.68 0 01.3-.38 1.58 1.58 0 01.86-.14.1.1 0 00.04.01.8.8 0 01.44.18c.16.11.28.23.36.35 0 .85-.03 1.53-.08 2.01a9.47 9.47 0 00.07 3.05c.1.5.26.91.49 1.22l.25.3c.07.09.14.2.2.33a.75.75 0 01-.15.34.6.6 0 01-.23.17c-.1.04-.2.06-.3.08l-.32.06c-.33-.07-.6-.2-.8-.39-.21-.19-.38-.42-.5-.69a3.53 3.53 0 01-.29-.89l-.16-1.01-.09.17a125 125 0 01-.49.98c-.2.41-.44.8-.71 1.2-.28.38-.6.71-.95 1a1.8 1.8 0 01-1.15.42c-.43 0-.79-.08-1.05-.25a1.6 1.6 0 01-.62-.82 5.55 5.55 0 01-.3-1.46 25.5 25.5 0 01-.07-2.2c.03-.2.04-.41.04-.61v-1.38zM80.02 38.15c.2-.2.36-.47.48-.8l.35-.92.05-.14a8.97 8.97 0 01.98-1.87c.23-.31.48-.58.75-.8.27-.22.54-.34.83-.34.24.08.42.2.54.36.13.16.22.34.28.54.07.2.12.4.17.62.05.21.12.42.2.6.2.44.33.9.42 1.38.1.49.17.98.24 1.48.06.5.14 1 .22 1.48.09.5.22.94.39 1.35a.64.64 0 01-.38.52c-.22.11-.41.17-.58.17a.7.7 0 01-.6-.3c-.15-.2-.26-.44-.33-.73a5.94 5.94 0 01-.17-.9c-.04-.3-.09-.56-.14-.77a6.2 6.2 0 01-.17-.85l-.15-.96a9.62 9.62 0 00-.2-.91 1.9 1.9 0 00-.34-.69c-.24.4-.44.78-.59 1.12a25.36 25.36 0 00-.75 1.93c-.12.3-.26.6-.43.91-.23.43-.44.76-.62 1-.19.24-.36.4-.51.52-.16.11-.31.18-.45.2l-.4.03c-.15 0-.33-.07-.53-.22-.21-.15-.31-.32-.31-.53a287.61 287.61 0 01.02-5.11c0-.25 0-.5-.02-.76s-.02-.52-.02-.77c0-.17.03-.35.1-.52.06-.17.17-.29.32-.36l.26-.01.23-.01c.19 0 .34.05.44.16a1 1 0 01.24.41c.05.16.08.33.1.51l.02.44c0 .16.01.32.05.47.03.14.05.3.05.46 0 .55 0 1.01-.02 1.4l-.02 1.1v.11zM89.41 39.6c.3 0 .57-.1.78-.33.22-.22.4-.48.57-.79.16-.3.3-.63.41-.96.12-.34.23-.63.35-.88.06-.22.12-.44.2-.66.07-.22.1-.45.1-.7 0-.05-.02-.07-.07-.08a4.75 4.75 0 00-.4-.05.2.2 0 01-.16-.13c0-.08 0-.15.02-.22v-.22a.6.6 0 01-.11-.01.71.71 0 00-.15-.01c-.2.3-.43.6-.68.88-.25.29-.45.63-.58 1.02l-.23.7a4.94 4.94 0 00-.27 1.7c0 .11.03.24.09.37s.1.25.13.37zm5.18-2.63a8.57 8.57 0 00.27 1.12 113.77 113.77 0 01.4 1.2c.1.16.16.33.2.5.04.18.1.36.17.53 0 .3-.07.5-.21.62a.7.7 0 01-.44.17h-.27a.9.9 0 01-.27-.02 3.4 3.4 0 01-.42-.2c-.13-.07-.27-.27-.41-.6-.07-.11-.15-.3-.22-.57-.07-.27-.14-.56-.2-.87l-.2-.86a3.06 3.06 0 00-.19-.58c-.11.6-.29 1.13-.52 1.61-.23.48-.5.88-.8 1.22-.3.33-.63.59-.96.77a2.1 2.1 0 01-.98.26c-.73 0-1.25-.25-1.59-.74-.33-.49-.5-1.1-.5-1.83 0-.42.06-.9.19-1.4a8.43 8.43 0 011.33-2.92 4.48 4.48 0 011.35-1.27c.15-.12.37-.18.66-.18.2 0 .4.03.6.09l.57.17c0-.5-.02-1.01-.06-1.5a16.73 16.73 0 01-.08-2.02L92 28.52v-.45c0-.15 0-.3-.02-.47.03-.12.03-.24.02-.38a.43.43 0 01.13-.37.99.99 0 01.45-.31c.18-.07.36-.1.53-.1.26 0 .46.1.6.3.15.2.23.4.23.64 0 .5-.02.97-.06 1.42a18.35 18.35 0 00.01 2.67l.13 1.26.09 1.01a31.07 31.07 0 00.26 2.2c.06.35.13.66.22.94v.09zM98.97 39.8v.04c.02 0 .02.02.02.03.19-.01.4-.14.66-.38a10.77 10.77 0 002.12-3.4 39.82 39.82 0 00.43-.99c.05-.14.08-.27.08-.37a2.32 2.32 0 01-.2-.1.44.44 0 00-.2-.04c-.32 0-.6.13-.85.38s-.47.53-.65.84c-.18.31-.33.61-.45.9l-.24.55c-.2.37-.38.77-.51 1.2-.14.42-.21.84-.21 1.24v.1zm6.18 1.16c.05.12.1.24.13.37.05.12.07.24.07.36s-.03.22-.1.3a.74.74 0 01-.24.17 1.42 1.42 0 01-.58.13c-.3 0-.54-.16-.73-.5a4.69 4.69 0 01-.46-1.24 18.1 18.1 0 01-.3-1.58c-.07-.55-.15-1.05-.22-1.5a4 4 0 01-.43 1.18 7.3 7.3 0 01-2.12 2.49c-.44.3-.87.46-1.31.46-.35 0-.64-.07-.87-.2-.23-.15-.4-.32-.52-.53-.11-.2-.2-.44-.24-.7-.04-.26-.06-.5-.06-.72 0-.49.12-1.09.36-1.8.24-.72.57-1.42.99-2.1.41-.68.9-1.26 1.44-1.74a2.61 2.61 0 011.75-.72c.13 0 .28.02.45.06a5.08 5.08 0 011.02.41l.42.28c.24.2.41.49.5.84.09.36.15.73.2 1.11.1.74.18 1.41.24 2.01.06.6.17 1.23.33 1.9l.13.82.15.44zM108.42 27.2c0-.17.02-.36.07-.56l.29-.15a.65.65 0 01.28-.05c.26 0 .46.04.61.13.16.09.28.2.36.33.08.13.14.28.17.45.03.17.04.33.04.5 0 .3 0 .57.02.8a10.2 10.2 0 01.02 1.36 22.52 22.52 0 00-.03 1.2 13.87 13.87 0 00.01.8c.02.07.09.1.2.1.39 0 .73-.06 1.02-.18.28-.13.62-.19 1-.19.21 0 .36.08.43.24.07.17.11.33.11.49a.7.7 0 01-.13.45c-.1.11-.2.2-.34.25-.13.06-.27.11-.43.15a8.32 8.32 0 00-1.45.47c-.17.07-.3.17-.43.29a.6.6 0 00-.18.44 3.33 3.33 0 01.01.83v.29c0 .66.04 1.34.14 2.06.1.7.2 1.4.32 2.05l.16.62c.06.2.09.4.09.57 0 .25-.07.44-.2.55-.14.12-.29.2-.45.25l-.27.04c-.2 0-.4-.07-.56-.21a1.88 1.88 0 01-.44-.52 9.94 9.94 0 01-.29-1.8c-.04-.72-.07-1.44-.08-2.15a710.06 710.06 0 01-.06-2.3c0-.06-.03-.12-.06-.17-.26.04-.48.1-.66.2-.18.08-.39.13-.63.13-.3 0-.54-.1-.75-.29l-.47-.46c0-.16.04-.37.11-.62.2-.07.37-.12.54-.15a47.52 47.52 0 00.95-.2c.17-.05.34-.12.54-.22.23 0 .37-.1.4-.28.04-.18.06-.34.06-.47v-.67c-.02-.18-.02-.44-.02-.78a21.83 21.83 0 00-.02-1.34V27.2zM114.68 28.08c.07-.07.2-.1.4-.1.14 0 .29.02.44.07.15.05.3.12.43.22s.23.2.31.32c.08.12.12.24.12.37 0 .28-.07.47-.2.57a1 1 0 01-.58.14 2.27 2.27 0 01-.94-.26 1.42 1.42 0 01-.32-.24c-.08-.08-.12-.15-.12-.23 0-.17.02-.33.05-.46.04-.13.17-.27.4-.4zm1.92 12.42c0 .11-.03.23-.09.35-.05.12-.16.26-.32.42-.25 0-.48-.02-.7-.07a1.2 1.2 0 01-.54-.26 1.3 1.3 0 01-.36-.58 3.15 3.15 0 01-.13-1.01c0-.25-.03-.5-.08-.75s-.07-.5-.07-.75c0-.75-.05-1.46-.13-2.14-.1-.67-.14-1.39-.14-2.14 0-.3.13-.54.38-.7.14-.05.28-.08.41-.1l.44-.08c.2.06.36.14.46.25l.28.32a11.1 11.1 0 00-.04.9c0 .57.03 1.16.09 1.8a49.44 49.44 0 00.4 3.37l.14 1.08v.09zM123.78 36.09c0-.42-.16-.72-.47-.91a2.03 2.03 0 00-1.05-.28c-.3 0-.56.11-.77.33-.21.23-.4.5-.55.82a5.47 5.47 0 00-.43 2 3.34 3.34 0 00.16.89c.06.18.15.35.26.5.11.14.26.2.44.2.17 0 .32-.02.46-.07s.29-.1.45-.18c.25-.14.46-.34.64-.58.18-.25.33-.51.44-.8.12-.29.2-.6.28-.9.06-.33.11-.63.14-.92v-.1zm-2.22 5.16c-.26 0-.5-.07-.7-.2-.2-.15-.42-.28-.64-.4-.5-.28-.9-.64-1.16-1.09-.28-.44-.41-.99-.41-1.64 0-.31.05-.7.17-1.13l.3-1.22a4.7 4.7 0 011.8-2.18c.32-.2.64-.3.98-.3.13 0 .27.04.4.13.22.13.44.23.67.32l.69.26c.23.08.47.18.7.28.22.1.43.23.63.39.17.13.3.29.39.47l.27.54c.07.15.12.3.13.44.02.16.03.31.03.47v.4c-.02.46-.11.87-.29 1.25a7.79 7.79 0 01-1.76 2.45c-.24.22-.5.4-.76.55a1.61 1.61 0 01-1.05.22l-.26-.01h-.13zM129.12 38.15c.2-.2.35-.47.48-.8l.35-.92.04-.14a9.18 9.18 0 01.98-1.87c.23-.31.48-.58.75-.8.27-.22.55-.34.84-.34.24.08.42.2.54.36.12.16.21.34.28.54l.17.62c.05.21.12.42.2.6.19.44.33.9.42 1.38.1.49.17.98.23 1.48.07.5.14 1 .23 1.48.08.5.21.94.38 1.35a.64.64 0 01-.37.52c-.22.11-.42.17-.59.17a.7.7 0 01-.6-.3c-.14-.2-.25-.44-.33-.73a6.1 6.1 0 01-.17-.9c-.03-.3-.08-.56-.14-.77a6.06 6.06 0 01-.17-.85l-.15-.96a9.56 9.56 0 00-.2-.91 1.9 1.9 0 00-.33-.69c-.25.4-.44.78-.6 1.12a26.31 26.31 0 00-.75 1.93c-.11.3-.26.6-.43.91-.22.43-.43.76-.62 1-.18.24-.35.4-.5.52-.17.11-.32.18-.46.2l-.4.03c-.15 0-.32-.07-.53-.22-.2-.15-.3-.32-.3-.53a296.84 296.84 0 01.01-5.11c0-.25 0-.5-.02-.76l-.02-.77c0-.17.03-.35.1-.52.06-.17.17-.29.33-.36l.26-.01.23-.01c.19 0 .33.05.44.16a1 1 0 01.23.41c.05.16.08.33.1.51l.02.44a2 2 0 00.05.47c.04.14.06.3.06.46l-.02 1.4c-.02.38-.02.75-.02 1.1v.11z" fill="#D93330"></path></svg>