<svg xmlns="http://www.w3.org/2000/svg" viewBox="0 0 45 28" class="Footer_mastercard__19-Yf"><path fill-rule="evenodd" clip-rule="evenodd" d="M22.93 2.9l-.51.43a13.52 13.52 0 00.51 20.92l.52-.43a13.52 13.52 0 00-.52-20.91zM31.36 0c-2.79 0-5.38.84-7.55 2.27l.33.27a14.6 14.6 0 010 22.08l-.33.27a13.61 13.61 0 007.55 2.27A13.6 13.6 0 0045 13.58C45 6.08 38.9 0 31.36 0zm-9.63 24.62l.33.27a13.61 13.61 0 01-7.55 2.27A13.6 13.6 0 01.87 13.58C.87 6.08 6.97 0 14.5 0c2.79 0 5.38.84 7.55 2.27l-.33.27a14.6 14.6 0 000 22.08z" fill="currentColor"></path></svg>