<?xml version="1.0" encoding="utf-8"?>
<!-- Generator: Adobe Illustrator 20.0.0, SVG Export Plug-In . SVG Version: 6.00 Build 0)  -->
<svg version="1.1" xmlns="http://www.w3.org/2000/svg" xmlns:xlink="http://www.w3.org/1999/xlink" x="0px" y="0px" width="512px"
	 height="512px" viewBox="0 0 512 512" style="enable-background:new 0 0 512 512;" xml:space="preserve">
<style type="text/css">
	.st0{fill:#0E4E8B;}
</style>
<g id="Layer_2">
</g>
<g id="FINAL_ARTWORK">
	<path class="st0" d="M285.5,61c0.8,0.2,1.6,0.3,2.3,0.4c0.7,0.1,1.3,0.3,1.8,0.5c0.1-1.6,0.4-3.7,0.8-6.3c0.5-2.6,1-5.7,1.7-9.4
		l0.1,0c1.2,2.9,2.4,5.9,3.5,8.8c1.1,2.9,2.3,5.8,3.5,8.7c0.7,0.1,1.5,0.2,2.2,0.3c0.7,0.1,1.4,0.3,2.2,0.4c0.7,0.1,1.5,0.3,2.3,0.4
		c0.8,0.1,1.6,0.3,2.6,0.6c-0.5-0.9-1.2-2.3-2-4.1c-0.8-1.8-1.7-3.8-2.6-5.9c-0.9-2.1-1.9-4.3-2.8-6.5c-0.9-2.2-1.8-4.3-2.5-6.1
		c0.8-0.7,2-1.6,3.4-2.8c1.5-1.2,3-2.4,4.6-3.6c1.6-1.2,3.1-2.4,4.5-3.4c1.4-1,2.5-1.8,3.1-2.3c-0.6,0-1.1-0.1-1.6-0.1
		c-0.5,0-1-0.1-1.4-0.2c-0.5-0.1-0.9-0.2-1.4-0.3c-0.5-0.1-0.9-0.3-1.4-0.4c-0.6,0.6-1.4,1.4-2.6,2.4c-1.2,1.1-2.6,2.2-4,3.5
		c-1.5,1.3-3,2.6-4.6,3.9c-1.6,1.3-3.1,2.6-4.5,3.7l0.9-4.8c0.5-2.4,0.9-4.7,1.3-6.7c0.4-2,0.8-3.5,1.2-4.5c-0.6,0-1.2-0.1-1.9-0.2
		c-0.7-0.1-1.4-0.2-2.3-0.4c-0.8-0.2-1.6-0.3-2.2-0.5c-0.7-0.2-1.3-0.4-1.8-0.5c-0.3,2.2-0.6,4.4-0.9,6.6c-0.3,2.2-0.8,4.6-1.3,7.4
		l-1.3,6.8c-0.5,2.8-1,5.2-1.5,7.4c-0.5,2.1-1,4.2-1.5,6.3c0.6,0,1.2,0.1,1.9,0.3C283.9,60.7,284.7,60.8,285.5,61z M334.7,75
		c0.8,0.4,1.5,0.7,2.1,1c0.6,0.3,1.2,0.6,1.7,0.9c0.8-2,1.6-3.9,2.5-6c0.9-2,1.9-4.3,3.2-6.8l0.9-1.9l0.4,0.2l1.3,18.5
		c0.7,0.3,1.4,0.6,2.1,0.9c0.7,0.3,1.4,0.7,2.1,1c0.7,0.3,1.4,0.7,2.1,1c0.7,0.3,1.4,0.7,2,1.1c-0.5-3.4-0.9-6.7-1.4-10.1
		c-0.4-3.4-0.8-6.8-1-10.1c2.6,0.5,4.8,0.4,6.7-0.5c1.9-0.8,3.4-2.4,4.5-4.6c0.7-1.4,1-2.7,0.9-4c-0.1-1.3-0.4-2.4-1-3.6
		c-0.3-0.5-0.6-0.9-0.9-1.3c-0.4-0.4-0.8-0.8-1.3-1.2c-0.5-0.4-1.2-0.8-2-1.3c-0.8-0.5-1.8-1-3-1.5c-1.6-0.8-2.9-1.3-4-1.8
		c-1.1-0.4-2.1-0.8-2.9-1.2c-0.8-0.4-1.4-0.7-2-1.1c-0.6-0.3-1.1-0.7-1.6-1c-0.8,2.1-1.7,4.1-2.6,6.1c-0.9,2-1.9,4.3-3.2,6.8l-3,6.3
		c-1.2,2.5-2.3,4.8-3.4,6.7c-1,2-2,3.8-3.1,5.7c0.6,0.2,1.1,0.4,1.7,0.7C333.3,74.3,334,74.7,334.7,75z M352.2,47.8
		c1.3,0.6,2.3,1.2,3.2,1.7c0.8,0.6,1.5,1.2,1.8,1.9c0.4,0.7,0.5,1.5,0.4,2.4c-0.1,0.9-0.5,2.1-1.1,3.4c-1.1,2.2-2.4,3.6-4,4.2
		c-1.6,0.6-3.4,0.4-5.4-0.6c-0.2-0.1-0.3-0.2-0.5-0.3c-0.2-0.1-0.3-0.2-0.5-0.3C348,56.1,350.1,52,352.2,47.8z M459.8,227.8
		c2.5-2.4,5-4.6,7.6-6.7c1.1,2.4,2.5,4.1,4.3,5.2c1.8,1.1,3.9,1.4,6.3,0.9c1.5-0.3,2.7-0.8,3.7-1.6c1-0.8,1.7-1.8,2.3-2.9
		c0.2-0.5,0.4-1,0.5-1.5c0.1-0.5,0.2-1.1,0.2-1.8c0-0.7,0-1.5-0.1-2.4c-0.1-0.9-0.3-2-0.5-3.3c-0.3-1.7-0.6-3.1-0.9-4.3
		c-0.3-1.1-0.5-2.2-0.7-3.1c-0.2-0.8-0.3-1.6-0.3-2.3c-0.1-0.7-0.1-1.3-0.2-1.9c-2.2,0.5-4.3,1-6.5,1.5c-2.1,0.5-4.6,1-7.4,1.5
		l-6.8,1.3c-2.8,0.5-5.3,0.9-7.4,1.3c-2.2,0.3-4.3,0.6-6.4,0.9c0.2,0.6,0.3,1.2,0.4,1.8c0.1,0.7,0.3,1.4,0.4,2.3
		c0.2,0.8,0.3,1.6,0.4,2.3c0.1,0.7,0.2,1.3,0.2,1.9c2-0.5,4.1-1,6.3-1.5c2.1-0.5,4.6-1,7.4-1.5l2.1-0.4l0.1,0.5l-14.2,11.9
		c0.2,0.8,0.4,1.5,0.5,2.3c0.1,0.8,0.3,1.5,0.4,2.3c0.1,0.8,0.3,1.5,0.4,2.3c0.1,0.7,0.2,1.5,0.3,2.3
		C454.8,232.5,457.3,230.2,459.8,227.8z M480.7,210.7c0.3,1.4,0.4,2.6,0.5,3.6c0,1-0.1,1.9-0.4,2.6c-0.3,0.7-0.9,1.3-1.7,1.7
		c-0.8,0.5-2,0.8-3.4,1.1c-2.4,0.4-4.3,0.2-5.7-0.8c-1.4-1-2.3-2.5-2.7-4.7c0-0.2-0.1-0.3-0.1-0.5c0-0.2,0-0.4,0-0.6
		C471.5,212.2,476.1,211.4,480.7,210.7z M245.8,38l0,6.9c0,2.8,0,5.3-0.1,7.5c-0.1,2.2-0.2,4.4-0.3,6.5c0.6-0.1,1.2-0.1,1.9-0.1
		c0.7,0,1.4,0,2.3,0c0.9,0,1.6,0,2.3,0c0.7,0,1.3,0,1.9,0.1c-0.1-2.1-0.2-4.3-0.3-6.5c-0.1-2.2-0.1-4.7-0.1-7.5l0-2.1h0.5l9.2,16.1
		c0.8-0.1,1.6-0.1,2.3-0.1c0.8,0,1.5,0,2.3,0c0.8,0,1.6,0,2.3,0c0.7,0,1.5,0,2.3,0.1c-1.9-2.8-3.8-5.7-5.6-8.5
		c-1.9-2.9-3.6-5.8-5.3-8.7c2.6-0.6,4.5-1.8,5.9-3.3c1.4-1.6,2-3.6,2-6.1c0-1.5-0.3-2.9-0.9-4c-0.6-1.1-1.4-2-2.4-2.8
		c-0.4-0.3-0.9-0.6-1.4-0.8c-0.5-0.2-1.1-0.4-1.7-0.5c-0.7-0.1-1.5-0.2-2.4-0.3c-0.9-0.1-2-0.1-3.3-0.1c-1.7,0-3.2,0-4.4,0.1
		c-1.2,0.1-2.2,0.1-3.1,0.1c-0.9,0-1.6,0-2.3-0.1c-0.7-0.1-1.3-0.1-1.9-0.2c0.1,2.2,0.2,4.4,0.3,6.6C245.8,32.7,245.8,35.2,245.8,38
		z M253.5,26.8c1.4,0,2.6,0.1,3.6,0.2c1,0.1,1.8,0.4,2.5,0.9c0.6,0.5,1.1,1.1,1.4,2c0.3,0.9,0.5,2.1,0.5,3.6c0,2.5-0.6,4.3-1.8,5.5
		c-1.2,1.2-2.9,1.8-5.2,1.8c-0.2,0-0.4,0-0.5,0c-0.2,0-0.4,0-0.6-0.1C253.4,36,253.5,31.4,253.5,26.8z M241.1,454.5
		c-0.8-0.8-1.9-1.5-3.2-2.1c-1.3-0.6-2.9-1-4.7-1.2c-1.6-0.2-3-0.2-4.4,0c-1.3,0.2-2.5,0.6-3.6,1.2c-1,0.6-1.9,1.4-2.6,2.3
		c-0.7,1-1.1,2.1-1.2,3.4c-0.1,0.9,0,1.8,0.2,2.6c0.2,0.8,0.6,1.6,1,2.3c0.5,0.7,1,1.3,1.7,1.8c0.7,0.5,1.4,0.9,2.1,1.1l0,0.4
		c-0.9,0.1-1.9,0.3-2.8,0.7c-0.9,0.4-1.7,0.9-2.4,1.6c-0.7,0.7-1.3,1.5-1.8,2.5c-0.5,1-0.8,2.2-1,3.5c-0.2,1.7-0.1,3.1,0.4,4.5
		c0.4,1.3,1.1,2.5,2.1,3.4c1,1,2.1,1.7,3.5,2.2c1.4,0.5,2.9,0.9,4.6,1.1c1.7,0.2,3.4,0.2,4.9,0c1.5-0.2,2.9-0.7,4.1-1.5
		c1.2-0.8,2.1-1.8,2.9-3.1c0.8-1.3,1.3-2.8,1.5-4.5c0.2-1.3,0.1-2.5-0.2-3.5c-0.3-1-0.7-2-1.3-2.8c-0.6-0.8-1.3-1.4-2-2
		c-0.8-0.5-1.5-0.9-2.3-1.1l0-0.4c0.8-0.1,1.6-0.3,2.3-0.6c0.8-0.3,1.4-0.8,2-1.3c0.6-0.6,1.1-1.3,1.5-2.1c0.4-0.8,0.7-1.8,0.8-2.8
		c0.1-1,0-2.1-0.3-3.1C242.5,456.3,241.9,455.4,241.1,454.5z M234.7,476.5c-0.3,2.8-1,4.8-2.1,6c-1,1.2-2.1,1.7-3.3,1.6
		c-1.3-0.2-2.3-0.9-3-2.4c-0.7-1.4-0.8-3.5-0.5-6.2c0.3-2.9,1-4.9,1.9-6c0.9-1.1,2.1-1.6,3.3-1.5c1.3,0.2,2.3,0.9,3,2.3
		C234.8,471.7,235,473.7,234.7,476.5z M236.2,460c-0.2,2-0.8,3.6-1.7,4.6c-0.9,1-2,1.5-3.2,1.4c-1-0.1-1.8-0.7-2.5-1.8
		c-0.7-1.1-0.9-2.6-0.7-4.6c0.3-2.1,0.8-3.7,1.5-4.9c0.8-1.1,1.9-1.6,3.4-1.4c1.3,0.2,2.2,0.8,2.7,2.1
		C236.3,456.6,236.5,458.2,236.2,460z M487.9,250.7c-0.5-1.4-1.2-2.6-2.1-3.6c-0.9-1-2.1-1.9-3.5-2.5c-1.4-0.6-2.9-0.9-4.7-0.9
		c-1.9,0-3.5,0.4-4.8,1.2c-1.2,0.8-2.3,1.7-3.1,2.8c-0.8,1.1-1.5,2.4-2.1,3.7c-0.6,1.3-1.2,2.6-1.8,3.7c-0.6,1.1-1.3,2.1-2.1,2.8
		c-0.8,0.8-1.9,1.1-3.2,1.2c-1.4,0-2.7-0.5-3.7-1.4c-1-1-1.6-2.5-1.6-4.5c0-1,0.1-1.9,0.4-2.8c0.3-0.8,0.7-1.5,1.2-2.1
		c0.5-0.6,1.1-1.1,1.7-1.4c0.7-0.4,1.4-0.6,2.1-0.8l0-1c-1.2-0.2-2.2-0.4-3.2-0.6c-1-0.2-2.1-0.5-3.3-0.8c-0.6,0.8-1,1.9-1.4,3.3
		c-0.4,1.5-0.6,3.1-0.5,4.9c0,2,0.3,3.9,0.9,5.5c0.5,1.6,1.3,3.1,2.3,4.2c1,1.2,2.2,2.1,3.7,2.7c1.4,0.6,3,0.9,4.7,0.9
		c1.9,0,3.5-0.4,4.8-1.2c1.2-0.8,2.3-1.8,3.1-2.9c0.9-1.2,1.6-2.4,2.2-3.8c0.6-1.3,1.2-2.6,1.8-3.8c0.6-1.2,1.3-2.1,2.1-2.9
		c0.8-0.8,1.8-1.2,3.1-1.2c1.2,0,2.3,0.5,3.2,1.4c0.9,1,1.4,2.2,1.4,3.8c0,3-1.4,5.1-4.3,6.2l0,0.8c1.1,0.3,2.1,0.6,2.8,0.8
		c0.7,0.2,1.5,0.5,2.3,0.8c0.8-1,1.4-2.2,1.8-3.6c0.4-1.4,0.6-3,0.6-4.8C488.6,253.6,488.4,252.1,487.9,250.7z M424.6,136
		c-1.3,1.9-2.1,4.1-2.4,6.4c-0.3,2.3-0.2,4.7,0.4,7.2c0.6,2.5,1.7,5,3.2,7.5c1.2,1.9,2.5,3.8,4,5.6c1.5,1.8,3.1,3.5,4.8,5.1
		c0.2-0.2,0.7-0.5,1.3-0.9c0.6-0.4,1.3-0.8,2-1.2l1.4-0.9c0.7-0.4,1.4-0.9,2.2-1.3c0.8-0.5,1.5-0.9,2.2-1.3c0.7-0.4,1.3-0.7,1.9-1
		c0.6-0.3,1-0.4,1.2-0.5c-0.2-0.3-0.5-0.6-0.9-1.1c-0.4-0.5-0.8-1.3-1.5-2.3c-0.5-0.9-0.9-1.6-1.2-2.1c-0.2-0.5-0.4-0.9-0.5-1.3
		c-0.4,0.3-1.1,0.8-2.2,1.6c-1.1,0.8-2.8,1.9-5.2,3.3c-0.6,0.4-1.2,0.7-1.8,1c-0.5,0.3-1,0.5-1.4,0.7c-0.2-0.1-0.5-0.3-0.8-0.6
		c-0.3-0.3-0.7-0.7-1-1.1c-0.3-0.4-0.7-0.9-1-1.3c-0.3-0.5-0.6-0.9-0.8-1.3c-1-1.7-1.6-3.4-1.8-5.1c-0.2-1.7,0-3.3,0.6-4.9
		c0.5-1.6,1.4-3,2.6-4.4c1.2-1.4,2.7-2.6,4.4-3.6c2.3-1.4,4.5-2.3,6.6-2.7c2.1-0.4,4-0.4,5.8-0.1c1.8,0.4,3.3,1,4.7,2
		c1.4,1,2.5,2.1,3.3,3.5c1.2,2,1.8,4,1.9,5.8c0,1.9-0.3,3.7-1.1,5.4l0.4,0.6c0.8-0.3,1.7-0.6,2.6-0.8c0.9-0.2,1.7-0.4,2.6-0.7
		c-0.1-2.1-0.4-4.1-0.9-6c-0.5-1.9-1.4-3.9-2.8-6.2c-1.5-2.6-3.3-4.8-5.4-6.5c-2-1.8-4.2-3.1-6.6-3.9c-2.4-0.8-4.9-1-7.5-0.7
		c-2.6,0.3-5.3,1.3-8.1,3C427.6,132.4,425.8,134,424.6,136z M323.1,474.2c-0.1-0.6-0.3-1.1-0.3-1.6c-0.1-0.5-0.2-1.1-0.3-1.6
		c-2.3,0.8-4.6,1.5-6.9,2.1c-2.3,0.6-4.6,1.3-7,1.9l-0.1-0.1c2.2-3.2,4-5.9,5.4-8.2c1.4-2.3,2.4-4.3,3-6.1c0.7-1.7,1-3.2,1.1-4.5
		c0.1-1.3,0-2.5-0.3-3.5c-0.2-1-0.7-1.9-1.3-2.8c-0.6-0.9-1.5-1.7-2.5-2.3c-1.1-0.6-2.5-1-4.1-1.1c-1.6-0.1-3.6,0.1-5.9,0.7
		c-2.9,0.7-5,1.9-6.4,3.6c-1.4,1.7-2.1,3.4-2.3,5.4c0.8,0.4,1.6,0.7,2.3,1.1c0.8,0.4,1.5,0.8,2.4,1.2l0.5-0.3
		c-0.2-0.7-0.3-1.4-0.4-2.3c-0.1-0.9,0-1.7,0.1-2.5c0.2-0.8,0.5-1.6,1-2.3c0.5-0.7,1.2-1.1,2.1-1.4c0.6-0.2,1.3-0.2,1.9-0.1
		c0.7,0.1,1.3,0.4,1.9,0.8c0.6,0.4,1.2,1.1,1.7,1.9c0.5,0.8,0.9,1.9,1.3,3.3c0.4,1.6,0.6,3.3,0.5,5c-0.1,1.7-0.5,3.6-1.1,5.7
		c-0.7,2-1.7,4.3-2.9,6.7c-1.3,2.4-2.9,5.1-4.8,8.1l0.5,2.1c1.8-0.5,3.5-1,5.3-1.5c1.8-0.5,3.6-0.9,5.3-1.4c1.9-0.5,3.7-1,5.5-1.4
		c1.8-0.5,3.7-0.9,5.6-1.3c-0.2-0.5-0.3-0.9-0.5-1.5C323.4,475.3,323.2,474.7,323.1,474.2z M358.1,86.6c0.4,0.2,0.8,0.5,1.1,0.7
		c0.3,0.2,0.7,0.5,1,0.7c0.3,0.2,0.7,0.5,1,0.7c0.3,0.2,0.6,0.5,0.9,0.8c1.4-1.1,2.8-2.1,4.3-3.2c1.5-1.1,3-2.1,4.6-3.1
		c0.7,0.5,1.5,1,2.2,1.5c0.7,0.5,1.4,1,2.2,1.5c0.9,0.6,1.8,1.3,2.6,1.9c0.9,0.7,1.7,1.3,2.6,2c-0.5,1.8-1,3.6-1.6,5.3
		c-0.6,1.7-1.1,3.5-1.6,5.1c0.6,0.4,1.2,0.8,1.8,1.2c0.6,0.4,1.2,0.9,1.8,1.3c0.6,0.4,1.2,0.8,1.8,1.3c0.6,0.4,1.2,0.9,1.8,1.4
		c0.4-2.2,0.9-4.8,1.6-7.8c0.7-3,1.5-6.2,2.3-9.5c0.8-3.3,1.7-6.7,2.7-10.1c0.9-3.4,1.8-6.6,2.6-9.6c-0.3-0.1-0.6-0.3-0.9-0.4
		c-0.3-0.1-0.6-0.3-0.8-0.5c-0.3-0.2-0.5-0.4-0.7-0.6c-0.2-0.2-0.4-0.5-0.7-0.7c-1.7,1.1-3.6,2.3-5.7,3.6c-2.1,1.3-4.1,2.6-6.2,3.9
		c-2.1,1.3-4.2,2.6-6.3,3.9c-2.1,1.3-4,2.5-5.9,3.6c-1.8,1.1-3.5,2.1-4.9,3C360.1,85.4,358.9,86.1,358.1,86.6z M379.2,77.9
		c1.8-1.2,3.7-2.3,5.6-3.4c-0.5,2.1-1.1,4.2-1.7,6.3c-0.6,2-1.2,4.1-1.8,6.2l-7.6-5.5C375.6,80.3,377.4,79.1,379.2,77.9z M437,75
		C388.7,26.6,324.4,0,256,0C187.6,0,123.3,26.6,75,75S0,187.6,0,256c0,68.4,26.6,132.7,75,181c48.4,48.4,112.6,75,181,75
		c68.4,0,132.7-26.6,181-75c48.4-48.4,75-112.6,75-181C512,187.6,485.4,123.3,437,75z M256,501.2c-135.2,0-245.2-110-245.2-245.2
		c0-135.2,110-245.2,245.2-245.2c135.2,0,245.2,110,245.2,245.2C501.2,391.2,391.2,501.2,256,501.2z M389.5,110.2
		c0.6,0.5,1.1,1.1,1.7,1.7c0.3,0.3,0.5,0.6,0.8,0.9c0.3,0.3,0.5,0.6,0.8,1c0.3-0.3,0.6-0.6,1-1.1c0.4-0.5,1-1,1.7-1.7
		c0.7-0.7,1.6-1.5,2.6-2.5c1-1,2.3-2.2,3.8-3.6l4.3-4c0.7-0.7,1.5-1.4,2.2-2c0.7-0.7,1.5-1.3,2.2-2c-0.7,11.4-1.7,22.4-2.9,33.1
		c0.4,0.4,0.9,0.8,1.4,1.4c0.5,0.5,0.9,1.1,1.4,1.6l4.5-4.2c1.8-1.7,3.5-3.2,5.1-4.7c1.6-1.5,3.2-2.9,4.9-4.4c1.7-1.5,3.5-3,5.4-4.6
		c1.9-1.6,4-3.4,6.4-5.4c-0.8-0.6-1.4-1.1-1.8-1.5c-0.4-0.4-0.9-1-1.4-1.9c-0.2,0.3-0.6,0.8-1.3,1.5c-0.7,0.7-1.5,1.5-2.5,2.5
		c-1,0.9-2.1,2-3.2,3.1c-1.2,1.1-2.4,2.2-3.6,3.4l-3.6,3.4l-3.3,3c0.4-5.6,0.9-11.1,1.3-16.5c0.4-5.4,0.9-10.8,1.4-16.3
		c-0.8-0.6-1.4-1.1-1.8-1.5c-0.4-0.4-0.9-1-1.4-1.9c-0.9,0.9-1.9,1.9-3,3c-1.1,1.1-2.5,2.5-4.3,4.1c-1.9,1.8-3.9,3.6-6,5.4
		c-2.1,1.8-4.1,3.5-5.9,5.1c-1.8,1.5-3.4,2.9-4.7,3.9C390.5,109.4,389.7,110,389.5,110.2z M450.7,174.1c-2.6,1-5,1.8-7.1,2.5
		c-2.1,0.7-4.1,1.4-6.2,2c0.1,0.2,0.3,0.5,0.4,0.9c0.2,0.4,0.4,0.9,0.6,1.6c0.3,0.7,0.6,1.7,1.1,2.8c0.4,1.2,1,2.8,1.8,4.7
		c0.8,2.2,1.5,3.9,1.9,5.2c0.5,1.3,0.8,2.3,1.1,3.2c0.2-0.1,0.4-0.3,0.7-0.4c0.3-0.1,0.7-0.3,1.2-0.5c0.5-0.2,0.9-0.3,1.2-0.4
		c0.3-0.1,0.6-0.1,1-0.2c-0.9-1.8-1.8-3.5-2.5-5.3c-0.8-1.8-1.5-3.6-2.2-5.4c1.9-0.8,3.9-1.6,5.9-2.4c1-0.4,2-0.7,3.1-1.1
		c1-0.4,2.1-0.7,3.1-1.1c1.3,3.6,2.5,7.3,3.6,11c0.5-0.3,0.9-0.5,1.1-0.6c0.3-0.1,0.5-0.3,0.8-0.4c0.3-0.1,0.6-0.2,0.9-0.3
		c0.3-0.1,0.7-0.2,1.3-0.3c-0.8-1.8-1.5-3.5-2.2-5.2c-0.7-1.7-1.4-3.5-2.2-5.6c1.8-0.7,3.5-1.3,5.2-1.9c1.7-0.6,3.5-1.2,5.3-1.7
		c0.1,0.4,0.3,0.9,0.6,1.8c0.3,0.8,0.6,1.8,0.9,2.9c0.3,1.1,0.7,2.2,1,3.3c0.3,1.1,0.7,2.2,0.9,3.1c0.3-0.2,0.6-0.4,0.9-0.5
		c0.3-0.1,0.7-0.3,1.2-0.5c0.8-0.3,1.5-0.5,2.1-0.6c-0.3-0.6-0.8-1.8-1.5-3.6c-0.7-1.8-1.5-3.9-2.4-6.3c-0.5-1.4-1-2.9-1.5-4.3
		c-0.5-1.4-0.9-2.9-1.4-4.3c-2,0.9-4.1,1.7-6.1,2.6c-2,0.8-4.4,1.7-7,2.7L450.7,174.1z M441,351.6c-1.1-0.4-2.2-0.7-3.4-0.7
		c-1.4,0-2.6,0.3-2.6,0.3s0.6,0.5,0.8,0.6c1.8,1.3,7.3,6.4,4.4,18.5c-1.9,7.9-12.1,22.7-37.7,22.8h0c-1.6,0-3.2-0.1-4.9-0.2
		c-5-0.4-10-1.5-15-3.1c1.2-1.1,2.4-2.3,3.6-3.5c3.5-3.5,6.9-7.2,10.1-11c-3.3-0.2-6.7-1-9.9-2.1c-4.1,4.5-8.4,8.9-12.9,13
		c-9.1-4.1-19.1-10.2-28.8-16.5c-3.9-2.5-10.5-6.9-14-9.1c-12.3-7.7-24.6-15-39.9-20.3v-25.5c24.5,5.7,48,22.8,59.1,30.7
		c1.4,1,2.8,2.1,4.4,3.3c10.4,7.7,29.7,21.6,49,21.6c25,0,26.1-16.2,25.9-17.2c0,0-0.5,0.5-0.9,1c-1.4,1.4-5,4.6-13.7,4.3
		c-1.6-0.1-3.3-0.3-5-0.8c19.8-29.9,30.5-64.9,30.5-101.6c0-101.6-82.7-184.3-184.3-184.3C154.4,71.7,71.7,154.4,71.7,256
		c0,101.6,82.7,184.3,184.3,184.3c38.7,0,75.6-11.9,106.5-33.8c-3.4-1.1-6.7-2.4-9.9-3.9c-27.7,18.4-61,29.1-96.6,29.1
		c-96.8,0-175.6-78.8-175.6-175.6c0-96.8,78.8-175.6,175.6-175.6c96.8,0,175.6,78.8,175.6,175.6c0,36.4-11.2,70.3-30.2,98.4
		c-6.9-3.2-15.6-8.5-24.9-14.2c-1.5-1-3.2-2-4.8-3c-13.6-8.8-23.7-14.2-31.7-17c-0.8-0.3-2.9-0.9-3.9-1l0-0.6
		c42.6-0.7,76.2-33.1,76.2-76.6c0-43.9-34.1-74.1-77.4-74.1c-1,0-2,0-3,0c-12.1-25-38.2-40.5-69.6-40.5c-16.3,0-30.9,4.1-42.9,10.2
		V130h-25.1c0,0,6.2,5.7,6.2,19.1l0,18.9c-6.5-1.5-13.1-2.4-19.7-2.4c-19.9,0-39.9,7.2-54.8,19.8c-12.2,10.3-26.8,29.2-26.8,60.4
		c0,31,15.1,49.8,27.7,60.2c10.3,8.5,23.2,14.5,36.6,17.5c1.8-3.4,3.5-7.1,4.2-10.1c-2.1-0.4-3.8-1-5.7-1.7
		c-7.1-2.8-11.3-8.1-11.3-14.4c0-9.3,6.7-12.6,11.3-12.6c6.4,0,13,4.3,13.3,16.7v0c0.7,32.9-35.4,55.4-38.7,57.4
		c3.2,3.7,6.6,7.3,10.2,10.7c0.9-0.5,2.1-1.1,3-1.6c12.3-6.7,40.8-22.8,81.9-22.5l0,0c12.9,0.1,24.5,1.9,34.9,4.8v-16
		c-7.4-1.1-15.5-1.8-24.4-1.8c-34.5-0.2-62.8,10.2-80.2,19.1l-0.2-0.3c4.5-4.1,13.5-13.8,19.6-25.7c2.1,0,4.5-0.1,6.6-0.3
		c0.8-0.7,1.6-1.7,2.3-2.6c1-1.3,3.2-4.7,3.9-9.1c-2.8,0.6-5.6,1.1-8.5,1.3c1.1-3.8,1.8-7.6,2-11.5c0.3-10.2-2.3-18.8-7.5-24.2
		c-4.5-4.6-10.7-7-17.9-7c-9.5,0-21.4,6.4-22.2,20.5c-0.1,1.3,0.2,4.1,0.6,5.3l-0.5,0.2c-12.7-12.5-20.5-31.2-20.5-52.7
		c0-39.1,26.5-68.6,61.6-68.6c35.4,0,61,28.9,61,68.6c0,4.5-0.3,8.9-1,13.2c-8.5-2.8-15.7-7.2-21.8-12.4v-47
		c-5.4-5.7-11.7-10-19-12.8v120.4c0,12.2-6.2,19.4-6.2,19.4h30.5c0,0-2.8-3.5-4.3-10.4c5.3-2.7,10.3-6,14.9-9.7
		c7.1-5.8,14.9-14.3,20.4-26.1c-6.6-0.4-13.2-1.4-19.6-2.9c-4,9.3-9.7,17.3-16.7,23.6V265c12.2,5.5,26.5,9.2,42.9,9.2
		c13.5,0,21.9-2.5,28.7-4.9c27.5-9.8,48.1-35.7,48.1-68.9c0-4.7-0.4-9.1-1.1-13.5c-6.6-0.4-16.5,1-20.9,2.3
		c0.6,3.6,0.9,7.4,0.9,11.3c0,24.2-10.8,43.5-26.9,53.6v-57.6c12.4-9.7,24.2-16,44.5-16c30.8,0,55.3,25.1,55.3,61.6
		c0,36.6-25,63.7-57.9,63.7c-16.6,0-29.5-4.5-42-12v-18.6c-6,2-12.4,3.4-18.9,4.1v70.7c0,12.2-6.3,19.4-6.3,19.4h31.2
		c0,0-3.6-3.7-4.9-9.7c8.2,3.6,18.7,10.1,25.8,14.7c3.2,2.1,6.1,4.1,8.8,5.9c21.2,13.7,40.5,25.8,69,25.8c18.7,0,30.6-5.9,38.1-11.4
		c8.7-6.4,13.7-15.2,14.9-23C451.2,356.4,442.7,352.3,441,351.6z M290.9,178.9v-8h-25.1c0,0,6.3,7.1,6.3,20.5v70
		c-2.8,0.5-5.7,0.7-8.6,0.7c-0.7,0-1.4,0-2.1,0c1-5,1.5-10.4,1.5-16.3c0-31.2-14.8-50.1-27.3-60.4c-4.9-4.1-10.3-7.6-16.1-10.5
		l0-18.4c6.9-6.7,20.7-16.7,42.6-16.7c20.9,0,39.9,11.8,49.2,31C303.8,172.7,297.1,175.6,290.9,178.9z M55.1,185.4
		c-2.1-0.6-4.2-1.1-6.1-1.7c-1.9-0.6-3.7-1.1-5.2-1.6c-1.6-0.5-3-0.9-4.2-1.3c-1.2-0.4-2.2-0.7-2.9-1c0,0.4-0.1,0.9-0.2,1.3
		c-0.1,0.4-0.1,0.8-0.3,1.3c-0.1,0.4-0.2,0.8-0.4,1.2c-0.2,0.4-0.3,0.8-0.5,1.3c2.3,0.5,4.6,1,6.9,1.5c2.3,0.5,4.5,1.1,6.8,1.7
		c2.3,0.6,4.5,1.3,6.6,2c2.1,0.7,3.9,1.6,5.4,2.6c1.5,1,2.6,2.2,3.3,3.6c0.7,1.4,0.8,3.1,0.2,5c-0.4,1.6-1,3-1.6,4.1
		c-0.7,1.1-1.6,2-2.8,2.5c-1.2,0.6-2.8,0.8-4.8,0.7c-2-0.1-4.4-0.5-7.4-1.3c-2.8-0.8-5.6-1.5-8.3-2.4c-2.7-0.8-5.6-1.8-8.7-3
		c-0.1,0.7-0.2,1.4-0.4,2.1c-0.1,0.7-0.3,1.4-0.5,2c-0.2,0.7-0.4,1.3-0.6,2c-0.2,0.7-0.5,1.3-0.7,2c0.8,0.2,2.1,0.4,3.7,0.8
		c1.7,0.4,3.8,1,6.5,1.7c0.9,0.2,1.7,0.5,2.6,0.7c0.8,0.2,1.7,0.5,2.6,0.7c0.9,0.2,1.8,0.5,2.9,0.8c1,0.3,2.2,0.6,3.5,1
		c2.3,0.6,4.4,0.8,6.3,0.4c1.8-0.3,3.5-1,4.9-2.1c1.4-1.1,2.6-2.5,3.5-4.2c0.9-1.7,1.7-3.6,2.3-5.7c1.3-4.8,1-8.7-0.8-11.9
		C64.6,189.2,60.8,186.9,55.1,185.4z M64.3,229c-0.2,0.5-0.7,2.3-0.9,3.1c-0.4,1.3-0.9,2.8-1.5,4.5c-0.5,1.4-1,2.7-1.6,4.1
		c-0.6-2.1-1.5-3.9-2.5-5.6c-1.1-1.6-2.3-3.1-3.8-4.3c-1.4-1.2-3.1-2.1-4.8-2.8c-1.8-0.7-3.7-1.1-5.7-1.1c-3.1-0.1-5.8,0.2-8.1,1.1
		c-2.3,0.9-4.3,2.2-5.9,3.9c-1.6,1.7-2.8,3.7-3.6,6c-0.9,2.3-1.3,4.8-1.5,7.6c-0.1,3,0.2,5.7,1.1,8.1c0.8,2.5,2.1,4.6,3.7,6.4
		c1.6,1.8,3.5,3.2,5.6,4.2c2.2,1,4.5,1.6,7,1.7c3.2,0.1,5.9-0.2,8.3-1.2c2.3-0.9,4.3-2.2,5.8-3.9c1.6-1.7,2.7-3.6,3.5-5.9
		c0.8-2.2,1.2-4.6,1.3-7.1c1-1.8,2-3.9,2.7-5.1c0.7-1.2,1.3-2.5,2-3.7c0.5-0.9,1.1-1.9,1.7-2.8c-0.6-1-1.1-2.1-1.6-3.4
		C65,231.4,64.4,229.3,64.3,229z M56.8,251.5c-0.6,1.3-1.4,2.4-2.6,3.3c-1.2,0.9-2.7,1.7-4.6,2.1c-1.9,0.5-4.2,0.7-6.9,0.6
		c-2.2-0.1-4.2-0.4-6.1-1c-1.9-0.6-3.5-1.4-4.9-2.4c-1.4-1-2.5-2.2-3.2-3.6c-0.8-1.4-1.1-3-1-4.7c0.1-1.6,0.5-3.1,1.2-4.5
		c0.7-1.3,1.7-2.5,3-3.4c1.3-0.9,2.8-1.6,4.6-2.1c1.8-0.5,3.8-0.6,6-0.6c2.8,0.1,5.2,0.5,7.2,1.3c2,0.7,3.7,1.6,4.9,2.7
		c1.3,1.1,2.2,2.4,2.8,3.8c0.6,1.4,0.8,2.9,0.8,4.4C57.7,248.9,57.4,250.2,56.8,251.5z M197,446.8c-2.6,0.3-5.3,0.6-8.1,0.8
		c0.2,0.3,0.5,0.8,0.8,1.5c0.3,0.7,0.6,1.3,0.8,1.9c0.5-0.1,1.1-0.2,1.7-0.3c0.6-0.1,1.3-0.2,1.9-0.4c0.6-0.1,1.2-0.2,1.7-0.3
		c0.5-0.1,0.9-0.2,1.2-0.2l-4,13.8c-0.4,1.4-0.8,2.7-1.3,4.1c-0.4,1.3-0.9,2.6-1.3,3.8c-0.4,1.2-0.8,2.3-1.1,3.2
		c-0.4,1-0.6,1.7-0.8,2.2c0.7,0.1,1.3,0.3,2,0.5c0.6,0.2,1.3,0.4,1.9,0.6c0.7,0.2,1.3,0.4,1.9,0.6c0.6,0.2,1.3,0.4,1.9,0.7
		c0.6-2.4,1.1-4.5,1.6-6.4c0.5-1.8,1-3.6,1.5-5.4l1.1-3.7l0.9-3c0.4-1.2,0.7-2.5,1.2-3.8c0.4-1.3,0.8-2.6,1.2-3.8
		c0.4-1.3,0.8-2.5,1.2-3.7c0.4-1.2,0.8-2.3,1.1-3.2l-0.8-0.7C202.3,446.1,199.5,446.5,197,446.8z M75.6,177.5
		c0.2-0.4,0.4-0.9,0.7-1.6c0.3-0.7,0.8-1.6,1.3-2.7c0.6-1.2,1.3-2.7,2.2-4.6c1-2.1,1.8-3.8,2.4-5c0.6-1.2,1.1-2.2,1.5-3
		c-0.2,0-0.5-0.1-0.8-0.2c-0.3-0.1-0.7-0.3-1.2-0.5c-0.5-0.2-0.9-0.4-1.1-0.6c-0.3-0.2-0.5-0.4-0.9-0.6c-0.6,1.9-1.3,3.7-2.1,5.5
		c-0.8,1.8-1.6,3.6-2.4,5.3c-1.9-0.8-3.8-1.7-5.8-2.6c-1-0.5-2-1-2.9-1.4c-1-0.5-2-1-2.9-1.4c1.7-3.5,3.5-6.9,5.5-10.2
		c-0.5-0.2-0.9-0.3-1.2-0.4c-0.3-0.1-0.5-0.2-0.8-0.3c-0.3-0.1-0.6-0.3-0.9-0.5c-0.3-0.2-0.6-0.4-1.1-0.8c-0.8,1.8-1.5,3.5-2.2,5.1
		c-0.7,1.6-1.5,3.5-2.5,5.5c-1.7-0.8-3.4-1.6-5-2.4c-1.6-0.8-3.3-1.7-4.9-2.6c0.2-0.3,0.5-0.9,0.9-1.7c0.4-0.8,0.9-1.7,1.4-2.6
		c0.5-1,1.1-2,1.7-3c0.6-1,1.1-2,1.6-2.8c-0.4-0.1-0.7-0.2-1-0.3c-0.3-0.1-0.7-0.3-1.2-0.5c-0.8-0.4-1.4-0.8-1.8-1.1
		c-0.2,0.6-0.8,1.9-1.6,3.6c-0.8,1.8-1.8,3.8-2.9,6.1c-0.7,1.4-1.4,2.7-2.1,4c-0.7,1.3-1.4,2.7-2.1,4c2,0.9,4.1,1.7,6.1,2.6
		c2,0.9,4.3,2,6.8,3.2l6.3,3c2.5,1.2,4.8,2.3,6.7,3.4c1.9,1,3.9,2,5.7,3.1C75.3,178.1,75.4,177.8,75.6,177.5z M282.9,472.2
		c-0.5-1-1.1-1.8-1.8-2.5c-0.7-0.7-1.5-1.2-2.4-1.6c-0.9-0.4-1.7-0.6-2.5-0.7l0-0.4c0.8-0.2,1.5-0.6,2.2-1c0.7-0.5,1.3-1,1.8-1.7
		c0.5-0.7,0.8-1.4,1.1-2.3c0.2-0.9,0.3-1.8,0.3-2.9c-0.1-1.1-0.4-2-0.9-3c-0.5-0.9-1.2-1.7-2.2-2.4c-0.9-0.7-2.1-1.1-3.5-1.5
		c-1.4-0.3-3-0.4-4.9-0.3c-1.6,0.1-3,0.4-4.3,0.8c-1.3,0.4-2.4,1.1-3.3,1.8c-0.9,0.8-1.6,1.7-2.1,2.8c-0.5,1.1-0.7,2.3-0.6,3.6
		c0.1,0.9,0.3,1.8,0.7,2.5c0.4,0.8,0.8,1.5,1.4,2c0.6,0.6,1.2,1.1,2,1.4c0.7,0.4,1.5,0.6,2.3,0.7l0,0.4c-0.9,0.3-1.8,0.7-2.6,1.2
		c-0.8,0.6-1.5,1.2-2.1,2c-0.6,0.8-1,1.8-1.3,2.8c-0.3,1.1-0.4,2.3-0.3,3.7c0.1,1.7,0.5,3.1,1.2,4.3c0.7,1.2,1.6,2.2,2.7,3
		c1.1,0.8,2.4,1.3,3.9,1.6c1.5,0.3,3.1,0.4,4.8,0.2c1.7-0.1,3.3-0.4,4.8-0.9c1.5-0.5,2.7-1.3,3.7-2.2c1-1,1.8-2.1,2.3-3.5
		c0.5-1.4,0.7-3,0.6-4.7C283.6,474.4,283.3,473.2,282.9,472.2z M267.3,456.2c0.5-1.2,1.6-1.9,3.1-2c1.3-0.1,2.3,0.4,3,1.5
		c0.7,1.1,1.1,2.6,1.3,4.5c0.1,2-0.1,3.7-0.8,4.8c-0.7,1.2-1.6,1.8-2.9,1.9c-1,0.1-1.9-0.4-2.8-1.3c-0.9-0.9-1.4-2.4-1.5-4.4
		C266.5,459.2,266.7,457.5,267.3,456.2z M275.3,483c-0.8,1.4-1.8,2.1-3,2.2c-1.3,0.1-2.4-0.5-3.3-1.8c-0.9-1.3-1.4-3.3-1.6-6
		c-0.2-2.9,0.1-5,0.8-6.2c0.7-1.3,1.7-2,3-2c1.3-0.1,2.5,0.5,3.4,1.7c0.9,1.2,1.5,3.2,1.7,5.9C276.4,479.5,276.1,481.6,275.3,483z
		 M72.8,138.4l5.7,4c2.3,1.6,4.4,3.1,6.1,4.4c1.8,1.3,3.5,2.6,5.1,3.9c0.1-0.2,0.3-0.5,0.5-0.9c0.2-0.3,0.5-0.8,1-1.4
		c0.4-0.6,1-1.5,1.7-2.5c0.7-1.1,1.7-2.4,2.9-4.1c1.3-1.9,2.4-3.4,3.2-4.5c0.8-1.1,1.5-2,2-2.7c-0.2-0.1-0.4-0.2-0.7-0.3
		c-0.3-0.1-0.6-0.4-1.1-0.7c-0.4-0.3-0.8-0.6-1-0.8c-0.2-0.2-0.5-0.4-0.8-0.7c-0.9,1.8-1.9,3.5-2.9,5.1c-1,1.6-2.1,3.3-3.2,4.9
		c-1.7-1.1-3.5-2.3-5.3-3.5c-0.9-0.6-1.8-1.3-2.7-1.9c-0.9-0.6-1.8-1.3-2.7-1.9c2.2-3.2,4.5-6.2,7-9.2c-0.5-0.3-0.9-0.4-1.1-0.6
		c-0.3-0.1-0.5-0.3-0.7-0.4c-0.3-0.2-0.5-0.4-0.8-0.6c-0.2-0.2-0.6-0.5-1-0.9c-1,1.7-2,3.2-3,4.7c-1,1.5-2.1,3.2-3.3,5
		c-1.5-1.1-3.1-2.1-4.6-3.2c-1.5-1.1-3-2.2-4.4-3.4c0.2-0.3,0.6-0.8,1.1-1.5c0.5-0.7,1.1-1.5,1.8-2.4c0.7-0.9,1.4-1.8,2.1-2.7
		c0.7-0.9,1.4-1.8,2-2.5c-0.3-0.2-0.7-0.3-0.9-0.5c-0.3-0.1-0.6-0.4-1.1-0.7c-0.7-0.5-1.3-1-1.6-1.4c-0.3,0.6-1,1.7-2.1,3.3
		c-1.1,1.6-2.3,3.5-3.8,5.6c-0.9,1.3-1.8,2.5-2.7,3.7c-0.9,1.2-1.8,2.4-2.7,3.6c1.9,1.2,3.7,2.4,5.6,3.6
		C68.4,135.4,70.5,136.8,72.8,138.4z M178.3,52.3l2.2,6.6c0.9,2.7,1.6,5.1,2.3,7.2c0.6,2.1,1.2,4.2,1.7,6.2c0.5-0.2,1.1-0.5,1.8-0.7
		c0.6-0.2,1.4-0.5,2.2-0.7c0.8-0.3,1.5-0.5,2.2-0.7c0.6-0.2,1.3-0.4,1.8-0.5c-0.9-2.3-1.8-4.7-2.7-7c-0.8-2.4-1.7-4.8-2.5-7.2
		l2.5-0.8c1.8-0.6,3.4-1.3,4.8-2.2c1.4-0.9,2.5-1.9,3.3-3.1c0.8-1.2,1.4-2.6,1.5-4.1c0.2-1.5,0-3.2-0.7-5.1c-0.5-1.5-1.1-2.6-2-3.5
		c-0.8-0.9-1.9-1.6-3.2-2.1c-1-0.4-2.1-0.6-3.5-0.5c-1.4,0.1-3.3,0.5-5.6,1.3c-1.2,0.4-2.3,0.8-3.5,1.3c-1.2,0.5-2.3,0.9-3.5,1.3
		c-0.8,0.3-1.5,0.5-2.2,0.6c-0.7,0.2-1.3,0.3-1.9,0.4c0.8,2.1,1.6,4.1,2.4,6.2C176.6,47.2,177.4,49.6,178.3,52.3z M182.5,39
		c0.2-0.1,0.3-0.1,0.5-0.2l1.1-0.4c0.7-0.2,1.4-0.3,2.1-0.3c0.7,0,1.4,0.2,2,0.5c0.6,0.3,1.2,0.9,1.8,1.6c0.6,0.8,1,1.7,1.4,3
		c0.5,1.6,0.7,2.9,0.6,4c-0.1,1.1-0.5,2-1,2.7c-0.5,0.7-1.2,1.3-2,1.8c-0.8,0.4-1.6,0.8-2.4,1.1c-0.8-2.3-1.5-4.5-2.2-6.8
		c-0.7-2.3-1.5-4.5-2.2-6.9C182.2,39.2,182.3,39.1,182.5,39z M209.2,64.1c0.4-0.1,0.8-0.1,1.2-0.2c0.4-0.1,0.8-0.1,1.2-0.1
		c0.2-1.7,0.4-3.5,0.7-5.3c0.3-1.8,0.6-3.6,1-5.5c0.9-0.2,1.7-0.4,2.6-0.5c0.9-0.2,1.7-0.3,2.6-0.5c1.1-0.2,2.1-0.4,3.2-0.5
		c1.1-0.2,2.2-0.3,3.2-0.5c0.9,1.6,1.8,3.2,2.7,4.8c0.9,1.6,1.7,3.2,2.5,4.7c0.7-0.2,1.4-0.3,2.1-0.5c0.7-0.1,1.4-0.2,2.1-0.4
		c0.7-0.1,1.4-0.2,2.1-0.4c0.7-0.1,1.5-0.2,2.3-0.3c-1.3-1.8-2.8-4-4.4-6.6c-1.7-2.6-3.4-5.4-5.2-8.3c-1.8-2.9-3.6-5.9-5.3-9
		c-1.8-3-3.5-5.9-5-8.6c-0.3,0.1-0.6,0.2-0.9,0.3c-0.3,0.1-0.6,0.2-0.9,0.2c-0.3,0.1-0.7,0.1-1,0.1c-0.3,0-0.6,0-1,0
		c-0.4,2-0.9,4.2-1.4,6.6c-0.5,2.4-1,4.8-1.6,7.2c-0.5,2.4-1.1,4.9-1.6,7.2c-0.5,2.4-1,4.6-1.5,6.7c-0.5,2.1-0.9,4-1.3,5.6
		c-0.4,1.7-0.7,3-1,3.9c0.5-0.1,0.9-0.3,1.3-0.3C208.4,64.2,208.8,64.2,209.2,64.1z M215.3,43.4c0.4-2.1,0.9-4.2,1.4-6.4
		c1.1,1.9,2.3,3.7,3.3,5.6c1.1,1.8,2.1,3.7,3.2,5.6l-9.2,1.6C214.5,47.7,214.9,45.5,215.3,43.4z M91.7,106.7
		c1.8,1.9,3.6,3.8,5.5,5.9c1.9,2.1,3.6,4,5.2,5.8c1.6,1.8,2.9,3.3,4,4.6c1.1,1.3,1.7,2,1.8,2.3c0.5-0.6,1.1-1.2,1.6-1.7
		c0.3-0.3,0.6-0.5,0.8-0.8c0.3-0.3,0.6-0.5,1-0.8c-0.3-0.2-0.7-0.6-1.1-1c-0.5-0.4-1.1-1-1.8-1.7c-0.7-0.7-1.6-1.5-2.6-2.6
		c-1-1-2.2-2.3-3.6-3.7l-4.1-4.3c-0.7-0.7-1.4-1.5-2.1-2.2c-0.7-0.7-1.3-1.5-2-2.2c11.4,0.5,22.5,1.2,33.2,2.2
		c0.4-0.5,0.8-0.9,1.4-1.5c0.5-0.5,1-1,1.6-1.4l-4.3-4.4c-1.7-1.8-3.3-3.4-4.8-5c-1.5-1.6-3-3.2-4.5-4.8c-1.5-1.6-3.1-3.4-4.7-5.3
		c-1.7-1.9-3.5-4-5.5-6.3c-0.6,0.8-1.1,1.4-1.5,1.8c-0.4,0.4-1,0.9-1.8,1.4c0.3,0.2,0.8,0.6,1.5,1.3c0.7,0.7,1.6,1.5,2.5,2.5
		c1,1,2,2,3.1,3.2c1.1,1.2,2.3,2.3,3.4,3.5l3.4,3.6l3.1,3.2c-5.6-0.3-11.1-0.6-16.5-1c-5.4-0.3-10.8-0.7-16.4-1.1
		c-0.6,0.8-1.1,1.4-1.5,1.8c-0.4,0.4-1,0.9-1.8,1.4c0.9,0.9,1.9,1.8,3.1,2.9C88.7,103.6,90.1,105,91.7,106.7z M127.1,75.5
		c1.1,1.6,2.2,2.8,3.5,3.4c1.3,0.6,2.7,1,4.1,1.1c1.4,0.1,2.8,0,4.3-0.2c1.4-0.2,2.8-0.4,4.1-0.5c1.3-0.1,2.5,0,3.5,0.3
		c1.1,0.3,2,1,2.7,2c0.8,1.2,1,2.5,0.8,3.9c-0.3,1.4-1.2,2.6-3,3.7c-0.9,0.6-1.7,0.9-2.6,1.1c-0.8,0.2-1.6,0.2-2.4,0.1
		c-0.8-0.1-1.5-0.3-2.2-0.7c-0.7-0.4-1.3-0.8-1.8-1.4l-0.8,0.5c0.5,1.1,0.9,2.1,1.2,3c0.3,1,0.7,2,1,3.2c0.9,0.1,2.1-0.1,3.6-0.6
		c1.4-0.5,2.9-1.2,4.5-2.2c1.7-1.1,3.1-2.3,4.2-3.7c1.1-1.3,1.9-2.8,2.3-4.2c0.5-1.5,0.6-3,0.3-4.5c-0.2-1.5-0.8-3-1.7-4.4
		c-1.1-1.6-2.2-2.8-3.6-3.4c-1.3-0.6-2.7-1-4.1-1.1c-1.4-0.1-2.9,0-4.3,0.2c-1.4,0.2-2.8,0.4-4.1,0.5c-1.3,0.1-2.5,0-3.6-0.3
		c-1.1-0.3-2-0.9-2.6-2c-0.7-1-0.8-2.2-0.5-3.5c0.3-1.3,1.1-2.4,2.5-3.2c2.5-1.6,5.1-1.5,7.6,0.3l0.6-0.4c-0.3-1.1-0.6-2.1-0.8-2.8
		c-0.2-0.7-0.4-1.5-0.6-2.3c-1.3-0.1-2.6,0-4,0.4c-1.4,0.4-2.9,1.1-4.4,2.1c-1.3,0.8-2.4,1.8-3.3,3c-0.9,1.2-1.5,2.4-1.9,3.7
		c-0.4,1.3-0.5,2.8-0.3,4.2C125.5,72.5,126.1,74,127.1,75.5z"/>
</g>
</svg>
