<svg fill="none" xmlns="http://www.w3.org/2000/svg" viewBox="0 0 67 55" class="SubscriptionPlanTile_planImage__2unEL"><path fill-rule="evenodd" clip-rule="evenodd" d="M2.97 23.19l7.56 12.84V53.6h35.96l2.28-1.4.17-3.5 14.67-3.81 2.03-2.07-2.27-7.1-4.43-2.08.62-5.74 2.52-1.66-2.84-7.92-8.66 1.2 1.45-3.27.6-3.43-3.28-6.02-7.94 2.76L34.3 1.4 2.97 23.19z" fill="#fff"></path><path d="M11.63 50.32v-5.3c0-.33.22-.63.55-.7a4.6 4.6 0 000-8.96.72.72 0 01-.55-.7v-5.3a3.27 3.27 0 013.29-3.29h-4.87c-.82 0-1.62.32-2.22.88l-1.7-2.33a3.27 3.27 0 01.73-4.58l-3.94 2.85a3.27 3.27 0 00-.73 4.58L4 29.94l2.77 3.8v1.53a4.6 4.6 0 010 9.13v5.92a3.29 3.29 0 003.29 3.28h4.87a3.29 3.29 0 01-3.3-3.28z" fill="#be1b21"></path><path d="M66.39 41.14l-1.24-5.79a1.4 1.4 0 00-1.52-1.1 3.19 3.19 0 01-1.32-6.2 1.4 1.4 0 00.94-1.62L62 20.63a4.7 4.7 0 00-5.57-3.6l-3.85.82c.16-.93.73-1.75 1.56-2.22a1.4 1.4 0 00.58-1.78l-2.42-5.4a4.69 4.69 0 00-6.2-2.38l-4.24 1.89-4.4-6.03A4.7 4.7 0 0030.9.89L2.1 21.76a4.67 4.67 0 00-1.03 6.53l3.49 4.79c.2.27.48.45.8.53v1.66c0 .72.55 1.32 1.27 1.4a3.2 3.2 0 010 6.34 1.4 1.4 0 00-1.27 1.4v5.91a4.7 4.7 0 004.7 4.68h35.62c2.6 0 4.69-2.1 4.7-4.68v-1l12.4-2.63a4.68 4.68 0 003.62-5.55zM47.26 8.63a1.9 1.9 0 012.5.95l1.95 4.38a5.94 5.94 0 00-1.97 4.5L21.6 24.4a4.8 4.8 0 00-.84.27h-7.15c.04-.7.46-1.33 1.1-1.62L47.27 8.63zM5.36 29.36v.07l-2.03-2.78a1.88 1.88 0 01.41-2.63L32.56 3.16a1.9 1.9 0 012.64.41l4.04 5.55-25.66 11.39a4.67 4.67 0 00-2.77 4.17h-.76a4.7 4.7 0 00-4.7 4.68zm42.2 20.96c0 1.04-.85 1.88-1.89 1.88H10.05a1.89 1.89 0 01-1.89-1.88v-4.79a6 6 0 000-11.38v-4.8c0-1.03.85-1.88 1.89-1.88h35.62c1.04 0 1.89.85 1.89 1.88v4.8a6 6 0 000 11.38v4.8zm15.82-7.18c-.27.42-.7.71-1.2.82l-11.82 2.5V44.4a1.4 1.4 0 00-1.26-1.39 3.2 3.2 0 010-6.34 1.4 1.4 0 001.26-1.4v-5.92c0-2.58-2.1-4.67-4.69-4.67H33.85l23.18-4.91a1.9 1.9 0 012.24 1.45l1 4.68a5.98 5.98 0 002.37 11.14l1 4.69c.1.48.01 1-.26 1.41zm-35.02-7.42l.91 2.12c.08.18.25.3.45.32l2.3.22a.54.54 0 01.31.94l-1.73 1.53a.54.54 0 00-.17.52l.5 2.25a.54.54 0 01-.8.58l-2-1.17a.54.54 0 00-.55 0L25.6 44.2a.54.54 0 01-.8-.58l.5-2.25a.54.54 0 00-.17-.52l-1.73-1.53a.54.54 0 01.3-.94l2.3-.22c.2-.02.37-.14.45-.32l.92-2.12a.54.54 0 011 0z" fill="#000000"></path></svg>