<svg xmlns="http://www.w3.org/2000/svg" viewBox="0 0 24 24" class="Footer_socialIcon__FxYFX">
    <mask id="a" maskUnits="userSpaceOnUse" x="0" y="0" width="24" height="24">
        <path fill="#fff" d="M0 0h24v24H0z"></path>
    </mask>
    <g mask="url(#a)">
        <path fill-rule="evenodd" clip-rule="evenodd"
            d="M7.55 22.5c9.05 0 14-7.5 14-14v-.64A10 10 0 0024 5.3c-.88.39-1.83.65-2.83.77a4.94 4.94 0 002.17-2.72c-.95.56-2 .98-3.13 1.2a4.92 4.92 0 00-8.39 4.49C7.72 8.83 4.1 6.88 1.67 3.9a4.9 4.9 0 001.52 6.57 4.9 4.9 0 01-2.23-.61v.06c0 2.38 1.7 4.38 3.95 4.83a4.94 4.94 0 01-2.22.08 4.93 4.93 0 004.6 3.42A9.88 9.88 0 010 20.29a13.94 13.94 0 007.55 2.21z"
            fill="#6CADDF"></path>
    </g>
</svg>