<svg xmlns="http://www.w3.org/2000/svg" viewBox="0 0 65 22" class="Footer_visa__3smDz"><path fill-rule="evenodd" clip-rule="evenodd" d="M18.27.4l-5.1 13.9-.55-2.82L10.8 2.1C10.5.8 9.58.44 8.45.39H.09L0 .81c2.04.53 3.86 1.29 5.46 2.24l4.64 17.71h5.5L23.75.4h-5.5zm40.29 13.57L57.38 8.1l-.35-1.75-.68 1.94-2.03 5.7h4.24zm5.94 6.8h-4.82l-.62-3.06h-6.68l-1.1 3.05h-5.45l7.73-18.68C54.09.76 55.04.4 56.28.4h4.02l4.2 20.37zM41.67 8.65c-1.78-.9-2.87-1.51-2.87-2.43.02-.84.92-1.7 2.93-1.7a8.65 8.65 0 013.8.75l.46.21.69-4.26c-1-.4-2.6-.84-4.57-.84-5.03 0-8.57 2.69-8.6 6.53-.03 2.83 2.54 4.4 4.47 5.35 1.97.96 2.64 1.6 2.64 2.45-.02 1.32-1.6 1.93-3.06 1.93-2.03 0-3.12-.31-4.78-1.05l-.67-.31-.7 4.42c1.19.55 3.39 1.03 5.67 1.05 5.34 0 8.82-2.64 8.86-6.73.02-2.25-1.34-3.96-4.27-5.37zM31.4.81l-3.26 20.37H22.9L26.18.81h5.22z" fill="currentColor"></path></svg>