<svg width="107" height="107" xmlns="http://www.w3.org/2000/svg">
  <g fill="none" fill-rule="evenodd">
    <circle cx="53.5" cy="53.5" r="53" opacity=".08" stroke="#302D51" />
    <circle cx="31.5" cy="31.5" r="31.5" transform="translate(22 22)" fill="#1B458F" fill-rule="nonzero"
      opacity=".08" />
    <g fill-rule="nonzero">
      <path
        d="M53.571 69.886c9.153 0 16.572-7.362 16.572-16.443C70.143 44.362 62.723 37 53.57 37S37 44.362 37 53.443c0 9.08 7.42 16.443 16.571 16.443z"
        fill="#6CADDF" />
      <path
        d="M53.78 56.617c-.162 0-.243-.08-.324-.16l-5.335-5.695a.485.485 0 010-.642.495.495 0 01.647 0l5.012 5.294 5.012-5.294a.495.495 0 01.646 0 .485.485 0 010 .642l-5.335 5.695c-.08.16-.161.16-.323.16z"
        fill="#FFF" />
    </g>
  </g>
</svg>