<svg width="1389" height="639" xmlns="http://www.w3.org/2000/svg" xmlns:xlink="http://www.w3.org/1999/xlink">
  <defs>
    <path id="a" d="M1389 0H0v639h1389z"/>
  </defs>
  <g fill="none" fill-rule="evenodd" opacity=".1">
    <mask id="b" fill="#fff">
      <use xlink:href="#a"/>
    </mask>
    <g mask="url(#b)">
      <path d="M49.817 601.848H41.59l-4.05-5.573 2.63-8.095 6.551-2.13 6.67 4.847a21.507 21.507 0 01-3.574 10.951zm-12.059 8.771a21.273 21.273 0 01-11.518-.006l-2.545-7.832 4.05-5.575h8.51l4.05 5.574-2.547 7.839zm-23.588-8.771a21.38 21.38 0 01-2.534-5.232 21.335 21.335 0 01-1.025-5.722l6.667-4.844 6.552 2.13 2.63 8.094-4.048 5.574H14.17zm10.37-31.914l6.667 4.843v6.89l-6.887 5.003-6.552-2.128-2.544-7.832a21.276 21.276 0 019.315-6.776zm8.253 4.844l6.658-4.836a21.505 21.505 0 019.328 6.759l-2.547 7.841-6.551 2.128-6.888-5.004v-6.888zm-7.9-6.65c-12.06 3.918-18.684 16.918-14.766 28.979 3.92 12.06 16.92 18.684 28.98 14.765 12.06-3.919 18.684-16.918 14.765-28.979-3.918-12.06-16.919-18.684-28.979-14.765zM148.817 440.848h-8.227l-4.05-5.573 2.63-8.095 6.551-2.13 6.671 4.847a21.51 21.51 0 01-3.575 10.951zm-12.059 8.771a21.27 21.27 0 01-11.518-.006l-2.545-7.832 4.05-5.575h8.511l4.049 5.574-2.547 7.839zm-23.588-8.771a21.382 21.382 0 01-2.534-5.232 21.335 21.335 0 01-1.025-5.722l6.667-4.844 6.552 2.13 2.631 8.094-4.05 5.574h-8.241zm10.369-31.914l6.668 4.843v6.89l-6.887 5.003-6.552-2.128-2.544-7.832a21.276 21.276 0 019.315-6.776zm8.254 4.844l6.658-4.836a21.505 21.505 0 019.328 6.759l-2.547 7.841-6.551 2.128-6.888-5.004v-6.888zm-7.9-6.65c-12.06 3.918-18.684 16.918-14.766 28.979 3.92 12.06 16.919 18.684 28.98 14.765 12.06-3.919 18.684-16.918 14.765-28.979-3.918-12.06-16.918-18.684-28.979-14.765zM172.817 292.848h-8.227l-4.05-5.573 2.63-8.095 6.551-2.13 6.671 4.847a21.51 21.51 0 01-3.575 10.951zm-12.059 8.771a21.27 21.27 0 01-11.518-.006l-2.545-7.832 4.05-5.575h8.511l4.049 5.574-2.547 7.839zm-23.588-8.771a21.38 21.38 0 01-2.534-5.232 21.364 21.364 0 01-1.025-5.722l6.667-4.844 6.552 2.13 2.631 8.094-4.049 5.574h-8.242zm10.369-31.914l6.668 4.843v6.89l-6.887 5.003-6.552-2.128-2.544-7.832a21.27 21.27 0 019.315-6.776zm8.254 4.844l6.658-4.836a21.505 21.505 0 019.328 6.759l-2.547 7.841-6.551 2.128-6.888-5.004v-6.888zm-7.9-6.65c-12.06 3.918-18.684 16.918-14.765 28.979 3.919 12.06 16.918 18.684 28.979 14.765 12.06-3.919 18.684-16.918 14.765-28.979-3.918-12.06-16.918-18.684-28.979-14.765zM95.817 56.849H87.59l-4.05-5.574 2.63-8.095 6.551-2.13 6.67 4.847a21.51 21.51 0 01-3.574 10.952zm-12.058 8.77a21.28 21.28 0 01-11.52-.006l-2.544-7.832 4.05-5.575h8.51l4.05 5.574-2.547 7.84zm-23.59-8.77a21.391 21.391 0 01-2.533-5.233 21.337 21.337 0 01-1.025-5.722l6.667-4.844 6.552 2.13 2.63 8.094-4.048 5.574H60.17zm10.37-31.915l6.668 4.843v6.89L70.32 41.67l-6.552-2.128-2.544-7.832a21.273 21.273 0 019.315-6.776zm8.254 4.844l6.658-4.836a21.5 21.5 0 019.328 6.76l-2.547 7.84-6.551 2.128-6.888-5.004v-6.888zm-7.9-6.65c-12.06 3.918-18.684 16.918-14.766 28.979 3.92 12.06 16.92 18.684 28.98 14.765 12.06-3.919 18.684-16.918 14.765-28.979-3.918-12.06-16.918-18.684-28.979-14.765zM372.817 149.848h-8.227l-4.05-5.573 2.63-8.095 6.551-2.13 6.671 4.847a21.51 21.51 0 01-3.575 10.951zm-12.059 8.771a21.27 21.27 0 01-11.518-.006l-2.545-7.832 4.05-5.575h8.511l4.049 5.574-2.547 7.839zm-23.588-8.771a21.38 21.38 0 01-2.534-5.232 21.364 21.364 0 01-1.025-5.722l6.667-4.844 6.552 2.13 2.631 8.094-4.049 5.574h-8.242zm10.369-31.914l6.668 4.843v6.89l-6.887 5.003-6.552-2.128-2.544-7.832a21.268 21.268 0 019.315-6.776zm8.254 4.844l6.658-4.836a21.5 21.5 0 019.328 6.76l-2.547 7.84-6.551 2.128-6.888-5.004v-6.888zm-7.9-6.65c-12.06 3.918-18.684 16.919-14.765 28.979 3.919 12.06 16.918 18.684 28.979 14.765 12.06-3.919 18.684-16.918 14.765-28.979-3.918-12.06-16.918-18.684-28.979-14.765zM342.817 510.848h-8.227l-4.05-5.573 2.63-8.095 6.551-2.13 6.671 4.847a21.51 21.51 0 01-3.575 10.951zm-12.059 8.771a21.27 21.27 0 01-11.518-.006l-2.545-7.832 4.05-5.575h8.511l4.049 5.574-2.547 7.839zm-23.588-8.771a21.38 21.38 0 01-2.534-5.232 21.364 21.364 0 01-1.025-5.722l6.667-4.844 6.552 2.13 2.631 8.094-4.049 5.574h-8.242zm10.369-31.914l6.668 4.843v6.89l-6.887 5.003-6.552-2.128-2.544-7.832a21.27 21.27 0 019.315-6.776zm8.254 4.844l6.658-4.836a21.505 21.505 0 019.328 6.759l-2.547 7.841-6.551 2.128-6.888-5.004v-6.888zm-7.9-6.65c-12.06 3.918-18.684 16.918-14.765 28.979 3.919 12.06 16.918 18.684 28.979 14.765 12.06-3.919 18.684-16.918 14.765-28.979-3.918-12.06-16.918-18.684-28.979-14.765zM365.817 381.848h-8.227l-4.05-5.573 2.63-8.095 6.551-2.13 6.671 4.847a21.51 21.51 0 01-3.575 10.951zm-12.059 8.771a21.27 21.27 0 01-11.518-.006l-2.545-7.832 4.05-5.575h8.511l4.049 5.574-2.547 7.839zm-23.588-8.771a21.38 21.38 0 01-2.534-5.232 21.364 21.364 0 01-1.025-5.722l6.667-4.844 6.552 2.13 2.631 8.094-4.049 5.574h-8.242zm10.369-31.914l6.668 4.843v6.89l-6.887 5.003-6.552-2.128-2.544-7.832a21.27 21.27 0 019.315-6.776zm8.254 4.844l6.658-4.836a21.505 21.505 0 019.328 6.759l-2.547 7.841-6.551 2.128-6.888-5.004v-6.888zm-7.9-6.65c-12.06 3.918-18.684 16.918-14.765 28.979 3.919 12.06 16.918 18.684 28.979 14.765 12.06-3.919 18.684-16.918 14.765-28.979-3.918-12.06-16.918-18.684-28.979-14.765zM437.817 571.848h-8.227l-4.05-5.573 2.63-8.095 6.551-2.13 6.671 4.847a21.51 21.51 0 01-3.575 10.951zm-12.059 8.771a21.27 21.27 0 01-11.518-.006l-2.545-7.832 4.05-5.575h8.511l4.049 5.574-2.547 7.839zm-23.588-8.771a21.38 21.38 0 01-2.534-5.232 21.364 21.364 0 01-1.025-5.722l6.667-4.844 6.552 2.13 2.631 8.094-4.049 5.574h-8.242zm10.369-31.914l6.668 4.843v6.89l-6.887 5.003-6.552-2.128-2.544-7.832a21.27 21.27 0 019.315-6.776zm8.254 4.844l6.658-4.836a21.505 21.505 0 019.328 6.759l-2.547 7.841-6.551 2.128-6.888-5.004v-6.888zm-7.9-6.65c-12.06 3.918-18.684 16.918-14.765 28.979 3.919 12.06 16.918 18.684 28.979 14.765 12.06-3.919 18.684-16.918 14.765-28.979-3.918-12.06-16.918-18.684-28.979-14.765zM84.817 232.848H76.59l-4.05-5.573 2.63-8.095 6.551-2.13 6.67 4.847a21.508 21.508 0 01-3.574 10.951zm-12.058 8.771a21.274 21.274 0 01-11.52-.006l-2.544-7.832 4.05-5.575h8.51l4.05 5.574-2.547 7.839zm-23.59-8.771a21.382 21.382 0 01-2.533-5.232 21.335 21.335 0 01-1.025-5.722l6.667-4.844 6.552 2.13 2.63 8.094-4.048 5.574H49.17zm10.37-31.914l6.668 4.843v6.89l-6.887 5.003-6.552-2.128-2.544-7.832a21.275 21.275 0 019.315-6.776zm8.254 4.844l6.658-4.836a21.505 21.505 0 019.328 6.759l-2.547 7.841-6.551 2.128-6.888-5.004v-6.888zm-7.9-6.65c-12.06 3.918-18.684 16.918-14.766 28.979 3.92 12.06 16.92 18.684 28.98 14.765 12.06-3.919 18.684-16.918 14.765-28.979-3.918-12.06-16.918-18.684-28.979-14.765zM239.817 68.849h-8.227l-4.05-5.574 2.63-8.095 6.551-2.13 6.671 4.847a21.513 21.513 0 01-3.575 10.951zm-12.059 8.77a21.276 21.276 0 01-11.518-.006l-2.545-7.832 4.05-5.575h8.511l4.049 5.574-2.547 7.84zm-23.588-8.77a21.388 21.388 0 01-2.534-5.233 21.364 21.364 0 01-1.025-5.722l6.667-4.844 6.552 2.13 2.631 8.094-4.049 5.574h-8.242zm10.369-31.915l6.668 4.843v6.89l-6.887 5.003-6.552-2.128-2.544-7.832a21.268 21.268 0 019.315-6.776zm8.254 4.844l6.658-4.836a21.5 21.5 0 019.328 6.76l-2.547 7.84-6.551 2.128-6.888-5.004v-6.888zm-7.9-6.65c-12.06 3.918-18.684 16.918-14.765 28.979 3.919 12.06 16.918 18.684 28.979 14.766 12.06-3.92 18.684-16.92 14.765-28.98-3.918-12.06-16.918-18.684-28.979-14.765zM40.817 118.849H32.59l-4.05-5.574 2.63-8.095 6.551-2.13 6.67 4.847a21.51 21.51 0 01-3.574 10.951zm-12.059 8.77a21.279 21.279 0 01-11.518-.006l-2.545-7.832 4.05-5.575h8.51l4.05 5.574-2.547 7.84zM5.17 118.85a21.39 21.39 0 01-2.534-5.233 21.336 21.336 0 01-1.025-5.722l6.667-4.844 6.552 2.13 2.63 8.094-4.048 5.574H5.17zm10.37-31.915l6.667 4.844v6.888l-6.887 5.004-6.552-2.128-2.544-7.832a21.273 21.273 0 019.315-6.776zm8.253 4.844l6.658-4.836a21.5 21.5 0 019.328 6.76l-2.547 7.84-6.551 2.128-6.888-5.004v-6.888zm-7.9-6.65C3.833 89.046-2.79 102.046 1.127 114.107c3.92 12.06 16.92 18.684 28.98 14.766 12.06-3.92 18.684-16.92 14.765-28.98-3.918-12.06-16.918-18.684-28.979-14.765zM190.817 601.848h-8.227l-4.05-5.573 2.63-8.095 6.551-2.13 6.671 4.847a21.51 21.51 0 01-3.575 10.951zm-12.059 8.771a21.27 21.27 0 01-11.518-.006l-2.545-7.832 4.05-5.575h8.511l4.049 5.574-2.547 7.839zm-23.588-8.771a21.38 21.38 0 01-2.534-5.232 21.364 21.364 0 01-1.025-5.722l6.667-4.844 6.552 2.13 2.631 8.094-4.049 5.574h-8.242zm10.369-31.914l6.668 4.843v6.89l-6.887 5.003-6.552-2.128-2.544-7.832a21.27 21.27 0 019.315-6.776zm8.254 4.844l6.658-4.836a21.505 21.505 0 019.328 6.759l-2.547 7.841-6.551 2.128-6.888-5.004v-6.888zm-7.9-6.65c-12.06 3.918-18.684 16.918-14.765 28.979 3.919 12.06 16.918 18.684 28.979 14.765 12.06-3.919 18.684-16.918 14.765-28.979-3.918-12.06-16.918-18.684-28.979-14.765zM49.817 463.848H41.59l-4.05-5.573 2.63-8.095 6.551-2.13 6.67 4.847a21.507 21.507 0 01-3.574 10.951zm-12.059 8.771a21.273 21.273 0 01-11.518-.006l-2.545-7.832 4.05-5.575h8.51l4.05 5.574-2.547 7.839zm-23.588-8.771a21.38 21.38 0 01-2.534-5.232 21.335 21.335 0 01-1.025-5.722l6.667-4.844 6.552 2.13 2.63 8.094-4.048 5.574H14.17zm10.37-31.914l6.667 4.843v6.89l-6.887 5.003-6.552-2.128-2.544-7.832a21.276 21.276 0 019.315-6.776zm8.253 4.844l6.658-4.836a21.505 21.505 0 019.328 6.759l-2.547 7.841-6.551 2.128-6.888-5.004v-6.888zm-7.9-6.65c-12.06 3.918-18.684 16.918-14.766 28.979 3.92 12.06 16.92 18.684 28.98 14.765 12.06-3.919 18.684-16.918 14.765-28.979-3.918-12.06-16.919-18.684-28.979-14.765z" fill="#0C0C0C"/>
      <path d="M149.293 507.856a.836.836 0 00.044-.161c.01-.054.021-.105.021-.159.001-.057-.009-.111-.019-.166a.84.84 0 00-.04-.155c-.021-.055-.053-.103-.086-.154-.02-.031-.029-.067-.054-.096l-13.286-15.487a25.586 25.586 0 00-5.476-4.309c-2.177-1.276-4.4-2.285-6.096-2.768l-.013-.004-16.69-4.472h-.007l-.006-.003c-1.712-.431-4.142-.668-6.664-.651a25.698 25.698 0 00-6.945 1.01l-19.2 6.754c-.037.012-.062.039-.096.056a.807.807 0 00-.15.09c-.043.034-.078.074-.113.114a.897.897 0 00-.1.133.822.822 0 00-.06.15.87.87 0 00-.043.16c-.008.056-.003.111.001.17.002.038-.008.075 0 .114l3.171 15.494c.001.007.005.012.006.018v.013c.01.04.03.075.045.112.013.033.023.068.04.1.02.039.05.072.078.107.02.027.037.057.06.08.034.035.075.061.114.09.023.017.043.038.068.053a.855.855 0 00.415.117c.023.001.046-.004.069-.005.042-.003.084-.002.125-.011.004 0 .007-.003.011-.004.007-.002.013-.001.02-.002l8.928-2.163-11.01 41.091a.863.863 0 00.61 1.058l41.729 11.181a.863.863 0 001.058-.611l11.01-41.091 3.237 3.084H134s0 0 0 0l3.415 3.254c.004.004.011.006.015.011.003.002.004.007.007.01.033.028.068.049.103.072.019.012.036.028.057.039a.853.853 0 00.419.106c.026 0 .051-.007.077-.01.051-.005.102-.008.151-.022.031-.008.059-.025.089-.037.042-.017.085-.031.125-.056.03-.017.056-.044.084-.066.031-.024.065-.045.094-.075l.007-.01c.004-.005.01-.007.014-.013l10.492-11.833c.027-.029.036-.066.058-.098.033-.051.064-.097.086-.149zm-11.335 10.262l-2.186-2.082 9.602-10.83 1.982 2.312-9.398 10.6zm-14.151-32.06c-1.47 4.104-5.95 6.456-10.324 5.284-4.374-1.172-7.078-5.449-6.299-9.738l16.623 4.454zm-44.908 16.235l-2.84-13.879 2.623-.923 2.897 14.153-2.68.649zm39.407 51.166l-40.058-10.734 11.163-41.663c.004-.014 0-.028.002-.041.013-.057.01-.115.01-.174.001-.058.005-.114-.005-.17-.003-.014.002-.028-.003-.042-.009-.039-.035-.07-.049-.106-.022-.056-.042-.11-.074-.16-.031-.048-.07-.085-.11-.125-.037-.039-.073-.077-.118-.109-.05-.035-.105-.056-.161-.08-.037-.015-.065-.04-.104-.051-.014-.003-.028.001-.041-.002-.056-.012-.113-.009-.171-.011-.059 0-.116-.004-.173.007-.014.002-.028-.002-.042.001l-5.114 1.238-2.93-14.325 14.172-4.986a23.95 23.95 0 016.432-.927 31.998 31.998 0 014.555.284c-.944 5.169 2.297 10.321 7.549 11.728 5.253 1.407 10.635-1.433 12.4-6.382a31.833 31.833 0 014.086 2.031 23.851 23.851 0 015.073 3.981l9.642 11.242-9.718 10.96-3.618-3.449c-.011-.01-.025-.013-.036-.022-.043-.038-.094-.063-.145-.092-.051-.029-.1-.059-.155-.076-.014-.005-.024-.016-.037-.019-.038-.01-.076-.003-.115-.008-.06-.008-.117-.016-.178-.011-.056.005-.108.02-.162.035-.052.015-.103.028-.153.053-.055.027-.1.065-.147.103-.031.024-.067.037-.094.065-.01.011-.013.025-.022.037-.038.042-.063.094-.091.144-.029.052-.06.101-.077.155-.005.014-.015.023-.019.037l-11.164 41.664z" stroke="#000" stroke-width=".864" fill="#000" fill-rule="nonzero"/>
      <path d="M128.221 499.763l-6.676-1.789a.865.865 0 00-1.058.611l-1.118 4.173c-.846 3.156 1.354 5.335 2.636 6.046a.868.868 0 00.404.109c1.465.025 4.46-.762 5.305-3.919l1.118-4.173a.863.863 0 00-.611-1.058zm-2.176 4.784c-.597 2.227-2.691 2.575-3.387 2.628-.577-.395-2.217-1.742-1.62-3.97l.894-3.338 5.008 1.342-.895 3.338z" fill="#000" fill-rule="nonzero"/>
      <path d="M179.293 129.856a.816.816 0 00.044-.161c.01-.054.021-.105.021-.16.001-.056-.009-.11-.019-.165a.842.842 0 00-.04-.155.805.805 0 00-.086-.153c-.02-.032-.029-.068-.054-.097l-13.286-15.487a25.624 25.624 0 00-5.476-4.31c-2.177-1.275-4.4-2.284-6.096-2.767a2.718 2.718 0 00-.013-.004l-16.691-4.472h-.006l-.006-.003c-1.712-.431-4.142-.668-6.664-.65-2.332.015-4.652.35-6.945 1.009l-19.2 6.754c-.037.012-.062.04-.096.056a.794.794 0 00-.15.09.832.832 0 00-.113.114.905.905 0 00-.1.133.838.838 0 00-.06.15.878.878 0 00-.043.16c-.008.056-.003.111.001.17.002.038-.008.076 0 .114l3.171 15.494c.001.007.005.012.006.018v.013c.01.04.03.075.045.112.013.033.023.068.04.1.02.04.05.072.078.108.02.026.037.056.06.08.034.034.075.06.114.089.023.017.043.038.068.053a.852.852 0 00.415.117c.023.001.046-.004.069-.005.042-.003.084-.002.125-.01l.011-.005c.007-.002.013 0 .02-.002l8.928-2.163-11.01 41.091a.863.863 0 00.61 1.058l41.729 11.181a.863.863 0 001.058-.611l11.01-41.09 3.237 3.083H164s0 0 0 0l3.415 3.254c.004.004.011.006.015.01.003.003.004.008.007.01.033.03.068.05.103.073.019.012.036.029.057.04a.856.856 0 00.419.105c.026 0 .051-.007.077-.01.051-.004.102-.008.151-.021.031-.01.059-.026.089-.038.042-.017.085-.031.125-.055.03-.018.056-.045.084-.067.031-.024.065-.045.094-.074l.007-.011c.004-.005.01-.007.014-.013l10.492-11.832c.027-.03.036-.067.058-.1.033-.05.064-.096.086-.148zm-11.335 10.262l-2.186-2.082 9.602-10.83 1.982 2.312-9.398 10.6zm-14.151-32.06c-1.47 4.104-5.95 6.456-10.324 5.284-4.374-1.172-7.078-5.449-6.299-9.738l16.623 4.454zm-44.908 16.235l-2.84-13.879 2.623-.923 2.897 14.153-2.68.649zm39.407 51.166l-40.059-10.734 11.164-41.663c.004-.014 0-.028.002-.041.013-.057.01-.115.01-.174.001-.058.005-.114-.005-.17-.003-.014.002-.028-.003-.042-.009-.04-.035-.07-.049-.107-.022-.055-.042-.11-.074-.159-.031-.048-.07-.085-.11-.125-.037-.039-.073-.077-.118-.109-.05-.035-.105-.056-.161-.08-.037-.015-.065-.04-.104-.05-.014-.004-.028 0-.041-.003-.056-.012-.113-.01-.171-.01-.059-.001-.116-.005-.173.006-.014.002-.028-.002-.042.001l-5.114 1.238-2.93-14.325 14.172-4.986c2.094-.6 4.258-.912 6.432-.927a31.896 31.896 0 014.555.284c-.945 5.17 2.297 10.32 7.549 11.728 5.253 1.407 10.635-1.433 12.4-6.382a31.775 31.775 0 014.086 2.03 23.883 23.883 0 015.073 3.982l9.642 11.242-9.718 10.96-3.618-3.45c-.011-.01-.025-.012-.036-.021-.043-.038-.094-.063-.145-.092-.051-.029-.1-.059-.155-.076-.014-.005-.024-.016-.037-.02-.038-.01-.076-.002-.115-.007-.06-.008-.117-.016-.178-.01-.056.004-.108.02-.162.034-.052.015-.103.028-.153.053-.055.027-.1.065-.147.103-.031.024-.067.037-.094.066-.01.01-.013.024-.022.036-.038.042-.063.094-.091.144-.029.052-.06.1-.077.155-.005.014-.015.023-.019.037l-11.164 41.664z" stroke="#000" stroke-width=".864" fill="#000" fill-rule="nonzero"/>
      <path d="M158.221 121.763l-6.676-1.789a.863.863 0 00-1.058.611l-1.118 4.173c-.846 3.156 1.354 5.335 2.636 6.046a.84.84 0 00.403.109c1.466.025 4.461-.762 5.306-3.919l1.118-4.173a.863.863 0 00-.611-1.058zm-2.176 4.784c-.597 2.228-2.691 2.575-3.387 2.628-.577-.395-2.217-1.742-1.62-3.97l.894-3.338 5.008 1.342-.895 3.338z" fill="#000" fill-rule="nonzero"/>
      <path d="M467.293 435.856a.836.836 0 00.044-.161c.01-.054.021-.105.021-.159.001-.057-.009-.111-.019-.166a.84.84 0 00-.04-.155c-.021-.055-.053-.103-.086-.154-.02-.031-.029-.067-.054-.096l-13.286-15.487a25.586 25.586 0 00-5.476-4.309c-2.177-1.276-4.4-2.285-6.096-2.768l-.013-.004-16.691-4.472h-.006l-.006-.003c-1.712-.431-4.142-.668-6.664-.651a25.695 25.695 0 00-6.945 1.01l-19.2 6.754c-.037.012-.062.039-.096.056a.806.806 0 00-.15.09c-.043.034-.078.074-.113.114a.85.85 0 00-.099.133.86.86 0 00-.062.15.855.855 0 00-.042.16c-.008.056-.003.111.001.17.002.038-.008.075.001.114l3.17 15.494c.001.007.005.012.006.018l.001.013c.009.04.029.075.044.112.013.033.023.068.039.1.022.039.051.072.079.107.02.027.037.057.061.08.033.035.074.061.112.09.024.017.044.038.069.053a.866.866 0 00.415.117c.023.001.046-.004.069-.005.042-.003.084-.002.125-.011.004 0 .007-.003.011-.004.007-.002.013-.001.019-.002l8.929-2.163-11.01 41.091a.863.863 0 00.611 1.058l41.728 11.181a.863.863 0 001.058-.611l11.01-41.091 3.237 3.084H452s0 0 0 0l3.415 3.254c.004.004.011.006.015.011.003.002.004.007.007.01.033.028.068.049.103.072.019.012.036.028.057.039a.853.853 0 00.419.106c.026 0 .051-.007.077-.01.051-.005.102-.008.151-.022.031-.008.059-.025.089-.037.042-.017.085-.031.125-.056.03-.017.056-.044.084-.066.031-.024.065-.045.094-.075l.007-.01c.004-.005.01-.007.014-.013l10.492-11.833c.027-.029.036-.066.058-.098.033-.051.064-.097.086-.149zm-11.335 10.262l-2.186-2.082 9.602-10.83 1.982 2.312-9.398 10.6zm-14.151-32.06c-1.47 4.104-5.95 6.456-10.324 5.284-4.374-1.172-7.078-5.449-6.299-9.738l16.623 4.454zm-44.908 16.235l-2.84-13.879 2.623-.923 2.897 14.153-2.68.649zm39.407 51.166l-40.058-10.734 11.163-41.663c.004-.014-.001-.028.002-.041.013-.057.01-.115.011-.174 0-.058.004-.114-.006-.17-.003-.014.002-.028-.002-.042-.01-.039-.036-.07-.05-.106-.022-.056-.042-.11-.074-.16-.031-.048-.07-.085-.109-.125-.038-.039-.074-.077-.119-.109-.05-.035-.105-.056-.161-.08-.037-.015-.065-.04-.104-.051-.014-.003-.028.001-.041-.002-.056-.012-.113-.009-.171-.011-.059 0-.116-.004-.173.007-.014.002-.028-.002-.042.001l-5.114 1.238-2.931-14.325 14.173-4.986c2.094-.6 4.258-.912 6.432-.927a31.985 31.985 0 014.555.284c-.945 5.169 2.297 10.321 7.549 11.728 5.253 1.407 10.635-1.433 12.4-6.382a31.833 31.833 0 014.086 2.031 23.851 23.851 0 015.073 3.981l9.642 11.242-9.718 10.96-3.618-3.449c-.011-.01-.025-.013-.036-.022-.043-.038-.094-.063-.145-.092-.051-.029-.1-.059-.155-.076-.014-.005-.024-.016-.037-.019-.038-.01-.076-.003-.115-.008-.06-.008-.117-.016-.178-.011-.056.005-.108.02-.162.035-.052.015-.103.028-.153.053-.055.027-.1.065-.147.103-.031.024-.067.037-.094.065-.01.011-.013.025-.022.037-.038.042-.063.094-.091.144-.029.052-.06.101-.077.155-.005.014-.015.023-.019.037l-11.164 41.664z" stroke="#000" stroke-width=".864" fill="#000" fill-rule="nonzero"/>
      <path d="M446.221 427.763l-6.676-1.789a.864.864 0 00-1.058.611l-1.118 4.173c-.846 3.156 1.354 5.335 2.636 6.046a.851.851 0 00.403.109c1.466.025 4.461-.762 5.306-3.919l1.118-4.173a.863.863 0 00-.611-1.058zm-2.176 4.784c-.597 2.227-2.691 2.575-3.387 2.628-.577-.395-2.217-1.742-1.62-3.97l.894-3.338 5.008 1.342-.895 3.338z" fill="#000" fill-rule="nonzero"/>
      <path d="M288.293 330.856a.836.836 0 00.044-.161c.01-.054.021-.105.021-.159.001-.057-.009-.111-.019-.166a.84.84 0 00-.04-.155c-.021-.055-.053-.103-.086-.154-.02-.031-.029-.067-.054-.096l-13.286-15.487a25.586 25.586 0 00-5.476-4.309c-2.177-1.276-4.4-2.285-6.096-2.768l-.013-.004-16.691-4.472h-.006l-.006-.003c-1.712-.431-4.142-.668-6.664-.651a25.695 25.695 0 00-6.945 1.01l-19.2 6.754c-.037.012-.062.039-.096.056a.806.806 0 00-.15.09c-.043.034-.078.074-.113.114a.85.85 0 00-.099.133.86.86 0 00-.062.15.855.855 0 00-.042.16c-.008.056-.003.111.001.17.002.038-.008.075.001.114l3.17 15.494c.001.007.005.012.006.018l.001.013c.009.04.029.075.044.112.013.033.023.068.039.1.022.039.051.072.079.107.02.027.037.057.061.08.033.035.074.061.112.09.024.017.044.038.069.053a.866.866 0 00.415.117c.023.001.046-.004.069-.005.042-.003.084-.002.125-.011.004 0 .007-.003.011-.004.007-.002.013-.001.019-.002l8.929-2.163-11.01 41.091a.863.863 0 00.611 1.058l41.728 11.181a.863.863 0 001.058-.611l11.01-41.091 3.237 3.084H273s0 0 0 0l3.415 3.254c.004.004.011.006.015.011.003.002.004.007.007.01.033.028.068.049.103.072.019.012.036.028.057.039a.853.853 0 00.419.106c.026 0 .051-.007.077-.01.051-.005.102-.008.151-.022.031-.008.059-.025.089-.037.042-.017.085-.031.125-.056.03-.017.056-.044.084-.066.031-.024.065-.045.094-.075l.007-.01c.004-.005.01-.007.014-.013l10.492-11.833c.027-.029.036-.066.058-.098.033-.051.064-.097.086-.149zm-11.335 10.262l-2.186-2.082 9.602-10.83 1.982 2.312-9.398 10.6zm-14.151-32.06c-1.47 4.104-5.95 6.456-10.324 5.284-4.374-1.172-7.078-5.449-6.299-9.738l16.623 4.454zm-44.908 16.235l-2.84-13.879 2.623-.923 2.897 14.153-2.68.649zm39.407 51.166l-40.058-10.734 11.163-41.663c.004-.014-.001-.028.002-.041.013-.057.01-.115.011-.174 0-.058.004-.114-.006-.17-.003-.014.002-.028-.002-.042-.01-.039-.036-.07-.05-.106-.022-.056-.042-.11-.074-.16-.031-.048-.07-.085-.109-.125-.038-.039-.074-.077-.119-.109-.05-.035-.105-.056-.161-.08-.037-.015-.065-.04-.104-.051-.014-.003-.028.001-.041-.002-.056-.012-.113-.009-.171-.011-.059 0-.116-.004-.173.007-.014.002-.028-.002-.042.001l-5.114 1.238-2.931-14.325 14.173-4.986c2.094-.6 4.258-.912 6.432-.927a31.985 31.985 0 014.555.284c-.945 5.169 2.297 10.321 7.549 11.728 5.253 1.407 10.635-1.433 12.4-6.382a31.833 31.833 0 014.086 2.031 23.851 23.851 0 015.073 3.981l9.642 11.242-9.718 10.96-3.618-3.449c-.011-.01-.025-.013-.036-.022-.043-.038-.094-.063-.145-.092-.051-.029-.1-.059-.155-.076-.014-.005-.024-.016-.037-.019-.038-.01-.076-.003-.115-.008-.06-.008-.117-.016-.178-.011-.056.005-.108.02-.162.035-.052.015-.103.028-.153.053-.055.027-.1.065-.147.103-.031.024-.067.037-.094.065-.01.011-.013.025-.022.037-.038.042-.063.094-.091.144-.029.052-.06.101-.077.155-.005.014-.015.023-.019.037l-11.164 41.664z" stroke="#000" stroke-width=".864" fill="#000" fill-rule="nonzero"/>
      <path d="M267.221 322.763l-6.676-1.789a.864.864 0 00-1.058.611l-1.118 4.173c-.846 3.156 1.354 5.335 2.636 6.046a.851.851 0 00.403.109c1.466.025 4.461-.762 5.306-3.919l1.118-4.173a.863.863 0 00-.611-1.058zm-2.176 4.784c-.597 2.227-2.691 2.575-3.387 2.628-.577-.395-2.217-1.742-1.62-3.97l.894-3.338 5.008 1.342-.895 3.338z" fill="#000" fill-rule="nonzero"/>
      <path d="M320.293 583.856a.836.836 0 00.044-.161c.01-.054.021-.105.021-.159.001-.057-.009-.111-.019-.166a.84.84 0 00-.04-.155.805.805 0 00-.086-.154c-.02-.031-.029-.067-.054-.096l-13.286-15.487a25.586 25.586 0 00-5.476-4.309c-2.177-1.276-4.4-2.285-6.096-2.768l-.013-.004-16.691-4.472h-.006l-.006-.003c-1.712-.431-4.142-.668-6.664-.651a25.695 25.695 0 00-6.945 1.01l-19.2 6.754c-.037.012-.062.039-.096.056a.806.806 0 00-.15.09c-.043.034-.078.074-.113.114a.85.85 0 00-.099.133.86.86 0 00-.062.15.836.836 0 00-.042.16c-.008.056-.003.111.001.17.002.038-.008.075.001.114l3.17 15.494c.001.007.005.012.006.018l.001.013c.009.04.029.074.044.112.013.033.023.068.039.1.022.039.051.072.079.107.02.027.037.057.061.08.033.035.074.061.112.09.024.016.044.038.069.053a.866.866 0 00.415.117c.023.001.046-.004.069-.005.042-.003.084-.002.125-.011.004 0 .007-.003.011-.004.007-.002.013-.001.019-.002l8.929-2.163-11.01 41.091a.863.863 0 00.611 1.058l41.728 11.181a.863.863 0 001.058-.611l11.01-41.091 3.237 3.084H305s0 0 0 0l3.415 3.253c.004.005.011.007.015.012.003.002.004.007.007.01.033.028.068.049.103.072.019.012.036.028.057.039a.853.853 0 00.419.106c.026 0 .051-.008.077-.01.051-.005.102-.008.151-.022.031-.008.059-.025.089-.037.042-.017.085-.031.125-.056.03-.018.056-.044.084-.066.031-.024.065-.045.094-.075l.007-.01c.004-.006.01-.008.014-.013l10.492-11.833c.027-.029.036-.066.058-.099.033-.05.064-.096.086-.148zm-11.335 10.262l-2.186-2.083 9.602-10.829 1.982 2.311-9.398 10.601zm-14.151-32.06c-1.47 4.104-5.95 6.456-10.324 5.284-4.374-1.172-7.078-5.449-6.299-9.738l16.623 4.454zm-44.908 16.235l-2.84-13.879 2.623-.923 2.897 14.153-2.68.649zm39.407 51.166l-40.058-10.734 11.163-41.663c.004-.014-.001-.028.002-.042.013-.056.01-.114.011-.173 0-.058.004-.114-.006-.17-.003-.014.002-.028-.002-.042-.01-.039-.036-.07-.05-.107-.022-.055-.042-.109-.074-.159-.031-.048-.07-.085-.109-.125-.038-.039-.074-.077-.119-.109-.05-.035-.105-.056-.161-.08-.037-.015-.065-.04-.104-.051-.014-.003-.028.001-.041-.002-.056-.012-.113-.009-.171-.011-.059 0-.116-.004-.173.007-.014.002-.028-.002-.042.001l-5.114 1.238-2.931-14.325 14.173-4.986c2.094-.6 4.258-.912 6.432-.927a31.985 31.985 0 014.555.284c-.945 5.169 2.297 10.321 7.549 11.728 5.253 1.407 10.635-1.433 12.4-6.382a31.833 31.833 0 014.086 2.031 23.851 23.851 0 015.073 3.981l9.642 11.242-9.718 10.96-3.618-3.449c-.011-.01-.025-.013-.036-.022-.043-.038-.094-.063-.145-.092-.051-.029-.1-.059-.155-.076-.014-.005-.024-.016-.037-.019-.038-.011-.076-.003-.115-.008-.06-.008-.117-.016-.178-.011-.056.005-.108.02-.162.035-.052.015-.103.028-.153.053-.055.027-.1.065-.147.103-.031.024-.067.037-.094.065-.01.011-.013.025-.022.036-.038.043-.063.095-.091.145-.029.052-.06.1-.077.155-.005.014-.015.023-.019.037l-11.164 41.664z" stroke="#000" stroke-width=".864" fill="#000" fill-rule="nonzero"/>
      <path d="M299.221 575.763l-6.676-1.789a.864.864 0 00-1.058.611l-1.118 4.173c-.846 3.156 1.354 5.335 2.636 6.046a.806.806 0 00.195.079.81.81 0 00.208.03c1.466.025 4.461-.762 5.306-3.919l1.118-4.173a.863.863 0 00-.611-1.058zm-2.176 4.784c-.597 2.227-2.691 2.575-3.387 2.628-.577-.395-2.217-1.742-1.62-3.97l.894-3.338 5.008 1.342-.895 3.338z" fill="#000" fill-rule="nonzero"/>
      <path d="M258.729 461.933l-5.117-7.319a2.1 2.1 0 00-2.752-.632 4.8 4.8 0 01-6.274-1.445 4.821 4.821 0 01.79-6.4c.819-.707.97-1.921.35-2.808l-5.116-7.319a7.038 7.038 0 00-9.811-1.734l-43.797 30.723a7.076 7.076 0 00-1.73 9.833l4.145 5.93v5.47c0 1.083.818 1.99 1.894 2.099a4.811 4.811 0 014.311 4.789 4.81 4.81 0 01-4.311 4.788 2.108 2.108 0 00-1.894 2.099v8.934c.004 3.897 3.157 7.055 7.047 7.059h53.465c3.889-.004 7.04-3.161 7.045-7.057v-8.936c0-1.083-.819-1.99-1.894-2.099a4.81 4.81 0 01-4.312-4.788 4.812 4.812 0 014.312-4.789 2.109 2.109 0 001.894-2.099v-8.936a6.989 6.989 0 00-1.586-4.404l1.61-1.13a7.074 7.074 0 001.731-9.829zm-5.968 22.598a9.04 9.04 0 00-6.205 8.589 9.038 9.038 0 006.205 8.588v7.235a2.838 2.838 0 01-2.832 2.837h-53.465a2.84 2.84 0 01-2.834-2.839v-7.233a9.038 9.038 0 006.205-8.588 9.04 9.04 0 00-6.205-8.589v-7.232a2.84 2.84 0 012.834-2.84h53.465a2.838 2.838 0 012.832 2.837v7.235zm1.821-16.226l-3.046 2.136a7.017 7.017 0 00-1.607-.202H228.86l-2.382-2.18a.813.813 0 01-.242-.792l.816-3.383a.812.812 0 00-1.19-.898l-3.021 1.718a.81.81 0 01-.826-.014l-2.96-1.823a.812.812 0 00-1.221.856l.698 3.41a.818.818 0 01-.269.783l-2.646 2.256c-.022.019-.023.047-.043.067h-19.11a7.042 7.042 0 00-6.384 4.114l-1.357-1.942a2.846 2.846 0 01.696-3.955l43.797-30.722a2.824 2.824 0 013.943.697l4.142 5.926a9.053 9.053 0 00-.165 10.601 9.013 9.013 0 0010 3.469l4.141 5.927a2.842 2.842 0 01-.695 3.951zm-24.673 24.034l-2.606 2.303a.815.815 0 00-.255.787l.758 3.398a.815.815 0 01-.316.835.81.81 0 01-.89.042l-2.991-1.772a.816.816 0 00-.827 0l-2.991 1.772a.813.813 0 01-1.205-.877l.757-3.398a.817.817 0 00-.255-.787l-2.607-2.303a.813.813 0 01.461-1.419l3.459-.329a.812.812 0 00.669-.487l1.38-3.194a.812.812 0 011.491 0l1.38 3.194a.814.814 0 00.668.487l3.46.329a.812.812 0 01.46 1.419zM120.729 325.933l-5.117-7.319a2.102 2.102 0 00-2.752-.632 4.8 4.8 0 01-6.274-1.445 4.82 4.82 0 01.79-6.4c.819-.707.97-1.921.35-2.808l-5.116-7.319a7.037 7.037 0 00-9.81-1.734l-43.798 30.723a7.077 7.077 0 00-1.73 9.833l4.145 5.93v5.47c0 1.083.819 1.99 1.894 2.099a4.812 4.812 0 014.311 4.789 4.81 4.81 0 01-4.311 4.788 2.108 2.108 0 00-1.894 2.099v8.934c.004 3.897 3.157 7.055 7.047 7.059h53.465c3.889-.004 7.04-3.161 7.044-7.057v-8.936c0-1.083-.818-1.99-1.893-2.099a4.81 4.81 0 01-4.312-4.788 4.812 4.812 0 014.312-4.789 2.108 2.108 0 001.894-2.099v-8.936a6.99 6.99 0 00-1.586-4.404l1.61-1.13a7.074 7.074 0 001.73-9.829zm-5.968 22.598a9.04 9.04 0 00-6.205 8.589 9.039 9.039 0 006.205 8.588v7.235a2.837 2.837 0 01-2.832 2.837H58.464a2.84 2.84 0 01-2.834-2.839v-7.233a9.039 9.039 0 006.205-8.588 9.04 9.04 0 00-6.205-8.589v-7.232a2.84 2.84 0 012.834-2.84h53.465a2.838 2.838 0 012.832 2.837v7.235zm1.821-16.226l-3.046 2.136a7.021 7.021 0 00-1.607-.202H90.86l-2.381-2.18a.813.813 0 01-.242-.792l.816-3.383a.811.811 0 00-1.19-.898l-3.021 1.718a.81.81 0 01-.826-.014l-2.96-1.823a.81.81 0 00-1.222.856l.7 3.41c.058.29-.045.59-.27.783l-2.645 2.256c-.023.019-.024.047-.044.067h-19.11a7.041 7.041 0 00-6.384 4.114l-1.357-1.942a2.847 2.847 0 01.696-3.955l43.797-30.722a2.824 2.824 0 013.944.697l4.14 5.926a9.055 9.055 0 00-.164 10.601 9.014 9.014 0 0010 3.469l4.141 5.927a2.843 2.843 0 01-.695 3.951zm-24.673 24.034l-2.606 2.303a.815.815 0 00-.255.787l.758 3.398a.814.814 0 01-1.206.877l-2.991-1.772a.816.816 0 00-.827 0l-2.991 1.772a.81.81 0 01-1.205-.877l.757-3.398a.815.815 0 00-.255-.787l-2.607-2.303a.813.813 0 01.461-1.419l3.46-.329a.81.81 0 00.668-.487l1.38-3.194a.811.811 0 011.49 0l1.38 3.194a.813.813 0 00.67.487l3.459.329a.813.813 0 01.46 1.419zM292.729 189.933l-5.117-7.319a2.1 2.1 0 00-2.752-.632 4.8 4.8 0 01-6.274-1.445 4.821 4.821 0 01.79-6.4c.819-.707.97-1.921.35-2.808l-5.116-7.319a7.038 7.038 0 00-9.811-1.734l-43.797 30.723a7.076 7.076 0 00-1.73 9.833l4.145 5.93v5.47c0 1.083.818 1.99 1.894 2.099a4.811 4.811 0 014.311 4.789 4.81 4.81 0 01-4.311 4.788 2.108 2.108 0 00-1.894 2.099v8.934c.004 3.897 3.157 7.055 7.047 7.059h53.465c3.889-.004 7.04-3.161 7.045-7.057v-8.936c0-1.083-.819-1.99-1.894-2.099a4.81 4.81 0 01-4.312-4.788 4.812 4.812 0 014.312-4.789 2.109 2.109 0 001.894-2.099v-8.936a6.989 6.989 0 00-1.586-4.404l1.61-1.13a7.074 7.074 0 001.731-9.829zm-5.968 22.598a9.04 9.04 0 00-6.205 8.589 9.038 9.038 0 006.205 8.588v7.235a2.838 2.838 0 01-2.832 2.837h-53.465a2.84 2.84 0 01-2.834-2.839v-7.233a9.038 9.038 0 006.205-8.588 9.04 9.04 0 00-6.205-8.589v-7.232a2.84 2.84 0 012.834-2.84h53.465a2.838 2.838 0 012.832 2.837v7.235zm1.821-16.226l-3.046 2.136a7.017 7.017 0 00-1.607-.202H262.86l-2.382-2.18a.813.813 0 01-.242-.792l.816-3.383a.812.812 0 00-1.19-.898l-3.021 1.718a.81.81 0 01-.826-.014l-2.96-1.823a.812.812 0 00-1.221.856l.698 3.41a.818.818 0 01-.269.783l-2.646 2.256c-.022.019-.023.047-.043.067h-19.11a7.042 7.042 0 00-6.384 4.114l-1.357-1.942a2.846 2.846 0 01.696-3.955l43.797-30.722a2.824 2.824 0 013.943.697l4.142 5.926a9.053 9.053 0 00-.165 10.601 9.013 9.013 0 0010 3.469l4.141 5.927a2.842 2.842 0 01-.695 3.951zm-24.673 24.034l-2.606 2.303a.815.815 0 00-.255.787l.758 3.398a.815.815 0 01-.316.835.81.81 0 01-.89.042l-2.991-1.772a.816.816 0 00-.827 0l-2.991 1.772a.813.813 0 01-1.205-.877l.757-3.398a.817.817 0 00-.255-.787l-2.607-2.303a.813.813 0 01.461-1.419l3.459-.329a.812.812 0 00.669-.487l1.38-3.194a.812.812 0 011.491 0l1.38 3.194a.814.814 0 00.668.487l3.46.329a.812.812 0 01.46 1.419zM465.729 277.933l-5.117-7.319a2.1 2.1 0 00-2.752-.632 4.8 4.8 0 01-6.274-1.445 4.821 4.821 0 01.79-6.4c.819-.707.97-1.921.35-2.808l-5.116-7.319a7.038 7.038 0 00-9.811-1.734l-43.797 30.723a7.076 7.076 0 00-1.73 9.833l4.145 5.93v5.47c0 1.083.818 1.99 1.894 2.099a4.811 4.811 0 014.311 4.789 4.81 4.81 0 01-4.311 4.788 2.108 2.108 0 00-1.894 2.099v8.934c.004 3.897 3.157 7.055 7.047 7.059h53.465c3.889-.004 7.04-3.161 7.045-7.057v-8.936c0-1.083-.819-1.99-1.894-2.099a4.81 4.81 0 01-4.312-4.788 4.812 4.812 0 014.312-4.789 2.109 2.109 0 001.894-2.099v-8.936a6.989 6.989 0 00-1.586-4.404l1.61-1.13a7.074 7.074 0 001.731-9.829zm-5.968 22.598a9.04 9.04 0 00-6.205 8.589 9.038 9.038 0 006.205 8.588v7.235a2.838 2.838 0 01-2.832 2.837h-53.465a2.84 2.84 0 01-2.834-2.839v-7.233a9.038 9.038 0 006.205-8.588 9.04 9.04 0 00-6.205-8.589v-7.232a2.84 2.84 0 012.834-2.84h53.465a2.838 2.838 0 012.832 2.837v7.235zm1.821-16.226l-3.046 2.136a7.017 7.017 0 00-1.607-.202H435.86l-2.382-2.18a.813.813 0 01-.242-.792l.816-3.383a.812.812 0 00-1.19-.898l-3.021 1.718a.81.81 0 01-.826-.014l-2.96-1.823a.812.812 0 00-1.221.856l.698 3.41a.818.818 0 01-.269.783l-2.646 2.256c-.022.019-.023.047-.043.067h-19.11a7.042 7.042 0 00-6.384 4.114l-1.357-1.942a2.846 2.846 0 01.696-3.955l43.797-30.722a2.824 2.824 0 013.943.697l4.142 5.926a9.053 9.053 0 00-.165 10.601 9.013 9.013 0 0010 3.469l4.141 5.927a2.842 2.842 0 01-.695 3.951zm-24.673 24.034l-2.606 2.303a.815.815 0 00-.255.787l.758 3.398a.815.815 0 01-.316.835.81.81 0 01-.89.042l-2.991-1.772a.816.816 0 00-.827 0l-2.991 1.772a.813.813 0 01-1.205-.877l.757-3.398a.817.817 0 00-.255-.787l-2.607-2.303a.813.813 0 01.461-1.419l3.459-.329a.812.812 0 00.669-.487l1.38-3.194a.812.812 0 011.491 0l1.38 3.194a.814.814 0 00.668.487l3.46.329a.812.812 0 01.46 1.419z" fill="#222" fill-rule="nonzero"/>
      <path d="M1053.82 601.848h-8.23l-4.05-5.573 2.63-8.095 6.55-2.13 6.67 4.847a21.524 21.524 0 01-3.57 10.951zm-12.06 8.771a21.278 21.278 0 01-11.52-.006l-2.55-7.832 4.05-5.575h8.52l4.04 5.574-2.54 7.839zm-23.59-8.771a21.38 21.38 0 01-2.534-5.232 21.364 21.364 0 01-1.025-5.722l6.667-4.844 6.552 2.13 2.63 8.094-4.05 5.574h-8.24zm10.37-31.914l6.67 4.843v6.89l-6.89 5.003-6.552-2.128-2.544-7.832a21.262 21.262 0 019.316-6.776zm8.25 4.844l6.66-4.836a21.505 21.505 0 019.33 6.759l-2.55 7.841-6.55 2.128-6.89-5.004v-6.888zm-7.9-6.65c-12.057 3.918-18.681 16.918-14.762 28.979 3.919 12.06 16.922 18.684 28.982 14.765 12.06-3.919 18.68-16.918 14.76-28.979-3.92-12.06-16.92-18.684-28.98-14.765zM1152.82 440.848h-8.23l-4.05-5.573 2.63-8.095 6.55-2.13 6.67 4.847a21.524 21.524 0 01-3.57 10.951zm-12.06 8.771a21.278 21.278 0 01-11.52-.006l-2.55-7.832 4.05-5.575h8.52l4.04 5.574-2.54 7.839zm-23.59-8.771a21.261 21.261 0 01-2.53-5.232 21.256 21.256 0 01-1.03-5.722l6.67-4.844 6.55 2.13 2.63 8.094-4.05 5.574h-8.24zm10.37-31.914l6.67 4.843v6.89l-6.89 5.003-6.55-2.128-2.55-7.832a21.297 21.297 0 019.32-6.776zm8.25 4.844l6.66-4.836a21.505 21.505 0 019.33 6.759l-2.55 7.841-6.55 2.128-6.89-5.004v-6.888zm-7.9-6.65c-12.06 3.918-18.68 16.918-14.76 28.979 3.92 12.06 16.92 18.684 28.98 14.765 12.06-3.919 18.68-16.918 14.76-28.979-3.92-12.06-16.92-18.684-28.98-14.765zM1176.82 292.848h-8.23l-4.05-5.573 2.63-8.095 6.55-2.13 6.67 4.847a21.524 21.524 0 01-3.57 10.951zm-12.06 8.771a21.278 21.278 0 01-11.52-.006l-2.55-7.832 4.05-5.575h8.52l4.04 5.574-2.54 7.839zm-23.59-8.771a21.261 21.261 0 01-2.53-5.232 21.256 21.256 0 01-1.03-5.722l6.67-4.844 6.55 2.13 2.63 8.094-4.05 5.574h-8.24zm10.37-31.914l6.67 4.843v6.89l-6.89 5.003-6.55-2.128-2.55-7.832a21.297 21.297 0 019.32-6.776zm8.25 4.844l6.66-4.836a21.505 21.505 0 019.33 6.759l-2.55 7.841-6.55 2.128-6.89-5.004v-6.888zm-7.9-6.65c-12.06 3.918-18.68 16.918-14.76 28.979 3.92 12.06 16.92 18.684 28.98 14.765 12.06-3.919 18.68-16.918 14.76-28.979-3.92-12.06-16.92-18.684-28.98-14.765zM1099.82 56.849h-8.23l-4.05-5.574 2.63-8.095 6.55-2.13 6.67 4.847a21.527 21.527 0 01-3.57 10.952zm-12.06 8.77a21.283 21.283 0 01-11.52-.006l-2.55-7.832 4.05-5.575h8.52l4.04 5.574-2.54 7.84zm-23.59-8.77a21.27 21.27 0 01-2.53-5.233c-.62-1.897-.95-3.82-1.03-5.722l6.67-4.844 6.55 2.13 2.63 8.094-4.05 5.574h-8.24zm10.37-31.915l6.67 4.843v6.89l-6.89 5.003-6.55-2.128-2.55-7.832a21.294 21.294 0 019.32-6.776zm8.25 4.844l6.66-4.836a21.5 21.5 0 019.33 6.76l-2.55 7.84-6.55 2.128-6.89-5.004v-6.888zm-7.9-6.65c-12.06 3.918-18.68 16.918-14.76 28.979 3.92 12.06 16.92 18.684 28.98 14.765 12.06-3.919 18.68-16.918 14.76-28.979-3.92-12.06-16.92-18.684-28.98-14.765zM1376.82 149.848h-8.23l-4.05-5.573 2.63-8.095 6.55-2.13 6.67 4.847a21.524 21.524 0 01-3.57 10.951zm-12.06 8.771a21.278 21.278 0 01-11.52-.006l-2.55-7.832 4.05-5.575h8.52l4.04 5.574-2.54 7.839zm-23.59-8.771a21.261 21.261 0 01-2.53-5.232c-.62-1.897-.95-3.82-1.03-5.722l6.67-4.844 6.55 2.13 2.63 8.094-4.05 5.574h-8.24zm10.37-31.914l6.67 4.843v6.89l-6.89 5.003-6.55-2.128-2.55-7.832a21.294 21.294 0 019.32-6.776zm8.25 4.844l6.66-4.836a21.5 21.5 0 019.33 6.76l-2.55 7.84-6.55 2.128-6.89-5.004v-6.888zm-7.9-6.65c-12.06 3.918-18.68 16.919-14.76 28.979 3.92 12.06 16.92 18.684 28.98 14.765 12.06-3.919 18.68-16.918 14.76-28.979-3.92-12.06-16.92-18.684-28.98-14.765zM1346.82 510.848h-8.23l-4.05-5.573 2.63-8.095 6.55-2.13 6.67 4.847a21.524 21.524 0 01-3.57 10.951zm-12.06 8.771a21.278 21.278 0 01-11.52-.006l-2.55-7.832 4.05-5.575h8.52l4.04 5.574-2.54 7.839zm-23.59-8.771a21.261 21.261 0 01-2.53-5.232 21.256 21.256 0 01-1.03-5.722l6.67-4.844 6.55 2.13 2.63 8.094-4.05 5.574h-8.24zm10.37-31.914l6.67 4.843v6.89l-6.89 5.003-6.55-2.128-2.55-7.832a21.297 21.297 0 019.32-6.776zm8.25 4.844l6.66-4.836a21.505 21.505 0 019.33 6.759l-2.55 7.841-6.55 2.128-6.89-5.004v-6.888zm-7.9-6.65c-12.06 3.918-18.68 16.918-14.76 28.979 3.92 12.06 16.92 18.684 28.98 14.765 12.06-3.919 18.68-16.918 14.76-28.979-3.92-12.06-16.92-18.684-28.98-14.765zM1369.82 381.848h-8.23l-4.05-5.573 2.63-8.095 6.55-2.13 6.67 4.847a21.524 21.524 0 01-3.57 10.951zm-12.06 8.771a21.278 21.278 0 01-11.52-.006l-2.55-7.832 4.05-5.575h8.52l4.04 5.574-2.54 7.839zm-23.59-8.771a21.261 21.261 0 01-2.53-5.232 21.256 21.256 0 01-1.03-5.722l6.67-4.844 6.55 2.13 2.63 8.094-4.05 5.574h-8.24zm10.37-31.914l6.67 4.843v6.89l-6.89 5.003-6.55-2.128-2.55-7.832a21.297 21.297 0 019.32-6.776zm8.25 4.844l6.66-4.836a21.505 21.505 0 019.33 6.759l-2.55 7.841-6.55 2.128-6.89-5.004v-6.888zm-7.9-6.65c-12.06 3.918-18.68 16.918-14.76 28.979 3.92 12.06 16.92 18.684 28.98 14.765 12.06-3.919 18.68-16.918 14.76-28.979-3.92-12.06-16.92-18.684-28.98-14.765zM1088.82 232.848h-8.23l-4.05-5.573 2.63-8.095 6.55-2.13 6.67 4.847a21.524 21.524 0 01-3.57 10.951zm-12.06 8.771a21.278 21.278 0 01-11.52-.006l-2.55-7.832 4.05-5.575h8.52l4.04 5.574-2.54 7.839zm-23.59-8.771a21.261 21.261 0 01-2.53-5.232 21.256 21.256 0 01-1.03-5.722l6.67-4.844 6.55 2.13 2.63 8.094-4.05 5.574h-8.24zm10.37-31.914l6.67 4.843v6.89l-6.89 5.003-6.55-2.128-2.55-7.832a21.297 21.297 0 019.32-6.776zm8.25 4.844l6.66-4.836a21.505 21.505 0 019.33 6.759l-2.55 7.841-6.55 2.128-6.89-5.004v-6.888zm-7.9-6.65c-12.06 3.918-18.68 16.918-14.76 28.979 3.92 12.06 16.92 18.684 28.98 14.765 12.06-3.919 18.68-16.918 14.76-28.979-3.92-12.06-16.92-18.684-28.98-14.765zM1243.82 68.849h-8.23l-4.05-5.574 2.63-8.095 6.55-2.13 6.67 4.847a21.527 21.527 0 01-3.57 10.951zm-12.06 8.77a21.283 21.283 0 01-11.52-.006l-2.55-7.832 4.05-5.575h8.52l4.04 5.574-2.54 7.84zm-23.59-8.77a21.27 21.27 0 01-2.53-5.233c-.62-1.897-.95-3.82-1.03-5.722l6.67-4.844 6.55 2.13 2.63 8.094-4.05 5.574h-8.24zm10.37-31.915l6.67 4.843v6.89l-6.89 5.003-6.55-2.128-2.55-7.832a21.295 21.295 0 019.32-6.776zm8.25 4.844l6.66-4.836a21.5 21.5 0 019.33 6.76l-2.55 7.84-6.55 2.128-6.89-5.004v-6.888zm-7.9-6.65c-12.06 3.918-18.68 16.918-14.76 28.979 3.92 12.06 16.92 18.684 28.98 14.766 12.06-3.92 18.68-16.92 14.76-28.98-3.92-12.06-16.92-18.684-28.98-14.765zM1044.82 118.849h-8.23l-4.05-5.574 2.63-8.095 6.55-2.13 6.67 4.847a21.527 21.527 0 01-3.57 10.951zm-12.06 8.77a21.283 21.283 0 01-11.52-.006l-2.545-7.832 4.05-5.575h8.515l4.04 5.574-2.54 7.84zm-23.59-8.77a21.388 21.388 0 01-2.534-5.233 21.364 21.364 0 01-1.025-5.722l6.667-4.844 6.552 2.13 2.631 8.094-4.049 5.574h-8.242zm10.369-31.915l6.671 4.844v6.888l-6.89 5.004-6.552-2.128-2.544-7.832a21.268 21.268 0 019.315-6.776zm8.251 4.844l6.66-4.836a21.5 21.5 0 019.33 6.76l-2.55 7.84-6.55 2.128-6.89-5.004v-6.888zm-7.897-6.65c-12.06 3.918-18.684 16.918-14.765 28.979 3.919 12.06 16.918 18.684 28.982 14.766 12.06-3.92 18.68-16.92 14.76-28.98-3.92-12.06-16.92-18.684-28.977-14.765zM1194.82 601.848h-8.23l-4.05-5.573 2.63-8.095 6.55-2.13 6.67 4.847a21.524 21.524 0 01-3.57 10.951zm-12.06 8.771a21.278 21.278 0 01-11.52-.006l-2.55-7.832 4.05-5.575h8.52l4.04 5.574-2.54 7.839zm-23.59-8.771a21.261 21.261 0 01-2.53-5.232 21.256 21.256 0 01-1.03-5.722l6.67-4.844 6.55 2.13 2.63 8.094-4.05 5.574h-8.24zm10.37-31.914l6.67 4.843v6.89l-6.89 5.003-6.55-2.128-2.55-7.832a21.297 21.297 0 019.32-6.776zm8.25 4.844l6.66-4.836a21.505 21.505 0 019.33 6.759l-2.55 7.841-6.55 2.128-6.89-5.004v-6.888zm-7.9-6.65c-12.06 3.918-18.68 16.918-14.76 28.979 3.92 12.06 16.92 18.684 28.98 14.765 12.06-3.919 18.68-16.918 14.76-28.979-3.92-12.06-16.92-18.684-28.98-14.765zM1053.82 463.848h-8.23l-4.05-5.573 2.63-8.095 6.55-2.13 6.67 4.847a21.524 21.524 0 01-3.57 10.951zm-12.06 8.771a21.278 21.278 0 01-11.52-.006l-2.55-7.832 4.05-5.575h8.52l4.04 5.574-2.54 7.839zm-23.59-8.771a21.38 21.38 0 01-2.534-5.232 21.364 21.364 0 01-1.025-5.722l6.667-4.844 6.552 2.13 2.63 8.094-4.05 5.574h-8.24zm10.37-31.914l6.67 4.843v6.89l-6.89 5.003-6.552-2.128-2.544-7.832a21.262 21.262 0 019.316-6.776zm8.25 4.844l6.66-4.836a21.505 21.505 0 019.33 6.759l-2.55 7.841-6.55 2.128-6.89-5.004v-6.888zm-7.9-6.65c-12.057 3.918-18.681 16.918-14.762 28.979 3.919 12.06 16.922 18.684 28.982 14.765 12.06-3.919 18.68-16.918 14.76-28.979-3.92-12.06-16.92-18.684-28.98-14.765z" fill="#0C0C0C"/>
      <path d="M1153.29 507.856c.02-.053.04-.106.05-.161.01-.054.02-.105.02-.159 0-.057-.01-.111-.02-.166a.84.84 0 00-.04-.155.553.553 0 00-.09-.154c-.02-.031-.03-.067-.05-.096l-13.29-15.487a25.577 25.577 0 00-5.47-4.309c-2.18-1.276-4.4-2.285-6.1-2.768l-.01-.004-16.69-4.472h-.01c0-.001 0-.003-.01-.003-1.71-.431-4.14-.668-6.66-.651-2.33.016-4.65.351-6.94 1.01l-19.2 6.754c-.04.012-.07.039-.1.056-.05.027-.1.053-.15.09a.738.738 0 00-.11.114.798.798 0 00-.1.133.43.43 0 00-.06.15c-.02.052-.04.104-.05.16 0 .056 0 .111.01.17 0 .038-.01.075 0 .114l3.17 15.494v.031c.01.04.03.075.05.112.01.033.02.068.04.1.02.039.05.072.07.107.03.027.04.057.07.08.03.035.07.061.11.09.02.017.04.038.07.053a.814.814 0 00.41.117c.03.001.05-.004.07-.005.04-.003.08-.002.13-.011 0 0 0-.003.01-.004 0-.002.01-.001.02-.002l8.93-2.163-11.02 41.091c-.12.462.16.935.62 1.058l41.72 11.181a.86.86 0 001.06-.611l11.01-41.091 3.24 3.084s0 0 0 0 0 0 0 0l3.42 3.254c0 .004.01.006.01.011 0 .002 0 .007.01.01.03.028.07.049.1.072.02.012.04.028.06.039a.853.853 0 00.42.106c.02 0 .05-.007.07-.01.05-.005.1-.008.15-.022.04-.008.06-.025.09-.037a.592.592 0 00.13-.056c.03-.017.05-.044.08-.066.03-.024.07-.045.1-.075v-.01c.01-.005.01-.007.02-.013l10.49-11.833c.03-.029.04-.066.06-.098.03-.051.06-.097.08-.149zm-11.33 10.262l-2.19-2.082 9.6-10.83 1.99 2.312-9.4 10.6zm-14.15-32.06c-1.47 4.104-5.95 6.456-10.33 5.284-4.37-1.172-7.07-5.449-6.3-9.738l16.63 4.454zm-44.91 16.235l-2.84-13.879 2.62-.923 2.9 14.153-2.68.649zm39.41 51.166l-40.06-10.734 11.16-41.663v-.041c.02-.057.01-.115.01-.174 0-.058.01-.114 0-.17v-.042c-.01-.039-.04-.07-.05-.106-.03-.056-.05-.11-.08-.16-.03-.048-.07-.085-.11-.125a.473.473 0 00-.12-.109.748.748 0 00-.16-.08c-.03-.015-.06-.04-.1-.051-.02-.003-.03.001-.04-.002-.06-.012-.12-.009-.17-.011-.06 0-.12-.004-.18.007-.01.002-.02-.002-.04.001l-5.11 1.238-2.93-14.325 14.17-4.986c2.09-.6 4.26-.912 6.43-.927 1.61-.011 3.21.094 4.56.284-.95 5.169 2.29 10.321 7.55 11.728 5.25 1.407 10.63-1.433 12.4-6.382a32.04 32.04 0 014.08 2.031c1.88 1.1 3.6 2.452 5.08 3.981l9.64 11.242-9.72 10.96-3.62-3.449c-.01-.01-.02-.013-.03-.022-.05-.038-.1-.063-.15-.092-.05-.029-.1-.059-.15-.076-.02-.005-.03-.016-.04-.019-.04-.01-.08-.003-.12-.008-.06-.008-.11-.016-.17-.011-.06.005-.11.02-.17.035-.05.015-.1.028-.15.053-.05.027-.1.065-.15.103-.03.024-.06.037-.09.065-.01.011-.01.025-.02.037a.457.457 0 00-.09.144c-.03.052-.06.101-.08.155-.01.014-.02.023-.02.037l-11.16 41.664z" stroke="#000" stroke-width=".864" fill="#000" fill-rule="nonzero"/>
      <path d="M1132.22 499.763l-6.67-1.789a.861.861 0 00-1.06.611l-1.12 4.173c-.85 3.156 1.35 5.335 2.63 6.046a.893.893 0 00.41.109c1.46.025 4.46-.762 5.3-3.919l1.12-4.173a.86.86 0 00-.61-1.058zm-2.17 4.784c-.6 2.227-2.7 2.575-3.39 2.628-.58-.395-2.22-1.742-1.62-3.97l.89-3.338 5.01 1.342-.89 3.338z" fill="#000" fill-rule="nonzero"/>
      <path d="M1183.29 129.856a.908.908 0 00.05-.161c.01-.054.02-.105.02-.16 0-.056-.01-.11-.02-.165a.842.842 0 00-.04-.155.539.539 0 00-.09-.153c-.02-.032-.03-.068-.05-.097l-13.29-15.487a25.615 25.615 0 00-5.47-4.31c-2.18-1.275-4.4-2.284-6.1-2.767l-.01-.004-16.69-4.472h-.01c0-.001 0-.003-.01-.003-1.71-.431-4.14-.668-6.66-.65-2.33.015-4.65.35-6.94 1.009l-19.2 6.754c-.04.012-.07.04-.1.056-.05.027-.1.053-.15.09a.712.712 0 00-.11.114.804.804 0 00-.1.133.433.433 0 00-.06.15c-.02.053-.04.104-.05.16 0 .056 0 .111.01.17 0 .038-.01.076 0 .114l3.17 15.494v.031c.01.04.03.075.05.112.01.033.02.068.04.1.02.04.05.072.07.108.03.026.04.056.07.08.03.034.07.06.11.089.02.017.04.038.07.053a.812.812 0 00.41.117c.03.001.05-.004.07-.005.04-.003.08-.002.13-.01 0-.001 0-.004.01-.005 0-.002.01 0 .02-.002l8.93-2.163-11.02 41.091c-.12.462.16.935.62 1.058l41.72 11.181a.86.86 0 001.06-.611l11.01-41.09 3.24 3.083s0 0 0 0 0 0 0 0l3.42 3.254c0 .004.01.006.01.01 0 .003 0 .008.01.01.03.03.07.05.1.073.02.012.04.029.06.04a.849.849 0 00.42.106c.02 0 .05-.008.07-.01.05-.005.1-.009.15-.022.04-.01.06-.026.09-.038a.65.65 0 00.13-.055c.03-.018.05-.045.08-.067.03-.024.07-.045.1-.074v-.011c.01-.005.01-.007.02-.013l10.49-11.832c.03-.03.04-.067.06-.1.03-.05.06-.096.08-.148zm-11.33 10.262l-2.19-2.082 9.6-10.83 1.99 2.312-9.4 10.6zm-14.15-32.06c-1.47 4.104-5.95 6.456-10.33 5.284-4.37-1.172-7.07-5.449-6.3-9.738l16.63 4.454zm-44.91 16.235l-2.84-13.879 2.62-.923 2.9 14.153-2.68.649zm39.41 51.166l-40.06-10.734 11.16-41.663v-.041c.02-.057.01-.115.01-.174 0-.058.01-.114 0-.17v-.042c-.01-.04-.04-.07-.05-.107-.03-.055-.05-.11-.08-.159-.03-.048-.07-.085-.11-.125a.472.472 0 00-.12-.109.72.72 0 00-.16-.08c-.03-.015-.06-.04-.1-.05-.02-.004-.03 0-.04-.003-.06-.012-.12-.01-.17-.01-.06-.001-.12-.005-.18.006-.01.002-.02-.002-.04.001l-5.11 1.238-2.93-14.325 14.17-4.986c2.09-.6 4.26-.912 6.43-.927 1.61-.011 3.21.094 4.56.284-.95 5.17 2.29 10.32 7.55 11.728 5.25 1.407 10.63-1.433 12.4-6.382a31.98 31.98 0 014.08 2.03 23.9 23.9 0 015.08 3.982l9.64 11.242-9.72 10.96-3.62-3.45c-.01-.01-.02-.012-.03-.021-.05-.038-.1-.063-.15-.092-.05-.029-.1-.059-.15-.076-.02-.005-.03-.016-.04-.02-.04-.01-.08-.002-.12-.007-.06-.008-.11-.016-.17-.01-.06.004-.11.02-.17.034-.05.015-.1.028-.15.053-.05.027-.1.065-.15.103-.03.024-.06.037-.09.066-.01.01-.01.024-.02.036a.462.462 0 00-.09.144c-.03.052-.06.1-.08.155-.01.014-.02.023-.02.037l-11.16 41.664z" stroke="#000" stroke-width=".864" fill="#000" fill-rule="nonzero"/>
      <path d="M1162.22 121.763l-6.67-1.789a.86.86 0 00-1.06.611l-1.12 4.173c-.85 3.156 1.35 5.335 2.63 6.046a.888.888 0 00.41.108c1.46.026 4.46-.761 5.3-3.918l1.12-4.173a.86.86 0 00-.61-1.058zm-2.17 4.784c-.6 2.228-2.7 2.575-3.39 2.628-.58-.395-2.22-1.742-1.62-3.97l.89-3.338 5.01 1.342-.89 3.338z" fill="#000" fill-rule="nonzero"/>
      <path d="M999.293 180.856a.836.836 0 00.044-.161c.01-.054.021-.105.021-.159.001-.057-.009-.111-.019-.166a.84.84 0 00-.04-.155c-.021-.055-.053-.103-.086-.154-.02-.031-.029-.067-.054-.096l-13.286-15.487a25.586 25.586 0 00-5.476-4.309c-2.177-1.276-4.4-2.285-6.096-2.768l-.013-.004-16.691-4.472h-.006l-.006-.003c-1.712-.431-4.142-.668-6.664-.651a25.695 25.695 0 00-6.945 1.01l-19.2 6.754c-.037.012-.062.039-.096.056a.806.806 0 00-.15.09c-.043.034-.078.074-.113.114a.85.85 0 00-.099.133.86.86 0 00-.062.15.855.855 0 00-.042.16c-.008.056-.003.111.001.17.002.038-.008.075.001.114l3.17 15.494c.001.007.005.012.006.018l.001.013c.009.04.029.075.044.112.013.033.023.068.039.1.022.039.051.072.079.107.02.027.037.057.061.08.033.035.074.061.112.09.024.017.044.038.069.053a.866.866 0 00.415.117c.023.001.046-.004.069-.005.042-.003.084-.002.125-.011.004 0 .007-.003.011-.004.007-.002.013-.001.019-.002l8.929-2.163-11.01 41.091a.863.863 0 00.611 1.058l41.728 11.181a.863.863 0 001.058-.611l11.01-41.091 3.237 3.084H984s0 0 0 0l3.415 3.254c.004.004.011.006.015.011.003.002.004.007.007.01.033.028.068.049.103.072.019.012.036.028.057.039a.853.853 0 00.419.106c.026 0 .051-.007.077-.01.051-.005.102-.008.151-.022.031-.008.059-.025.089-.037.042-.017.085-.031.125-.056.03-.017.056-.044.084-.066.031-.024.065-.045.094-.075l.007-.01c.004-.005.01-.007.014-.013l10.492-11.833c.027-.029.036-.066.058-.098.033-.051.064-.097.086-.149zm-11.335 10.262l-2.186-2.082 9.602-10.83 1.982 2.312-9.398 10.6zm-14.151-32.06c-1.47 4.104-5.95 6.456-10.324 5.284-4.374-1.172-7.078-5.449-6.299-9.738l16.623 4.454zm-44.908 16.235l-2.84-13.879 2.623-.923 2.897 14.153-2.68.649zm39.407 51.166l-40.058-10.734 11.163-41.663c.004-.014-.001-.028.002-.041.013-.057.01-.115.011-.174 0-.058.004-.114-.006-.17-.003-.014.002-.028-.002-.042-.01-.039-.036-.07-.05-.106-.022-.056-.042-.11-.074-.16-.031-.048-.07-.085-.109-.125-.038-.039-.074-.077-.119-.109-.05-.035-.105-.056-.161-.08-.037-.015-.065-.04-.104-.051-.014-.003-.028.001-.041-.002-.056-.012-.113-.009-.171-.011-.059 0-.116-.004-.173.007-.014.002-.028-.002-.042.001l-5.114 1.238-2.931-14.325 14.173-4.986c2.094-.6 4.258-.912 6.432-.927a31.985 31.985 0 014.555.284c-.945 5.169 2.297 10.321 7.549 11.728 5.253 1.407 10.635-1.433 12.4-6.382a31.833 31.833 0 014.086 2.031 23.851 23.851 0 015.073 3.981l9.642 11.242-9.718 10.96-3.618-3.449c-.011-.01-.025-.013-.036-.022-.043-.038-.094-.063-.145-.092-.051-.029-.1-.059-.155-.076-.014-.005-.024-.016-.037-.019-.038-.01-.076-.003-.115-.008-.06-.008-.117-.016-.178-.011-.056.005-.108.02-.162.035-.052.015-.103.028-.153.053-.055.027-.1.065-.147.103-.031.024-.067.037-.094.065-.01.011-.013.025-.022.037-.038.042-.063.094-.091.144-.029.052-.06.101-.077.155-.005.014-.015.023-.019.037l-11.164 41.664z" stroke="#000" stroke-width=".864" fill="#000" fill-rule="nonzero"/>
      <path d="M978.221 172.763l-6.676-1.789a.864.864 0 00-1.058.611l-1.118 4.173c-.846 3.156 1.354 5.335 2.636 6.046a.851.851 0 00.403.109c1.466.025 4.461-.762 5.306-3.919l1.118-4.173a.863.863 0 00-.611-1.058zm-2.176 4.784c-.597 2.227-2.691 2.575-3.387 2.628-.577-.395-2.217-1.742-1.62-3.97l.894-3.338 5.008 1.342-.895 3.338z" fill="#000" fill-rule="nonzero"/>
      <path d="M1292.29 330.856c.02-.053.04-.106.05-.161.01-.054.02-.105.02-.159 0-.057-.01-.111-.02-.166a.84.84 0 00-.04-.155.553.553 0 00-.09-.154c-.02-.031-.03-.067-.05-.096l-13.29-15.487a25.577 25.577 0 00-5.47-4.309c-2.18-1.276-4.4-2.285-6.1-2.768l-.01-.004-16.69-4.472h-.01c0-.001 0-.003-.01-.003-1.71-.431-4.14-.668-6.66-.651-2.33.016-4.65.351-6.94 1.01l-19.2 6.754c-.04.012-.07.039-.1.056-.05.027-.1.053-.15.09a.738.738 0 00-.11.114.798.798 0 00-.1.133.43.43 0 00-.06.15c-.02.052-.04.104-.05.16 0 .056 0 .111.01.17 0 .038-.01.075 0 .114l3.17 15.494v.031c.01.04.03.075.05.112.01.033.02.068.04.1.02.039.05.072.07.107.03.027.04.057.07.08.03.035.07.061.11.09.02.017.04.038.07.053a.814.814 0 00.41.117c.03.001.05-.004.07-.005.04-.003.08-.002.13-.011 0 0 0-.003.01-.004 0-.002.01-.001.02-.002l8.93-2.163-11.02 41.091c-.12.462.16.935.62 1.058l41.72 11.181a.86.86 0 001.06-.611l11.01-41.091 3.24 3.084s0 0 0 0 0 0 0 0l3.42 3.254c0 .004.01.006.01.011 0 .002 0 .007.01.01.03.028.07.049.1.072.02.012.04.028.06.039a.853.853 0 00.42.106c.02 0 .05-.007.07-.01.05-.005.1-.008.15-.022.04-.008.06-.025.09-.037a.592.592 0 00.13-.056c.03-.017.05-.044.08-.066.03-.024.07-.045.1-.075v-.01c.01-.005.01-.007.02-.013l10.49-11.833c.03-.029.04-.066.06-.098.03-.051.06-.097.08-.149zm-11.33 10.262l-2.19-2.082 9.6-10.83 1.99 2.312-9.4 10.6zm-14.15-32.06c-1.47 4.104-5.95 6.456-10.33 5.284-4.37-1.172-7.07-5.449-6.3-9.738l16.63 4.454zm-44.91 16.235l-2.84-13.879 2.62-.923 2.9 14.153-2.68.649zm39.41 51.166l-40.06-10.734 11.16-41.663v-.041c.02-.057.01-.115.01-.174 0-.058.01-.114 0-.17v-.042c-.01-.039-.04-.07-.05-.106-.03-.056-.05-.11-.08-.16-.03-.048-.07-.085-.11-.125a.473.473 0 00-.12-.109.748.748 0 00-.16-.08c-.03-.015-.06-.04-.1-.051-.02-.003-.03.001-.04-.002-.06-.012-.12-.009-.17-.011-.06 0-.12-.004-.18.007-.01.002-.02-.002-.04.001l-5.11 1.238-2.93-14.325 14.17-4.986c2.09-.6 4.26-.912 6.43-.927 1.61-.011 3.21.094 4.56.284-.95 5.169 2.29 10.321 7.55 11.728 5.25 1.407 10.63-1.433 12.4-6.382a32.04 32.04 0 014.08 2.031c1.88 1.1 3.6 2.452 5.08 3.981l9.64 11.242-9.72 10.96-3.62-3.449c-.01-.01-.02-.013-.03-.022-.05-.038-.1-.063-.15-.092-.05-.029-.1-.059-.15-.076-.02-.005-.03-.016-.04-.019-.04-.01-.08-.003-.12-.008-.06-.008-.11-.016-.17-.011-.06.005-.11.02-.17.035-.05.015-.1.028-.15.053-.05.027-.1.065-.15.103-.03.024-.06.037-.09.065-.01.011-.01.025-.02.037a.457.457 0 00-.09.144c-.03.052-.06.101-.08.155-.01.014-.02.023-.02.037l-11.16 41.664z" stroke="#000" stroke-width=".864" fill="#000" fill-rule="nonzero"/>
      <path d="M1271.22 322.763l-6.67-1.789a.861.861 0 00-1.06.611l-1.12 4.173c-.85 3.156 1.35 5.335 2.63 6.046a.893.893 0 00.41.109c1.46.025 4.46-.762 5.3-3.919l1.12-4.173a.86.86 0 00-.61-1.058zm-2.17 4.784c-.6 2.227-2.7 2.575-3.39 2.628-.58-.395-2.22-1.742-1.62-3.97l.89-3.338 5.01 1.342-.89 3.338z" fill="#000" fill-rule="nonzero"/>
      <path d="M1324.29 583.856c.02-.053.04-.106.05-.161.01-.054.02-.105.02-.159 0-.057-.01-.111-.02-.166a.84.84 0 00-.04-.155.54.54 0 00-.09-.154c-.02-.031-.03-.067-.05-.096l-13.29-15.487a25.577 25.577 0 00-5.47-4.309c-2.18-1.276-4.4-2.285-6.1-2.768 0-.002-.01-.003-.01-.004l-16.69-4.472h-.01c0-.001 0-.003-.01-.003-1.71-.431-4.14-.668-6.66-.651-2.33.016-4.65.351-6.94 1.01l-19.2 6.754c-.04.012-.07.039-.1.056-.05.027-.1.053-.15.09a.738.738 0 00-.11.114.798.798 0 00-.1.133.43.43 0 00-.06.15c-.02.052-.04.103-.05.16 0 .056 0 .111.01.17 0 .038-.01.075 0 .114l3.17 15.494v.031c.01.04.03.074.05.112.01.033.02.068.04.1.02.039.05.072.07.107.03.027.04.057.07.08.03.035.07.061.11.09.02.016.04.038.07.053a.814.814 0 00.41.117c.03.001.05-.004.07-.005.04-.003.08-.002.13-.011 0 0 0-.003.01-.004 0-.002.01-.001.02-.002l8.93-2.163-11.02 41.091c-.12.462.16.935.62 1.058l41.72 11.181a.86.86 0 001.06-.611l11.01-41.091 3.24 3.084s0 0 0 0 0 0 0 0l3.42 3.253c0 .005.01.007.01.012 0 .002 0 .007.01.01.03.028.07.049.1.072.02.012.04.028.06.039a.853.853 0 00.42.106c.02 0 .05-.008.07-.01.05-.005.1-.008.15-.022.04-.008.06-.025.09-.037a.592.592 0 00.13-.056c.03-.018.05-.044.08-.066.03-.024.07-.045.1-.075v-.01c.01-.006.01-.008.02-.013l10.49-11.833c.03-.029.04-.066.06-.099.03-.05.06-.096.08-.148zm-11.33 10.262l-2.19-2.083 9.6-10.829 1.99 2.311-9.4 10.601zm-14.15-32.06c-1.47 4.104-5.95 6.456-10.33 5.284-4.37-1.172-7.07-5.449-6.3-9.738l16.63 4.454zm-44.91 16.235l-2.84-13.879 2.62-.923 2.9 14.153-2.68.649zm39.41 51.166l-40.06-10.734 11.16-41.663v-.042c.02-.056.01-.114.01-.173 0-.058.01-.114 0-.17v-.042c-.01-.039-.04-.07-.05-.107-.03-.055-.05-.109-.08-.159-.03-.048-.07-.085-.11-.125a.473.473 0 00-.12-.109.748.748 0 00-.16-.08c-.03-.015-.06-.04-.1-.051-.02-.003-.03.001-.04-.002-.06-.012-.12-.009-.17-.011-.06 0-.12-.004-.18.007-.01.002-.02-.002-.04.001l-5.11 1.238-2.93-14.325 14.17-4.986c2.09-.6 4.26-.912 6.43-.927 1.61-.011 3.21.094 4.56.284-.95 5.169 2.29 10.321 7.55 11.728 5.25 1.407 10.63-1.433 12.4-6.382a32.04 32.04 0 014.08 2.031c1.88 1.1 3.6 2.452 5.08 3.981l9.64 11.242-9.72 10.96-3.62-3.449c-.01-.01-.02-.013-.03-.022-.05-.038-.1-.063-.15-.092-.05-.029-.1-.059-.15-.076-.02-.005-.03-.016-.04-.019-.04-.011-.08-.003-.12-.008-.06-.008-.11-.016-.17-.011-.06.005-.11.02-.17.035-.05.015-.1.028-.15.053-.05.027-.1.065-.15.103-.03.024-.06.037-.09.065-.01.011-.01.025-.02.036a.473.473 0 00-.09.145c-.03.052-.06.1-.08.155-.01.014-.02.023-.02.037l-11.16 41.664z" stroke="#000" stroke-width=".864" fill="#000" fill-rule="nonzero"/>
      <path d="M1303.22 575.763l-6.67-1.789a.861.861 0 00-1.06.611l-1.12 4.173c-.85 3.156 1.35 5.335 2.63 6.046.07.035.13.061.2.079.07.019.14.029.21.03 1.46.025 4.46-.762 5.3-3.919l1.12-4.173a.86.86 0 00-.61-1.058zm-2.17 4.784c-.6 2.227-2.7 2.575-3.39 2.628-.58-.395-2.22-1.742-1.62-3.97l.89-3.338 5.01 1.342-.89 3.338z" fill="#000" fill-rule="nonzero"/>
      <path d="M1262.73 461.933l-5.12-7.319a2.1 2.1 0 00-2.75-.632 4.795 4.795 0 01-6.27-1.445 4.803 4.803 0 01.79-6.4c.81-.707.97-1.921.35-2.808l-5.12-7.319a7.047 7.047 0 00-4.55-2.903 7.027 7.027 0 00-5.26 1.169l-43.8 30.723a7.078 7.078 0 00-1.73 9.833l4.15 5.93v5.47c0 1.083.82 1.99 1.89 2.099a4.81 4.81 0 014.31 4.789 4.808 4.808 0 01-4.31 4.788 2.11 2.11 0 00-1.89 2.099v8.934c0 3.897 3.15 7.055 7.04 7.059h53.47c3.89-.004 7.04-3.161 7.04-7.057v-8.936c0-1.083-.81-1.99-1.89-2.099a4.808 4.808 0 01-4.31-4.788 4.81 4.81 0 014.31-4.789 2.101 2.101 0 001.89-2.099v-8.936c0-1.607-.56-3.163-1.58-4.404l1.61-1.13a7.073 7.073 0 001.73-9.829zm-5.97 22.598a9.039 9.039 0 00-6.2 8.589c0 3.905 2.5 7.368 6.2 8.588v7.235a2.837 2.837 0 01-2.83 2.837h-53.47a2.838 2.838 0 01-2.83-2.839v-7.233a9.047 9.047 0 006.21-8.588 9.048 9.048 0 00-6.21-8.589v-7.232a2.84 2.84 0 012.83-2.84h53.47a2.837 2.837 0 012.83 2.837v7.235zm1.82-16.226l-3.04 2.136a7.085 7.085 0 00-1.61-.202h-21.07l-2.38-2.18a.81.81 0 01-.24-.792l.81-3.383a.812.812 0 00-1.19-.898l-3.02 1.718a.817.817 0 01-.83-.014l-2.96-1.823a.81.81 0 00-.89.026.833.833 0 00-.33.83l.7 3.41c.06.29-.04.59-.27.783l-2.64 2.256c-.03.019-.03.047-.05.067h-19.11a7.039 7.039 0 00-6.38 4.114l-1.36-1.942a2.853 2.853 0 01.7-3.955l43.8-30.722a2.828 2.828 0 013.94.697l4.14 5.926a9.055 9.055 0 00-.16 10.601 9.006 9.006 0 0010 3.469l4.14 5.927a2.848 2.848 0 01-.7 3.951zm-24.67 24.034l-2.61 2.303a.803.803 0 00-.25.787l.76 3.398a.821.821 0 01-.32.835.809.809 0 01-.89.042l-2.99-1.772a.822.822 0 00-.83 0l-2.99 1.772a.809.809 0 01-1.2-.877l.75-3.398a.803.803 0 00-.25-.787l-2.61-2.303a.817.817 0 01.46-1.419l3.46-.329a.81.81 0 00.67-.487l1.38-3.194a.813.813 0 011.49 0l1.38 3.194c.12.272.37.459.67.487l3.46.329a.817.817 0 01.46 1.419zM1124.73 325.933l-5.12-7.319a2.1 2.1 0 00-2.75-.632 4.795 4.795 0 01-6.27-1.445 4.803 4.803 0 01.79-6.4c.81-.707.97-1.921.35-2.808l-5.12-7.319a7.047 7.047 0 00-4.55-2.903 7.027 7.027 0 00-5.26 1.169l-43.8 30.723a7.078 7.078 0 00-1.73 9.833l4.15 5.93v5.47c0 1.083.82 1.99 1.89 2.099a4.81 4.81 0 014.31 4.789 4.808 4.808 0 01-4.31 4.788 2.11 2.11 0 00-1.89 2.099v8.934c0 3.897 3.15 7.055 7.04 7.059h53.47c3.89-.004 7.04-3.161 7.04-7.057v-8.936c0-1.083-.81-1.99-1.89-2.099a4.808 4.808 0 01-4.31-4.788 4.81 4.81 0 014.31-4.789 2.101 2.101 0 001.89-2.099v-8.936c0-1.607-.56-3.163-1.58-4.404l1.61-1.13a7.073 7.073 0 001.73-9.829zm-5.97 22.598a9.039 9.039 0 00-6.2 8.589c0 3.905 2.5 7.368 6.2 8.588v7.235a2.837 2.837 0 01-2.83 2.837h-53.47a2.838 2.838 0 01-2.83-2.839v-7.233a9.047 9.047 0 006.21-8.588 9.048 9.048 0 00-6.21-8.589v-7.232a2.84 2.84 0 012.83-2.84h53.47a2.837 2.837 0 012.83 2.837v7.235zm1.82-16.226l-3.04 2.136a7.085 7.085 0 00-1.61-.202h-21.07l-2.38-2.18a.81.81 0 01-.24-.792l.81-3.383a.812.812 0 00-1.19-.898l-3.02 1.718a.817.817 0 01-.83-.014l-2.96-1.823a.81.81 0 00-.89.026.833.833 0 00-.33.83l.7 3.41c.06.29-.04.59-.27.783l-2.64 2.256c-.03.019-.03.047-.05.067h-19.11a7.039 7.039 0 00-6.38 4.114l-1.36-1.942a2.853 2.853 0 01.7-3.955l43.8-30.722a2.828 2.828 0 013.94.697l4.14 5.926a9.055 9.055 0 00-.16 10.601 9.006 9.006 0 0010 3.469l4.14 5.927a2.848 2.848 0 01-.7 3.951zm-24.67 24.034l-2.61 2.303a.803.803 0 00-.25.787l.76 3.398a.821.821 0 01-.32.835.809.809 0 01-.89.042l-2.99-1.772a.822.822 0 00-.83 0l-2.99 1.772a.809.809 0 01-1.2-.877l.75-3.398a.803.803 0 00-.25-.787l-2.61-2.303a.817.817 0 01.46-1.419l3.46-.329a.81.81 0 00.67-.487l1.38-3.194a.813.813 0 011.49 0l1.38 3.194c.12.272.37.459.67.487l3.46.329a.817.817 0 01.46 1.419zM1296.73 189.933l-5.12-7.319a2.1 2.1 0 00-2.75-.632 4.795 4.795 0 01-6.27-1.445 4.803 4.803 0 01.79-6.4c.81-.707.97-1.921.35-2.808l-5.12-7.319a7.047 7.047 0 00-4.55-2.903 7.027 7.027 0 00-5.26 1.169l-43.8 30.723a7.078 7.078 0 00-1.73 9.833l4.15 5.93v5.47c0 1.083.82 1.99 1.89 2.099a4.81 4.81 0 014.31 4.789 4.808 4.808 0 01-4.31 4.788 2.11 2.11 0 00-1.89 2.099v8.934c0 3.897 3.15 7.055 7.04 7.059h53.47c3.89-.004 7.04-3.161 7.04-7.057v-8.936c0-1.083-.81-1.99-1.89-2.099a4.808 4.808 0 01-4.31-4.788 4.81 4.81 0 014.31-4.789 2.101 2.101 0 001.89-2.099v-8.936c0-1.607-.56-3.163-1.58-4.404l1.61-1.13a7.073 7.073 0 001.73-9.829zm-5.97 22.598a9.039 9.039 0 00-6.2 8.589c0 3.905 2.5 7.368 6.2 8.588v7.235a2.837 2.837 0 01-2.83 2.837h-53.47a2.838 2.838 0 01-2.83-2.839v-7.233a9.047 9.047 0 006.21-8.588 9.048 9.048 0 00-6.21-8.589v-7.232a2.84 2.84 0 012.83-2.84h53.47a2.837 2.837 0 012.83 2.837v7.235zm1.82-16.226l-3.04 2.136a7.085 7.085 0 00-1.61-.202h-21.07l-2.38-2.18a.81.81 0 01-.24-.792l.81-3.383a.812.812 0 00-1.19-.898l-3.02 1.718a.817.817 0 01-.83-.014l-2.96-1.823a.81.81 0 00-.89.026.833.833 0 00-.33.83l.7 3.41c.06.29-.04.59-.27.783l-2.64 2.256c-.03.019-.03.047-.05.067h-19.11a7.039 7.039 0 00-6.38 4.114l-1.36-1.942a2.853 2.853 0 01.7-3.955l43.8-30.722a2.828 2.828 0 013.94.697l4.14 5.926a9.055 9.055 0 00-.16 10.601 9.006 9.006 0 0010 3.469l4.14 5.927a2.848 2.848 0 01-.7 3.951zm-24.67 24.034l-2.61 2.303a.803.803 0 00-.25.787l.76 3.398a.821.821 0 01-.32.835.809.809 0 01-.89.042l-2.99-1.772a.822.822 0 00-.83 0l-2.99 1.772a.809.809 0 01-1.2-.877l.75-3.398a.803.803 0 00-.25-.787l-2.61-2.303a.817.817 0 01.46-1.419l3.46-.329a.81.81 0 00.67-.487l1.38-3.194a.813.813 0 011.49 0l1.38 3.194c.12.272.37.459.67.487l3.46.329a.817.817 0 01.46 1.419z" fill="#222" fill-rule="nonzero"/>
      <path d="M547.817 608.848h-8.227l-4.05-5.573 2.63-8.095 6.551-2.13 6.671 4.847a21.51 21.51 0 01-3.575 10.951zm-12.059 8.771a21.27 21.27 0 01-11.518-.006l-2.545-7.832 4.05-5.575h8.511l4.049 5.574-2.547 7.839zm-23.588-8.771a21.38 21.38 0 01-2.534-5.232 21.364 21.364 0 01-1.025-5.722l6.667-4.844 6.552 2.13 2.631 8.094-4.049 5.574h-8.242zm10.369-31.914l6.668 4.843v6.89l-6.887 5.003-6.552-2.128-2.544-7.832a21.27 21.27 0 019.315-6.776zm8.254 4.844l6.658-4.836a21.505 21.505 0 019.328 6.759l-2.547 7.841-6.551 2.128-6.888-5.004v-6.888zm-7.9-6.65c-12.06 3.918-18.684 16.918-14.765 28.979 3.919 12.06 16.918 18.684 28.979 14.765 12.06-3.919 18.684-16.918 14.765-28.979-3.918-12.06-16.918-18.684-28.979-14.765zM646.817 447.848h-8.227l-4.05-5.573 2.63-8.095 6.551-2.13 6.671 4.847a21.51 21.51 0 01-3.575 10.951zm-12.059 8.771a21.27 21.27 0 01-11.518-.006l-2.545-7.832 4.05-5.575h8.511l4.049 5.574-2.547 7.839zm-23.588-8.771a21.38 21.38 0 01-2.534-5.232 21.364 21.364 0 01-1.025-5.722l6.667-4.844 6.552 2.13 2.631 8.094-4.049 5.574h-8.242zm10.369-31.914l6.668 4.843v6.89l-6.887 5.003-6.552-2.128-2.544-7.832a21.27 21.27 0 019.315-6.776zm8.254 4.844l6.658-4.836a21.505 21.505 0 019.328 6.759l-2.547 7.841-6.551 2.128-6.888-5.004v-6.888zm-7.9-6.65c-12.06 3.918-18.684 16.918-14.765 28.979 3.919 12.06 16.918 18.684 28.979 14.765 12.06-3.919 18.684-16.918 14.765-28.979-3.918-12.06-16.918-18.684-28.979-14.765zM670.817 299.848h-8.227l-4.05-5.573 2.63-8.095 6.551-2.13 6.671 4.847a21.51 21.51 0 01-3.575 10.951zm-12.059 8.771a21.27 21.27 0 01-11.518-.006l-2.545-7.832 4.05-5.575h8.511l4.049 5.574-2.547 7.839zm-23.588-8.771a21.38 21.38 0 01-2.534-5.232 21.364 21.364 0 01-1.025-5.722l6.667-4.844 6.552 2.13 2.631 8.094-4.049 5.574h-8.242zm10.369-31.914l6.668 4.843v6.89l-6.887 5.003-6.552-2.128-2.544-7.832a21.27 21.27 0 019.315-6.776zm8.254 4.844l6.658-4.836a21.505 21.505 0 019.328 6.759l-2.547 7.841-6.551 2.128-6.888-5.004v-6.888zm-7.9-6.65c-12.06 3.918-18.684 16.918-14.765 28.979 3.919 12.06 16.918 18.684 28.979 14.765 12.06-3.919 18.684-16.918 14.765-28.979-3.918-12.06-16.918-18.684-28.979-14.765zM754.817 90.849h-8.227l-4.05-5.574 2.63-8.095 6.551-2.13 6.671 4.847a21.513 21.513 0 01-3.575 10.951zm-12.059 8.77a21.276 21.276 0 01-11.518-.006l-2.545-7.832 4.05-5.575h8.511l4.049 5.574-2.547 7.84zm-23.588-8.77a21.388 21.388 0 01-2.534-5.233 21.364 21.364 0 01-1.025-5.722l6.667-4.844 6.552 2.13 2.631 8.094-4.049 5.574h-8.242zm10.369-31.915l6.668 4.843v6.89l-6.887 5.003-6.552-2.128-2.544-7.832a21.268 21.268 0 019.315-6.776zm8.254 4.844l6.658-4.836a21.5 21.5 0 019.328 6.76l-2.547 7.84-6.551 2.128-6.888-5.004v-6.888zm-7.9-6.65c-12.06 3.918-18.684 16.919-14.765 28.979 3.919 12.06 16.918 18.684 28.979 14.766 12.06-3.92 18.684-16.92 14.765-28.98-3.918-12.06-16.918-18.684-28.979-14.765zM870.817 156.848h-8.227l-4.05-5.573 2.63-8.095 6.551-2.13 6.671 4.847a21.51 21.51 0 01-3.575 10.951zm-12.059 8.771a21.27 21.27 0 01-11.518-.006l-2.545-7.832 4.05-5.575h8.511l4.049 5.574-2.547 7.839zm-23.588-8.771a21.38 21.38 0 01-2.534-5.232 21.364 21.364 0 01-1.025-5.722l6.667-4.844 6.552 2.13 2.631 8.094-4.049 5.574h-8.242zm10.369-31.914l6.668 4.843v6.89l-6.887 5.003-6.552-2.128-2.544-7.832a21.268 21.268 0 019.315-6.776zm8.254 4.844l6.658-4.836a21.5 21.5 0 019.328 6.76l-2.547 7.84-6.551 2.128-6.888-5.004v-6.888zm-7.9-6.65c-12.06 3.918-18.684 16.918-14.765 28.979 3.919 12.06 16.918 18.684 28.979 14.765 12.06-3.919 18.684-16.918 14.765-28.979-3.918-12.06-16.918-18.684-28.979-14.765zM840.817 517.848h-8.227l-4.05-5.573 2.63-8.095 6.551-2.13 6.671 4.847a21.51 21.51 0 01-3.575 10.951zm-12.059 8.771a21.27 21.27 0 01-11.518-.006l-2.545-7.832 4.05-5.575h8.511l4.049 5.574-2.547 7.839zm-23.588-8.771a21.38 21.38 0 01-2.534-5.232 21.364 21.364 0 01-1.025-5.722l6.667-4.844 6.552 2.13 2.631 8.094-4.049 5.574h-8.242zm10.369-31.914l6.668 4.843v6.89l-6.887 5.003-6.552-2.128-2.544-7.832a21.27 21.27 0 019.315-6.776zm8.254 4.844l6.658-4.836a21.505 21.505 0 019.328 6.759l-2.547 7.841-6.551 2.128-6.888-5.004v-6.888zm-7.9-6.65c-12.06 3.918-18.684 16.918-14.765 28.979 3.919 12.06 16.918 18.684 28.979 14.765 12.06-3.919 18.684-16.918 14.765-28.979-3.918-12.06-16.918-18.684-28.979-14.765zM863.817 388.848h-8.227l-4.05-5.573 2.63-8.095 6.551-2.13 6.671 4.847a21.51 21.51 0 01-3.575 10.951zm-12.059 8.771a21.27 21.27 0 01-11.518-.006l-2.545-7.832 4.05-5.575h8.511l4.049 5.574-2.547 7.839zm-23.588-8.771a21.38 21.38 0 01-2.534-5.232 21.364 21.364 0 01-1.025-5.722l6.667-4.844 6.552 2.13 2.631 8.094-4.049 5.574h-8.242zm10.369-31.914l6.668 4.843v6.89l-6.887 5.003-6.552-2.128-2.544-7.832a21.27 21.27 0 019.315-6.776zm8.254 4.844l6.658-4.836a21.505 21.505 0 019.328 6.759l-2.547 7.841-6.551 2.128-6.888-5.004v-6.888zm-7.9-6.65c-12.06 3.918-18.684 16.918-14.765 28.979 3.919 12.06 16.918 18.684 28.979 14.765 12.06-3.919 18.684-16.918 14.765-28.979-3.918-12.06-16.918-18.684-28.979-14.765zM935.817 578.848h-8.227l-4.05-5.573 2.63-8.095 6.551-2.13 6.671 4.847a21.51 21.51 0 01-3.575 10.951zm-12.059 8.771a21.27 21.27 0 01-11.518-.006l-2.545-7.832 4.05-5.575h8.511l4.049 5.574-2.547 7.839zm-23.588-8.771a21.38 21.38 0 01-2.534-5.232 21.364 21.364 0 01-1.025-5.722l6.667-4.844 6.552 2.13 2.631 8.094-4.049 5.574h-8.242zm10.369-31.914l6.668 4.843v6.89l-6.887 5.003-6.552-2.128-2.544-7.832a21.27 21.27 0 019.315-6.776zm8.254 4.844l6.658-4.836a21.505 21.505 0 019.328 6.759l-2.547 7.841-6.551 2.128-6.888-5.004v-6.888zm-7.9-6.65c-12.06 3.918-18.684 16.918-14.765 28.979 3.919 12.06 16.918 18.684 28.979 14.765 12.06-3.919 18.684-16.918 14.765-28.979-3.918-12.06-16.918-18.684-28.979-14.765zM582.817 239.848h-8.227l-4.05-5.573 2.63-8.095 6.551-2.13 6.671 4.847a21.51 21.51 0 01-3.575 10.951zm-12.059 8.771a21.27 21.27 0 01-11.518-.006l-2.545-7.832 4.05-5.575h8.511l4.049 5.574-2.547 7.839zm-23.588-8.771a21.38 21.38 0 01-2.534-5.232 21.364 21.364 0 01-1.025-5.722l6.667-4.844 6.552 2.13 2.631 8.094-4.049 5.574h-8.242zm10.369-31.914l6.668 4.843v6.89l-6.887 5.003-6.552-2.128-2.544-7.832a21.27 21.27 0 019.315-6.776zm8.254 4.844l6.658-4.836a21.505 21.505 0 019.328 6.759l-2.547 7.841-6.551 2.128-6.888-5.004v-6.888zm-7.9-6.65c-12.06 3.918-18.684 16.918-14.765 28.979 3.919 12.06 16.918 18.684 28.979 14.765 12.06-3.919 18.684-16.918 14.765-28.979-3.918-12.06-16.918-18.684-28.979-14.765zM916.817 67.849h-8.227l-4.05-5.574 2.63-8.095 6.551-2.13 6.671 4.847a21.513 21.513 0 01-3.575 10.951zm-12.059 8.77a21.276 21.276 0 01-11.518-.006l-2.545-7.832 4.05-5.575h8.511l4.049 5.574-2.547 7.84zm-23.588-8.77a21.388 21.388 0 01-2.534-5.233 21.364 21.364 0 01-1.025-5.722l6.667-4.844 6.552 2.13 2.631 8.094-4.049 5.574h-8.242zm10.369-31.915l6.668 4.843v6.89l-6.887 5.003-6.552-2.128-2.544-7.832a21.268 21.268 0 019.315-6.776zm8.254 4.844l6.658-4.836a21.5 21.5 0 019.328 6.76l-2.547 7.84-6.551 2.128-6.888-5.004v-6.888zm-7.9-6.65c-12.06 3.918-18.684 16.918-14.765 28.979 3.919 12.06 16.918 18.684 28.979 14.765 12.06-3.919 18.684-16.918 14.765-28.979-3.918-12.06-16.918-18.684-28.979-14.765zM493.817 98.849h-8.227l-4.05-5.574 2.63-8.095 6.551-2.13 6.671 4.847a21.513 21.513 0 01-3.575 10.951zm-12.059 8.77a21.276 21.276 0 01-11.518-.006l-2.545-7.832 4.05-5.575h8.511l4.049 5.574-2.547 7.84zm-23.588-8.77a21.388 21.388 0 01-2.534-5.233 21.364 21.364 0 01-1.025-5.722l6.667-4.844 6.552 2.13 2.631 8.094-4.049 5.574h-8.242zm10.369-31.915l6.668 4.843v6.89l-6.887 5.003-6.552-2.128-2.544-7.832a21.268 21.268 0 019.315-6.776zm8.254 4.844l6.658-4.836a21.5 21.5 0 019.328 6.76l-2.547 7.84-6.551 2.128-6.888-5.004v-6.888zm-7.9-6.65c-12.06 3.918-18.684 16.919-14.765 28.979 3.919 12.06 16.918 18.684 28.979 14.766 12.06-3.92 18.684-16.92 14.765-28.98-3.918-12.06-16.918-18.684-28.979-14.765zM688.817 608.848h-8.227l-4.05-5.573 2.63-8.095 6.551-2.13 6.671 4.847a21.51 21.51 0 01-3.575 10.951zm-12.059 8.771a21.27 21.27 0 01-11.518-.006l-2.545-7.832 4.05-5.575h8.511l4.049 5.574-2.547 7.839zm-23.588-8.771a21.38 21.38 0 01-2.534-5.232 21.364 21.364 0 01-1.025-5.722l6.667-4.844 6.552 2.13 2.631 8.094-4.049 5.574h-8.242zm10.369-31.914l6.668 4.843v6.89l-6.887 5.003-6.552-2.128-2.544-7.832a21.27 21.27 0 019.315-6.776zm8.254 4.844l6.658-4.836a21.505 21.505 0 019.328 6.759l-2.547 7.841-6.551 2.128-6.888-5.004v-6.888zm-7.9-6.65c-12.06 3.918-18.684 16.918-14.765 28.979 3.919 12.06 16.918 18.684 28.979 14.765 12.06-3.919 18.684-16.918 14.765-28.979-3.918-12.06-16.918-18.684-28.979-14.765zM547.817 470.848h-8.227l-4.05-5.573 2.63-8.095 6.551-2.13 6.671 4.847a21.51 21.51 0 01-3.575 10.951zm-12.059 8.771a21.27 21.27 0 01-11.518-.006l-2.545-7.832 4.05-5.575h8.511l4.049 5.574-2.547 7.839zm-23.588-8.771a21.38 21.38 0 01-2.534-5.232 21.364 21.364 0 01-1.025-5.722l6.667-4.844 6.552 2.13 2.631 8.094-4.049 5.574h-8.242zm10.369-31.914l6.668 4.843v6.89l-6.887 5.003-6.552-2.128-2.544-7.832a21.27 21.27 0 019.315-6.776zm8.254 4.844l6.658-4.836a21.505 21.505 0 019.328 6.759l-2.547 7.841-6.551 2.128-6.888-5.004v-6.888zm-7.9-6.65c-12.06 3.918-18.684 16.918-14.765 28.979 3.919 12.06 16.918 18.684 28.979 14.765 12.06-3.919 18.684-16.918 14.765-28.979-3.918-12.06-16.918-18.684-28.979-14.765z" fill="#0C0C0C"/>
      <path d="M647.293 514.856a.836.836 0 00.044-.161c.01-.054.021-.105.021-.159.001-.057-.009-.111-.019-.166a.84.84 0 00-.04-.155c-.021-.055-.053-.103-.086-.154-.02-.031-.029-.067-.054-.096l-13.286-15.487a25.586 25.586 0 00-5.476-4.309c-2.177-1.276-4.4-2.285-6.096-2.768l-.013-.004-16.691-4.472h-.006l-.006-.003c-1.712-.431-4.142-.668-6.664-.651a25.695 25.695 0 00-6.945 1.01l-19.2 6.754c-.037.012-.062.039-.096.056a.806.806 0 00-.15.09c-.043.034-.078.074-.113.114a.85.85 0 00-.099.133.86.86 0 00-.062.15.855.855 0 00-.042.16c-.008.056-.003.111.001.17.002.038-.008.075.001.114l3.17 15.494c.001.007.005.012.006.018l.001.013c.009.04.029.075.044.112.013.033.023.068.039.1.022.039.051.072.079.107.02.027.037.057.061.08.033.035.074.061.112.09.024.017.044.038.069.053a.866.866 0 00.415.117c.023.001.046-.004.069-.005.042-.003.084-.002.125-.011.004 0 .007-.003.011-.004.007-.002.013-.001.019-.002l8.929-2.163-11.01 41.091a.863.863 0 00.611 1.058l41.728 11.181a.863.863 0 001.058-.611l11.01-41.091 3.237 3.084H632s0 0 0 0l3.415 3.254c.004.004.011.006.015.011.003.002.004.007.007.01.033.028.068.049.103.072.019.012.036.028.057.039a.853.853 0 00.419.106c.026 0 .051-.007.077-.01.051-.005.102-.008.151-.022.031-.008.059-.025.089-.037.042-.017.085-.031.125-.056.03-.017.056-.044.084-.066.031-.024.065-.045.094-.075l.007-.01c.004-.005.01-.007.014-.013l10.492-11.833c.027-.029.036-.066.058-.098.033-.051.064-.097.086-.149zm-11.335 10.262l-2.186-2.082 9.602-10.83 1.982 2.312-9.398 10.6zm-14.151-32.06c-1.47 4.104-5.95 6.456-10.324 5.284-4.374-1.172-7.078-5.449-6.299-9.738l16.623 4.454zm-44.908 16.235l-2.84-13.879 2.623-.923 2.897 14.153-2.68.649zm39.407 51.166l-40.058-10.734 11.163-41.663c.004-.014-.001-.028.002-.041.013-.057.01-.115.011-.174 0-.058.004-.114-.006-.17-.003-.014.002-.028-.002-.042-.01-.039-.036-.07-.05-.106-.022-.056-.042-.11-.074-.16-.031-.048-.07-.085-.109-.125-.038-.039-.074-.077-.119-.109-.05-.035-.105-.056-.161-.08-.037-.015-.065-.04-.104-.051-.014-.003-.028.001-.041-.002-.056-.012-.113-.009-.171-.011-.059 0-.116-.004-.173.007-.014.002-.028-.002-.042.001l-5.114 1.238-2.931-14.325 14.173-4.986c2.094-.6 4.258-.912 6.432-.927a31.985 31.985 0 014.555.284c-.945 5.169 2.297 10.321 7.549 11.728 5.253 1.407 10.635-1.433 12.4-6.382a31.833 31.833 0 014.086 2.031 23.851 23.851 0 015.073 3.981l9.642 11.242-9.718 10.96-3.618-3.449c-.011-.01-.025-.013-.036-.022-.043-.038-.094-.063-.145-.092-.051-.029-.1-.059-.155-.076-.014-.005-.024-.016-.037-.019-.038-.01-.076-.003-.115-.008-.06-.008-.117-.016-.178-.011-.056.005-.108.02-.162.035-.052.015-.103.028-.153.053-.055.027-.1.065-.147.103-.031.024-.067.037-.094.065-.01.011-.013.025-.022.037-.038.042-.063.094-.091.144-.029.052-.06.101-.077.155-.005.014-.015.023-.019.037l-11.164 41.664z" stroke="#000" stroke-width=".864" fill="#000" fill-rule="nonzero"/>
      <path d="M626.221 506.763l-6.676-1.789a.864.864 0 00-1.058.611l-1.118 4.173c-.846 3.156 1.354 5.335 2.636 6.046a.851.851 0 00.403.109c1.466.025 4.461-.762 5.306-3.919l1.118-4.173a.863.863 0 00-.611-1.058zm-2.176 4.784c-.597 2.227-2.691 2.575-3.387 2.628-.577-.395-2.217-1.742-1.62-3.97l.894-3.338 5.008 1.342-.895 3.338z" fill="#000" fill-rule="nonzero"/>
      <path d="M675.293 129.856a.813.813 0 00.044-.161c.01-.054.021-.105.021-.16.001-.056-.009-.11-.019-.165a.842.842 0 00-.04-.155.805.805 0 00-.086-.154c-.02-.03-.029-.067-.054-.096l-13.286-15.487a25.63 25.63 0 00-5.476-4.31c-2.177-1.275-4.4-2.284-6.096-2.767l-.013-.004-16.691-4.472h-.006l-.006-.003c-1.712-.431-4.142-.668-6.664-.65-2.332.015-4.652.35-6.945 1.009l-19.2 6.754c-.037.012-.062.04-.096.056a.788.788 0 00-.15.09.832.832 0 00-.113.114.857.857 0 00-.099.133.878.878 0 00-.062.15.862.862 0 00-.042.16c-.008.056-.003.111.001.17.002.038-.008.075.001.114l3.17 15.494c.001.007.005.011.006.018l.001.013c.009.04.029.074.044.112.013.033.023.068.039.1.022.04.051.072.079.107.02.027.037.057.061.08.033.035.074.061.112.09.024.016.044.038.069.053a.859.859 0 00.415.117c.023.001.046-.004.069-.005.042-.003.084-.002.125-.01l.011-.005c.007-.002.013 0 .019-.002l8.929-2.163-11.01 41.091a.863.863 0 00.611 1.058l41.728 11.181a.863.863 0 001.058-.611l11.01-41.09 3.237 3.083H660s0 0 0 0l3.415 3.253c.004.005.011.007.015.012.003.002.004.007.007.01.033.028.068.05.103.072.019.012.036.028.057.04a.856.856 0 00.419.105c.026 0 .051-.007.077-.01.051-.005.102-.008.151-.022.031-.008.059-.025.089-.037.042-.017.085-.031.125-.056.03-.018.056-.044.084-.066.031-.024.065-.045.094-.075l.007-.01c.004-.006.01-.008.014-.013l10.492-11.833c.027-.03.036-.066.058-.099.033-.05.064-.096.086-.148zm-11.335 10.262l-2.186-2.083 9.602-10.829 1.982 2.311-9.398 10.6zm-14.151-32.06c-1.47 4.104-5.95 6.456-10.324 5.284-4.374-1.172-7.078-5.449-6.299-9.738l16.623 4.454zm-44.908 16.235l-2.84-13.879 2.623-.923 2.897 14.153-2.68.649zm39.407 51.166l-40.058-10.734 11.163-41.663c.004-.014-.001-.028.002-.041.013-.057.01-.115.011-.174 0-.058.004-.114-.006-.17-.003-.014.002-.028-.002-.042-.01-.04-.036-.07-.05-.107-.022-.055-.042-.11-.074-.159-.031-.048-.07-.085-.109-.125-.038-.039-.074-.077-.119-.109-.05-.035-.105-.056-.161-.08-.037-.015-.065-.04-.104-.05-.014-.004-.028 0-.041-.003-.056-.012-.113-.01-.171-.01-.059-.001-.116-.005-.173.006-.014.002-.028-.002-.042.001l-5.114 1.238-2.931-14.325 14.173-4.986c2.094-.6 4.258-.912 6.432-.927a31.911 31.911 0 014.555.284c-.945 5.17 2.297 10.32 7.549 11.728 5.253 1.407 10.635-1.433 12.4-6.382a31.777 31.777 0 014.086 2.03 23.883 23.883 0 015.073 3.982l9.642 11.242-9.718 10.96-3.618-3.45c-.011-.01-.025-.012-.036-.021-.043-.038-.094-.063-.145-.092-.051-.029-.1-.059-.155-.076-.014-.005-.024-.016-.037-.02-.038-.01-.076-.002-.115-.007-.06-.008-.117-.016-.178-.01-.056.004-.108.02-.162.034-.052.015-.103.028-.153.053-.055.027-.1.065-.147.103-.031.024-.067.037-.094.065-.01.011-.013.025-.022.036-.038.043-.063.095-.091.145-.029.052-.06.1-.077.155-.005.014-.015.023-.019.037l-11.164 41.664z" stroke="#000" stroke-width=".864" fill="#000" fill-rule="nonzero"/>
      <path d="M654.221 121.763l-6.676-1.789a.863.863 0 00-1.058.611l-1.118 4.173c-.846 3.156 1.354 5.335 2.636 6.046a.836.836 0 00.403.109c1.466.025 4.461-.762 5.306-3.919l1.118-4.173a.863.863 0 00-.611-1.058zm-2.176 4.784c-.597 2.227-2.691 2.575-3.387 2.628-.577-.395-2.217-1.742-1.62-3.97l.894-3.338 5.008 1.342-.895 3.338z" fill="#000" fill-rule="nonzero"/>
      <path d="M502.293 173.856a.836.836 0 00.044-.161c.01-.054.021-.105.021-.159.001-.057-.009-.111-.019-.166a.84.84 0 00-.04-.155c-.021-.055-.053-.103-.086-.154-.02-.031-.029-.067-.054-.096l-13.286-15.487a25.586 25.586 0 00-5.476-4.309c-2.177-1.276-4.4-2.285-6.096-2.768l-.013-.004-16.691-4.472h-.006l-.006-.003c-1.712-.431-4.142-.668-6.664-.65-2.332.015-4.652.35-6.945 1.009l-19.2 6.754c-.037.012-.062.039-.096.056a.806.806 0 00-.15.09c-.043.034-.078.074-.113.114a.85.85 0 00-.099.133.86.86 0 00-.062.15.855.855 0 00-.042.16c-.008.056-.003.111.001.17.002.038-.008.075.001.114l3.17 15.494c.001.007.005.012.006.018l.001.013c.009.04.029.075.044.112.013.033.023.068.039.1.022.039.051.072.079.107.02.027.037.057.061.08.033.035.074.061.112.09.024.017.044.038.069.053a.866.866 0 00.415.117c.023.001.046-.004.069-.005.042-.003.084-.002.125-.011.004 0 .007-.003.011-.004.007-.002.013-.001.019-.002l8.929-2.163-11.01 41.091a.863.863 0 00.611 1.058l41.728 11.181a.863.863 0 001.058-.611l11.01-41.091 3.237 3.084H487s0 0 0 0l3.415 3.254c.004.004.011.006.015.011.003.002.004.007.007.01.033.028.068.049.103.072.019.012.036.028.057.039a.853.853 0 00.419.106c.026 0 .051-.007.077-.01.051-.005.102-.008.151-.022.031-.008.059-.025.089-.037.042-.017.085-.031.125-.056.03-.017.056-.044.084-.066.031-.024.065-.045.094-.075l.007-.01c.004-.005.01-.007.014-.013l10.492-11.833c.027-.029.036-.066.058-.098.033-.051.064-.097.086-.149zm-11.335 10.262l-2.186-2.082 9.602-10.83 1.982 2.312-9.398 10.6zm-14.151-32.06c-1.47 4.104-5.95 6.456-10.324 5.284-4.374-1.172-7.078-5.449-6.299-9.738l16.623 4.454zm-44.908 16.235l-2.84-13.879 2.623-.923 2.897 14.153-2.68.649zm39.407 51.166l-40.058-10.734 11.163-41.663c.004-.014-.001-.028.002-.041.013-.057.01-.115.011-.174 0-.058.004-.114-.006-.17-.003-.014.002-.028-.002-.042-.01-.039-.036-.07-.05-.106-.022-.056-.042-.11-.074-.16-.031-.048-.07-.085-.109-.125-.038-.039-.074-.077-.119-.109-.05-.035-.105-.056-.161-.08-.037-.015-.065-.04-.104-.051-.014-.003-.028.001-.041-.002-.056-.012-.113-.009-.171-.011-.059 0-.116-.004-.173.007-.014.002-.028-.002-.042.001l-5.114 1.238-2.931-14.325 14.173-4.986c2.094-.6 4.258-.912 6.432-.927a31.985 31.985 0 014.555.284c-.945 5.169 2.297 10.321 7.549 11.728 5.253 1.407 10.635-1.433 12.4-6.382a31.833 31.833 0 014.086 2.031 23.851 23.851 0 015.073 3.981l9.642 11.242-9.718 10.96-3.618-3.449c-.011-.01-.025-.013-.036-.022-.043-.038-.094-.063-.145-.092-.051-.029-.1-.059-.155-.076-.014-.005-.024-.016-.037-.019-.038-.01-.076-.003-.115-.008-.06-.008-.117-.016-.178-.011-.056.005-.108.02-.162.035-.052.015-.103.028-.153.053-.055.027-.1.065-.147.103-.031.024-.067.037-.094.065-.01.011-.013.025-.022.037-.038.042-.063.094-.091.144-.029.052-.06.101-.077.155-.005.014-.015.023-.019.037l-11.164 41.664z" stroke="#000" stroke-width=".864" fill="#000" fill-rule="nonzero"/>
      <path d="M481.221 165.763l-6.676-1.789a.864.864 0 00-1.058.611l-1.118 4.173c-.846 3.156 1.354 5.335 2.636 6.046a.851.851 0 00.403.109c1.466.025 4.461-.762 5.306-3.919l1.118-4.173a.863.863 0 00-.611-1.058zm-2.176 4.784c-.597 2.227-2.691 2.575-3.387 2.628-.577-.395-2.217-1.742-1.62-3.97l.894-3.338 5.008 1.342-.895 3.338z" fill="#000" fill-rule="nonzero"/>
      <path d="M965.293 442.856a.836.836 0 00.044-.161c.01-.054.021-.105.021-.159.001-.057-.009-.111-.019-.166a.84.84 0 00-.04-.155c-.021-.055-.053-.103-.086-.154-.02-.031-.029-.067-.054-.096l-13.286-15.487a25.586 25.586 0 00-5.476-4.309c-2.177-1.276-4.4-2.285-6.096-2.768l-.013-.004-16.691-4.472h-.006l-.006-.003c-1.712-.431-4.142-.668-6.664-.651a25.695 25.695 0 00-6.945 1.01l-19.2 6.754c-.037.012-.062.039-.096.056a.806.806 0 00-.15.09c-.043.034-.078.074-.113.114a.85.85 0 00-.099.133.86.86 0 00-.062.15.855.855 0 00-.042.16c-.008.056-.003.111.001.17.002.038-.008.075.001.114l3.17 15.494c.001.007.005.012.006.018l.001.013c.009.04.029.075.044.112.013.033.023.068.039.1.022.039.051.072.079.107.02.027.037.057.061.08.033.035.074.061.112.09.024.017.044.038.069.053a.866.866 0 00.415.117c.023.001.046-.004.069-.005.042-.003.084-.002.125-.011.004 0 .007-.003.011-.004.007-.002.013-.001.019-.002l8.929-2.163-11.01 41.091a.863.863 0 00.611 1.058l41.728 11.181a.863.863 0 001.058-.611l11.01-41.091 3.237 3.084H950s0 0 0 0l3.415 3.254c.004.004.011.006.015.011.003.002.004.007.007.01.033.028.068.049.103.072.019.012.036.028.057.039a.853.853 0 00.419.106c.026 0 .051-.007.077-.01.051-.005.102-.008.151-.022.031-.008.059-.025.089-.037.042-.017.085-.031.125-.056.03-.017.056-.044.084-.066.031-.024.065-.045.094-.075l.007-.01c.004-.005.01-.007.014-.013l10.492-11.833c.027-.029.036-.066.058-.098.033-.051.064-.097.086-.149zm-11.335 10.262l-2.186-2.082 9.602-10.83 1.982 2.312-9.398 10.6zm-14.151-32.06c-1.47 4.104-5.95 6.456-10.324 5.284-4.374-1.172-7.078-5.449-6.299-9.738l16.623 4.454zm-44.908 16.235l-2.84-13.879 2.623-.923 2.897 14.153-2.68.649zm39.407 51.166l-40.058-10.734 11.163-41.663c.004-.014-.001-.028.002-.041.013-.057.01-.115.011-.174 0-.058.004-.114-.006-.17-.003-.014.002-.028-.002-.042-.01-.039-.036-.07-.05-.106-.022-.056-.042-.11-.074-.16-.031-.048-.07-.085-.109-.125-.038-.039-.074-.077-.119-.109-.05-.035-.105-.056-.161-.08-.037-.015-.065-.04-.104-.051-.014-.003-.028.001-.041-.002-.056-.012-.113-.009-.171-.011-.059 0-.116-.004-.173.007-.014.002-.028-.002-.042.001l-5.114 1.238-2.931-14.325 14.173-4.986c2.094-.6 4.258-.912 6.432-.927a31.985 31.985 0 014.555.284c-.945 5.169 2.297 10.321 7.549 11.728 5.253 1.407 10.635-1.433 12.4-6.382a31.833 31.833 0 014.086 2.031 23.851 23.851 0 015.073 3.981l9.642 11.242-9.718 10.96-3.618-3.449c-.011-.01-.025-.013-.036-.022-.043-.038-.094-.063-.145-.092-.051-.029-.1-.059-.155-.076-.014-.005-.024-.016-.037-.019-.038-.01-.076-.003-.115-.008-.06-.008-.117-.016-.178-.011-.056.005-.108.02-.162.035-.052.015-.103.028-.153.053-.055.027-.1.065-.147.103-.031.024-.067.037-.094.065-.01.011-.013.025-.022.037-.038.042-.063.094-.091.144-.029.052-.06.101-.077.155-.005.014-.015.023-.019.037l-11.164 41.664z" stroke="#000" stroke-width=".864" fill="#000" fill-rule="nonzero"/>
      <path d="M944.221 434.763l-6.676-1.789a.864.864 0 00-1.058.611l-1.118 4.173c-.846 3.156 1.354 5.335 2.636 6.046a.851.851 0 00.403.109c1.466.025 4.461-.762 5.306-3.919l1.118-4.173a.863.863 0 00-.611-1.058zm-2.176 4.784c-.597 2.227-2.691 2.575-3.387 2.628-.577-.395-2.217-1.742-1.62-3.97l.894-3.338 5.008 1.342-.895 3.338z" fill="#000" fill-rule="nonzero"/>
      <path d="M786.293 337.856a.836.836 0 00.044-.161c.01-.054.021-.105.021-.159.001-.057-.009-.111-.019-.166a.84.84 0 00-.04-.155c-.021-.055-.053-.103-.086-.154-.02-.031-.029-.067-.054-.096l-13.286-15.487a25.586 25.586 0 00-5.476-4.309c-2.177-1.276-4.4-2.285-6.096-2.768l-.013-.004-16.691-4.472h-.006l-.006-.003c-1.712-.431-4.142-.668-6.664-.651a25.695 25.695 0 00-6.945 1.01l-19.2 6.754c-.037.012-.062.039-.096.056a.806.806 0 00-.15.09c-.043.034-.078.074-.113.114a.85.85 0 00-.099.133.86.86 0 00-.062.15.855.855 0 00-.042.16c-.008.056-.003.111.001.17.002.038-.008.075.001.114l3.17 15.494c.001.007.005.012.006.018l.001.013c.009.04.029.075.044.112.013.033.023.068.039.1.022.039.051.072.079.107.02.027.037.057.061.08.033.035.074.061.112.09.024.017.044.038.069.053a.866.866 0 00.415.117c.023.001.046-.004.069-.005.042-.003.084-.002.125-.011.004 0 .007-.003.011-.004.007-.002.013-.001.019-.002l8.929-2.163-11.01 41.091a.863.863 0 00.611 1.058l41.728 11.181a.863.863 0 001.058-.611l11.01-41.091 3.237 3.084H771s0 0 0 0l3.415 3.254c.004.004.011.006.015.011.003.002.004.007.007.01.033.028.068.049.103.072.019.012.036.028.057.039a.853.853 0 00.419.106c.026 0 .051-.007.077-.01.051-.005.102-.008.151-.022.031-.008.059-.025.089-.037.042-.017.085-.031.125-.056.03-.017.056-.044.084-.066.031-.024.065-.045.094-.075l.007-.01c.004-.005.01-.007.014-.013l10.492-11.833c.027-.029.036-.066.058-.098.033-.051.064-.097.086-.149zm-11.335 10.262l-2.186-2.082 9.602-10.83 1.982 2.312-9.398 10.6zm-14.151-32.06c-1.47 4.104-5.95 6.456-10.324 5.284-4.374-1.172-7.078-5.449-6.299-9.738l16.623 4.454zm-44.908 16.235l-2.84-13.879 2.623-.923 2.897 14.153-2.68.649zm39.407 51.166l-40.058-10.734 11.163-41.663c.004-.014-.001-.028.002-.041.013-.057.01-.115.011-.174 0-.058.004-.114-.006-.17-.003-.014.002-.028-.002-.042-.01-.039-.036-.07-.05-.106-.022-.056-.042-.11-.074-.16-.031-.048-.07-.085-.109-.125-.038-.039-.074-.077-.119-.109-.05-.035-.105-.056-.161-.08-.037-.015-.065-.04-.104-.051-.014-.003-.028.001-.041-.002-.056-.012-.113-.009-.171-.011-.059 0-.116-.004-.173.007-.014.002-.028-.002-.042.001l-5.114 1.238-2.931-14.325 14.173-4.986c2.094-.6 4.258-.912 6.432-.927a31.985 31.985 0 014.555.284c-.945 5.169 2.297 10.321 7.549 11.728 5.253 1.407 10.635-1.433 12.4-6.382a31.833 31.833 0 014.086 2.031 23.851 23.851 0 015.073 3.981l9.642 11.242-9.718 10.96-3.618-3.449c-.011-.01-.025-.013-.036-.022-.043-.038-.094-.063-.145-.092-.051-.029-.1-.059-.155-.076-.014-.005-.024-.016-.037-.019-.038-.01-.076-.003-.115-.008-.06-.008-.117-.016-.178-.011-.056.005-.108.02-.162.035-.052.015-.103.028-.153.053-.055.027-.1.065-.147.103-.031.024-.067.037-.094.065-.01.011-.013.025-.022.037-.038.042-.063.094-.091.144-.029.052-.06.101-.077.155-.005.014-.015.023-.019.037l-11.164 41.664z" stroke="#000" stroke-width=".864" fill="#000" fill-rule="nonzero"/>
      <path d="M765.221 329.763l-6.676-1.789a.864.864 0 00-1.058.611l-1.118 4.173c-.846 3.156 1.354 5.335 2.636 6.046a.851.851 0 00.403.109c1.466.025 4.461-.762 5.306-3.919l1.118-4.173a.863.863 0 00-.611-1.058zm-2.176 4.784c-.597 2.227-2.691 2.575-3.387 2.628-.577-.395-2.217-1.742-1.62-3.97l.894-3.338 5.008 1.342-.895 3.338z" fill="#000" fill-rule="nonzero"/>
      <path d="M818.293 590.856a.836.836 0 00.044-.161c.01-.054.021-.105.021-.159.001-.057-.009-.111-.019-.166a.84.84 0 00-.04-.155.805.805 0 00-.086-.154c-.02-.031-.029-.067-.054-.096l-13.286-15.487a25.586 25.586 0 00-5.476-4.309c-2.177-1.276-4.4-2.285-6.096-2.768l-.013-.004-16.691-4.472h-.006l-.006-.003c-1.712-.431-4.142-.668-6.664-.651a25.695 25.695 0 00-6.945 1.01l-19.2 6.754c-.037.012-.062.039-.096.056a.806.806 0 00-.15.09c-.043.034-.078.074-.113.114a.85.85 0 00-.099.133.86.86 0 00-.062.15.836.836 0 00-.042.16c-.008.056-.003.111.001.17.002.038-.008.075.001.114l3.17 15.494c.001.007.005.012.006.018l.001.013c.009.04.029.074.044.112.013.033.023.068.039.1.022.039.051.072.079.107.02.027.037.057.061.08.033.035.074.061.112.09.024.016.044.038.069.053a.866.866 0 00.415.117c.023.001.046-.004.069-.005.042-.003.084-.002.125-.011.004 0 .007-.003.011-.004.007-.002.013-.001.019-.002l8.929-2.163-11.01 41.091a.863.863 0 00.611 1.058l41.728 11.181a.863.863 0 001.058-.611l11.01-41.091 3.237 3.084H803s0 0 0 0l3.415 3.253c.004.005.011.007.015.012.003.002.004.007.007.01.033.028.068.049.103.072.019.012.036.028.057.039a.853.853 0 00.419.106c.026 0 .051-.008.077-.01.051-.005.102-.008.151-.022.031-.008.059-.025.089-.037.042-.017.085-.031.125-.056.03-.018.056-.044.084-.066.031-.024.065-.045.094-.075l.007-.01c.004-.006.01-.008.014-.013l10.492-11.833c.027-.029.036-.066.058-.099.033-.05.064-.096.086-.148zm-11.335 10.262l-2.186-2.083 9.602-10.829 1.982 2.311-9.398 10.601zm-14.151-32.06c-1.47 4.104-5.95 6.456-10.324 5.284-4.374-1.172-7.078-5.449-6.299-9.738l16.623 4.454zm-44.908 16.235l-2.84-13.879 2.623-.923 2.897 14.153-2.68.649zm39.407 51.166l-40.058-10.734 11.163-41.663c.004-.014-.001-.028.002-.042.013-.056.01-.114.011-.173 0-.058.004-.114-.006-.17-.003-.014.002-.028-.002-.042-.01-.039-.036-.07-.05-.107-.022-.055-.042-.109-.074-.159-.031-.048-.07-.085-.109-.125-.038-.039-.074-.077-.119-.109-.05-.035-.105-.056-.161-.08-.037-.015-.065-.04-.104-.051-.014-.003-.028.001-.041-.002-.056-.012-.113-.009-.171-.011-.059 0-.116-.004-.173.007-.014.002-.028-.002-.042.001l-5.114 1.238-2.931-14.325 14.173-4.986c2.094-.6 4.258-.912 6.432-.927a31.985 31.985 0 014.555.284c-.945 5.169 2.297 10.321 7.549 11.728 5.253 1.407 10.635-1.433 12.4-6.382a31.833 31.833 0 014.086 2.031 23.851 23.851 0 015.073 3.981l9.642 11.242-9.718 10.96-3.618-3.449c-.011-.01-.025-.013-.036-.022-.043-.038-.094-.063-.145-.092-.051-.029-.1-.059-.155-.076-.014-.005-.024-.016-.037-.019-.038-.011-.076-.003-.115-.008-.06-.008-.117-.016-.178-.011-.056.005-.108.02-.162.035-.052.015-.103.028-.153.053-.055.027-.1.065-.147.103-.031.024-.067.037-.094.065-.01.011-.013.025-.022.036-.038.043-.063.095-.091.145-.029.052-.06.1-.077.155-.005.014-.015.023-.019.037l-11.164 41.664z" stroke="#000" stroke-width=".864" fill="#000" fill-rule="nonzero"/>
      <path d="M797.221 582.763l-6.676-1.789a.864.864 0 00-1.058.611l-1.118 4.173c-.846 3.156 1.354 5.335 2.636 6.046a.806.806 0 00.195.079.81.81 0 00.208.03c1.466.025 4.461-.762 5.306-3.919l1.118-4.173a.863.863 0 00-.611-1.058zm-2.176 4.784c-.597 2.227-2.691 2.575-3.387 2.628-.577-.395-2.217-1.742-1.62-3.97l.894-3.338 5.008 1.342-.895 3.338z" fill="#000" fill-rule="nonzero"/>
      <path d="M756.729 468.933l-5.117-7.319a2.1 2.1 0 00-2.752-.632 4.8 4.8 0 01-6.274-1.445 4.821 4.821 0 01.79-6.4c.819-.707.97-1.921.35-2.808l-5.116-7.319a7.038 7.038 0 00-9.811-1.734l-43.797 30.723a7.076 7.076 0 00-1.73 9.833l4.145 5.93v5.47c0 1.083.818 1.99 1.894 2.099a4.811 4.811 0 014.311 4.789 4.81 4.81 0 01-4.311 4.788 2.108 2.108 0 00-1.894 2.099v8.934c.004 3.897 3.157 7.055 7.047 7.059h53.465c3.889-.004 7.04-3.161 7.045-7.057v-8.936c0-1.083-.819-1.99-1.894-2.099a4.81 4.81 0 01-4.312-4.788 4.812 4.812 0 014.312-4.789 2.109 2.109 0 001.894-2.099v-8.936a6.989 6.989 0 00-1.586-4.404l1.61-1.13a7.074 7.074 0 001.731-9.829zm-5.968 22.598a9.04 9.04 0 00-6.205 8.589 9.038 9.038 0 006.205 8.588v7.235a2.838 2.838 0 01-2.832 2.837h-53.465a2.84 2.84 0 01-2.834-2.839v-7.233a9.038 9.038 0 006.205-8.588 9.04 9.04 0 00-6.205-8.589v-7.232a2.84 2.84 0 012.834-2.84h53.465a2.838 2.838 0 012.832 2.837v7.235zm1.821-16.226l-3.046 2.136a7.017 7.017 0 00-1.607-.202H726.86l-2.382-2.18a.813.813 0 01-.242-.792l.816-3.383a.812.812 0 00-1.19-.898l-3.021 1.718a.81.81 0 01-.826-.014l-2.96-1.823a.812.812 0 00-1.221.856l.698 3.41a.818.818 0 01-.269.783l-2.646 2.256c-.022.019-.023.047-.043.067h-19.11a7.042 7.042 0 00-6.384 4.114l-1.357-1.942a2.846 2.846 0 01.696-3.955l43.797-30.722a2.824 2.824 0 013.943.697l4.142 5.926a9.053 9.053 0 00-.165 10.601 9.013 9.013 0 0010 3.469l4.141 5.927a2.842 2.842 0 01-.695 3.951zm-24.673 24.034l-2.606 2.303a.815.815 0 00-.255.787l.758 3.398a.815.815 0 01-.316.835.81.81 0 01-.89.042l-2.991-1.772a.816.816 0 00-.827 0l-2.991 1.772a.813.813 0 01-1.205-.877l.757-3.398a.817.817 0 00-.255-.787l-2.607-2.303a.813.813 0 01.461-1.419l3.459-.329a.812.812 0 00.669-.487l1.38-3.194a.812.812 0 011.491 0l1.38 3.194a.814.814 0 00.668.487l3.46.329a.812.812 0 01.46 1.419zM618.729 332.933l-5.117-7.319a2.1 2.1 0 00-2.752-.632 4.8 4.8 0 01-6.274-1.445 4.821 4.821 0 01.79-6.4c.819-.707.97-1.921.35-2.808l-5.116-7.319a7.038 7.038 0 00-9.811-1.734l-43.797 30.723a7.076 7.076 0 00-1.73 9.833l4.145 5.93v5.47c0 1.083.818 1.99 1.894 2.099a4.811 4.811 0 014.311 4.789 4.81 4.81 0 01-4.311 4.788 2.108 2.108 0 00-1.894 2.099v8.934c.004 3.897 3.157 7.055 7.047 7.059h53.465c3.889-.004 7.04-3.161 7.045-7.057v-8.936c0-1.083-.819-1.99-1.894-2.099a4.81 4.81 0 01-4.312-4.788 4.812 4.812 0 014.312-4.789 2.109 2.109 0 001.894-2.099v-8.936a6.989 6.989 0 00-1.586-4.404l1.61-1.13a7.074 7.074 0 001.731-9.829zm-5.968 22.598a9.04 9.04 0 00-6.205 8.589 9.038 9.038 0 006.205 8.588v7.235a2.838 2.838 0 01-2.832 2.837h-53.465a2.84 2.84 0 01-2.834-2.839v-7.233a9.038 9.038 0 006.205-8.588 9.04 9.04 0 00-6.205-8.589v-7.232a2.84 2.84 0 012.834-2.84h53.465a2.838 2.838 0 012.832 2.837v7.235zm1.821-16.226l-3.046 2.136a7.017 7.017 0 00-1.607-.202H588.86l-2.382-2.18a.813.813 0 01-.242-.792l.816-3.383a.812.812 0 00-1.19-.898l-3.021 1.718a.81.81 0 01-.826-.014l-2.96-1.823a.812.812 0 00-1.221.856l.698 3.41a.818.818 0 01-.269.783l-2.646 2.256c-.022.019-.023.047-.043.067h-19.11a7.042 7.042 0 00-6.384 4.114l-1.357-1.942a2.846 2.846 0 01.696-3.955l43.797-30.722a2.824 2.824 0 013.943.697l4.142 5.926a9.053 9.053 0 00-.165 10.601 9.013 9.013 0 0010 3.469l4.141 5.927a2.842 2.842 0 01-.695 3.951zm-24.673 24.034l-2.606 2.303a.815.815 0 00-.255.787l.758 3.398a.815.815 0 01-.316.835.81.81 0 01-.89.042l-2.991-1.772a.816.816 0 00-.827 0l-2.991 1.772a.813.813 0 01-1.205-.877l.757-3.398a.817.817 0 00-.255-.787l-2.607-2.303a.813.813 0 01.461-1.419l3.459-.329a.812.812 0 00.669-.487l1.38-3.194a.812.812 0 011.491 0l1.38 3.194a.814.814 0 00.668.487l3.46.329a.812.812 0 01.46 1.419zM790.729 196.933l-5.117-7.319a2.1 2.1 0 00-2.752-.632 4.8 4.8 0 01-6.274-1.445 4.821 4.821 0 01.79-6.4c.819-.707.97-1.921.35-2.808l-5.116-7.319a7.038 7.038 0 00-9.811-1.734l-43.797 30.723a7.076 7.076 0 00-1.73 9.833l4.145 5.93v5.47c0 1.083.818 1.99 1.894 2.099a4.811 4.811 0 014.311 4.789 4.81 4.81 0 01-4.311 4.788 2.108 2.108 0 00-1.894 2.099v8.934c.004 3.897 3.157 7.055 7.047 7.059h53.465c3.889-.004 7.04-3.161 7.045-7.057v-8.936c0-1.083-.819-1.99-1.894-2.099a4.81 4.81 0 01-4.312-4.788 4.812 4.812 0 014.312-4.789 2.109 2.109 0 001.894-2.099v-8.936a6.989 6.989 0 00-1.586-4.404l1.61-1.13a7.074 7.074 0 001.731-9.829zm-5.968 22.598a9.04 9.04 0 00-6.205 8.589 9.038 9.038 0 006.205 8.588v7.235a2.838 2.838 0 01-2.832 2.837h-53.465a2.84 2.84 0 01-2.834-2.839v-7.233a9.038 9.038 0 006.205-8.588 9.04 9.04 0 00-6.205-8.589v-7.232a2.84 2.84 0 012.834-2.84h53.465a2.838 2.838 0 012.832 2.837v7.235zm1.821-16.226l-3.046 2.136a7.017 7.017 0 00-1.607-.202H760.86l-2.382-2.18a.813.813 0 01-.242-.792l.816-3.383a.812.812 0 00-1.19-.898l-3.021 1.718a.81.81 0 01-.826-.014l-2.96-1.823a.812.812 0 00-1.221.856l.698 3.41a.818.818 0 01-.269.783l-2.646 2.256c-.022.019-.023.047-.043.067h-19.11a7.042 7.042 0 00-6.384 4.114l-1.357-1.942a2.846 2.846 0 01.696-3.955l43.797-30.722a2.824 2.824 0 013.943.697l4.142 5.926a9.053 9.053 0 00-.165 10.601 9.013 9.013 0 0010 3.469l4.141 5.927a2.842 2.842 0 01-.695 3.951zm-24.673 24.034l-2.606 2.303a.815.815 0 00-.255.787l.758 3.398a.815.815 0 01-.316.835.81.81 0 01-.89.042l-2.991-1.772a.816.816 0 00-.827 0l-2.991 1.772a.813.813 0 01-1.205-.877l.757-3.398a.817.817 0 00-.255-.787l-2.607-2.303a.813.813 0 01.461-1.419l3.459-.329a.812.812 0 00.669-.487l1.38-3.194a.812.812 0 011.491 0l1.38 3.194a.814.814 0 00.668.487l3.46.329a.812.812 0 01.46 1.419zM963.729 284.933l-5.117-7.319a2.1 2.1 0 00-2.752-.632 4.8 4.8 0 01-6.274-1.445 4.821 4.821 0 01.79-6.4c.819-.707.97-1.921.35-2.808l-5.116-7.319a7.038 7.038 0 00-9.811-1.734l-43.797 30.723a7.076 7.076 0 00-1.73 9.833l4.145 5.93v5.47c0 1.083.818 1.99 1.894 2.099a4.811 4.811 0 014.311 4.789 4.81 4.81 0 01-4.311 4.788 2.108 2.108 0 00-1.894 2.099v8.934c.004 3.897 3.157 7.055 7.047 7.059h53.465c3.889-.004 7.04-3.161 7.045-7.057v-8.936c0-1.083-.819-1.99-1.894-2.099a4.81 4.81 0 01-4.312-4.788 4.812 4.812 0 014.312-4.789 2.109 2.109 0 001.894-2.099v-8.936a6.989 6.989 0 00-1.586-4.404l1.61-1.13a7.074 7.074 0 001.731-9.829zm-5.968 22.598a9.04 9.04 0 00-6.205 8.589 9.038 9.038 0 006.205 8.588v7.235a2.838 2.838 0 01-2.832 2.837h-53.465a2.84 2.84 0 01-2.834-2.839v-7.233a9.038 9.038 0 006.205-8.588 9.04 9.04 0 00-6.205-8.589v-7.232a2.84 2.84 0 012.834-2.84h53.465a2.838 2.838 0 012.832 2.837v7.235zm1.821-16.226l-3.046 2.136a7.017 7.017 0 00-1.607-.202H933.86l-2.382-2.18a.813.813 0 01-.242-.792l.816-3.383a.812.812 0 00-1.19-.898l-3.021 1.718a.81.81 0 01-.826-.014l-2.96-1.823a.812.812 0 00-1.221.856l.698 3.41a.818.818 0 01-.269.783l-2.646 2.256c-.022.019-.023.047-.043.067h-19.11a7.042 7.042 0 00-6.384 4.114l-1.357-1.942a2.846 2.846 0 01.696-3.955l43.797-30.722a2.824 2.824 0 013.943.697l4.142 5.926a9.053 9.053 0 00-.165 10.601 9.013 9.013 0 0010 3.469l4.141 5.927a2.842 2.842 0 01-.695 3.951zm-24.673 24.034l-2.606 2.303a.815.815 0 00-.255.787l.758 3.398a.815.815 0 01-.316.835.81.81 0 01-.89.042l-2.991-1.772a.816.816 0 00-.827 0l-2.991 1.772a.813.813 0 01-1.205-.877l.757-3.398a.817.817 0 00-.255-.787l-2.607-2.303a.813.813 0 01.461-1.419l3.459-.329a.812.812 0 00.669-.487l1.38-3.194a.812.812 0 011.491 0l1.38 3.194a.814.814 0 00.668.487l3.46.329a.812.812 0 01.46 1.419z" fill="#222" fill-rule="nonzero"/>
    </g>
  </g>
</svg>