<svg fill="none" xmlns="http://www.w3.org/2000/svg" viewBox="0 0 100 100" class="MatchCard_vsLogo__n3cmr"><path d="M96.3 50.2a46.35 46.35 0 11-92.71 0 46.35 46.35 0 0192.71 0z" fill="#fff"></path><path d="M41.17 84.73l-1.15-.28-1.34 5.65h.03l3.65.88.25-1.04-2.53-.6 1.1-4.6zm21.75-1.33l1.17 3.24-3.26-2.5-.99.36 1.95 5.47 1.12-.4-1.16-3.25 3.25 2.5h.02l.97-.36L64.04 83l-1.12.4zM31.9 87.57l1.14.47.71-.81 1.84.75-.07 1.07.03.01 1.12.46.24-6.17-.85-.35-4.16 4.57zm3.78-.64l-1.24-.5 1.37-1.56-.13 2.06zm22.83-.58a1.64 1.64 0 00-.64-.77 2.12 2.12 0 00-1.66-.36 2.13 2.13 0 00-1.44.9c-.2.3-.3.61-.31.95v.06c0 .33.04.79.15 1.37.1.62.22 1.09.34 1.4.12.3.33.57.62.78.25.17.51.29.79.35a2.22 2.22 0 00.88 0c.32-.06.59-.16.83-.3.23-.16.43-.36.6-.6.21-.3.33-.62.33-.95v-.05c0-.32-.05-.79-.16-1.38a8.43 8.43 0 00-.33-1.4zm-.7 2.72a.94.94 0 01-.12.5.88.88 0 01-.63.42l-.2.01c-.07 0-.14 0-.21-.02a.74.74 0 01-.33-.16.66.66 0 01-.17-.17 1.1 1.1 0 01-.13-.26 12.96 12.96 0 01-.25-1.1l-.1-.68c-.03-.17-.04-.3-.04-.4v-.03c0-.11.02-.2.04-.29a.7.7 0 01.1-.2c.05-.11.14-.2.25-.27.1-.08.23-.12.38-.15l.2-.02c.2 0 .38.06.53.19a.85.85 0 01.3.43c.04.1.08.24.12.41a19.56 19.56 0 01.27 1.76v.03zm-6.7-3.27l.28 5.8h.04l1.15-.06-.28-5.8-1.18.06zm-3.68-.07l-2.33-.19-.46 5.79 2.43.19h.21c.44 0 .81-.1 1.12-.34.35-.27.54-.67.58-1.2l.01-.16c0-.28-.06-.5-.18-.7-.13-.2-.29-.36-.47-.48a1.36 1.36 0 00.76-1.3c0-.42-.12-.78-.38-1.06-.3-.32-.73-.5-1.3-.55zm.38 4.1c-.02.2-.09.36-.22.48a.67.67 0 01-.46.15h-.09l-1.14-.1.11-1.34 1.14.09c.24.02.4.1.52.23a.64.64 0 01.14.5zm.1-2.36a.6.6 0 01-.21.44.7.7 0 01-.44.13h-.1l-1.06-.09.1-1.25 1.06.08c.23.02.4.1.51.21.1.11.15.24.15.4v.08zm2.05-83.03a45.76 45.76 0 100 91.53 45.76 45.76 0 000-91.53zm0 89.77a44 44 0 110-88 44 44 0 010 88zm9.84-78.13a2.28 2.28 0 00.84.13c.23-.03.46-.08.7-.17l.24.57 1.34.45-.62-1.49c.24-.14.45-.33.63-.57.18-.24.33-.54.47-.9l.01-.02-.98-.33-.02.03a1.7 1.7 0 01-.54.8l-.53-1.29.23-.06.22-.08c.22-.07.4-.16.55-.28a1 1 0 00.33-.48c.04-.14.07-.29.07-.42 0-.22-.04-.43-.16-.63a1.51 1.51 0 00-.9-.7c-.22-.07-.42-.1-.6-.11-.21 0-.41.03-.6.1-.33.16-.57.42-.7.8-.04.13-.06.26-.06.39 0 .1 0 .18.02.27.04.2.11.41.2.63-.33.1-.63.22-.88.39a1.4 1.4 0 00-.55.73c-.07.22-.1.42-.1.6-.01.28.04.53.17.77.21.39.62.68 1.22.87zm1.04-4.28a.4.4 0 01.2-.26.33.33 0 01.18-.04c.05 0 .1 0 .17.03.13.04.21.11.26.21.03.07.05.13.05.2l-.03.13a.38.38 0 01-.15.2.87.87 0 01-.28.12.76.76 0 01-.14.05l-.11.02c-.08-.17-.13-.3-.15-.4a.55.55 0 01-.03-.15c0-.04.01-.08.03-.11zm-1.3 2.36c.05-.17.14-.3.26-.38.12-.09.3-.16.5-.23l.65 1.55c-.15.06-.29.1-.42.1h-.08c-.11 0-.23-.02-.36-.06a.85.85 0 01-.5-.39.66.66 0 01-.1-.37c.01-.07.02-.14.05-.22zm-9.56-2.88l2.2 3.37h1.04V8.98h-1.17v3.36l-2.2-3.36h-1.05v5.67h1.18v-3.37zm28.7 17.86l2.09 3.16.87-.57-1.46-2.2 1.09-.72 1.23 1.88.87-.57-1.23-1.88 1.04-.68 1.45 2.2.87-.57-2.1-3.18-4.73 3.1.02.03zm-6.2-8.37a1.64 1.64 0 00-.2.96 2.06 2.06 0 00.78 1.48 2.14 2.14 0 001.59.54c.36-.02.68-.14.93-.34s.57-.53.97-1 .69-.85.85-1.13a1.6 1.6 0 00.18-.96 2.13 2.13 0 00-.78-1.48 2.3 2.3 0 00-.75-.45 2.04 2.04 0 00-.84-.1c-.35.03-.66.14-.92.35-.25.2-.58.53-.98 1s-.68.84-.83 1.13zm.92.95c0-.07 0-.14.02-.2a3.18 3.18 0 01.35-.6 22.21 22.21 0 01.88-1.03 2.54 2.54 0 01.55-.44.77.77 0 01.21-.06.6.6 0 01.12 0c.08 0 .16 0 .25.03.12.04.24.11.35.2.22.2.33.42.34.67v.04c0 .07-.01.13-.03.2l-.11.25a16.36 16.36 0 01-.67.87c-.17.2-.32.38-.44.5l-.3.3-.24.14a.85.85 0 01-.36.07c-.2 0-.4-.07-.58-.23-.12-.1-.2-.2-.26-.32a.84.84 0 01-.08-.35v-.04zm-4.32-4.27l1.59.98-1.23 2 .02.01.97.6 2.97-4.82-1-.62-1.2 1.95-1.58-.98 1.2-1.95-1-.61-2.97 4.82 1 .62 1.23-2zm7.86 9.56h.02l5.5-2.31-.81-.92-3.43 1.52 1.94-3.2-.8-.92-3 5.17.58.66zM43.1 13.74c.1.31.3.58.58.8a2.12 2.12 0 001.62.42 2.14 2.14 0 001.47-.81c.22-.28.35-.59.38-.91V13a10.88 10.88 0 00-.35-2.54c-.1-.3-.3-.57-.58-.79a2.17 2.17 0 00-1.3-.45 2.6 2.6 0 00-1.17.29c-.24.13-.45.31-.63.55-.22.27-.34.57-.36.9l-.02.27c0 .3.03.67.1 1.14.07.6.16 1.06.26 1.37zm.82-2.61a.77.77 0 01.15-.48c.06-.1.15-.18.26-.25.12-.06.25-.1.4-.12l.14-.01a.83.83 0 01.73.39c.04.07.08.15.11.25l.1.4a12.67 12.67 0 01.17 1.64v.13c0 .1-.02.2-.05.27a.86.86 0 01-.76.58l-.13.01a1 1 0 01-.27-.03.8.8 0 01-.32-.18.67.67 0 01-.15-.17 2.65 2.65 0 01-.2-.67 15.39 15.39 0 01-.2-1.63l.02-.13zM23.27 26.79l-1.65-1.5.5-.56 2.4.7.02-.03.9-.98-2.65-.7a1.63 1.63 0 00.09-.9 1.5 1.5 0 00-.5-.86 1.8 1.8 0 00-.59-.37c-.18-.07-.38-.1-.57-.1h-.1a1.8 1.8 0 00-.67.19c-.23.1-.43.27-.63.48l-1.52 1.67 4.18 3.83.8-.87zm-2.37-2.17l-1.04-.96.68-.74a.82.82 0 01.52-.29h.07c.17 0 .31.06.46.2.16.14.23.3.23.5a.8.8 0 01-.23.55l-.69.74zm-.48 5.77a1.96 1.96 0 00.34-1.32A1.55 1.55 0 0020 28c-.26-.16-.5-.25-.75-.25h-.07c-.24.02-.45.08-.64.2v-.08c0-.16-.04-.34-.11-.52a1.22 1.22 0 00-.5-.6c-.3-.2-.6-.29-.9-.29-.1 0-.22.02-.34.05-.42.1-.78.4-1.08.86l-1.27 1.94 4.75 3.1 1.32-2.02zm-2.95-1.7l-.57.88-1.03-.67.57-.89c.13-.19.27-.3.43-.34a.45.45 0 01.14-.02.6.6 0 01.33.11.56.56 0 01.28.49.8.8 0 01-.15.44zm.3 1.45l.62-.94c.13-.2.27-.31.44-.35l.13-.01c.12 0 .25.04.37.12a.64.64 0 01.3.53c0 .14-.04.28-.14.42l-.61.95-1.1-.72zm8.68-6.6l.87-.74-3.69-4.3-.89.75 3.69 4.31.02-.02zm12.33-11.96L40 16.04l1.13-.3-1.23-4.47 1.43-.4-.28-1-3.99 1.1.27 1 1.44-.4zM27.03 19.4c.34.51.63.88.86 1.11.23.23.52.39.86.46a2.17 2.17 0 001.64-.34 2.15 2.15 0 001.02-1.77c0-.17-.03-.33-.08-.5a3.78 3.78 0 00-.47-.92l-.47-.69-1.8 1.2.53.82.84-.56.1.14c.08.12.13.25.18.38.02.08.04.17.04.26l-.02.11a.94.94 0 01-.44.66.94.94 0 01-.52.17.86.86 0 01-.42-.11 2.86 2.86 0 01-.48-.5l-.39-.57-.37-.57a2.48 2.48 0 01-.19-.37 1.08 1.08 0 01-.09-.38.86.86 0 01.42-.74c.17-.1.33-.17.48-.19h.12c.13 0 .29.01.47.05h.03l.23-1.09h-.03a3.1 3.1 0 00-.97-.04c-.28.06-.59.2-.9.4a2.12 2.12 0 00-1 1.75c0 .21.04.42.13.61.12.3.35.71.7 1.22zm7.53-1.22l-.96-2.14 1.7-.76.97 2.13h.02l1.04-.48L35 11.77l-1.07.48.95 2.09-1.7.76-.95-2.09-1.06.49 2.33 5.16 1.06-.48zm34.27 34.9c.47 0 .85-.55.85-.55s-.38-.54-.85-.54-.84.54-.84.54.37.54.84.54zm22.11-8.23c-.56-.3-1.42-.7-2.66-1.22a62.63 62.63 0 00-6.64-2.1 32.86 32.86 0 00-64.36 5.16c-1.67.25-3.26.44-4.65.59-2.74.29-4.65.39-4.65.39-.1 0-.18.08-.2.18v.04c0 .15.1.78 1.14 1.3 1.04.55 3 1.03 6.8 1.04l1.37-.02a32.86 32.86 0 1065.15-6.04c3.38.74 7.63 1.71 9 1.71.14 0 .26 0 .36-.04.09-.02.22-.1.23-.25-.06-.3-.33-.41-.89-.74zm.3.72c-2.15 0-12.01-2.56-13.41-2.56-2.2.01-7.12 2.72-9.68 4.38-.75.49-1.5.93-2.25 1.31a8.58 8.58 0 014.62 1.66c1.44 1.07 2.93 2.39 3.82 2.56l.14.02c1.28.12 4.92 1.02 4.8 3.17 0 0-2.53-.77-5.57-.25-1.2.26-2.94.42-5.58 1.26-2.5.79-9.03 3.26-14.13 3.27-3.88 0-11.73-2.24-16.25-2.63a9.6 9.6 0 00-.8-.03c-3.45 0-6.41 1.8-7.9 1.83a9.88 9.88 0 01-5.96-1.93c-1.74-1.3-3.03-3.21-3.05-4.62 0-.47.17-.9.53-1.2.26-.2.63-.24 1.1-.24 1.78 0 5.3.77 9.47.77 2.48 0 5.18-.27 7.86-1.13.62-.2 2.5-.64 3.7-.94l1.03.7a.2.2 0 00.11.05c.07 0 .13-.04.18-.1a.21.21 0 00-.05-.28c-2.32-1.62-3.43-2.51-7.3-2.5-2.48 0-6.1.34-11.95 1.04-3.8.46-6.73.63-9 .63-3.76 0-5.67-.49-6.6-.98-.58-.3-.8-.59-.87-.76 1.36-.08 8.13-.56 14.11-1.88 6.8-1.51 17.43-5.76 22.39-5.75 1.84-.02 5.04 1.89 8.21 4.02 3.2 2.13 6.38 4.48 8.41 5.33.1.04.23 0 .27-.11a.2.2 0 00-.11-.27 31.37 31.37 0 01-4.57-2.74c2.46-1.16 11-6.29 17.1-6.29 2.91 0 11.51 2.45 14.1 3.54 1.23.52 2.1.9 2.64 1.2a4.38 4.38 0 01.67.44l-.23.01z" fill="#005DAA"></path><path d="M73.71 55.86c3.04-.52 5.57.25 5.57.25.12-2.24-3.83-3.13-4.94-3.19 0 0 .57 1.2-2.52 1.43 0 0-1.44-.03-2.03.5 0 0 2.84-.22 3.84.89l.08.12z" fill="#FDB913"></path></svg>