<svg width="91" height="90" fill="none" xmlns="http://www.w3.org/2000/svg" class="IconWithText_icon__3zIqb">
    <path
        d="M76.368 12.456a23.587 23.587 0 00-9.022-3.655c.363.216.725.44 1.086.68 10.674 7.083 13.844 22.257 7.968 34.647-8.09 17.058-29.513 29.456-37.292 33.933 2.227 1.355 4.125 2.442 5.506 3.237a1.975 1.975 0 001.976 0c7.374-4.246 29.498-16.8 37.747-34.195 5.875-12.39 2.705-27.564-7.97-34.647z"
        fill="#6CADDF"></path>
    <path
        d="M45.603 83.048a3.473 3.473 0 01-1.732-.46l-.313-.18c-8.123-4.676-29.7-17.094-38.034-34.668-6.353-13.394-2.702-29.097 8.491-36.524 9.95-6.755 23.332-5.292 31.588 3.455C53.857 5.923 67.24 4.459 77.19 11.216c11.194 7.427 14.844 23.13 8.49 36.524-8.333 17.575-29.91 29.993-38.033 34.667l-.314.18a3.47 3.47 0 01-1.73.461zM27.67 9.932a21.496 21.496 0 00-12.011 3.764c-9.805 6.506-13.076 20.9-7.447 32.77 7.936 16.733 29.683 29.249 36.83 33.362l.314.18c.152.089.34.089.492 0l.314-.18c7.146-4.113 28.893-16.628 36.829-33.362 5.629-11.87 2.359-26.264-7.447-32.77-9.223-6.28-21.717-4.461-28.767 4.186a1.54 1.54 0 01-2.35 0 21.895 21.895 0 00-16.757-7.95zm17.937 46.604c-.296 0-.586-.088-.832-.255-.106-.07-2.62-1.77-4.425-3.231a34.97 34.97 0 01-4.582-4.357c-3.983-4.668-4.369-10.323-.938-13.754a7.58 7.58 0 0110.704-.002l.081.08.079-.078a7.579 7.579 0 0110.706 0c3.431 3.43 3.045 9.086-.938 13.754a46.305 46.305 0 01-9.06 7.613c-.237.15-.513.23-.795.23zM40.184 35.7a4.583 4.583 0 00-3.25 1.343c-2.68 2.682-1.38 6.813 1.098 9.718a32.12 32.12 0 004.192 3.976c1.096.887 2.518 1.901 3.399 2.515a41.679 41.679 0 007.577-6.49c2.478-2.906 3.78-7.037 1.097-9.718a4.6 4.6 0 00-6.498 0L46.67 38.17c-.58.58-1.52.581-2.101.003l-1.133-1.128-.003-.002a4.583 4.583 0 00-3.25-1.344z"
        fill="#000000" stroke="var(--sports-pages-LandingPage-HowItWorks-icon-border-color)" stroke-width="0.9"></path>
</svg>