<svg fill="none" xmlns="http://www.w3.org/2000/svg" viewBox="0 0 228 77"><path d="M77.37 38.5c0 7.61-2.27 15.05-6.52 21.38A38.65 38.65 0 0153.5 74.06a38.86 38.86 0 01-42.16-8.35 38.32 38.32 0 01-8.38-41.96A38.54 38.54 0 0117.2 6.49a38.82 38.82 0 0148.84 4.8A38.4 38.4 0 0177.37 38.5z" fill="#C99700"/><path d="M76.09 38.5c0 7.36-2.2 14.55-6.3 20.68A37.36 37.36 0 0153 72.88a37.57 37.57 0 01-40.76-8.06 37.05 37.05 0 01-8.1-40.56A37.26 37.26 0 0117.9 7.56a37.53 37.53 0 0147.23 4.62A37.2 37.2 0 0176.09 38.5z" fill="#001489"/><path d="M65.34 38.5c0 5.24-1.55 10.37-4.47 14.74a26.77 26.77 0 01-41 4.05 26.48 26.48 0 01-5.8-28.91 26.55 26.55 0 019.82-11.9 26.74 26.74 0 0133.64 3.28c5 4.97 7.8 11.7 7.81 18.74z" fill="#C99700"/><path d="M64.53 38.5c0 5.08-1.51 10.06-4.35 14.29a25.97 25.97 0 01-39.77 3.9 25.68 25.68 0 01-5.6-28.04 25.75 25.75 0 019.52-11.54 25.94 25.94 0 0138.24 11.54 25.61 25.61 0 011.96 9.85z" fill="#fff"/><path d="M16.54 60.7c.3.26 1 .93 1 .93l.67-.7L16.2 59l-.26.27-2.7 2.82 1.02.97 1.19-1.24.9.86.68-.7-.9-.86.41-.44zM21.4 63.9a2.07 2.07 0 00-.86-1.34 2.06 2.06 0 00-1.58-.36 2.27 2.27 0 00-1.48.94 2.3 2.3 0 00-.42 1.72 2.05 2.05 0 00.86 1.34 2.04 2.04 0 001.55.36 2.26 2.26 0 001.48-.95 2.28 2.28 0 00.43-1.72l.02.02zm-2.9 1.5c-.47-.33-.08-1.02.2-1.4.29-.38.8-.98 1.27-.65.48.33 0 1.1-.19 1.42-.19.3-.78.98-1.27.63zM24.56 64.97a2.15 2.15 0 00-2.9 1.05 2.27 2.27 0 00-.17 1.71 2.05 2.05 0 001.05 1.2c.5.25 1.07.3 1.6.13a2.3 2.3 0 001.31-1.17 2.13 2.13 0 00-.9-2.92zm-1.2 3.16a.5.5 0 01-.38 0 .53.53 0 01-.3-.52c.04-.3.13-.6.27-.86.22-.42.65-1.08 1.17-.85a.47.47 0 01.26.29c.04.37-.05.75-.25 1.07-.15.37-.42.67-.77.87zM26.8 66.53l-.2.58.66.22-1.1 3.1 1.34.47 1.1-3.1.66.23.33-.92-2.67-.93-.12.35zM32.34 67.73l-1.8-.38-.08.36-.81 3.81 1.83.39a1.56 1.56 0 001.2-.17 1.3 1.3 0 00.55-.85v-.29c0-.24-.08-.48-.23-.68.22-.18.37-.42.42-.69V69a1.3 1.3 0 00-1.08-1.26zm-.46 2.94c0 .09-.06.2-.13.25a.5.5 0 01-.33 0h-.15l.15-.73h.18a.34.34 0 01.29.35l-.01.13zm-.13-2.04a.5.5 0 01.32.16v.12a.6.6 0 010 .12c0 .12-.05.26-.37.2h-.09c.03-.25.05-.37.1-.6h.04zM35.67 68.4l-1.96 3.98 1.12.08.42-.85.7.06.3.94 1.5.11-1.67-5.14-.41.81zM40.08 71.57c0-.58-.14-3.24-.14-3.24H38.53l.18 4.29 2.83-.12v-1.02l-1.46.1zM43.94 71.16l-.5-3.2-.37.05-1.03.16.66 4.22 2.8-.44-.15-1.02-1.4.23zM52.08 68.32a.91.91 0 01-.57.86.7.7 0 01-.55 0 1.42 1.42 0 01-.68-.79 1.5 1.5 0 01-.1-1.1.78.78 0 01.48-.42.94.94 0 01.86.2l.31.17.53-.81-.31-.2a2.07 2.07 0 00-1.89-.21 2.17 2.17 0 00-1.23 2.9 2.2 2.2 0 002.84 1.22 1.97 1.97 0 001.31-1.71v-.37l-1.02-.08.02.34zM55.37 67.17l-1.59-2.87-.33.2-.9.52 2.1 3.72 2.48-1.38-.5-.85-1.26.66zM58.12 61.42l-.3.22-.53.4L59 64.37a.28.28 0 01.07.22.61.61 0 01-.26.34.48.48 0 01-.3.07.34.34 0 01-.22-.15l-1.73-2.33-1.14.86 1.72 2.31a1.43 1.43 0 00.94.6 1.8 1.8 0 001.36-.41 1.44 1.44 0 00.5-2.05l-1.83-2.42zM63.34 60.56a1.19 1.19 0 00-.93-.37 1.2 1.2 0 00-.77-1.02 1.3 1.3 0 00-1.46.35l-1.32 1.28 2.99 3.06 1.34-1.27a1.56 1.56 0 00.57-1.1 1.33 1.33 0 00-.42-.93zm-2.26-.1c.05.05.09.11.1.18a.39.39 0 01-.14.24l-.06.06-.42-.43c.3-.27.42-.15.52-.05zm.7 1.06a.37.37 0 01.55 0c.07.06.12.14.14.24a.43.43 0 01-.18.28l-.12.1-.51-.53.13-.1z" fill="#C99700"/><path d="M16.53 60.29l1 .94.28-.3-1.6-1.52-.07.07-2.5 2.57.61.58 1.18-1.23.9.85.3-.3-.87-.85.77-.81zM20.38 62.8a1.73 1.73 0 00-1.35-.32 2.1 2.1 0 00-1.67 2.33 1.71 1.71 0 00.73 1.16 1.82 1.82 0 002.09.02c.22-.15.41-.34.56-.56.24-.33.38-.72.4-1.13V64a1.81 1.81 0 00-.76-1.2zm-.36 2.13c-.27.37-.98 1.2-1.68.7s-.13-1.42.13-1.8c.27-.38.97-1.2 1.67-.7s.14 1.42-.12 1.8zM24.44 65.22a1.87 1.87 0 00-2.54.92 1.96 1.96 0 00-.14 1.53 1.77 1.77 0 00.9 1.03 1.82 1.82 0 001.39.12c.5-.18.92-.54 1.15-1.02a1.87 1.87 0 00-.76-2.58zm-1.59 3.11c-.76-.38-.35-1.38-.15-1.79.21-.41.79-1.33 1.55-.94a.75.75 0 01.4.44 2.42 2.42 0 01-1.2 2.35.77.77 0 01-.6-.06zM27.06 66.63l-.1.3.66.23-1.1 3.14.81.28 1.1-3.14.67.23.13-.38-2.13-.76-.04.1zM32.28 68.04l-1.53-.3v.09L30 71.36l1.56.32a1.28 1.28 0 00.98-.12 1 1 0 00.43-.66v-.22a.85.85 0 00-.43-.75.86.86 0 00.62-.68.56.56 0 000-.18 1.02 1.02 0 00-.88-1.03zm-.54.3c.2.04.4.14.54.3.04.08.07.18.06.27v.18a.52.52 0 01-.46.44c-.08.01-.16 0-.23-.02l-.4-.06c0-.15.22-.99.25-1.14l.24.04zm-.11 1.59a.6.6 0 01.5.64v.16a.65.65 0 01-.25.43.74.74 0 01-.54.05l-.43-.1c0-.14.24-1.12.27-1.27l.45.09zM35.92 68.5l-1.78 3.63.51.04s.38-.79.43-.85l1.09.07c0 .11.3.95.3.95l.86.07-1.31-4.07-.1.16zm-.2 1.46l.31.98-.76-.06c.06-.16.33-.65.45-.92zM39.82 71.86l-.14-3.24h-.86l.16 3.7 2.27-.09v-.46l-1.43.1zM43.73 71.49c0-.18-.51-3.21-.51-3.21h-.1l-.74.11.57 3.67 2.25-.35-.08-.46-1.4.24zM52.35 68.33a1.19 1.19 0 01-1.12 1.2.94.94 0 01-.38-.08c-.4-.2-.7-.53-.86-.95a1.7 1.7 0 01-.1-1.3 1.1 1.1 0 01.64-.58 1.22 1.22 0 011.1.2l.08.05.24-.36-.08-.05a1.78 1.78 0 00-1.63-.18c-.48.19-.87.56-1.09 1.03-.2.5-.2 1.06 0 1.55a1.91 1.91 0 002.55 1.02 1.72 1.72 0 001.13-1.51v-.1h-.44l-.04.06zM55.26 67.54l-1.59-2.83-.08.05-.66.37 1.82 3.23 1.98-1.1-.23-.39-1.24.67zM58.06 61.8l-.07.07-.3.22 1.56 2.13a.56.56 0 01.12.43.86.86 0 01-.37.52.72.72 0 01-.74.03.54.54 0 01-.17-.18l-1.55-2.1-.69.5 1.54 2.1a1.16 1.16 0 00.75.49c.4.03.8-.1 1.1-.35a1.15 1.15 0 00.62-1.21 1.15 1.15 0 00-.18-.45l-1.62-2.2zM63.13 60.76a.86.86 0 00-1.03-.22.85.85 0 00-.22-.88 1.02 1.02 0 00-1.5.06l-1.13 1.08 2.59 2.66 1.14-1.1a1.26 1.26 0 00.45-.86 1 1 0 00-.3-.74zm-1.67-.12a.62.62 0 01-.23.44l-.26.26-.81-.85.18-.17c.35-.35.65-.37.94-.08a.55.55 0 01.18.4zm.71 1.95l-.91-.95.33-.31a.65.65 0 01.94 0 .63.63 0 01.21.43.7.7 0 01-.26.48l-.3.35z" fill="#fff"/><path d="M21.54 13.13l-1.57.42.18.56a1.7 1.7 0 01-.97 2.12c-.18.06-.36.09-.54.08a2.7 2.7 0 01-1.73-.98 2.74 2.74 0 01-.86-1.9 1.52 1.52 0 01.6-1.1 1.89 1.89 0 011.68-.2l.53.1.35-1.48-.54-.14a3.63 3.63 0 00-4.19 1.98 3.86 3.86 0 00.64 4.36 3.84 3.84 0 006.52-1.25c.2-.65.2-1.34.01-1.98l-.1-.59zM25.75 5.33l-1.62.75s.86 1.88 1.2 2.53l-1.36.63a488 488 0 01-1.2-2.53l-2.1 1 3.21 6.77 2.1-.99-1.3-2.76 1.35-.64 1.33 2.77 2.1-1-3.2-6.77-.52.24zM32.87 9.52L32.57 8l2.37-.48-.3-1.52-2.38.48-.27-1.31 2.53-.5-.3-1.5-.56.1-4.25.85 1.48 7.33 4.85-.97-.31-1.5-2.56.54zM39.74 3H37.4v.57l-.15 6.9 4.89.11V8.97l-2.58-.06c.06-.96.17-5.9.17-5.9zM47.29 6.78c-.6-.44-.79-.62-.72-.86a.48.48 0 01.6-.42c.26.07.52.21.63.77l.13.61 1.54-.51-.1-.48a2.74 2.74 0 00-2.83-2.07c-.43.02-.84.15-1.21.36-.54.32-.93.84-1.09 1.44-.38 1.54.66 2.27 1.35 2.76.69.49.86.7.77 1.12a.49.49 0 01-.24.3c-.13.09-.3.11-.45.08-.37-.09-.54-.26-.68-.74l-.19-.57-1.53.64.15.48a2.64 2.64 0 002.1 1.82 2.6 2.6 0 003.2-1.78c.4-1.62-.71-2.42-1.43-2.95zM52.84 10.77L55 11.86l.7-1.37-2.17-1.06.6-1.2 2.3 1.16.7-1.37-4.37-2.22-.26.5-3.14 6.17 4.41 2.22.7-1.37-2.33-1.16.7-1.4zM61.55 11.46l-7.01 3.61 1.34 1.17 1.58-.86 1.08.94-.58 1.71 1.85 1.6 3-8.78-1.26.61z" fill="#C99700"/><path d="M21.24 13.59l-.82.22.05.2a2.07 2.07 0 01-1.2 2.58c-.23.08-.46.11-.7.1-.77-.11-1.48-.51-1.97-1.12a3.14 3.14 0 01-.95-2.16 1.91 1.91 0 01.72-1.35 2.23 2.23 0 012-.3h.17l.18-.78-.18-.05a3.25 3.25 0 00-2.88.67 3.5 3.5 0 00-.3 5.06 3.44 3.44 0 004.89.35 3.03 3.03 0 001.03-3.28l-.04-.14zM25.9 5.67l-1.25.59 1.2 2.57-2.04.95-1.2-2.57-1.41.67 2.87 6.09 1.43-.67-1.3-2.77 2.03-.95 1.34 2.77 1.42-.67-2.87-6.09-.21.08zM32.58 9.96l-.46-2.24 2.34-.48-.15-.78-2.34.48-.42-2.04 2.53-.5-.17-.77h-.18l-3.88.78L31.19 11l4.1-.86-.15-.77-2.56.6zM39.36 3.38h-1.58v.19l-.14 6.54 4.15.08v-.85l-2.59-.05c.04-.4.16-5.91.16-5.91zM47.26 5.14a1.19 1.19 0 01.91 1.05l.05.2.81-.27v-.16a2.38 2.38 0 00-2.44-1.79 2.4 2.4 0 00-1.05.3 1.97 1.97 0 00-.9 1.23c-.33 1.28.5 1.88 1.18 2.36.67.48 1.1.86.93 1.5a.85.85 0 01-.4.55 1 1 0 01-.75.11 1.25 1.25 0 01-.95-.98l-.06-.2-.86.36.05.16a2.27 2.27 0 001.82 1.59 2.2 2.2 0 002.74-1.51c.33-1.36-.56-2.01-1.28-2.58-.72-.56-.98-.75-.86-1.25a.86.86 0 011.06-.67zM53.97 7.72c.3.13 2.3 1.15 2.3 1.15l.36-.7-3.71-1.87-.09.17-2.96 5.84 3.74 1.88.36-.7-2.33-1.17 1.04-2.03 2.16 1.08.35-.7-2.16-1.08.94-1.87zM61.73 11.8l-6.53 3.36.74.62 1.56-.85 1.48 1.27-.59 1.71 1.24 1.06 2.52-7.38-.42.2zm-3.45 2.77l1.56-.85-.59 1.67-.97-.82z" fill="#fff"/><path d="M57.18 37.48c-.54-1.4-2.38-2.01-4.12-1.36-.68.25-1.28.69-1.73 1.26 1.16-3.26 5.83-3.95 5.83-6.99 0-5.08-7.26-3.66-6.2 0 0-1.66 2.66-1.97 2.66 0 0 1.98-4.64 3.25-4.64 6.58 0 3.66 3.68 4 3.31 7.35a1.64 1.64 0 01-1.58 1.33c-5.65 0-3.63-6.9-5.6-9l.1-1.42a2.09 2.09 0 002.5-.83 2.06 2.06 0 00-.33-2.6c0 1.23-2.59 1.16-2.59-1.15 0-3.12 2.93-1.5 3.07-.8a6.36 6.36 0 010-2.52c-1.58.5-1.72-.4-1.52-.75a1.36 1.36 0 011.14-.86c.23-.02.46.03.66.13.2.14.33-.17.3.12.17-.26.11.06.28-.2.23-.33.5-.64.81-.9v-.58l.46.16.44-.71c-.47-.99-1.12-.5-1.6-1.71-.4-.1-6.61.57-6.43-1.9-.5 0-1.72.28-.96 1.28-.57.07-1-.58-1.86 1.18 1.09-.2.52 1.01.52 1.36 0 2.23-2.98 2.2-2.98 1.14a1.71 1.71 0 00.77 2.58c-.26.98-.76 1.9-1.44 2.66-1.51-.06-3.95-.32-5.35-1.64a4.98 4.98 0 00-1.5-1.04v-.74c.77-.4 1.43-.97 1.94-1.67a3.26 3.26 0 00.7-2.66v-.1a.9.9 0 00-.05-.2v-.1l-.08-.21v-.09c0-.09-.08-.17-.12-.26a.86.86 0 00-.07-.1l-.08-.15-.09-.12-.09-.1-.1-.14-.08-.07c-.09-.1-.18-.2-.28-.28l-.17-.13h-.06a3.79 3.79 0 00-2.54-.74 3.38 3.38 0 00-3.22 3.02 3.34 3.34 0 002.57 3.59c-.31.2-.65.34-1 .44h.13c.03 0 .07.03.1.05h.1l.3.1h.34v.41h-.06c-.64.1-1.05.3-1.24.86-.19.56 0 .77.3 1.17-.25.45-.91.62-.05 1.6a.99.99 0 00.57 1.16l.48.12v7.43c-.42.2-.76.56-.96.98 0 0-.44-.96-.4.96.5-.39.3.44.3.44-.69.86.17.86.17.86.6-.6.47.26.47.26-.04.51.1 1.03.42 1.44v5.9h-.49v1.56h.86a1.21 1.21 0 00-.76 1.21 1.27 1.27 0 001.38 1.12 1.24 1.24 0 001.21-.8 1.22 1.22 0 00-.66-1.55h.8v-1.54h-.47v-5.05c.1.06.21.1.32.12H30.16a1.33 1.33 0 01.22-1.07c.22-.3.52-.55.86-.7 1.01-.5 2.38-.38 2.78.44 2.59-.69 4.82-3.28 4.82-3.28l1.28 2.16c-2.7.9-8.62 6-4.51 7.76 0 .52-.07 4.29-2.52 4.02-3.55-.43-4.42 1.02-3.74 2.66a1.55 1.55 0 00.75 1.86c-.17-.8.22-1.46 1.72-1.45 0 1.46.94 1.72.94 1.72a1.56 1.56 0 01.99-1.61c.21-.08.44-.12.66-.1 0 1.01 1.2 1.4 1.2 1.4a1.14 1.14 0 011.04-1.4c3.45-.6.2-4.11 5.42-5.08 0 0-2.58-.39-2.58-1.8 0-1.29 2.35-2.16 3.16-2.16 1.65 3.15 3.45 3.18 3.93 3.2.74.85.49 3.56-.57 3.5-3.89-.2-3.74 2.15-3.3 2.64a1.7 1.7 0 00.65 1.43c0-.97.94-1.25 2.14-1.19-.06 1.2.7 1.38.7 1.38a1.3 1.3 0 01.97-1.35c.19-.06.4-.06.59-.03a1.11 1.11 0 00.8 1.1.97.97 0 01.62-1.01.99.99 0 01.42-.06c2.14 0-.98-4.58 3.22-9.1-3.68 1.7-5.64-2.58-5.64-3.36 1.8 2.2 7.96 2.64 7.96-1.12 0-3.6-3.97-4.94-2.1-6.31 1.07-.8 3.19.85 1.97 2.48 1.73-.64 2.72-2.32 2.17-3.74zm-23.53.12c-1.4.85-2.32 1.84-3.58 2.28a.95.95 0 01-.48.08v-7.01c.76.08 1.51.28 2.22.57 1 .55 1 1.67-.27 1.94.8 1.54 3.6.78 4.2-.46.3 0 .56.5.8 1-.35.2-1.21.6-2.9 1.6zm15.5-11.63l-.43.58a1.82 1.82 0 003.38-1.1v-.1a1.6 1.6 0 01-1.5 1.03 1.86 1.86 0 01-1.42-.41h-.03z" fill="#CCC"/><path d="M26.76 21.75a.64.64 0 01.06-.1.23.23 0 00-.06.1zM26.26 51h.85c-.1.05-.2.1-.28.17a.98.98 0 01.28-.05.8.8 0 01.78.78.78.78 0 01-.78.79.8.8 0 01-.75-.54v.06a1.25 1.25 0 001.38 1.11 1.24 1.24 0 001.1-.83c.06-.16.08-.32.07-.48a1.2 1.2 0 00-.77-1.01h.8v-1.56h-.5V44.4a1.21 1.21 0 01-.64-1.3c.27-.01.52.06.75.2-.27.6.4 1.24.4 1.24a1.33 1.33 0 01.34-1.1c.23-.3.52-.55.87-.71 1-.5 2.37-.37 2.78.44 2.58-.67 4.82-3.27 4.82-3.27l1.26 2.16c3 0 1.96-2.23 1.73-2.43a1.64 1.64 0 011.65 1.63c0 2.73-8 3.12-8 6.45a2.2 2.2 0 001.4 1.93c0 3.04-2.1 4.84-3.53 4.84-2.3 0-4.04-.47-4.04 2.02h.79c-.76.75 0 1.86 0 1.86-.16-.8.22-1.46 1.68-1.45h.84a1.3 1.3 0 000 1.72 1.57 1.57 0 011.64-1.72h.66c-.18.18.12 1 .54 1.42a1.14 1.14 0 011.05-1.42c3.45-.6.2-4.1 5.42-5.07 0 0-2.59-.38-2.59-1.8 0-1.41 2.36-2.17 3.16-2.17a4.81 4.81 0 011.72.06c.2 2.03 2.59 1.92 3.08 1.92 1.99 2-.51 5.15-.51 5.15-3.07 0-4.3.42-4.3 2.2h.57c-.33.32-.14 1.21.08 1.43 0-.97.93-1.25 2.14-1.19h.63a1.11 1.11 0 00.07 1.37 1.3 1.3 0 01.96-1.34c.2-.05.4-.06.59-.03h.53c-.2.2 0 .86.26 1.1a.98.98 0 011.05-1.07c2.15 0-.96-4.58 3.23-9.1-3.68 1.7-5.65-2.58-5.65-3.37 1.9 2.2 8.03 2.64 8.03-1.12 0-3.03-2.83-4.46-2.58-5.66a1.8 1.8 0 012-1.63 1.81 1.81 0 011.6 2.03 1.8 1.8 0 01-1.13 1.43c1.72-.63 2.72-2.32 2.18-3.72-.54-1.41-2.37-2.03-4.1-1.37-.7.25-1.3.69-1.73 1.26C51.36 33 56 32.31 56 29.27c0-5.08-7.25-3.65-6.2 0v-.16c.2-2.08 3.9-2.5 3.9.2 0 2.31-4.75 3.59-4.75 6.7 0 3.1 3.51 3.97 3.51 7.32 0 .4-.2 2.12-2.58 2.12a3.93 3.93 0 01-3.96-2.89c-1.14-2.21-.72-5.66-2.02-7.03L44 34.1a2.08 2.08 0 002.53-.81 2.05 2.05 0 00-.36-2.62c0 1.21-2.58 1.15-2.58-1.16 0-3.11 2.93-1.5 3.07-.8a6.35 6.35 0 010-2.51c-1.58.5-1.72-.4-1.53-.75.19-.36.53-.86 1.15-.86.86 0 .86.32.79.78.32-.62.73-1.18 1.22-1.67v-.57l.47.17.44-.71c-.48-.99-1.12-.51-1.6-1.71-.4-.1-5.62-.59-5.44-3.05-.47 0-1.73 1.58-.86 2.43h-1c-.59.07-1.94-.34-2.8 1.43 2.13-2.13 3.52 2.94-.42 2.94-.58 0-1.07-.24-1.1-.64-.4 1.71 2.08 2.24 2.08 2.24a12.07 12.07 0 01-1.88 3.85c.4.4.52 2.85-1.35 2.85.68-1.83-1.32-3.37-3.26-4.4-.35-.13-.68-.29-1-.49-.7-.32-1.42-.61-2.16-.85v-1.42c.77-.4 1.43-.97 1.94-1.67a3.27 3.27 0 00.7-2.76c0-.07 0-.15-.05-.2v-.11a1.45 1.45 0 00-.07-.2v-.1l-.13-.25-.06-.1a.85.85 0 00-.1-.15l-.07-.12-.1-.12-.1-.12-.07-.07c-.1-.1-.18-.2-.28-.28l-.18-.14h-.05l-.19-.13a3.62 3.62 0 00-2.74-.46 3.44 3.44 0 00-1.94 3.3 3.52 3.52 0 001.76 3.23c-.3.19-.64.33-.99.43h.13c.04 0 .07.03.1.05l.1.05.3.1h.38c.27 0 .55-.02.82-.07v.86c-.3-.06-.57-.18-.82-.34-.64.1-1.06.3-1.24.85-.18.56 0 .78.3 1.17-.25.45-.91.62-.05 1.61a.97.97 0 00.57 1.15c.16.05.32.1.48.12a.86.86 0 01.82.94v6.4l.86.07v-6.89c.76.09 1.51.28 2.22.57l.28.06a1.02 1.02 0 01.97.84 1 1 0 01-.64 1.12 1.02 1.02 0 01-.9-.1c.8 1.53 3.58.79 4.19-.45.3 0 .56.5.8 1 .8.22 1.61.3 2.43.26 0 0-6.99 4.45-9.01 4.45-.87 0-2.78 0-2.78.65-.52 0-1.29.86-1.29 1.4.25-.22.57-.36.9-.4.23 0 .46.04.67.13-.44.42-.74.95-.86 1.54.58-.57.86-.57.86-.57s.61-.08.86.14c-.29.37-.44.83-.44 1.3 0 0 .36-.69.82-.69v6.65c0 .2-.93.4-1.31.4l.03.87zm.24-20.24c-.17 0-.25-.21-.26-.29 0-.08.07-.3.24-.32.42 0 .84.09 1.23.26-.36.21-.76.35-1.17.39l-.04-.04zm-.26-1.1c-.24 0-.32-.33-.31-.44 0-.11.13-.42.37-.4.58.06 1.15.24 1.66.54-.53.24-1.1.35-1.69.34l-.03-.04zm-.06-1.37c-.26-.07-.28-.43-.25-.54.04-.1.23-.42.48-.36.62.17 1.19.48 1.67.9-.63.14-1.28.14-1.9 0zm1.85-3.98c.09-.29.09-.6 0-.9a1.31 1.31 0 01-1.28-1.66 1.3 1.3 0 011.47-1.1 1.3 1.3 0 011.12 1.45 3.14 3.14 0 01-1.31 2.2v.01z" fill="#001489"/><path d="M47.62 25.44a1.82 1.82 0 003.39-1.1v-.1a1.59 1.59 0 01-1.5 1.03 1.89 1.89 0 01-1.45-.4l-.44.57z" fill="#FF0600"/><path d="M45.18 22.07h.63l-.3.43s-.43.17-.33-.43zm-1.5 0h.9s0 .73.64.8l-.14.23s-1.78-.47-1.4-1.03z" fill="#fff"/><path d="M28.08 28.3a4.21 4.21 0 00-1.67-.92c-.25-.06-.45.24-.48.36-.02.12 0 .47.25.54.62.14 1.27.15 1.9.01zm-.09 1.1c-.5-.31-1.07-.5-1.66-.56-.23 0-.35.3-.37.4-.02.12.08.43.31.45.59.03 1.18-.07 1.72-.3zm-1.28-3.3v.42c.25.16.53.28.82.34V26c-.27.07-.54.1-.82.1zm-.23 4.09c-.18 0-.24.23-.24.32 0 .08.1.3.26.29.43-.03.84-.15 1.2-.35a2.9 2.9 0 00-1.19-.26h-.03zm-.86 11.07a1.48 1.48 0 00-.2 1.66c.13-.59.43-1.13.87-1.54-.2-.09-.41-.13-.62-.12h-.05zm2.16 1.85a1.2 1.2 0 00.65 1.3c.1.05.22.1.33.12h.2s-.68-.63-.41-1.24a1.33 1.33 0 00-.72-.18h-.05zm-1.23-17.83a3.54 3.54 0 01-1.77-3.23 3.42 3.42 0 011.95-3.3 3.36 3.36 0 00-2.75 3.19 3.32 3.32 0 002.57 3.34zm10.9-3.6a1.2 1.2 0 011.46 1.1 1.77 1.77 0 01-1.15 1.73 1.8 1.8 0 01-.72.11c3.99 0 2.6-5.06.47-2.94h-.06zm-2.58 11.26c1.88 0 1.72-2.44 1.35-2.85a12.07 12.07 0 001.85-3.86s-2.49-.5-2.09-2.22a1.71 1.71 0 00.81 2.57 6.67 6.67 0 01-1.46 2.61 12.12 12.12 0 01-3.7-.65c1.92 1.03 3.92 2.57 3.24 4.4zm-7.35-11.75a.87.87 0 01.96.78.85.85 0 01-.81.9.87.87 0 01-.96-.77 1.3 1.3 0 001.3 1.3c.09.3.09.61 0 .9a3.15 3.15 0 001.28-2.2 1.3 1.3 0 00-1.13-1.35 1.31 1.31 0 00-1.45 1 .91.91 0 01.81-.56zm13.84-.94c-.86-.86.4-2.43.86-2.43-.5 0-2.7 1.43-1.95 2.43h1.09zm-10.94 14.1a1.02 1.02 0 001.55-1.01 1 1 0 00-.95-.86l-.28-.06c.95.55.94 1.66-.32 1.93zm-1.99-7.14c.74.25 1.46.53 2.17.86-.24-.14-.47-.3-.67-.5-.42-.45-.93-.8-1.5-1.05v.7zm.37 12.38c2.03 0 9.02-4.44 9.02-4.44a7.66 7.66 0 01-2.43-.26c-.38.2-1.18.6-2.89 1.6-1.39.8-2.32 1.83-3.58 2.29a1.3 1.3 0 01-.49.07l-.86-.08v-6.39a.85.85 0 00-.48-.86.86.86 0 00-.34-.08v7.43c-.43.2-.77.56-.96.99 0 0-1.04-.14-1.02 1.78 0-.51.77-1.4 1.3-1.4-.02-.65 1.9-.65 2.76-.65h-.03zm17.45 10.3c-.52 0-2.87.1-3.07-1.94a4.81 4.81 0 00-1.73-.05c1.66 3.16 3.45 3.18 3.95 3.2.73.82.48 3.57-.58 3.52-3.88-.2-3.74 2.15-3.3 2.63 0-1.78 1.2-2.2 4.3-2.2-.05 0 2.43-3.19.46-5.18l-.03.01zm.8 7.6h-.52a1.12 1.12 0 00.79 1.1c-.25-.29-.44-.9-.25-1.1h-.03zm-4.92 1.2c-.22-.23-.41-1.12-.08-1.44h-.58a1.76 1.76 0 00.69 1.43h-.03zm11.62-29.37c0-2.7-3.72-2.28-3.9-.2a1.32 1.32 0 011.4-1.24 1.33 1.33 0 011.25 1.4c0 1.96-4.64 3.25-4.64 6.58 0 3.66 3.68 4 3.31 7.34a1.64 1.64 0 01-1.6 1.38A3.64 3.64 0 0146 42.61a3.9 3.9 0 003.97 2.83c2.35 0 2.59-1.71 2.59-2.12 0-3.35-3.52-4.15-3.52-7.33 0-3.18 4.7-4.36 4.7-6.67zM26.32 42.35c-.06.5.08 1.02.39 1.43 0-.47.13-.92.4-1.3-.18-.21-.79-.13-.79-.13zm26.88-5.71a1.82 1.82 0 00-1.8 1.62c.08-.26.25-.49.48-.64 1.08-.8 3.2.8 1.99 2.48a1.8 1.8 0 001.04-1.98 1.8 1.8 0 00-1.71-1.45v-.03zm-8.28 20.85h-.62c-.07 1.19.7 1.37.7 1.37a1.11 1.11 0 01-.08-1.37zm-17.81-6.37c-.1 0-.2.02-.28.05a1.22 1.22 0 00-.47.98.79.79 0 001.53-.24.79.79 0 00-.78-.8zm4.42 5.8h-.9c0 1.45.93 1.72.93 1.72a1.3 1.3 0 01-.03-1.72zm2.83-9.2c0-3.33 8-3.72 8-6.45a1.61 1.61 0 00-1.65-1.63c.2.2 1.23 2.43-1.72 2.43-2.7.86-8.62 6-4.5 7.72 0 .51-.07 4.28-2.52 4.02-3.54-.4-4.46 1.06-3.78 2.7 0-2.49 1.72-2.02 4.04-2.02 1.43 0 3.53-1.8 3.53-4.84a2.21 2.21 0 01-1.4-1.93zm-6.79 2v-6.64c-.46 0-.82.7-.82.7v5.66h-.5v.72c.38 0 1.32-.2 1.32-.43zm1.38 8.58s-.72-1.1 0-1.86h-.8a1.54 1.54 0 00.8 1.93v-.07zm4.93-1.44h-.66c0 1.03 1.2 1.42 1.2 1.42-.44-.35-.73-1.17-.55-1.35v-.07z" fill="#6672B8"/><path d="M11.61 45.84l-.04-.13v-.14c-.06-.48-.18-1.37-.86-1.54a.87.87 0 00-.58.06.96.96 0 000-.58c-.3-.64-1.22-.64-1.7-.64H8.14c-.48-.09-1.37-.26-1.72.36a.93.93 0 00-.11.56.97.97 0 00-.57-.16c-.7 0-.98.86-1.13 1.36v.13l-.07.13c-.23.43-.66 1.22-.2 1.72.14.14.31.25.51.29a.97.97 0 00-.33.48c-.18.68.56 1.2.95 1.49l.12.09.1.1c.33.35.96 1 1.62.73a.95.95 0 00.43-.4c.06.2.19.35.35.47.6.38 1.33-.16 1.72-.45l.12-.08.12-.07c.44-.2 1.26-.59 1.2-1.3a.9.9 0 00-.24-.52c.2 0 .4-.08.55-.2.5-.44.2-1.3.05-1.76z" fill="#fff"/><path d="M8.5 46.42c3.98 2.35 2.75-.23 2.67-.62-.09-.39-.13-3.22-2.67.62zM8.25 47c-1.01 4.5 1.06 2.57 1.4 2.34.34-.23 3.05-1.11-1.4-2.34zM7.6 46.95c-4.6.44-2.1 1.8-1.8 2.06.3.25 2 2.54 1.8-2.06zM7.45 46.3c-1.83-4.2-2.37-1.4-2.52-1.04-.16.36-1.81 2.68 2.52 1.04z" fill="#FF0600"/><path d="M73.28 45.23l-.04-.13v-.13c-.15-.47-.43-1.33-1.13-1.36-.2-.01-.4.05-.56.16a.94.94 0 00-.13-.57c-.36-.61-1.26-.44-1.72-.36H69.4c-.48 0-1.4 0-1.64.65a.96.96 0 000 .58.9.9 0 00-.58-.06c-.7.16-.81 1.05-.86 1.53v.28c-.16.46-.44 1.32.1 1.76.16.13.36.2.56.2a.9.9 0 00-.24.52c-.06.72.76 1.1 1.2 1.3l.13.08.1.07c.4.3 1.13.86 1.73.45a1 1 0 00.36-.46c.1.17.25.3.43.39.66.27 1.29-.38 1.62-.73l.1-.1.12-.09c.4-.28 1.13-.8.95-1.49a.99.99 0 00-.34-.48c.2-.03.38-.14.5-.3.3-.5-.13-1.29-.37-1.71z" fill="#fff"/><path d="M69.8 46c-3.46-3.05-.64-2.69-.24-2.72.4-.03 3.1-.88.23 2.72zM69.27 46.42c-3.98 2.35-2.75-.23-2.67-.62.09-.39.12-3.22 2.67.62zM69.52 47c1.02 4.5-1.06 2.57-1.4 2.34-.34-.23-3.05-1.11 1.4-2.34zM70.16 46.95c4.61.44 2.1 1.8 1.81 2.06-.28.25-2 2.54-1.8-2.06z" fill="#FF0600"/><path d="M70.3 46.3c1.85-4.24 2.38-1.43 2.53-1.07.16.36 1.81 2.71-2.52 1.07z" fill="#FF0600"/><path d="M71.2 46.46v-.1l.77-.57v-.08l-.91.15a1.41 1.41 0 00-1.05-.65l-.28-.86h-.1l-.12.86a1.35 1.35 0 00-.92.82h-.98v.09l.86.42v.1a1.31 1.31 0 00.46.98l-.31.95.08.04.71-.72a1.43 1.43 0 001.07-.1l.82.6.08-.07-.48-.86a1.34 1.34 0 00.3-1z" fill="#fff"/><path d="M69.8 45.77a.86.86 0 00-.57.29.85.85 0 00.7 1.34.86.86 0 00.7-.57.8.8 0 00.05-.32.86.86 0 00-.89-.74zM8.01 46c3.45-3.05.62-2.69.24-2.72-.4-.03-3.13-.88-.24 2.72z" fill="#FF0600"/><path d="M9.32 46.59l.86-.42v-.09h-.95a1.34 1.34 0 00-.91-.82l-.13-.86h-.1l-.27.86a1.4 1.4 0 00-1.06.65l-.9-.15v.08l.76.57v.1c-.03.34.07.67.27.94-.21.42-.46.85-.46.85l.07.07.86-.59c.16.09.34.14.52.16.19.01.37-.01.55-.06l.71.72.08-.05-.31-.95a1.32 1.32 0 00.47-.92l-.06-.1z" fill="#fff"/><path d="M8.62 46.06a.86.86 0 00-.56-.3.86.86 0 00-.87.75c0 .22.06.43.2.6.14.16.34.26.55.29a.86.86 0 00.82-.92.85.85 0 00-.14-.42z" fill="#FF0600"/><path d="M8.52 26.84a3.6 3.6 0 00-4.2 3.57 3.55 3.55 0 002.28 3.24 3.6 3.6 0 004.82-2.69 3.54 3.54 0 00-2.9-4.12z" fill="#fff"/><path d="M9.32 29.53l-.14-.1c-.3-.2-.87-.57-.87-.59l-.23-.15a10.9 10.9 0 00-.7-.44l-.24-.14a2.85 2.85 0 00-1.1-.3c-.31.2-.57.48-.78.78 1.26.53 2.45 1.18 3.57 1.95.13-.24.48-.97.5-1.01zM8.5 31.44c0-.1.18-.5.25-.65a19.85 19.85 0 00-3.58-1.97 3.2 3.2 0 00-.31.8c.49.7 1.85 1.38 3.64 1.82zM8.29 28.52a2.5 2.5 0 012.1-.09c-.24-.3-.54-.55-.87-.74a2.39 2.39 0 00-1.99.36l.76.47z" fill="#FF0600"/><path d="M5.52 31.82l.3.18c.2.11.42.21.65.3l.28.1c.36.11 1.15.3 1.22.33l.42-1A7.86 7.86 0 014.8 30c-.06.34-.06.7 0 1.04.17.32.42.58.73.77zM8.01 33.02l-.26-.08-.86-.23c.14.29.35.54.6.73.32.04.64.04.95 0-.15-.13-.3-.27-.43-.42zM10.9 29.43a3.9 3.9 0 00-.26-.61 2.6 2.6 0 00-2.1-.13l1 .66h.84c.18.01.35.04.52.08zM10.4 29.61a5.99 5.99 0 01-1.48 3.68 3.15 3.15 0 002.07-3.58 4.2 4.2 0 00-.6-.1zM7.31 27.92a2.3 2.3 0 011.53-.56 2.99 2.99 0 00-2.44.23c.32.06.63.17.91.33z" fill="#FF0600"/><path d="M9.58 29.61l-.5 1.07c0 .1-.07.17-.1.25l-.23.56-.13.23-.4 1.12c.1.15.25.28.4.38.92-.99 1.45-2.28 1.5-3.62l-.54.01zM6.54 32.58a8.46 8.46 0 01-.65-.26c.08.22.18.43.3.63.24.15.5.27.77.36a2.25 2.25 0 01-.42-.73zM5.57 32.16a2.5 2.5 0 01-.4-.3c.15.26.33.5.54.71-.06-.13-.1-.27-.14-.41z" fill="#FF0600"/><path d="M65.97 30.96a3.55 3.55 0 002.75 2.85 3.6 3.6 0 004.34-3.4 3.55 3.55 0 00-2.14-3.33 3.6 3.6 0 00-4.37 1.22 3.54 3.54 0 00-.58 2.66z" fill="#fff"/><path d="M68.07 29.53c.05-.04.1-.08.15-.1l.86-.59.24-.15c.26-.17.48-.32.7-.44l.24-.14a2.9 2.9 0 011.06-.3c.3.21.55.48.76.78a20.32 20.32 0 00-3.56 1.95c-.1-.24-.45-.97-.45-1.01zM68.93 31.44c0-.1-.2-.5-.27-.65a19.85 19.85 0 013.6-1.97c.14.26.25.52.31.8-.54.7-1.92 1.38-3.64 1.82zM69.1 28.52a2.5 2.5 0 00-2.1-.09c.24-.3.53-.55.86-.74a2.39 2.39 0 012 .36c-.27.14-.5.3-.77.47z" fill="#FF0600"/><path d="M71.86 31.82l-.3.18c-.2.11-.42.21-.65.3l-.3.1c-.34.11-1.13.3-1.19.33-.06.01-.32-.77-.43-1.05a7.94 7.94 0 003.62-1.72c.03.35.01.7-.06 1.05-.15.33-.4.6-.7.8zM69.37 33.02l.28-.08.86-.23c-.13.29-.34.54-.6.73-.32.05-.66.05-.98 0 .15-.13.3-.27.44-.42zM66.48 29.43c.07-.2.16-.42.26-.61a2.6 2.6 0 012.1-.13l-1 .66H67c-.17.01-.35.04-.52.08zM67 29.61a5.98 5.98 0 001.46 3.68 3.13 3.13 0 01-2.06-3.58c.2-.05.39-.08.6-.1zM70.07 27.92a2.34 2.34 0 00-1.53-.56 2.99 2.99 0 012.44.23c-.32.06-.62.17-.9.33z" fill="#FF0600"/><path d="M67.8 29.61l.5 1.07.1.25.23.56.1.26.44 1.09c-.12.15-.26.28-.41.38a5.63 5.63 0 01-1.5-3.62l.54.01zM70.84 32.58c.23-.08.43-.16.65-.26-.08.22-.18.43-.3.63-.24.15-.5.27-.77.36.19-.22.33-.46.42-.73zM71.8 32.16c.16-.09.3-.19.43-.3-.14.26-.33.5-.54.71.05-.13.1-.27.12-.41z" fill="#FF0600"/><path d="M88.38 31.72h10.87v2.57h-7.97v3.96h7.3v2.57h-7.3V47h-2.9V31.72zM108.51 47.33a7.8 7.8 0 01-7.36-4.9 7.67 7.67 0 01-.54-3.05 7.83 7.83 0 014.88-7.26 7.94 7.94 0 0110.32 4.25c.4.95.6 1.98.6 3a7.67 7.67 0 01-4.83 7.4 7.8 7.8 0 01-3.07.56zm4.96-7.95c0-3.3-2.17-5.28-4.96-5.28s-4.95 1.98-4.95 5.28c0 3.3 2.17 5.29 4.95 5.29 2.78 0 4.96-2 4.96-5.3zM124.93 47.33c-3.6 0-6.3-2.18-6.3-6.1v-9.5h2.86v9.23c0 2.37 1.32 3.7 3.44 3.7 2.13 0 3.4-1.33 3.4-3.7v-9.24h2.9v9.52c-.03 3.9-2.73 6.09-6.3 6.09zM137 31.72l6.4 9.72s.53.85.67 1.2V31.72h2.8v15.3h-2.98l-6.4-9.78c-.25-.4-.47-.8-.67-1.2v10.99h-2.8v-15.3H137zM154.46 31.72c4.8 0 8.36 2.51 8.36 7.64s-3.55 7.65-8.36 7.65h-4.63V31.72h4.63zm5.42 7.64c0-3.32-2.11-4.98-5.22-4.98h-1.94v9.98h1.94c3.11 0 5.22-1.66 5.22-4.98v-.02zM169.24 31.72H172l6.22 15.29h-3.1l-1.54-4h-5.92l-1.54 4h-3.1l6.22-15.29zm3.36 8.71l-1.4-3.67s-.3-.75-.6-1.6c-.28.91-.57 1.66-.57 1.66l-1.4 3.66 3.97-.05zM188.54 31.72v2.66h-4.7v12.65h-2.9V34.4h-4.7v-2.68h12.3zM194.05 34.23V44.5h1.54v2.5h-5.97v-2.48h1.53V34.24h-1.53v-2.52h5.97v2.49l-1.54.02zM204.94 47.33a7.79 7.79 0 01-7.36-4.9 7.67 7.67 0 01-.54-3.05 7.84 7.84 0 017.9-7.86 7.92 7.92 0 017.9 7.86 7.7 7.7 0 01-7.9 7.95zm4.97-7.95c0-3.3-2.17-5.28-4.97-5.28-2.79 0-4.95 1.98-4.95 5.28 0 3.3 2.17 5.29 4.95 5.29 2.79 0 4.97-2 4.97-5.3zM218.13 31.72l6.4 9.72s.53.85.66 1.2V31.72H228v15.3h-2.94l-6.4-9.78c-.25-.4-.47-.81-.67-1.23v11.02h-2.81v-15.3h2.95z" fill="#071488"/></svg>