<svg xmlns="http://www.w3.org/2000/svg" viewBox="0 0 75 75" class="MatchCard_vsLogo__n3cmr"><g fill-rule="nonzero" fill="none"><path d="M74.81 37.4a37.4 37.4 0 11-74.8 0 37.4 37.4 0 0174.8 0" fill="#DBA111"></path><path d="M73.57 37.4a36.16 36.16 0 11-72.32 0 36.16 36.16 0 0172.32 0" fill="#034694"></path><path d="M63.17 37.4a25.77 25.77 0 11-51.53 0 25.77 25.77 0 0151.53 0" fill="#DBA111"></path><path d="M62.4 37.4a24.99 24.99 0 11-49.98 0 24.99 24.99 0 0149.97 0" fill="#FFF"></path><path d="M16 58.96l.95.92.65-.69-1.94-1.85-.25.26-2.61 2.74.99.94 1.14-1.2.87.83.66-.69-.87-.83.4-.43M20.69 62.1a2 2 0 00-.83-1.31 2.02 2.02 0 00-1.5-.36c-.57.1-1.08.43-1.44.93-.35.5-.5 1.09-.4 1.66a2 2 0 00.82 1.3c.45.31.99.44 1.51.35.57-.1 1.07-.42 1.43-.92a2.25 2.25 0 00.4-1.66zm-2.8 1.45c-.45-.33-.08-1 .19-1.37.26-.37.77-.95 1.23-.63.47.34.03 1.08-.18 1.37-.22.3-.76.96-1.24.63zM23.74 63.13c-1.04-.53-2.25-.1-2.81 1a2.22 2.22 0 00-.15 1.7 2 2 0 001 1.17 2 2 0 001.55.12c.54-.17 1-.58 1.27-1.13.56-1.1.2-2.33-.86-2.86zm-1.15 3.06a.46.46 0 01-.38-.04c-.2-.1-.28-.3-.28-.5 0-.3.14-.64.26-.87.2-.41.63-1.06 1.13-.8.13.06.2.15.25.27.08.25 0 .66-.23 1.1-.22.45-.5.76-.75.84zM25.9 64.64l-.19.56.64.22-1.05 3.02 1.29.45 1.06-3.02.64.23.31-.9-2.58-.9-.12.34M31.26 65.84l-1.74-.37-.08.36-.78 3.7 1.78.38c.57.11.94-.03 1.15-.16.27-.18.46-.47.54-.82.02-.09.02-.18.02-.27 0-.25-.07-.48-.22-.67a1.13 1.13 0 00.43-.9c0-.47-.27-1.08-1.1-1.25zm-.48 2.83c-.02.08-.05.2-.11.24-.06.03-.18.04-.32 0l-.15-.02.15-.72.17.04c.23.05.27.22.27.34v.12zm-.12-1.98c.16.03.27.09.31.15.02.03.03.08.03.12l-.01.11c-.02.11-.06.26-.36.2l-.09-.02.12-.56zM34.48 66.44l-1.9 3.88 1.09.09s.3-.62.4-.87l.7.06.29.91 1.44.11-1.61-4.98-.4.8M38.75 69.54l-.13-3.15-1.37.06.18 4.14 2.73-.11-.04-1-1.37.06M42.5 69.14l-.49-3.1-.36.05-.99.15.64 4.1 2.71-.42-.15-.99s-.97.16-1.36.21M50.34 66.39a.87.87 0 01-.54.79.66.66 0 01-.53 0c-.26-.12-.51-.4-.66-.77-.17-.44-.2-.81-.1-1.07a.8.8 0 01.47-.41c.26-.1.5-.01.83.18l.3.18.5-.8-.3-.19a1.98 1.98 0 00-1.81-.2c-.55.22-.97.63-1.2 1.15a2.2 2.2 0 000 1.7 2.12 2.12 0 002.75 1.2 1.9 1.9 0 001.27-1.7l.03-.37-1-.07v.38M53.54 65.26L52 62.5l-.32.18-.88.5 2.02 3.61 2.4-1.33-.49-.87-1.2.67M56.2 59.68l-.3.21-.51.38 1.68 2.29c.07.1.07.17.07.2-.02.13-.14.26-.25.33a.43.43 0 01-.3.07.32.32 0 01-.2-.14l-1.67-2.26-1.1.8 1.65 2.26c.24.33.55.53.9.58.4.06.85-.07 1.27-.38.87-.64.86-1.48.48-2l-1.73-2.34M61.23 58.84a1.13 1.13 0 00-.9-.36c-.02-.26-.11-.5-.31-.7-.35-.36-1.12-.64-1.83.05l-1.28 1.24 2.88 2.98 1.3-1.26c.42-.4.51-.8.52-1.05 0-.32-.13-.64-.38-.9zm-2.18-.1c.05.05.1.1.1.18 0 .06-.04.13-.14.23l-.06.06-.4-.41c.29-.27.4-.15.5-.06zm.69 1.03c.23-.23.45-.03.52.04.06.06.13.15.13.23 0 .07-.06.17-.17.27l-.1.1-.51-.52.13-.12z" fill="#DBA111"></path><path d="M15.99 58.58l.95.91.28-.3-1.55-1.47-.07.06-2.42 2.55.6.57 1.14-1.2c.12.1.87.83.87.83l.28-.3-.87-.83.79-.82M19.7 61a1.73 1.73 0 00-1.3-.3c-.5.08-.94.37-1.25.82-.32.44-.45.96-.36 1.45.07.45.33.85.71 1.13.39.27.85.38 1.3.3.5-.08.94-.37 1.26-.81a2 2 0 00.36-1.45A1.74 1.74 0 0019.7 61zm-.35 2.08c-.26.37-.94 1.17-1.61.69-.68-.48-.14-1.38.12-1.75.26-.36.93-1.16 1.6-.69.68.49.15 1.39-.11 1.75zM23.62 63.37c-.9-.46-1.96-.07-2.45.9-.24.48-.3 1-.14 1.48.15.44.46.8.88 1 .42.22.9.26 1.34.12.47-.16.87-.51 1.11-1 .49-.96.17-2.04-.74-2.5zm-1.53 3.02c-.73-.36-.34-1.34-.14-1.74.2-.4.75-1.3 1.49-.92.2.1.32.25.39.44.14.44-.1 1-.25 1.3-.15.3-.47.84-.91.98a.72.72 0 01-.58-.06zM26.16 64.73l-.1.3.64.22-1.06 3.02.78.28 1.06-3.02.64.22.14-.38-2.07-.72-.03.08M31.2 66.1l-1.47-.3-.02.08-.72 3.44 1.5.32c.39.08.7.04.95-.12a.98.98 0 00.42-.64l.02-.22c0-.3-.15-.55-.41-.74.3-.09.53-.31.6-.65a.83.83 0 00.02-.18c0-.35-.18-.84-.88-.98zm-.51.31c.25.05.42.15.5.28.06.08.08.17.08.28l-.01.16c-.1.45-.47.45-.68.4l-.36-.07.23-1.1.24.05zm-.11 1.54c.42.08.48.41.48.62l-.01.15c-.04.2-.12.34-.24.41-.12.08-.3.1-.52.05l-.41-.08.26-1.25.44.1zM34.73 66.56L33 70.08l.5.04.4-.86 1.05.08.3.92.85.06-1.27-3.96-.11.2zm-.2 1.42c.1.26.25.78.3.94-.17 0-.56-.04-.73-.05l.44-.9zM38.5 69.82c-.02-.17-.14-3.14-.14-3.14h-.09l-.74.03.16 3.6 2.2-.1-.03-.44-1.37.05M42.28 69.46l-.5-3.12-.08.02-.73.11.56 3.56 2.17-.34-.07-.45-1.35.22M50.62 66.4c-.02.46-.3.86-.72 1.03-.25.1-.5.1-.74 0a1.63 1.63 0 01-.8-.92c-.2-.5-.23-.95-.1-1.28.11-.25.32-.43.62-.55.4-.16.76.02 1.07.2l.07.04.23-.34-.08-.05a1.72 1.72 0 00-1.57-.18c-.48.2-.85.55-1.05 1-.2.47-.2 1 0 1.5a1.84 1.84 0 002.4 1.05 1.62 1.62 0 001.1-1.48v-.09l-.43-.03v.1M53.43 65.63l-1.54-2.76-.08.05-.64.36 1.76 3.14 1.92-1.07-.22-.4-1.2.68M56.14 60.06l-.08.05-.3.22 1.53 2.06c.1.14.14.28.12.42-.04.25-.26.43-.36.5a.7.7 0 01-.5.12.6.6 0 01-.39-.25l-1.5-2.04-.66.49 1.49 2.03c.2.27.44.43.72.47.45.07.86-.18 1.07-.33.72-.53.73-1.19.42-1.61l-1.56-2.13M61.04 59.03a.88.88 0 00-1-.2.82.82 0 00.04-.27.85.85 0 00-.26-.6c-.23-.24-.83-.53-1.44.06l-1.09 1.06 2.5 2.58 1.12-1.07c.27-.27.42-.56.42-.85 0-.26-.1-.5-.3-.7zm-1.62-.1c0 .17-.12.32-.21.41l-.26.26-.79-.81.18-.17c.34-.33.63-.35.9-.07.13.13.18.26.18.37zm.69 1.87l-.88-.91.32-.32c.44-.42.89.03.9.05.14.14.21.28.21.42 0 .15-.08.3-.25.47l-.3.29z" fill="#FFF"></path><path d="M20.79 12.76l-1.51.41.17.54c.2.66.02 1.35-.5 1.8a1.3 1.3 0 01-.97.34 2.6 2.6 0 01-1.66-.96c-.58-.66-.87-1.3-.83-1.84.02-.4.22-.74.58-1.06.4-.35.92-.34 1.62-.2l.52.1.33-1.45-.52-.12a3.47 3.47 0 00-3.12.72 3.76 3.76 0 00-.31 5.43 3.71 3.71 0 005.23.37 3.32 3.32 0 001.11-3.55l-.14-.53M24.9 5.18l-1.55.73 1.16 2.45-1.31.62-1.16-2.46-2.03.96 3.1 6.57 2.03-.96-1.27-2.69 1.3-.61 1.28 2.69 2.03-.96-3.1-6.57-.49.23M31.78 9.25l-.3-1.48 2.3-.46-.3-1.46-2.3.47-.25-1.27 2.44-.5-.3-1.45-.53.1-4.11.83 1.44 7.12 4.68-.94-.3-1.46-2.47.5M38.42 2.93l-2.25-.05-.01.54-.14 6.72 4.72.1.04-1.57-2.48-.05.12-5.7M45.72 6.59c-.59-.43-.76-.6-.7-.84.03-.12.16-.5.58-.4.25.06.5.2.62.74l.12.6 1.49-.5-.1-.47a2.61 2.61 0 00-1.93-1.94 2.6 2.6 0 00-1.98.26c-.53.32-.9.82-1.04 1.4-.38 1.5.63 2.21 1.29 2.69.68.49.85.68.75 1.08a.48.48 0 01-.22.3c-.14.08-.31.1-.45.07-.36-.08-.51-.25-.66-.72l-.19-.55-1.49.61.15.47c.28.92.94 1.5 2.04 1.78 1.22.3 2.71-.26 3.09-1.73.38-1.56-.67-2.34-1.37-2.85M51.09 10.46l2.09 1.06.67-1.33-2.1-1.05.6-1.16 2.21 1.12.67-1.33-4.22-2.13-.25.48-3.03 6 4.26 2.15.67-1.32-2.25-1.14.68-1.35M59.5 11.14l-6.77 3.5 1.3 1.13 1.52-.8 1.05.9-.56 1.65 1.78 1.56 2.9-8.54-1.21.6" fill="#DBA111"></path><path d="M20.53 13.2l-.8.22.06.18c.26.8.03 1.63-.6 2.18-.35.31-.77.46-1.23.43a2.93 2.93 0 01-1.92-1.08c-.64-.74-.96-1.46-.91-2.1.03-.49.27-.93.7-1.31.58-.5 1.3-.41 1.93-.29l.17.04.18-.76-.17-.04c-1.01-.25-2.06 0-2.8.64a3.4 3.4 0 00-.28 4.92 3.35 3.35 0 004.72.34c1-.88 1.34-1.95 1-3.19l-.05-.17M25.05 5.5l-1.22.58L25 8.54l-1.97.92-1.15-2.45-1.38.65 2.79 5.91 1.38-.65-1.27-2.69 1.96-.93 1.27 2.7 1.38-.66-2.79-5.91-.16.08M31.5 9.68l-.45-2.19 2.3-.46-.15-.75-2.3.46-.4-1.98 2.44-.49-.15-.75-3.93.8 1.3 6.4 3.96-.8-.15-.74-2.48.5M38.05 3.28l-1.53-.03v.18l-.13 6.36 4 .08.02-.85-2.48-.05.12-5.69M45.69 5c.48.12.76.44.88 1.02l.04.2.8-.27-.03-.16a2.25 2.25 0 00-1.67-1.66c-.6-.15-1.2-.07-1.7.22-.44.27-.76.69-.88 1.19-.31 1.24.5 1.83 1.15 2.3.66.47 1.06.79.9 1.46a.83.83 0 01-.4.52.97.97 0 01-.72.11c-.48-.12-.73-.38-.92-.95l-.06-.19-.82.34.04.16c.24.79.83 1.29 1.79 1.53 1.05.26 2.33-.22 2.64-1.47.33-1.32-.53-1.96-1.23-2.47-.6-.44-.95-.73-.83-1.21.1-.44.46-.81 1.02-.67M52.18 7.5L54.4 8.6l.35-.68-3.58-1.8-.09.16-2.86 5.67 3.61 1.83.35-.68-2.26-1.14c.13-.26.88-1.73 1-2l2.1 1.06.34-.68-2.09-1.05.91-1.8M59.67 11.46l-6.3 3.26.7.62 1.53-.81 1.42 1.23-.56 1.65 1.2 1.04 2.43-7.18-.42.2zm-3.34 2.7l1.53-.8-.57 1.62-.96-.83z" fill="#FFF"></path><path d="M55.28 36.43c-.52-1.37-2.3-1.97-3.98-1.33-.7.26-1.28.7-1.67 1.22 1.11-3.17 5.64-3.84 5.64-6.79 0-4.94-7.02-3.56-6 0 0-1.61 2.57-1.9 2.57 0 0 1.91-4.48 3.17-4.48 6.4 0 3.55 3.56 3.88 3.2 7.14-.06.56-.67 1.3-1.54 1.3-5.45 0-3.5-6.72-5.41-8.76l.1-1.38c1.1.68 4.02-.9 2.1-3.31 0 1.18-2.47 1.12-2.47-1.12 0-3.03 2.83-1.45 2.97-.78a6.2 6.2 0 010-2.44c-1.53.49-1.67-.4-1.48-.74.22-.4.52-.85 1.11-.85.32 0 .52.04.63.12.19.13.33-.17.3.1.17-.24.1.07.26-.18s.37-.53.76-.9l-.02-.56.44.16.43-.69c-.46-.95-1.09-.5-1.55-1.68-.38-.1-6.38.55-6.21-1.84-.49 0-1.65.27-.93 1.24-.56.07-.96-.56-1.8 1.15 1.05-.2.5.98.5 1.32 0 2.17-2.89 2.13-2.89 1.11-.7.68-.3 2.16.76 2.53 0 0-.4 1.58-1.4 2.58-1.46-.06-3.82-.31-5.17-1.6a4.66 4.66 0 00-1.44-1v-.72a5.56 5.56 0 001.87-1.62 3.16 3.16 0 00.67-2.59l-.02-.1a2.65 2.65 0 00-.05-.2l-.03-.1a2.88 2.88 0 00-.07-.2l-.03-.07a2.98 2.98 0 00-.13-.26l-.05-.1-.1-.14a6.72 6.72 0 00-.07-.12l-.1-.1c-.02-.05-.05-.09-.09-.13a3.17 3.17 0 00-.35-.34l-.02-.02a3.15 3.15 0 00-.4-.3h-.01a3.57 3.57 0 00-2.15-.51 3.33 3.33 0 00-3.15 3.54 3.32 3.32 0 002.5 2.88c-.47.27-.87.42-.96.42l.06.03.02.01.06.04h.02l.1.06h.01l.1.05h.03c.08.04.17.07.28.1l.04.01.12.03.05.01.17.03h.01v.4l-.06.02c-.62.1-1.02.29-1.2.84-.18.55 0 .75.3 1.14-.25.43-.89.6-.05 1.56-.06.36.01.94.54 1.12.18.06.32.09.47.11v7.23c-.53.28-.79.63-.93.95 0 0-.43-.94-.4.92.48-.37.3.44.3.44-.66.85.17.8.17.8.57-.56.45.26.45.26 0 1 .4 1.39.41 1.39v5.5h-.48v1.52h.84c-.47.2-.78.66-.73 1.18.05.64.65 1.13 1.33 1.07a1.2 1.2 0 001.13-1.27 1.18 1.18 0 00-.74-.98h.78v-1.52h-.47v-4.88a1.14 1.14 0 00.45.13h.06c-.12-.64.26-1.07.26-1.07.2-.3.48-.52.8-.69.97-.48 2.3-.36 2.7.43 2.5-.66 4.65-3.17 4.65-3.17l1.23 2.1c-2.61.87-8.3 5.82-4.35 7.53 0 .5-.07 4.2-2.45 3.9-3.42-.41-4.27 1-3.61 2.6-.31 1.33.72 1.8.72 1.8-.15-.78.22-1.42 1.63-1.41 0 1.41.9 1.67.9 1.67.01-1.21.85-1.66 1.6-1.66 0 1 1.15 1.38 1.15 1.38s-.29-1.15 1.02-1.38c3.32-.58.2-3.99 5.24-4.92 0 0-2.5-.38-2.5-1.76 0-1.25 2.27-2.1 3.05-2.1 1.6 3.07 3.35 3.1 3.8 3.11.71.8.48 3.47-.55 3.42-3.76-.2-3.62 2.08-3.2 2.55-.05.89.64 1.4.64 1.4 0-.95.9-1.22 2.07-1.16-.06 1.16.68 1.34.68 1.34.02-1.17.88-1.37 1.5-1.34-.05.82.76 1.06.76 1.06s-.08-1.04 1.02-1.04c2.07 0-.94-4.45 3.11-8.85-3.56 1.65-5.45-2.47-5.45-3.26 1.83 2.14 7.76 2.57 7.76-1.08 0-3.5-3.84-4.8-2.05-6.13 1.05-.78 3.1.79 1.93 2.4 1.68-.62 2.62-2.25 2.1-3.62zm-22.75.1c-1.34.8-2.24 1.8-3.46 2.23-.19.06-.34.08-.46.07v-6.81c.32.03 1.16.14 2.14.55.98.53.98 1.63-.25 1.89.77 1.49 3.47.76 4.05-.45.29-.03.54.48.78.97-.38.2-1.15.58-2.8 1.56zm15.02-11.3l-.42.57a1.77 1.77 0 003.27-1.06l-.01-.1c-.1.5-.7.92-1.45 1a1.8 1.8 0 01-1.4-.4z" fill="#D1D3D4"></path><path d="M25.87 21.13zm.06 28.6zm-.04-31.5zm-.51 31.33h.84c-.1.04-.2.1-.28.16a.76.76 0 11-.46.94v.07c.06.65.66 1.13 1.34 1.08a1.2 1.2 0 001.13-1.28 1.18 1.18 0 00-.74-.98h.77v-1.52h-.46v-4.88a1.18 1.18 0 01-.61-1.27c.29 0 .54.08.72.2-.27.58.4 1.2.4 1.2a1.3 1.3 0 01.25-1.06c.2-.3.48-.53.8-.7.98-.48 2.3-.36 2.7.44 2.5-.66 4.65-3.18 4.65-3.18l1.23 2.1c2.9 0 1.89-2.17 1.7-2.36.67 0 1.6.5 1.6 1.58 0 2.66-7.74 3.04-7.74 6.27 0 1.36 1.35 1.87 1.35 1.87 0 2.95-2.03 4.7-3.41 4.7-2.21 0-3.9-.45-3.9 1.96h.76c-.73.74-.05 1.81-.05 1.81-.15-.77.22-1.41 1.64-1.4h.88c-.56.55-.23 1.4.02 1.66 0-1.2.85-1.66 1.6-1.65h.64c-.18.17.1.97.51 1.37 0 0-.3-1.15 1.02-1.37 3.31-.58.2-3.99 5.24-4.93 0 0-2.51-.38-2.51-1.75 0-1.25 2.27-2.1 3.05-2.1a4.9 4.9 0 011.7.04c.2 1.98 2.48 1.88 2.98 1.88 1.92 1.93-.5 5.02-.5 5.02-2.95 0-4.12.41-4.12 2.13h.56c-.32.32-.14 1.19.08 1.4 0-.95.9-1.21 2.06-1.15h.61c-.3.3-.24 1.02.07 1.33.02-1.17.89-1.37 1.5-1.33h.5c-.18.19 0 .8.27 1.06 0 0-.08-1.04 1.01-1.04 2.08 0-.94-4.45 3.12-8.85-3.56 1.65-5.46-2.47-5.46-3.26 1.83 2.14 7.76 2.57 7.76-1.09 0-2.95-2.73-4.33-2.5-5.5a1.75 1.75 0 112.39 1.78c1.68-.62 2.62-2.25 2.1-3.62-.51-1.37-2.3-1.96-3.97-1.33-.7.27-1.28.7-1.67 1.23 1.1-3.17 5.63-3.84 5.63-6.8 0-4.94-7.02-3.55-6 0l.01-.15c.18-2.01 3.78-2.42 3.78.2 0 2.24-4.6 3.48-4.6 6.5 0 3.09 3.4 3.86 3.4 7.12 0 .39-.21 2.06-2.47 2.06-2.18 0-3.23-1.22-3.82-2.81-1.11-2.15-.7-5.5-1.96-6.83l.1-1.38c1.1.67 4.03-.9 2.1-3.32 0 1.19-2.46 1.12-2.46-1.12 0-3.03 2.83-1.45 2.97-.78a6.1 6.1 0 010-2.44c-1.54.5-1.68-.4-1.49-.73.23-.4.52-.86 1.12-.86.86 0 .8.32.76.76.32-.5.42-.87 1.18-1.62l-.02-.56.45.17.43-.7c-.46-.95-1.09-.49-1.55-1.67-.39-.1-5.43-.57-5.26-2.97-.44 0-1.66 1.54-.84 2.37h-1.05c-.56.06-1.86-.33-2.7 1.39 2.06-2.07 3.4 2.86-.4 2.86-.56 0-1.05-.23-1.08-.63-.38 1.66 2.02 2.18 2.02 2.18 0 .5-1.2 3.17-1.78 3.76.39.39.51 2.77-1.3 2.77.65-1.78-1.28-3.28-3.15-4.28a5.39 5.39 0 01-.96-.47 20.42 20.42 0 00-2.09-.82v-1.4a5.57 5.57 0 001.87-1.61 3.15 3.15 0 00.68-2.6l-.02-.09a2.8 2.8 0 00-.16-.5c0-.03-.02-.05-.03-.08a3.52 3.52 0 00-.12-.25l-.06-.1-.09-.15-.08-.11-.09-.11a2.16 2.16 0 00-.16-.2l-.28-.26-.03-.03a2.67 2.67 0 00-.17-.13l-.04-.03a3.54 3.54 0 00-.19-.13h-.01a3.56 3.56 0 00-2.65-.44c-1.09.42-1.88 1.7-1.88 3.2 0 1.43.7 2.65 1.7 3.13l.04.02c-.47.26-.87.41-.96.41l.05.04h.02l.06.04.02.01.1.05h.02l.1.05.02.01.28.1h.04l.13.04h.04a2.48 2.48 0 00.18.04c.37.03.8-.06.8-.06v.8c-.07 0-.64-.18-.8-.34l-.06.01c-.61.1-1.01.3-1.2.84-.17.56.01.75.3 1.14-.25.44-.88.6-.05 1.56-.06.37.02.95.55 1.12.17.06.31.1.46.12.32 0 .8.26.8.91v6.2l.87.09v-6.82a7.8 7.8 0 012.15.55l.03.02.27.06c.65.2 1.06.76.9 1.27-.15.5-.8.74-1.46.54.78 1.49 3.47.76 4.06-.45.28-.02.54.49.78.97 0 0 .67.26 2.34.26 0 0-6.76 4.32-8.72 4.32-.83 0-2.68 0-2.68.63-.51 0-1.25.86-1.25 1.36.48-.38.88-.38.88-.38.4 0 .64.13.64.13-.15.14-.83.9-.83 1.5.57-.57.81-.57.81-.57s.6-.07.8.14c-.14.14-.39.65-.39 1.26 0 0 .35-.68.8-.68v6.49c0 .2-.9.39-1.27.39v.82zm.27-19.63c-.16 0-.24-.22-.24-.3 0-.07.06-.3.22-.3.4-.01 1.19.18 1.2.25 0 .08-.78.33-1.18.35zm-.25-1.08c-.23-.01-.3-.32-.3-.43 0-.1.13-.4.36-.39.55.04 1.6.42 1.6.53 0 .11-1.11.33-1.66.3zm-.1-1.37c-.24-.06-.26-.41-.23-.53.03-.11.22-.4.46-.34.58.15 1.65.78 1.62.89-.03.11-1.27.13-1.85-.02zm1.8-3.86c.1-.24.08-.57.02-.88h-.03c-.7 0-1.27-.57-1.27-1.26a.77.77 0 01.05-.34 1.26 1.26 0 012.48.34c0 .8-.57 1.54-1.25 2.14z" fill="#034694"></path><path d="M46.04 24.72a1.77 1.77 0 003.28-1.07l-.02-.1c-.1.5-.7.93-1.45 1a1.8 1.8 0 01-1.39-.4l-.42.57" fill="#ED1C24"></path><path d="M43.69 21.44l.6.04-.3.42s-.4.12-.3-.46zm-1.46 0h.88s-.03.71.6.78l-.13.22s-1.72-.45-1.35-1z" fill="#FFF"></path><path d="M27.15 27.5c.03-.11-1.04-.74-1.62-.89-.24-.06-.43.23-.46.35-.03.11 0 .46.23.52.58.15 1.82.13 1.85.02zm-.09 1.06c0-.1-1.05-.49-1.6-.53-.23-.02-.35.28-.36.39 0 .1.07.42.3.43.55.04 1.65-.18 1.66-.29zm-1.2-3.2v.4c.15.16.72.34.78.34v-.8s-.42.09-.79.06zm-.23 3.97c-.16 0-.23.23-.22.3 0 .08.08.3.24.3.4-.02 1.18-.27 1.17-.35 0-.07-.8-.26-1.19-.25zm-.81 10.75c-.66.85-.19 1.63-.19 1.63 0-.6.68-1.36.83-1.5 0 0-.23-.13-.64-.13zm2.09 1.8a1.18 1.18 0 001.11 1.4s-.66-.62-.4-1.2a1.3 1.3 0 00-.71-.2zm-1.2-17.33c-1-.48-1.7-1.7-1.7-3.12 0-1.51.8-2.8 1.88-3.2a3.3 3.3 0 00-2.65 3.45 3.32 3.32 0 002.47 2.87zm10.55-3.48c1.05-.2 1.4.74 1.4 1.07 0 1.27-.98 1.78-1.8 1.79 3.8 0 2.46-4.93.4-2.86zM33.7 32c1.82 0 1.7-2.38 1.3-2.77.59-.59 1.79-3.26 1.79-3.76 0 0-2.4-.52-2.02-2.18l-.03-.01c-.65.69-.26 2.13.78 2.49 0 0-.4 1.58-1.39 2.59-.98-.04-2.36-.17-3.58-.64 1.88 1 3.8 2.5 3.15 4.28zm-7.1-11.41c.47-.04.88.3.92.74a.83.83 0 01-.78.88.84.84 0 01-.93-.74c0 .7.57 1.26 1.27 1.26h.03c.06.3.08.64-.02.88.68-.6 1.25-1.34 1.25-2.14a1.26 1.26 0 00-2.48-.34c.11-.3.39-.52.74-.54zm13.4-.92c-.82-.83.4-2.37.84-2.37-.49 0-2.6 1.4-1.89 2.37h1.05zm-10.6 13.7c.66.2 1.31-.05 1.46-.55.16-.5-.25-1.07-.9-1.27a1.66 1.66 0 00-.28-.06c.95.54.94 1.62-.28 1.87zm-1.89-6.94s.93.3 2.09.82c-.24-.14-.45-.3-.65-.49a4.62 4.62 0 00-1.44-1v.67zm.35 12.03c1.96 0 8.72-4.32 8.72-4.32-1.67 0-2.34-.26-2.34-.26-.38.2-1.15.59-2.8 1.56-1.35.79-2.24 1.79-3.47 2.22-.18.07-.33.09-.46.08l-.88-.08v-6.2c0-.66-.47-.92-.79-.92v7.22c-.52.28-.79.63-.93.96 0 0-1-.14-.98 1.73 0-.5.74-1.36 1.25-1.36 0-.63 1.85-.63 2.68-.63zm16.87 9.99c-.5 0-2.77.1-2.97-1.88-.5-.11-1.1-.13-1.7-.05 1.6 3.07 3.34 3.1 3.8 3.12.7.79.47 3.47-.56 3.41-3.75-.2-3.61 2.09-3.2 2.55 0-1.72 1.18-2.13 4.14-2.13 0 0 2.41-3.1.49-5.02zm.77 7.4H45c-.05.82.76 1.06.76 1.06-.26-.26-.45-.87-.26-1.06zM40.76 57c-.22-.21-.4-1.08-.08-1.4h-.56c-.05.9.64 1.4.64 1.4zm11.2-28.52c0-2.62-3.59-2.21-3.77-.2.16-1.47 2.56-1.7 2.56.16 0 1.9-4.48 3.16-4.48 6.39 0 3.56 3.56 3.89 3.2 7.14-.06.56-.66 1.3-1.54 1.3-1.87 0-2.87-.8-3.45-1.92.59 1.6 1.64 2.81 3.82 2.81 2.26 0 2.46-1.67 2.46-2.06 0-3.26-3.4-4.03-3.4-7.12 0-3.02 4.6-4.26 4.6-6.5zM25.45 41.14c0 1 .41 1.4.41 1.4 0-.6.25-1.12.4-1.26-.22-.21-.8-.14-.8-.14zm26-5.55c-.92 0-1.67.7-1.75 1.6.05-.22.19-.43.47-.64 1.04-.78 3.1.79 1.92 2.4a1.74 1.74 0 00-.65-3.36zm-8 20.27h-.62c-.06 1.16.68 1.33.68 1.33-.31-.31-.36-1.04-.07-1.33zM26.2 49.67c-.09 0-.18.02-.26.05-.3.22-.47.57-.46.94.1.31.38.53.72.53a.76.76 0 100-1.52zm4.29 5.63h-.88c-.01 1.42.9 1.67.9 1.67-.25-.26-.58-1.1-.02-1.67zm2.73-8.93c0-3.23 7.74-3.61 7.74-6.27 0-1.09-.93-1.58-1.6-1.58.19.2 1.2 2.36-1.7 2.36-2.6.87-8.3 5.82-4.35 7.53 0 .5-.07 4.2-2.44 3.91-3.42-.42-4.27 1-3.62 2.58 0-2.41 1.7-1.96 3.91-1.96 1.38 0 3.4-1.75 3.4-4.7 0 0-1.34-.51-1.34-1.87zm-6.58 1.98v-6.49c-.44 0-.79.68-.79.68v5.53-.03h-.48v.7c.38 0 1.27-.2 1.27-.4zm1.34 8.36s-.69-1.07.04-1.8h-.77c-.3 1.34.73 1.8.73 1.8zm4.77-1.4h-.64c0 1 1.15 1.38 1.15 1.38-.4-.4-.69-1.2-.51-1.37z" fill="#6A7AB5"></path><path d="M11.23 44.54l-.05-.13-.02-.13c-.06-.47-.17-1.34-.84-1.5a.9.9 0 00-.56.07c.05-.21.04-.4-.02-.57-.25-.64-1.13-.63-1.6-.63h-.13l-.14-.02c-.46-.09-1.32-.25-1.68.34a.9.9 0 00-.12.55.9.9 0 00-.54-.15c-.69.03-.95.87-1.09 1.32l-.04.13-.07.12c-.22.42-.64 1.18-.19 1.7a.9.9 0 00.5.28.9.9 0 00-.32.47c-.18.67.53 1.18.91 1.45l.11.08.1.1c.33.34.93.98 1.56.7.17-.06.3-.19.42-.37.08.2.2.34.35.45.57.37 1.28-.15 1.66-.43l.1-.08.13-.06c.43-.2 1.22-.58 1.16-1.27a.9.9 0 00-.23-.51.9.9 0 00.53-.2c.53-.43.26-1.26.1-1.7" fill="#FFF"></path><path d="M8.2 45.1c3.86 2.28 2.67-.23 2.59-.6-.09-.37-.12-3.14-2.58.6M7.97 45.67c-.98 4.37 1.04 2.47 1.36 2.27.33-.2 2.95-1.08-1.36-2.27M7.35 45.62c-4.46.42-2.03 1.75-1.74 2 .29.24 1.94 2.47 1.74-2M7.2 45.01c-1.77-4.1-2.28-1.38-2.43-1.03-.15.34-1.75 2.6 2.44 1.03" fill="#ED1C24"></path><path d="M70.85 43.94l-.06-.12-.04-.13c-.15-.45-.4-1.29-1.1-1.32a.91.91 0 00-.54.15.92.92 0 00-.11-.55c-.36-.59-1.22-.43-1.68-.34l-.14.02h-.14c-.47 0-1.34-.01-1.6.63a.9.9 0 00-.01.57.9.9 0 00-.56-.06c-.67.15-.79 1.02-.85 1.49l-.02.13-.04.13c-.15.45-.43 1.28.1 1.71a.9.9 0 00.54.2.9.9 0 00-.23.51c-.06.69.73 1.06 1.15 1.27l.13.06.11.08c.38.28 1.08.8 1.66.43a.9.9 0 00.35-.45c.1.18.25.3.42.38.63.27 1.23-.37 1.56-.71l.1-.1.1-.08c.39-.27 1.1-.78.92-1.45a.9.9 0 00-.31-.46.9.9 0 00.48-.29c.46-.52.04-1.28-.19-1.7" fill="#FFF"></path><path d="M67.45 44.7c-3.36-2.97-.61-2.61-.23-2.65.37-.03 3.02-.85.23 2.64M66.98 45.1c-3.85 2.28-2.67-.23-2.58-.6.08-.37.11-3.14 2.58.6M67.22 45.67c.98 4.37-1.04 2.47-1.36 2.27-.33-.2-2.95-1.08 1.36-2.27M67.84 45.62c4.45.42 2.02 1.75 1.74 2-.29.24-1.94 2.47-1.74-2M67.98 45.01c1.78-4.1 2.29-1.38 2.44-1.03.14.34 1.75 2.6-2.44 1.03" fill="#ED1C24"></path><path d="M68.84 45.14l-.02-.1.75-.55-.04-.08-.88.15c-.22-.35-.6-.6-1.01-.63l-.27-.82h-.1l-.12.86a1.33 1.33 0 00-.89.8h-.9l-.01.1.82.4v.1c.03.35.2.67.46.9l-.3.92.08.04.69-.7a1.32 1.32 0 001.04-.09l.79.57.07-.06-.45-.85c.22-.27.32-.61.3-.96" fill="#FFF"></path><path d="M67.44 44.47a.77.77 0 00-.54.28.8.8 0 10.54-.28M7.74 44.7c3.36-2.97.6-2.61.23-2.65-.38-.03-3.02-.85-.23 2.64" fill="#ED1C24"></path><path d="M9.01 45.27l.83-.4-.02-.1h-.9a1.33 1.33 0 00-.89-.8l-.12-.85-.1-.01-.26.82c-.42.04-.8.28-1.01.63l-.88-.15-.04.08.74.55-.02.1c-.03.35.08.69.3.96l-.45.85.07.06.8-.57a1.35 1.35 0 001.03.09l.68.7.08-.04-.3-.92c.27-.23.43-.55.46-.9v-.1" fill="#FFF"></path><path d="M8.28 44.75a.79.79 0 10-1.22 1.02.79.79 0 001.22-1.02" fill="#ED1C24"></path><path d="M8.23 26.07a3.46 3.46 0 10-1.2 6.82 3.46 3.46 0 001.2-6.82" fill="#FFF"></path><path d="M9.01 28.69a5.97 5.97 0 01-.14-.1L8 28.03l-.22-.16a12.24 12.24 0 00-.92-.55 2.71 2.71 0 00-1.02-.3c-.28.2-.53.46-.74.76.86.31 1.7.8 3.45 1.9l.45-1M8.2 30.54l.26-.63a19.1 19.1 0 00-3.48-1.9c-.14.24-.24.5-.3.78.49.67 1.8 1.33 3.53 1.75M8.01 27.71c.67-.4 1.44-.29 2.02-.08a3.04 3.04 0 00-.79-.73c-.56-.1-1.32-.13-1.93.36l.7.45" fill="#ED1C24"></path><path d="M5.34 30.92a3.67 3.67 0 001.2.55c.33.12 1.1.32 1.16.33l.4-1.02c-1.33-.33-2.79-.9-3.48-1.66a3 3 0 00.05 1.02c.14.32.38.57.67.78M7.74 32.08L7.47 32l-.83-.23c.14.3.36.53.6.7.3.05.61.04.9-.01-.2-.17-.4-.4-.4-.4M10.54 28.6c-.07-.21-.15-.41-.26-.6-.52-.23-1.32-.46-2.02-.12l.96.64a4.93 4.93 0 011.32.08M10.04 28.77a5.74 5.74 0 01-1.42 3.58 3.04 3.04 0 001.99-3.47 2.87 2.87 0 00-.57-.1M7.07 27.13c.45-.4.98-.54 1.47-.55a3.23 3.23 0 01-1.48.54" fill="#ED1C24"></path><path d="M9.26 28.77c-.23.48-.37.77-.48 1.04l-.1.24-.22.55-.1.24-.42 1.06c.11.16.26.28.4.38a5.53 5.53 0 001.44-3.52l-.52.01M6.32 31.67a5.57 5.57 0 01-.62-.25c.07.23.18.44.29.61.23.15.48.26.74.35-.17-.2-.32-.43-.4-.7M5.38 31.25a3 3 0 01-.4-.29c.14.25.32.48.52.69a2.5 2.5 0 01-.12-.4" fill="#ED1C24"></path><path d="M63.78 30.08a3.46 3.46 0 106.81-1.21 3.46 3.46 0 00-6.81 1.2" fill="#FFF"></path><path d="M65.8 28.69l.15-.1.85-.56.23-.16a11.21 11.21 0 01.9-.55c.34-.17.65-.27 1.03-.3.29.2.54.46.74.76-.86.31-1.7.8-3.45 1.9l-.45-1M66.6 30.54l-.25-.63a19.02 19.02 0 013.49-1.9c.13.24.23.5.3.78-.5.67-1.81 1.33-3.54 1.75M66.8 27.71c-.67-.4-1.43-.29-2.02-.08.22-.29.48-.54.8-.73.55-.1 1.31-.13 1.92.36l-.7.45" fill="#ED1C24"></path><path d="M69.47 30.92l-.28.17a4.47 4.47 0 01-.91.38c-.34.12-1.1.32-1.17.33l-.4-1.02c1.33-.33 2.79-.9 3.49-1.66.04.35.02.7-.05 1.02-.15.32-.39.57-.68.78M67.07 32.08l.28-.07c.25-.07.54-.14.82-.23-.14.3-.36.53-.59.7-.31.05-.62.04-.91-.01.2-.17.4-.4.4-.4M64.28 28.6c.06-.21.14-.41.25-.6.52-.23 1.32-.46 2.02-.12l-.96.64a4.94 4.94 0 00-1.31.08M64.77 28.77a5.73 5.73 0 001.42 3.58 3.04 3.04 0 01-1.99-3.47c.16-.05.35-.09.57-.1M67.75 27.13c-.46-.4-.99-.54-1.48-.55l.38-.1c.7-.12 1.4.01 1.97.33-.3.06-.59.17-.87.32" fill="#ED1C24"></path><path d="M65.55 28.77c.23.48.37.77.48 1.04l.1.24.22.55.1.24.43 1.06c-.12.16-.26.28-.4.38a5.52 5.52 0 01-1.45-3.52l.52.01M68.49 31.67c.21-.07.42-.15.63-.25-.08.23-.19.44-.3.61-.22.15-.47.26-.74.35.17-.2.32-.43.41-.7M69.43 31.25c.14-.09.28-.18.4-.29-.14.25-.32.48-.52.69.05-.13.09-.26.12-.4" fill="#ED1C24"></path></g></svg>