<svg fill="none" xmlns="http://www.w3.org/2000/svg" viewBox="0 0 76 100" class="MatchCard_vsLogo__n3cmr"><path d="M73.49 4.7C73.37 4.69 56.94 0 37.74 0h-.34C18.2 0 1.77 4.68 1.65 4.7A2.27 2.27 0 000 6.9v52.44l.04.42c.05.35 5.1 26.22 36.61 40.05a2.3 2.3 0 001.84 0c31.5-13.83 36.56-39.7 36.6-40.05l.05-.42V6.9c0-1.02-.68-1.91-1.65-2.2z" fill="#fff"></path><path d="M73.12 5.98c-.05-.02-16.62-4.63-35.55-4.66-18.93.03-35.5 4.64-35.55 4.66a.95.95 0 00-.7.92v52.44l.02.18c.01.14 4.9 25.5 35.85 39.08a.96.96 0 00.76 0C68.91 85.02 73.8 59.66 73.8 59.52l.02-.18V6.9c0-.43-.28-.81-.7-.92z" fill="#000"></path><path d="M37.57 3.23c-7.8.01-15.18.82-21.16 1.75V82.1a66.34 66.34 0 0021.16 14.58A66.34 66.34 0 0058.73 82.1V4.98a140.47 140.47 0 00-21.16-1.75z" fill="#fff"></path><path d="M27.22 74.62a13.76 13.76 0 01-4.26-9.85c0-4.14 1.9-8.28 5.2-11.57a17.44 17.44 0 018.89-4.93l-4.5-4.5-7.57 7.57H25l-.7.7-.26.24a1.1 1.1 0 01-.7.26c-.33.03-.67-.15-.9-.4l-2.46-2.5a1.11 1.11 0 01-.12-1.62l17.07-17.05-3.76-3.76-7.57 7.57h.01l-.7.7-.25.24a1.1 1.1 0 01-.7.26c-.33.03-.67-.15-.9-.4l-2.46-2.5a1.1 1.1 0 01-.11-1.62L39.55 12.4a2.15 2.15 0 013.07-.01L55.3 25.08c.14.16.27.42.27.7.02.33-.15.67-.4.9l-.12.11-.3.28-.88.88-1.28 1.28-.3.28L41.6 18.8l-4.87 4.87 17.96 17.97c.14.16.27.42.27.7.02.33-.15.67-.4.9l-2.87 2.84-10.71-10.72-4.87 4.87 8.84 8.85c1.64.7 3.2 1.75 4.64 3.18 2.76 2.8 4.33 6.16 4.33 9.51 0 2.43-.83 4.84-2.58 6.97l-.29.35-4.18-4.19.16-.27a7.95 7.95 0 001.23-4.02c0-1.6-.63-3.21-2.22-4.8a7.54 7.54 0 00-5.46-2.4c-2.87 0-5.85 1.64-8.2 4-2.36 2.35-4 5.33-4 8.2 0 1.9.7 3.76 2.4 5.46a6.5 6.5 0 004.68 2.06c1.87 0 3.8-.81 5.52-2.23l.28-.23 4.12 4.12-.32.28a13.18 13.18 0 01-8.75 3.54c-3.22 0-6.43-1.34-9.08-3.99z" fill="#000"></path><path d="M38.76 48.83l-.81.11c-3.3.46-6.54 2.15-9.22 4.83-3.17 3.16-4.95 7.1-4.95 11 0 3.26 1.24 6.5 4.01 9.28a11.99 11.99 0 008.51 3.74c2.72 0 5.46-1.01 7.88-3.04l-2.98-2.99a9.49 9.49 0 01-5.75 2.18c-1.85 0-3.69-.71-5.26-2.29a8.35 8.35 0 01-2.63-6.03c0-3.19 1.78-6.33 4.23-8.79 2.46-2.45 5.6-4.22 8.78-4.23 2.1 0 4.2.8 6.04 2.63 1.7 1.7 2.46 3.55 2.46 5.38a8.6 8.6 0 01-1.2 4.16l3.1 3.1a9.94 9.94 0 002.12-6.1c0-3.1-1.45-6.26-4.09-8.93a13.96 13.96 0 00-4.45-3.05l-.08-.03-9.52-9.53 6.02-6.02 10.71 10.72 2.3-2.27c.19-.23.13-.14.16-.31 0-.09-.01-.1-.06-.17L35.57 23.67l6.02-6.02L52.3 28.37c.62-.62 2.05-2.05 2.3-2.28.19-.22.14-.13.16-.3 0-.09-.01-.1-.06-.17L42.03 12.96c-.24-.25-.55-.4-.93-.4s-.72.16-.96.41L21.09 32.01c-.08.1-.08.11-.09.2.02.16-.03.07.18.3l2.47 2.5c.22.2.13.14.3.16.08 0 .1 0 .17-.06l.19-.18.01-.02.01-.01.03-.03.07-.07.27-.28.97-.97 2.94-2.93 4.28-4.27.28-.28 4.91 4.9-17.61 17.6c-.07.1-.08.11-.09.2.03.16-.03.07.18.3l2.47 2.5c.22.19.13.14.3.16.09 0 .1 0 .17-.06l.2-.2h.01l.03-.03.07-.08.27-.27.97-.97L28 47.18l4.28-4.27.28-.28 5.63 5.62-.29.3.3-.3.57.58z" fill="#C00"></path></svg>