<svg xmlns="http://www.w3.org/2000/svg" viewBox="0 0 24 24" class="Footer_socialIcon__FxYFX">
    <path fill-rule="evenodd" clip-rule="evenodd"
        d="M12 8a4 4 0 110 8 4 4 0 010-8zm0-2.16a6.16 6.16 0 100 12.32 6.16 6.16 0 000-12.32zm6.4-1.68a1.44 1.44 0 100 2.87 1.44 1.44 0 000-2.87zm-7.48-2H12c3.2 0 3.59.01 4.85.07 1.17.05 1.8.25 2.23.41.56.22.96.48 1.38.9.42.42.68.82.9 1.38.16.42.36 1.06.41 2.23.06 1.26.07 1.64.07 4.85 0 3.2-.01 3.58-.07 4.84a6.58 6.58 0 01-.42 2.23 3.7 3.7 0 01-.9 1.38c-.41.42-.81.68-1.37.9-.42.16-1.06.36-2.23.41-1.26.06-1.64.07-4.85.07-3.2 0-3.58-.01-4.85-.07a6.68 6.68 0 01-2.23-.41 3.73 3.73 0 01-1.38-.9 3.72 3.72 0 01-.9-1.38 6.58 6.58 0 01-.4-2.23A84.38 84.38 0 012.15 12c0-3.2.02-3.58.07-4.84.06-1.17.25-1.8.42-2.23.21-.56.47-.96.9-1.38.41-.42.81-.68 1.37-.9a6.64 6.64 0 012.23-.41c1.1-.05 1.54-.07 3.77-.07zM12 0C8.74 0 8.33.01 7.05.07a8.8 8.8 0 00-2.9.56c-.8.3-1.47.72-2.14 1.38A5.9 5.9 0 00.63 4.14c-.3.76-.5 1.64-.56 2.91A86.62 86.62 0 000 12c0 3.26.01 3.67.07 4.95.06 1.27.26 2.15.56 2.9.3.8.72 1.47 1.38 2.14a5.87 5.87 0 002.13 1.38c.76.3 1.64.5 2.91.56 1.28.05 1.7.07 4.95.07 3.26 0 3.67-.02 4.95-.07a8.81 8.81 0 002.91-.56c.8-.3 1.46-.72 2.12-1.38a5.88 5.88 0 001.39-2.13c.3-.76.5-1.64.56-2.91.05-1.28.07-1.7.07-4.95 0-3.26-.02-3.67-.07-4.95a8.91 8.91 0 00-.56-2.91 5.87 5.87 0 00-1.39-2.13A5.84 5.84 0 0019.86.63c-.77-.3-1.64-.5-2.91-.56A85.13 85.13 0 0012 0z"
        fill="#6CADDF"></path>
</svg>