<svg width="93" height="93" fill="none" xmlns="http://www.w3.org/2000/svg" class="IconWithText_icon__3zIqb">
    <path
        d="M86.213 50.66V39.446a6.214 6.214 0 00-6.214-6.214h-9.193a6.214 6.214 0 016.214 6.214V50.66a8.693 8.693 0 000 17.294V79.17a6.214 6.214 0 01-6.214 6.214H80a6.214 6.214 0 006.214-6.214V67.954a8.693 8.693 0 010-17.294z"
        fill="#6CADDF"></path>
    <path d="M72.96 10.253L69.403 8.15l-23.47 39.695 9.128 5.396 20.176-34.125a6.47 6.47 0 00-2.277-8.863z"
        fill="#6CADDF"></path>
    <path
        d="M86.367 52.184a1.532 1.532 0 001.377-1.524V39.446A7.755 7.755 0 0080 31.7H69.576l6.98-11.805a8.012 8.012 0 00-2.816-10.96l-7.638-4.518a8.011 8.011 0 00-10.96 2.814L40.674 31.7H12.757a7.755 7.755 0 00-7.746 7.746V50.66c0 .787.595 1.445 1.378 1.524a7.16 7.16 0 010 14.246 1.532 1.532 0 00-1.378 1.524V79.17a7.755 7.755 0 007.746 7.746H80a7.755 7.755 0 007.746-7.746V67.954c0-.786-.596-1.444-1.378-1.524a7.16 7.16 0 010-14.246zM57.777 8.793a4.945 4.945 0 016.765-1.738l7.638 4.516a4.945 4.945 0 011.738 6.765L53.742 52.461l-10.165 5.611-5.993-3.543.017-11.61L57.777 8.793zM84.68 69.245v9.924A4.687 4.687 0 0180 83.851H12.757a4.687 4.687 0 01-4.682-4.682v-9.924a10.229 10.229 0 000-19.875v-9.924a4.687 4.687 0 014.682-4.682h26.106l-4.112 6.955c-.14.235-.213.504-.213.778l-.026 18.016a3.567 3.567 0 005.3 3.136l15.776-8.707c.24-.132.44-.326.578-.562l11.599-19.616h12.234a4.687 4.687 0 014.681 4.681v9.925a10.229 10.229 0 000 19.875zm-12.598 3.57c0 .846-.686 1.532-1.532 1.532H22.206a1.532 1.532 0 010-3.064H70.55c.846 0 1.532.686 1.532 1.532z"
        fill="#000000"></path>
</svg>