<svg fill="none" xmlns="http://www.w3.org/2000/svg" viewBox="0 0 52 55" class="SubscriptionPlanTile_planImage__2unEL"><g clip-path="url(#clip0)"><path fill-rule="evenodd" clip-rule="evenodd" d="M2.33 22.62L33 1.4h2.34l4 6.07L38.06 12l2.52 2.9h4.88l3.76 7-3.36 4.47.8 9.23-3.48 2.72 1.87 6.1 1.93.38-.8 7.8-6.98 1-31.51.23-2.9-2.6-.2-6.04 4.6-4.9-.9-3.62-3.69-1.33-.02-5.22-2.26-7.5z" fill="#fff"></path><path d="M10.26 50.32v-5.3c0-.33.22-.63.54-.7a4.59 4.59 0 000-8.96.72.72 0 01-.54-.7v-5.3a3.28 3.28 0 013.28-3.28H8.68c-.29 0-.58.04-.86.12l-1.45-2.06a3.28 3.28 0 01.8-4.57L3.2 22.35a3.28 3.28 0 00-.8 4.57l3 4.29v4.07a4.59 4.59 0 010 9.12v5.92a3.28 3.28 0 003.28 3.28h4.86a3.28 3.28 0 01-3.28-3.28z" fill="#c61d23"></path><path d="M50.02 19.17l-3.4-4.85a1.4 1.4 0 00-1.83-.42 3.19 3.19 0 01-3.64-5.2 1.4 1.4 0 00.24-1.85L37.99 2A4.68 4.68 0 0031.48.85L2.4 21.2a4.68 4.68 0 00-1.15 6.51l2.76 3.93v3.63c0 .71.54 1.31 1.25 1.39a3.19 3.19 0 010 6.34 1.4 1.4 0 00-1.25 1.4v5.91C4 52.91 6.1 55 8.68 55h35.5c2.58 0 4.67-2.1 4.67-4.68V44.4a1.4 1.4 0 00-1.25-1.39 3.19 3.19 0 010-6.34 1.4 1.4 0 001.25-1.4v-5.92c0-1.06-.37-2.1-1.05-2.92l1.07-.74a4.68 4.68 0 001.15-6.52zm-3.96 14.98a6 6 0 000 11.38v4.8c0 1.03-.85 1.87-1.88 1.87H8.68a1.88 1.88 0 01-1.88-1.88v-4.79a6 6 0 000-11.38v-4.8c0-1.03.84-1.87 1.88-1.88h35.5c1.03 0 1.88.85 1.88 1.88v4.8zm1.2-10.75l-2.02 1.41c-.35-.08-.7-.13-1.06-.13h-14l-1.57-1.45a.54.54 0 01-.16-.52l.54-2.24a.54.54 0 00-.8-.6l-2 1.14c-.17.1-.38.1-.54-.01l-1.97-1.2a.54.54 0 00-.81.56l.46 2.26c.04.2-.03.39-.18.52l-1.75 1.5c-.02 0-.02.02-.03.04H8.68a4.67 4.67 0 00-4.23 2.72l-.9-1.28c-.6-.86-.4-2.03.46-2.62L33.08 3.14a1.88 1.88 0 012.62.46l2.75 3.93a6 6 0 006.53 9.32l2.75 3.93c.6.85.39 2.02-.46 2.62zM30.9 39.32l-1.73 1.53a.54.54 0 00-.17.52l.5 2.25a.54.54 0 01-.8.58l-1.99-1.17a.54.54 0 00-.55 0l-1.98 1.17a.54.54 0 01-.8-.58l.5-2.25a.54.54 0 00-.17-.52l-1.73-1.53a.54.54 0 01.3-.94l2.3-.22c.2-.02.37-.14.45-.32l.91-2.12a.54.54 0 011 0l.91 2.12c.08.18.25.3.44.32l2.3.22a.54.54 0 01.3.94z" fill="#000000"></path></g><defs><clipPath id="clip0"><path fill="#fff" d="M0 0h51.27v55H0z"></path></clipPath></defs></svg>