<svg fill="none" xmlns="http://www.w3.org/2000/svg" viewBox="0 0 129 55" class="SubscriptionPlanTile_planImage__2unEL"><path fill-rule="evenodd" clip-rule="evenodd" d="M25.96 8.78V51.8l59.8.64 1.85-2.9v-2.19L102.87 44l-1.3-7.34L96.8 33l.77-5.5 2.31-1.4-2.31-7.81-8.9.99 2.47-4.7-3.53-7.66h-1.84L84.2 3.2H44.27l-1.1 5.07-17.21.5z" fill="#fff"></path><path d="M50.56 49.94v-5.21a.7.7 0 01.54-.7 4.51 4.51 0 000-8.8.7.7 0 01-.54-.7v-5.2a3.23 3.23 0 013.23-3.23h-4.77c-.8 0-1.59.3-2.18.86l-1.66-2.3a3.22 3.22 0 01.71-4.5l-3.86 2.8a3.22 3.22 0 00-.71 4.5l1.77 2.44 2.7 3.73v1.52a4.51 4.51 0 010 8.97v5.82a3.23 3.23 0 003.23 3.23h4.77a3.23 3.23 0 01-3.23-3.23z" fill="#be1b21"></path><path d="M104.22 40.92l-1.21-5.7a1.38 1.38 0 00-1.5-1.08 3.14 3.14 0 01-1.3-6.1c.68-.22 1.08-.9.93-1.6l-1.2-5.69a4.6 4.6 0 00-5.46-3.54l-3.78.8c.16-.92.72-1.72 1.53-2.18.6-.35.86-1.1.57-1.75l-2.37-5.32a4.53 4.53 0 00-4.1-2.71V4.58c0-1.77-1.43-3.2-3.2-3.2h-8.25a4.54 4.54 0 00-5.42-.04l-.05.03H45.45a3.21 3.21 0 00-3.21 3.21v1.84c0 .15.02.3.04.46H27.22a3.21 3.21 0 00-3.2 3.2v1.84c0 .65.2 1.3.57 1.83a3.2 3.2 0 00-.58 1.83v1.84c0 .65.2 1.3.58 1.83a3.2 3.2 0 00-.58 1.83v1.84c0 .65.2 1.3.58 1.83a3.19 3.19 0 00-.58 1.83v1.84c0 .65.2 1.3.58 1.83a3.19 3.19 0 00-.58 1.83v1.84c0 .65.2 1.3.58 1.83a3.19 3.19 0 00-.58 1.83v1.84c0 .65.2 1.3.58 1.83a3.19 3.19 0 00-.58 1.83v1.84c0 .65.2 1.3.58 1.83a3.19 3.19 0 00-.58 1.83v1.84c0 1.77 1.44 3.2 3.21 3.2H46.3c.79.6 1.74.92 2.73.92h34.9a4.6 4.6 0 004.6-4.6v-.98l12.16-2.59a4.6 4.6 0 003.54-5.45zM87.92 9.88l1.92 4.3a5.85 5.85 0 00-1.93 4.42l-27.57 5.86c-.29.06-.56.15-.83.26h-7c.03-.69.45-1.3 1.08-1.58l31.89-14.2a1.85 1.85 0 012.44.94zm-4.33-5.3v2.2l-3.4 1.5-3.02-4.16h5.96c.25 0 .46.21.46.46zM72.45 3.23c.49.08.92.34 1.2.74l3.97 5.46-25.15 11.2a4.6 4.6 0 00-2.71 4.1h-.74a4.6 4.6 0 00-4.6 4.6v.06l-1.99-2.73c-.6-.83-.42-1.98.4-2.58L71.09 3.56c.4-.29.89-.4 1.37-.33zM45 4.58c0-.25.2-.46.46-.46h20.17l-3.84 2.8c-.1-.03-.21-.04-.32-.04H45.45a.46.46 0 01-.46-.46V4.58zM26.76 50.42v-1.84c0-.25.2-.45.46-.45a1.37 1.37 0 100-2.76.46.46 0 01-.46-.45v-1.84c0-.25.2-.45.46-.45a1.37 1.37 0 100-2.76.46.46 0 01-.46-.45v-1.84c0-.25.2-.45.46-.45a1.37 1.37 0 100-2.76.46.46 0 01-.46-.45v-1.84c0-.25.2-.45.46-.45a1.37 1.37 0 100-2.75.46.46 0 01-.46-.46v-1.84c0-.25.2-.45.46-.45a1.37 1.37 0 100-2.75.46.46 0 01-.46-.46v-1.84c0-.25.2-.45.46-.46a1.37 1.37 0 100-2.75.46.46 0 01-.46-.45v-1.84c0-.25.2-.45.46-.46a1.37 1.37 0 100-2.75.46.46 0 01-.46-.45v-1.84c0-.25.2-.45.46-.45h30.83L41.22 21.85a4.6 4.6 0 00-1.01 6.43l3.42 4.7c.2.27.47.45.79.53v1.63c0 .71.53 1.3 1.23 1.37a3.14 3.14 0 010 6.24c-.7.07-1.23.67-1.23 1.37v5.82c0 .32.03.63.1.94h-17.3a.46.46 0 01-.46-.46zm59-.48c0 1.02-.82 1.85-1.84 1.85h-34.9a1.85 1.85 0 01-1.85-1.85v-4.71a5.9 5.9 0 000-11.2v-4.7c0-1.03.83-1.85 1.85-1.86h34.9c1.02 0 1.85.83 1.85 1.85v4.72a5.9 5.9 0 000 11.19v4.71zm15.51-7.06c-.27.41-.69.7-1.17.8l-11.58 2.47v-2.03c0-.7-.54-1.3-1.24-1.37a3.14 3.14 0 010-6.24c.7-.07 1.24-.66 1.24-1.37v-5.82a4.6 4.6 0 00-4.6-4.6H72.34l22.7-4.82c1-.22 1.99.42 2.2 1.42l.98 4.61a5.9 5.9 0 002.33 10.95l.98 4.6c.1.49 0 .99-.26 1.4z" fill="#000000"></path><path d="M70.55 38.2l-2.26-.21a.53.53 0 01-.43-.32l-.9-2.08a.53.53 0 00-.98 0l-.9 2.08a.53.53 0 01-.44.32l-2.25.2a.53.53 0 00-.3.93l1.7 1.5c.14.13.2.33.16.52l-.5 2.21a.53.53 0 00.8.57l1.95-1.15c.16-.1.37-.1.54 0l1.95 1.15a.53.53 0 00.79-.57l-.5-2.21a.53.53 0 01.17-.52l1.7-1.5a.53.53 0 00-.3-.92z" fill="#000000"></path></svg>